# File generated by ImageToStl.com - Free Image and 3D model conversion tools

mtllib arch_fragment.mtl

o obj1
v -0.5 -0.5 1.5
v 0.5 -0.5 0.5
v 0.5 -0.5 1.5
v -0.5 -0.5 0.5
v -0.5 0.5 0.5
v 0.5 0.5 1.5
v 0.5 0.5 0.5
v -0.5 0.5 1.5
v -0.5 -0.5 0.5
v 0.5 0.5 0.5
v 0.5 -0.5 0.5
v -0.5 0.5 0.5
v -0.5 -0.5 1.5
v 0.5 -0.5 1.5
v 0.5 0.5 1.5
v -0.5 0.5 1.5
v -0.5 0.5 0.5
v -0.5 -0.5 0.5
v 0.5 -0.5 0.5
v 0.5 0.5 0.5
v 0.5 -0.5 1.5
v 1.5 -0.5 0.5
v 1.5 -0.5 1.5
v 0.5 -0.5 0.5
v 0.5 0.5 0.5
v 1.5 0.5 1.5
v 1.5 0.5 0.5
v 0.5 0.5 1.5
v 1.5 0.5 0.5
v 1.5 -0.5 0.5
v 0.5 -0.5 1.5
v 1.5 -0.5 1.5
v 1.5 0.5 1.5
v 0.5 0.5 1.5
v 1.5 -0.5 0.5
v 1.5 0.5 0.5
v 0.5 0.5 1.5
v 1.5 0.5 0.5
v 1.5 0.5 1.5
v 0.5 0.5 0.5
v 0.5 1.5 0.5
v 1.5 1.5 1.5
v 1.5 1.5 0.5
v 0.5 1.5 1.5
v 0.5 0.5 0.5
v 1.5 1.5 0.5
v 1.5 0.5 0.5
v 0.5 1.5 0.5
v 0.5 0.5 1.5
v 1.5 0.5 1.5
v 1.5 1.5 1.5
v 0.5 1.5 1.5
v 0.5 0.5 1.5
v 0.5 1.5 1.5
v 0.5 1.5 1.5
v 1.5 1.5 0.5
v 1.5 1.5 1.5
v 0.5 1.5 0.5
v 0.5 2.5 0.5
v 1.5 2.5 1.5
v 1.5 2.5 0.5
v 0.5 2.5 1.5
v 0.5 1.5 0.5
v 1.5 2.5 0.5
v 1.5 1.5 0.5
v 0.5 2.5 0.5
v 0.5 1.5 1.5
v 1.5 1.5 1.5
v 1.5 2.5 1.5
v 0.5 2.5 1.5
v 0.5 2.5 0.5
v 1.5 1.5 0.5
v 1.5 2.5 0.5
v 0.5 2.5 1.5
v 1.5 2.5 0.5
v 1.5 2.5 1.5
v 0.5 2.5 0.5
v 0.5 3.5 0.5
v 1.5 3.5 1.5
v 1.5 3.5 0.5
v 0.5 3.5 1.5
v 0.5 2.5 0.5
v 1.5 3.5 0.5
v 1.5 2.5 0.5
v 0.5 3.5 0.5
v 0.5 2.5 1.5
v 1.5 2.5 1.5
v 1.5 3.5 1.5
v 0.5 3.5 1.5
v 0.5 2.5 1.5
v 0.5 3.5 1.5
v 0.5 3.5 1.5
v 1.5 3.5 0.5
v 1.5 3.5 1.5
v 0.5 3.5 0.5
v 0.5 4.5 0.5
v 1.5 4.5 1.5
v 1.5 4.5 0.5
v 0.5 4.5 1.5
v 0.5 3.5 0.5
v 1.5 4.5 0.5
v 1.5 3.5 0.5
v 0.5 4.5 0.5
v 0.5 3.5 1.5
v 1.5 3.5 1.5
v 1.5 4.5 1.5
v 0.5 4.5 1.5
v 0.5 4.5 0.5
v 0.5 3.5 0.5
v 1.5 3.5 0.5
v 1.5 4.5 0.5
v 0.5 4.5 1.5
v 1.5 4.5 0.5
v 1.5 4.5 1.5
v 0.5 4.5 0.5
v 0.5 5.5 0.5
v 1.5 5.5 1.5
v 1.5 5.5 0.5
v 0.5 5.5 1.5
v 0.5 4.5 1.5
v 1.5 4.5 1.5
v 1.5 5.5 1.5
v 0.5 5.5 1.5
v 0.5 5.5 0.5
v 0.5 4.5 0.5
v 1.5 4.5 0.5
v 1.5 5.5 0.5
v 0.5 5.5 1.5
v 1.5 5.5 0.5
v 1.5 5.5 1.5
v 0.5 5.5 0.5
v 0.5 6.5 0.5
v 1.5 6.5 1.5
v 1.5 6.5 0.5
v 0.5 6.5 1.5
v 0.5 5.5 0.5
v 1.5 6.5 0.5
v 1.5 5.5 0.5
v 0.5 6.5 0.5
v 0.5 5.5 1.5
v 1.5 5.5 1.5
v 1.5 6.5 1.5
v 0.5 6.5 1.5
v 0.5 6.5 0.5
v 0.5 5.5 0.5
v 1.5 5.5 0.5
v 1.5 6.5 0.5
v 0.5 6.5 1.5
v 1.5 6.5 0.5
v 1.5 6.5 1.5
v 0.5 6.5 0.5
v 0.5 7.5 0.5
v 1.5 7.5 1.5
v 1.5 7.5 0.5
v 0.5 7.5 1.5
v 0.5 6.5 0.5
v 1.5 7.5 0.5
v 1.5 6.5 0.5
v 0.5 7.5 0.5
v 0.5 6.5 1.5
v 1.5 6.5 1.5
v 1.5 7.5 1.5
v 0.5 7.5 1.5
v 0.5 7.5 0.5
v 1.5 6.5 0.5
v 1.5 7.5 0.5
v 0.5 7.5 1.5
v 1.5 7.5 0.5
v 1.5 7.5 1.5
v 0.5 7.5 0.5
v 0.5 8.5 0.5
v 1.5 8.5 1.5
v 1.5 8.5 0.5
v 0.5 8.5 1.5
v 0.5 7.5 0.5
v 1.5 8.5 0.5
v 1.5 7.5 0.5
v 0.5 8.5 0.5
v 0.5 7.5 1.5
v 1.5 7.5 1.5
v 1.5 8.5 1.5
v 0.5 8.5 1.5
v 0.5 8.5 0.5
v 0.5 7.5 0.5
v 1.5 7.5 0.5
v 1.5 8.5 0.5
v 0.5 8.5 1.5
v 1.5 8.5 0.5
v 1.5 8.5 1.5
v 0.5 8.5 0.5
v 0.5 9.5 0.5
v 1.5 9.5 1.5
v 1.5 9.5 0.5
v 0.5 9.5 1.5
v 0.5 8.5 0.5
v 1.5 9.5 0.5
v 1.5 8.5 0.5
v 0.5 9.5 0.5
v 0.5 8.5 1.5
v 1.5 8.5 1.5
v 1.5 9.5 1.5
v 0.5 9.5 1.5
v 0.5 9.5 0.5
v 0.5 8.5 0.5
v 1.5 8.5 0.5
v 1.5 9.5 0.5
v 1.5 -0.5 0.5
v 2.5 -0.5 -0.5
v 2.5 -0.5 0.5
v 1.5 -0.5 -0.5
v 1.5 0.5 -0.5
v 2.5 0.5 0.5
v 2.5 0.5 -0.5
v 1.5 0.5 0.5
v 1.5 -0.5 -0.5
v 2.5 0.5 -0.5
v 2.5 -0.5 -0.5
v 1.5 0.5 -0.5
v 2.5 -0.5 0.5
v 2.5 0.5 0.5
v 1.5 0.5 -0.5
v 1.5 -0.5 -0.5
v 2.5 -0.5 -0.5
v 2.5 0.5 -0.5
v 1.5 -0.5 1.5
v 2.5 -0.5 0.5
v 2.5 -0.5 1.5
v 1.5 -0.5 0.5
v 1.5 0.5 0.5
v 2.5 0.5 1.5
v 2.5 0.5 0.5
v 1.5 0.5 1.5
v 1.5 -0.5 1.5
v 2.5 -0.5 1.5
v 2.5 0.5 1.5
v 1.5 0.5 1.5
v 2.5 -0.5 0.5
v 2.5 0.5 0.5
v 1.5 0.5 1.5
v 2.5 0.5 0.5
v 2.5 0.5 1.5
v 2.5 1.5 1.5
v 2.5 1.5 0.5
v 1.5 1.5 1.5
v 2.5 1.5 0.5
v 2.5 0.5 0.5
v 1.5 0.5 1.5
v 2.5 0.5 1.5
v 2.5 1.5 1.5
v 1.5 1.5 1.5
v 1.5 1.5 1.5
v 2.5 1.5 0.5
v 2.5 1.5 1.5
v 1.5 2.5 0.5
v 2.5 2.5 1.5
v 2.5 2.5 0.5
v 1.5 2.5 1.5
v 2.5 2.5 0.5
v 2.5 1.5 0.5
v 1.5 1.5 1.5
v 2.5 1.5 1.5
v 2.5 2.5 1.5
v 1.5 2.5 1.5
v 2.5 1.5 0.5
v 2.5 2.5 0.5
v 2.5 2.5 0.5
v 2.5 2.5 1.5
v 1.5 2.5 0.5
v 1.5 3.5 0.5
v 2.5 3.5 1.5
v 2.5 3.5 0.5
v 1.5 3.5 1.5
v 1.5 2.5 0.5
v 2.5 3.5 0.5
v 2.5 2.5 0.5
v 1.5 3.5 0.5
v 1.5 2.5 1.5
v 2.5 2.5 1.5
v 2.5 3.5 1.5
v 1.5 3.5 1.5
v 1.5 3.5 0.5
v 2.5 2.5 0.5
v 2.5 3.5 0.5
v 1.5 3.5 1.5
v 2.5 3.5 0.5
v 2.5 3.5 1.5
v 1.5 3.5 0.5
v 1.5 4.5 0.5
v 2.5 4.5 1.5
v 2.5 4.5 0.5
v 1.5 4.5 1.5
v 1.5 3.5 0.5
v 2.5 4.5 0.5
v 2.5 3.5 0.5
v 1.5 4.5 0.5
v 1.5 3.5 1.5
v 2.5 3.5 1.5
v 2.5 4.5 1.5
v 1.5 4.5 1.5
v 1.5 4.5 0.5
v 2.5 3.5 0.5
v 2.5 4.5 0.5
v 1.5 4.5 1.5
v 2.5 4.5 0.5
v 2.5 4.5 1.5
v 1.5 4.5 0.5
v 1.5 5.5 0.5
v 2.5 5.5 1.5
v 2.5 5.5 0.5
v 1.5 5.5 1.5
v 1.5 4.5 0.5
v 2.5 5.5 0.5
v 2.5 4.5 0.5
v 1.5 5.5 0.5
v 1.5 4.5 1.5
v 2.5 4.5 1.5
v 2.5 5.5 1.5
v 1.5 5.5 1.5
v 1.5 5.5 0.5
v 2.5 4.5 0.5
v 2.5 5.5 0.5
v 1.5 5.5 1.5
v 2.5 5.5 0.5
v 2.5 5.5 1.5
v 1.5 5.5 0.5
v 1.5 6.5 0.5
v 2.5 6.5 1.5
v 2.5 6.5 0.5
v 1.5 6.5 1.5
v 1.5 5.5 0.5
v 2.5 6.5 0.5
v 2.5 5.5 0.5
v 1.5 6.5 0.5
v 1.5 5.5 1.5
v 2.5 5.5 1.5
v 2.5 6.5 1.5
v 1.5 6.5 1.5
v 1.5 5.5 1.5
v 1.5 6.5 1.5
v 2.5 6.5 0.5
v 2.5 6.5 1.5
v 1.5 7.5 0.5
v 2.5 7.5 1.5
v 2.5 7.5 0.5
v 1.5 7.5 1.5
v 1.5 6.5 0.5
v 2.5 7.5 0.5
v 2.5 6.5 0.5
v 1.5 7.5 0.5
v 1.5 6.5 1.5
v 2.5 6.5 1.5
v 2.5 7.5 1.5
v 1.5 7.5 1.5
v 1.5 7.5 0.5
v 1.5 6.5 0.5
v 2.5 6.5 0.5
v 2.5 7.5 0.5
v 1.5 8.5 1.5
v 2.5 8.5 0.5
v 2.5 8.5 1.5
v 1.5 8.5 0.5
v 1.5 9.5 0.5
v 2.5 9.5 1.5
v 2.5 9.5 0.5
v 1.5 9.5 1.5
v 1.5 8.5 1.5
v 2.5 8.5 1.5
v 2.5 9.5 1.5
v 1.5 9.5 1.5
v 2.5 8.5 0.5
v 2.5 9.5 0.5
v 2.5 -0.5 0.5
v 3.5 -0.5 -0.5
v 3.5 -0.5 0.5
v 2.5 -0.5 -0.5
v 2.5 0.5 -0.5
v 3.5 0.5 0.5
v 3.5 0.5 -0.5
v 2.5 0.5 0.5
v 3.5 0.5 -0.5
v 3.5 -0.5 -0.5
v 3.5 -0.5 0.5
v 3.5 0.5 0.5
v 3.5 -0.5 -0.5
v 3.5 0.5 -0.5
v 2.5 -0.5 1.5
v 3.5 -0.5 0.5
v 3.5 -0.5 1.5
v 2.5 -0.5 0.5
v 2.5 0.5 0.5
v 3.5 0.5 1.5
v 3.5 0.5 0.5
v 2.5 0.5 1.5
v 2.5 -0.5 1.5
v 3.5 -0.5 1.5
v 3.5 0.5 1.5
v 2.5 0.5 1.5
v 3.5 -0.5 0.5
v 3.5 0.5 0.5
v 2.5 0.5 1.5
v 3.5 0.5 1.5
v 2.5 1.5 0.5
v 3.5 1.5 1.5
v 3.5 1.5 0.5
v 2.5 1.5 1.5
v 2.5 0.5 0.5
v 3.5 1.5 0.5
v 3.5 0.5 0.5
v 2.5 1.5 0.5
v 2.5 0.5 1.5
v 3.5 0.5 1.5
v 3.5 1.5 1.5
v 2.5 1.5 1.5
v 2.5 1.5 0.5
v 2.5 0.5 0.5
v 3.5 0.5 0.5
v 3.5 1.5 0.5
v 3.5 1.5 0.5
v 3.5 1.5 1.5
v 2.5 2.5 0.5
v 3.5 2.5 1.5
v 3.5 2.5 0.5
v 2.5 2.5 1.5
v 2.5 1.5 0.5
v 3.5 2.5 0.5
v 3.5 1.5 0.5
v 2.5 2.5 0.5
v 2.5 1.5 1.5
v 3.5 1.5 1.5
v 3.5 2.5 1.5
v 2.5 2.5 1.5
v 2.5 2.5 0.5
v 2.5 1.5 0.5
v 3.5 1.5 0.5
v 3.5 2.5 0.5
v 3.5 2.5 0.5
v 3.5 2.5 1.5
v 2.5 3.5 0.5
v 3.5 3.5 1.5
v 3.5 3.5 0.5
v 2.5 3.5 1.5
v 2.5 2.5 0.5
v 3.5 3.5 0.5
v 3.5 2.5 0.5
v 2.5 3.5 0.5
v 2.5 2.5 1.5
v 3.5 2.5 1.5
v 3.5 3.5 1.5
v 2.5 3.5 1.5
v 2.5 3.5 0.5
v 2.5 2.5 0.5
v 3.5 2.5 0.5
v 3.5 3.5 0.5
v 3.5 3.5 0.5
v 3.5 3.5 1.5
v 2.5 4.5 0.5
v 3.5 4.5 1.5
v 3.5 4.5 0.5
v 2.5 4.5 1.5
v 3.5 4.5 0.5
v 3.5 3.5 0.5
v 2.5 3.5 1.5
v 3.5 3.5 1.5
v 3.5 4.5 1.5
v 2.5 4.5 1.5
v 3.5 3.5 0.5
v 3.5 4.5 0.5
v 3.5 4.5 0.5
v 3.5 4.5 1.5
v 2.5 5.5 0.5
v 3.5 5.5 1.5
v 3.5 5.5 0.5
v 2.5 5.5 1.5
v 3.5 5.5 0.5
v 3.5 4.5 0.5
v 2.5 4.5 1.5
v 3.5 4.5 1.5
v 3.5 5.5 1.5
v 2.5 5.5 1.5
v 3.5 4.5 0.5
v 3.5 5.5 0.5
v 3.5 5.5 0.5
v 3.5 5.5 1.5
v 2.5 5.5 0.5
v 2.5 6.5 0.5
v 3.5 6.5 1.5
v 3.5 6.5 0.5
v 2.5 6.5 1.5
v 2.5 5.5 0.5
v 3.5 6.5 0.5
v 3.5 5.5 0.5
v 2.5 6.5 0.5
v 2.5 5.5 1.5
v 3.5 5.5 1.5
v 3.5 6.5 1.5
v 2.5 6.5 1.5
v 2.5 6.5 0.5
v 3.5 5.5 0.5
v 3.5 6.5 0.5
v 2.5 6.5 1.5
v 3.5 6.5 0.5
v 3.5 6.5 1.5
v 2.5 6.5 0.5
v 2.5 7.5 0.5
v 3.5 7.5 1.5
v 3.5 7.5 0.5
v 2.5 7.5 1.5
v 3.5 7.5 0.5
v 3.5 6.5 0.5
v 2.5 6.5 1.5
v 3.5 6.5 1.5
v 3.5 7.5 1.5
v 2.5 7.5 1.5
v 3.5 6.5 0.5
v 3.5 7.5 0.5
v 2.5 7.5 1.5
v 3.5 7.5 0.5
v 3.5 7.5 1.5
v 2.5 7.5 0.5
v 2.5 8.5 0.5
v 3.5 8.5 1.5
v 3.5 8.5 0.5
v 2.5 8.5 1.5
v 2.5 7.5 1.5
v 3.5 7.5 1.5
v 3.5 8.5 1.5
v 2.5 8.5 1.5
v 2.5 8.5 0.5
v 2.5 7.5 0.5
v 3.5 7.5 0.5
v 3.5 8.5 0.5
v 2.5 8.5 1.5
v 3.5 8.5 0.5
v 3.5 8.5 1.5
v 2.5 8.5 0.5
v 3.5 9.5 1.5
v 3.5 9.5 0.5
v 2.5 9.5 1.5
v 2.5 8.5 0.5
v 3.5 9.5 0.5
v 3.5 8.5 0.5
v 2.5 9.5 0.5
v 2.5 8.5 1.5
v 3.5 8.5 1.5
v 3.5 9.5 1.5
v 2.5 9.5 1.5
v 2.5 9.5 0.5
v 3.5 8.5 0.5
v 3.5 9.5 0.5
v 2.5 9.5 1.5
v 3.5 9.5 0.5
v 3.5 9.5 1.5
v 2.5 9.5 0.5
v 2.5 10.5 0.5
v 3.5 10.5 1.5
v 3.5 10.5 0.5
v 2.5 10.5 1.5
v 2.5 9.5 0.5
v 3.5 10.5 0.5
v 3.5 9.5 0.5
v 2.5 10.5 0.5
v 2.5 9.5 1.5
v 3.5 9.5 1.5
v 3.5 10.5 1.5
v 2.5 10.5 1.5
v 2.5 10.5 0.5
v 3.5 9.5 0.5
v 3.5 10.5 0.5
v 3.5 -0.5 0.5
v 4.5 -0.5 -0.5
v 4.5 -0.5 0.5
v 3.5 -0.5 -0.5
v 3.5 0.5 -0.5
v 4.5 0.5 0.5
v 4.5 0.5 -0.5
v 3.5 0.5 0.5
v 4.5 0.5 -0.5
v 4.5 -0.5 -0.5
v 4.5 -0.5 0.5
v 4.5 0.5 0.5
v 4.5 -0.5 -0.5
v 4.5 0.5 -0.5
v 3.5 -0.5 1.5
v 4.5 -0.5 0.5
v 4.5 -0.5 1.5
v 3.5 -0.5 0.5
v 3.5 0.5 0.5
v 4.5 0.5 1.5
v 4.5 0.5 0.5
v 3.5 0.5 1.5
v 3.5 -0.5 1.5
v 4.5 -0.5 1.5
v 4.5 0.5 1.5
v 3.5 0.5 1.5
v 4.5 -0.5 0.5
v 4.5 0.5 0.5
v 4.5 9.5 0.5
v 4.5 9.5 1.5
v 3.5 10.5 0.5
v 4.5 10.5 1.5
v 4.5 10.5 0.5
v 3.5 10.5 1.5
v 3.5 9.5 0.5
v 4.5 10.5 0.5
v 4.5 9.5 0.5
v 3.5 10.5 0.5
v 3.5 9.5 1.5
v 4.5 9.5 1.5
v 4.5 10.5 1.5
v 3.5 10.5 1.5
v 3.5 10.5 0.5
v 3.5 9.5 0.5
v 4.5 9.5 0.5
v 4.5 10.5 0.5
v 3.5 10.5 1.5
v 4.5 10.5 0.5
v 4.5 10.5 1.5
v 3.5 10.5 0.5
v 3.5 11.5 0.5
v 4.5 11.5 1.5
v 4.5 11.5 0.5
v 3.5 11.5 1.5
v 3.5 10.5 0.5
v 4.5 11.5 0.5
v 4.5 10.5 0.5
v 3.5 11.5 0.5
v 3.5 10.5 1.5
v 4.5 10.5 1.5
v 4.5 11.5 1.5
v 3.5 11.5 1.5
v 3.5 11.5 0.5
v 3.5 10.5 0.5
v 4.5 10.5 0.5
v 4.5 11.5 0.5
v 4.5 -0.5 0.5
v 5.5 -0.5 -0.5
v 5.5 -0.5 0.5
v 4.5 -0.5 -0.5
v 4.5 0.5 -0.5
v 5.5 0.5 0.5
v 5.5 0.5 -0.5
v 4.5 0.5 0.5
v 5.5 0.5 -0.5
v 5.5 -0.5 -0.5
v 5.5 -0.5 0.5
v 5.5 0.5 0.5
v 5.5 -0.5 -0.5
v 5.5 0.5 -0.5
v 4.5 -0.5 1.5
v 5.5 -0.5 0.5
v 5.5 -0.5 1.5
v 4.5 -0.5 0.5
v 4.5 0.5 0.5
v 5.5 0.5 1.5
v 5.5 0.5 0.5
v 4.5 0.5 1.5
v 4.5 -0.5 1.5
v 5.5 -0.5 1.5
v 5.5 0.5 1.5
v 4.5 0.5 1.5
v 5.5 -0.5 0.5
v 5.5 0.5 0.5
v 4.5 10.5 1.5
v 5.5 10.5 0.5
v 5.5 10.5 1.5
v 4.5 10.5 0.5
v 4.5 11.5 0.5
v 5.5 11.5 1.5
v 5.5 11.5 0.5
v 4.5 11.5 1.5
v 4.5 10.5 0.5
v 5.5 11.5 0.5
v 5.5 10.5 0.5
v 4.5 11.5 0.5
v 4.5 10.5 1.5
v 5.5 10.5 1.5
v 5.5 11.5 1.5
v 4.5 11.5 1.5
v 4.5 10.5 1.5
v 4.5 11.5 1.5
v 4.5 11.5 1.5
v 5.5 11.5 0.5
v 5.5 11.5 1.5
v 4.5 11.5 0.5
v 4.5 12.5 0.5
v 5.5 12.5 1.5
v 5.5 12.5 0.5
v 4.5 12.5 1.5
v 4.5 11.5 1.5
v 5.5 11.5 1.5
v 5.5 12.5 1.5
v 4.5 12.5 1.5
v 4.5 12.5 0.5
v 4.5 11.5 0.5
v 5.5 11.5 0.5
v 5.5 12.5 0.5
v 5.5 -0.5 0.5
v 6.5 -0.5 -0.5
v 6.5 -0.5 0.5
v 5.5 -0.5 -0.5
v 5.5 0.5 -0.5
v 6.5 0.5 0.5
v 6.5 0.5 -0.5
v 5.5 0.5 0.5
v 6.5 0.5 -0.5
v 6.5 -0.5 -0.5
v 6.5 -0.5 0.5
v 6.5 0.5 0.5
v 6.5 -0.5 -0.5
v 6.5 0.5 -0.5
v 5.5 -0.5 1.5
v 6.5 -0.5 0.5
v 6.5 -0.5 1.5
v 5.5 -0.5 0.5
v 5.5 0.5 0.5
v 6.5 0.5 1.5
v 6.5 0.5 0.5
v 5.5 0.5 1.5
v 5.5 -0.5 1.5
v 6.5 -0.5 1.5
v 6.5 0.5 1.5
v 5.5 0.5 1.5
v 6.5 -0.5 0.5
v 6.5 0.5 0.5
v 5.5 10.5 1.5
v 6.5 10.5 0.5
v 6.5 10.5 1.5
v 5.5 10.5 0.5
v 5.5 11.5 0.5
v 6.5 11.5 1.5
v 6.5 11.5 0.5
v 5.5 11.5 1.5
v 5.5 10.5 0.5
v 6.5 11.5 0.5
v 6.5 10.5 0.5
v 5.5 11.5 0.5
v 5.5 10.5 1.5
v 6.5 10.5 1.5
v 6.5 11.5 1.5
v 5.5 11.5 1.5
v 5.5 11.5 0.5
v 5.5 10.5 0.5
v 6.5 10.5 0.5
v 6.5 11.5 0.5
v 5.5 11.5 1.5
v 6.5 11.5 0.5
v 6.5 11.5 1.5
v 6.5 12.5 1.5
v 6.5 12.5 0.5
v 5.5 12.5 1.5
v 5.5 11.5 0.5
v 6.5 12.5 0.5
v 6.5 11.5 0.5
v 5.5 12.5 0.5
v 5.5 11.5 1.5
v 6.5 11.5 1.5
v 6.5 12.5 1.5
v 5.5 12.5 1.5
v 5.5 12.5 0.5
v 5.5 11.5 0.5
v 6.5 11.5 0.5
v 6.5 12.5 0.5
v 6.5 -0.5 1.5
v 7.5 -0.5 0.5
v 7.5 -0.5 1.5
v 6.5 -0.5 0.5
v 6.5 0.5 0.5
v 7.5 0.5 1.5
v 7.5 0.5 0.5
v 6.5 0.5 1.5
v 7.5 0.5 0.5
v 7.5 -0.5 0.5
v 6.5 -0.5 1.5
v 7.5 -0.5 1.5
v 7.5 0.5 1.5
v 6.5 0.5 1.5
v 7.5 -0.5 0.5
v 7.5 0.5 0.5
v 6.5 10.5 1.5
v 7.5 10.5 0.5
v 7.5 10.5 1.5
v 6.5 10.5 0.5
v 6.5 11.5 0.5
v 7.5 11.5 1.5
v 7.5 11.5 0.5
v 6.5 11.5 1.5
v 6.5 10.5 0.5
v 7.5 11.5 0.5
v 7.5 10.5 0.5
v 6.5 11.5 0.5
v 6.5 10.5 1.5
v 7.5 10.5 1.5
v 7.5 11.5 1.5
v 6.5 11.5 1.5
v 6.5 11.5 0.5
v 7.5 10.5 0.5
v 7.5 11.5 0.5
v 7.5 -0.5 1.5
v 8.5 -0.5 0.5
v 8.5 -0.5 1.5
v 7.5 -0.5 0.5
v 7.5 0.5 0.5
v 8.5 0.5 1.5
v 8.5 0.5 0.5
v 7.5 0.5 1.5
v 8.5 0.5 0.5
v 8.5 -0.5 0.5
v 7.5 -0.5 1.5
v 8.5 -0.5 1.5
v 8.5 0.5 1.5
v 7.5 0.5 1.5
v 8.5 -0.5 0.5
v 8.5 0.5 0.5
v 8.5 -0.5 0.5
v 9.5 -0.5 -0.5
v 9.5 -0.5 0.5
v 8.5 -0.5 -0.5
v 8.5 0.5 -0.5
v 9.5 0.5 0.5
v 9.5 0.5 -0.5
v 8.5 0.5 0.5
v 8.5 -0.5 -0.5
v 9.5 0.5 -0.5
v 9.5 -0.5 -0.5
v 8.5 0.5 -0.5
v 9.5 -0.5 0.5
v 9.5 0.5 0.5
v 8.5 0.5 -0.5
v 8.5 -0.5 -0.5
v 9.5 -0.5 -0.5
v 9.5 0.5 -0.5
v 8.5 -0.5 1.5
v 9.5 -0.5 0.5
v 9.5 -0.5 1.5
v 8.5 -0.5 0.5
v 8.5 0.5 0.5
v 9.5 0.5 1.5
v 9.5 0.5 0.5
v 8.5 0.5 1.5
v 8.5 -0.5 1.5
v 9.5 -0.5 1.5
v 9.5 0.5 1.5
v 8.5 0.5 1.5
v 9.5 -0.5 0.5
v 9.5 0.5 0.5
v 8.5 0.5 1.5
v 9.5 0.5 1.5
v 8.5 1.5 0.5
v 9.5 1.5 1.5
v 9.5 1.5 0.5
v 8.5 1.5 1.5
v 8.5 0.5 0.5
v 9.5 1.5 0.5
v 9.5 0.5 0.5
v 8.5 1.5 0.5
v 8.5 0.5 1.5
v 9.5 0.5 1.5
v 9.5 1.5 1.5
v 8.5 1.5 1.5
v 8.5 1.5 0.5
v 8.5 0.5 0.5
v 9.5 0.5 0.5
v 9.5 1.5 0.5
v 8.5 1.5 1.5
v 9.5 1.5 0.5
v 9.5 1.5 1.5
v 8.5 1.5 0.5
v 8.5 2.5 0.5
v 9.5 2.5 1.5
v 9.5 2.5 0.5
v 8.5 2.5 1.5
v 8.5 1.5 0.5
v 9.5 2.5 0.5
v 9.5 1.5 0.5
v 8.5 2.5 0.5
v 8.5 1.5 1.5
v 9.5 1.5 1.5
v 9.5 2.5 1.5
v 8.5 2.5 1.5
v 8.5 2.5 0.5
v 8.5 1.5 0.5
v 9.5 1.5 0.5
v 9.5 2.5 0.5
v 8.5 2.5 1.5
v 9.5 2.5 0.5
v 9.5 2.5 1.5
v 8.5 2.5 0.5
v 8.5 3.5 0.5
v 9.5 3.5 1.5
v 9.5 3.5 0.5
v 8.5 3.5 1.5
v 8.5 2.5 1.5
v 9.5 2.5 1.5
v 9.5 3.5 1.5
v 8.5 3.5 1.5
v 8.5 3.5 0.5
v 8.5 2.5 0.5
v 9.5 2.5 0.5
v 9.5 3.5 0.5
v 8.5 3.5 1.5
v 9.5 3.5 0.5
v 9.5 3.5 1.5
v 8.5 3.5 0.5
v 8.5 4.5 0.5
v 9.5 4.5 1.5
v 9.5 4.5 0.5
v 8.5 4.5 1.5
v 8.5 3.5 0.5
v 9.5 4.5 0.5
v 9.5 3.5 0.5
v 8.5 4.5 0.5
v 8.5 3.5 1.5
v 9.5 3.5 1.5
v 9.5 4.5 1.5
v 8.5 4.5 1.5
v 8.5 4.5 0.5
v 8.5 3.5 0.5
v 9.5 3.5 0.5
v 9.5 4.5 0.5
v 8.5 4.5 1.5
v 9.5 4.5 0.5
v 9.5 4.5 1.5
v 8.5 4.5 0.5
v 8.5 5.5 0.5
v 9.5 5.5 1.5
v 9.5 5.5 0.5
v 8.5 5.5 1.5
v 8.5 4.5 1.5
v 9.5 4.5 1.5
v 9.5 5.5 1.5
v 8.5 5.5 1.5
v 8.5 5.5 0.5
v 8.5 4.5 0.5
v 9.5 4.5 0.5
v 9.5 5.5 0.5
v 8.5 5.5 1.5
v 9.5 5.5 0.5
v 9.5 5.5 1.5
v 8.5 5.5 0.5
v 8.5 6.5 0.5
v 9.5 6.5 1.5
v 9.5 6.5 0.5
v 8.5 6.5 1.5
v 8.5 5.5 0.5
v 9.5 6.5 0.5
v 9.5 5.5 0.5
v 8.5 6.5 0.5
v 8.5 5.5 1.5
v 9.5 5.5 1.5
v 9.5 6.5 1.5
v 8.5 6.5 1.5
v 8.5 6.5 0.5
v 9.5 5.5 0.5
v 9.5 6.5 0.5
v 8.5 6.5 1.5
v 9.5 6.5 0.5
v 9.5 6.5 1.5
v 8.5 6.5 0.5
v 8.5 7.5 0.5
v 9.5 7.5 1.5
v 9.5 7.5 0.5
v 8.5 7.5 1.5
v 8.5 6.5 0.5
v 9.5 7.5 0.5
v 9.5 6.5 0.5
v 8.5 7.5 0.5
v 8.5 6.5 1.5
v 9.5 6.5 1.5
v 9.5 7.5 1.5
v 8.5 7.5 1.5
v 8.5 6.5 1.5
v 8.5 7.5 1.5
v 8.5 7.5 1.5
v 9.5 7.5 0.5
v 9.5 7.5 1.5
v 8.5 7.5 0.5
v 8.5 8.5 0.5
v 9.5 8.5 1.5
v 9.5 8.5 0.5
v 8.5 8.5 1.5
v 8.5 7.5 0.5
v 9.5 8.5 0.5
v 9.5 7.5 0.5
v 8.5 8.5 0.5
v 8.5 7.5 1.5
v 9.5 7.5 1.5
v 9.5 8.5 1.5
v 8.5 8.5 1.5
v 8.5 8.5 0.5
v 8.5 7.5 0.5
v 9.5 7.5 0.5
v 9.5 8.5 0.5
v 9.5 -0.5 0.5
v 10.5 -0.5 -0.5
v 10.5 -0.5 0.5
v 9.5 -0.5 -0.5
v 9.5 0.5 -0.5
v 10.5 0.5 0.5
v 10.5 0.5 -0.5
v 9.5 0.5 0.5
v 10.5 0.5 -0.5
v 10.5 -0.5 -0.5
v 10.5 -0.5 0.5
v 10.5 0.5 0.5
v 10.5 -0.5 -0.5
v 10.5 0.5 -0.5
v 9.5 -0.5 1.5
v 10.5 -0.5 0.5
v 10.5 -0.5 1.5
v 9.5 -0.5 0.5
v 9.5 0.5 0.5
v 10.5 0.5 1.5
v 10.5 0.5 0.5
v 9.5 0.5 1.5
v 9.5 -0.5 1.5
v 10.5 -0.5 1.5
v 10.5 0.5 1.5
v 9.5 0.5 1.5
v 10.5 -0.5 0.5
v 10.5 0.5 0.5
v 9.5 0.5 1.5
v 10.5 0.5 0.5
v 10.5 0.5 1.5
v 9.5 0.5 0.5
v 9.5 1.5 0.5
v 10.5 1.5 1.5
v 10.5 1.5 0.5
v 9.5 1.5 1.5
v 9.5 0.5 0.5
v 10.5 1.5 0.5
v 10.5 0.5 0.5
v 9.5 1.5 0.5
v 9.5 0.5 1.5
v 10.5 0.5 1.5
v 10.5 1.5 1.5
v 9.5 1.5 1.5
v 9.5 1.5 0.5
v 10.5 0.5 0.5
v 10.5 1.5 0.5
v 9.5 1.5 1.5
v 10.5 1.5 0.5
v 10.5 1.5 1.5
v 9.5 1.5 0.5
v 9.5 2.5 0.5
v 10.5 2.5 1.5
v 10.5 2.5 0.5
v 9.5 2.5 1.5
v 9.5 1.5 0.5
v 10.5 2.5 0.5
v 10.5 1.5 0.5
v 9.5 2.5 0.5
v 9.5 1.5 1.5
v 10.5 1.5 1.5
v 10.5 2.5 1.5
v 9.5 2.5 1.5
v 9.5 2.5 0.5
v 10.5 1.5 0.5
v 10.5 2.5 0.5
v 9.5 2.5 1.5
v 10.5 2.5 0.5
v 10.5 2.5 1.5
v 9.5 2.5 0.5
v 9.5 3.5 0.5
v 10.5 3.5 1.5
v 10.5 3.5 0.5
v 9.5 3.5 1.5
v 9.5 2.5 0.5
v 10.5 3.5 0.5
v 10.5 2.5 0.5
v 9.5 3.5 0.5
v 9.5 2.5 1.5
v 10.5 2.5 1.5
v 10.5 3.5 1.5
v 9.5 3.5 1.5
v 9.5 3.5 0.5
v 10.5 2.5 0.5
v 10.5 3.5 0.5
v 9.5 3.5 1.5
v 10.5 3.5 0.5
v 10.5 3.5 1.5
v 9.5 3.5 0.5
v 9.5 4.5 0.5
v 10.5 4.5 1.5
v 10.5 4.5 0.5
v 9.5 4.5 1.5
v 10.5 4.5 0.5
v 10.5 3.5 0.5
v 9.5 3.5 1.5
v 10.5 3.5 1.5
v 10.5 4.5 1.5
v 9.5 4.5 1.5
v 10.5 3.5 0.5
v 10.5 4.5 0.5
v 10.5 -0.5 0.5
v 11.5 -0.5 -0.5
v 11.5 -0.5 0.5
v 10.5 -0.5 -0.5
v 10.5 0.5 -0.5
v 11.5 0.5 0.5
v 11.5 0.5 -0.5
v 11.5 0.5 -0.5
v 11.5 -0.5 -0.5
v 11.5 -0.5 0.5
v 11.5 0.5 0.5
v 11.5 -0.5 -0.5
v 11.5 0.5 -0.5
v 10.5 0.5 1.5
v 11.5 0.5 0.5
v 11.5 0.5 1.5
v 10.5 1.5 0.5
v 11.5 1.5 1.5
v 11.5 1.5 0.5
v 10.5 1.5 1.5
v 11.5 1.5 0.5
v 11.5 0.5 0.5
v 10.5 0.5 1.5
v 11.5 0.5 1.5
v 11.5 1.5 1.5
v 10.5 1.5 1.5
v 11.5 0.5 0.5
v 11.5 1.5 0.5
v 11.5 1.5 0.5
v 11.5 1.5 1.5
v 10.5 2.5 0.5
v 11.5 2.5 1.5
v 11.5 2.5 0.5
v 10.5 2.5 1.5
v 10.5 1.5 0.5
v 11.5 2.5 0.5
v 11.5 1.5 0.5
v 10.5 2.5 0.5
v 10.5 1.5 1.5
v 11.5 1.5 1.5
v 11.5 2.5 1.5
v 10.5 2.5 1.5
v 10.5 2.5 0.5
v 10.5 1.5 0.5
v 11.5 1.5 0.5
v 11.5 2.5 0.5
v 10.5 2.5 1.5
v 11.5 2.5 0.5
v 11.5 2.5 1.5
v 10.5 2.5 0.5
v 10.5 3.5 0.5
v 11.5 3.5 1.5
v 11.5 3.5 0.5
v 10.5 3.5 1.5
v 10.5 2.5 1.5
v 11.5 2.5 1.5
v 11.5 3.5 1.5
v 10.5 3.5 1.5
v 10.5 3.5 0.5
v 10.5 2.5 0.5
v 11.5 2.5 0.5
v 11.5 3.5 0.5
v 11.5 -0.5 1.5
v 12.5 -0.5 0.5
v 12.5 -0.5 1.5
v 11.5 -0.5 0.5
v 11.5 0.5 0.5
v 12.5 0.5 1.5
v 12.5 0.5 0.5
v 11.5 0.5 1.5
v 11.5 -0.5 0.5
v 12.5 0.5 0.5
v 12.5 -0.5 0.5
v 11.5 0.5 0.5
v 11.5 -0.5 1.5
v 12.5 -0.5 1.5
v 12.5 0.5 1.5
v 11.5 0.5 1.5
v 12.5 -0.5 0.5
v 12.5 0.5 0.5
vn 0 -0.99999 -0.00394
vn 0 0.99999 -0.00394
vn 0 0 -1
vn 0.00395 0.00395 0.99998
vn -0.99999 0 -0.00394
vn 0.99999 0 -0.00394
vt 0.875 0.15625
vt 0.89062 0.14062
vt 0.89062 0.15625
vt 0.875 0.14062
vt 0.96875 0.29688
vt 0.98438 0.3125
vt 0.98438 0.29688
vt 0.96875 0.3125
vt 0.8125 0.21875
vt 0.82812 0.20312
vt 0.82812 0.21875
vt 0.8125 0.20312
vt 0.85938 0.15625
vt 0.85938 0.14062
vt 0.84375 0.14062
vt 0.84375 0.15625
vt 0.10938 0.10938
vt 0.125 0.09375
vt 0.125 0.10938
vt 0.10938 0.09375
vt 0.39062 0.29688
vt 0.40625 0.28125
vt 0.40625 0.29688
vt 0.39062 0.28125
usemtl mat0
f 1/1/1 2/2/1 3/3/1
f 1/1/1 4/4/1 2/2/1
f 5/1/2 6/2/2 7/3/2
f 5/1/2 8/4/2 6/2/2
f 9/5/3 10/6/3 11/7/3
f 9/5/3 12/8/3 10/6/3
f 13/5/4 14/7/4 15/6/4
f 13/5/4 15/6/4 16/8/4
f 13/5/5 17/6/5 18/7/5
f 13/5/5 16/8/5 17/6/5
f 19/5/6 15/6/6 14/7/6
f 19/5/6 20/8/6 15/6/6
f 21/1/1 22/2/1 23/3/1
f 21/1/1 24/4/1 22/2/1
f 25/1/2 26/2/2 27/3/2
f 25/1/2 28/4/2 26/2/2
f 19/5/3 29/6/3 30/7/3
f 19/5/3 20/8/3 29/6/3
f 31/5/4 32/7/4 33/6/4
f 31/5/4 33/6/4 34/8/4
f 31/5/5 10/6/5 11/7/5
f 31/5/5 34/8/5 10/6/5
f 35/5/6 33/6/6 32/7/6
f 35/5/6 36/8/6 33/6/6
f 37/9/1 38/10/1 39/11/1
f 37/9/1 40/12/1 38/10/1
f 41/9/2 42/10/2 43/11/2
f 41/9/2 44/12/2 42/10/2
f 45/10/3 46/9/3 47/12/3
f 45/10/3 48/11/3 46/9/3
f 49/12/4 50/10/4 51/11/4
f 49/12/4 51/11/4 52/9/4
f 53/10/5 41/9/5 40/12/5
f 53/10/5 54/11/5 41/9/5
f 47/12/6 51/11/6 50/10/6
f 47/12/6 46/9/6 51/11/6
f 55/13/1 56/4/1 57/1/1
f 55/13/1 58/14/1 56/4/1
f 59/1/2 60/2/2 61/3/2
f 59/1/2 62/4/2 60/2/2
f 63/15/3 64/13/3 65/14/3
f 63/15/3 66/16/3 64/13/3
f 67/15/4 68/14/4 69/13/4
f 67/15/4 69/13/4 70/16/4
f 67/15/5 71/13/5 58/14/5
f 67/15/5 70/16/5 71/13/5
f 72/15/6 69/13/6 68/14/6
f 72/15/6 73/16/6 69/13/6
f 74/9/1 75/10/1 76/11/1
f 74/9/1 77/12/1 75/10/1
f 78/9/2 79/10/2 80/11/2
f 78/9/2 81/12/2 79/10/2
f 82/10/3 83/9/3 84/12/3
f 82/10/3 85/11/3 83/9/3
f 86/12/4 87/10/4 88/11/4
f 86/12/4 88/11/4 89/9/4
f 90/10/5 78/9/5 77/12/5
f 90/10/5 91/11/5 78/9/5
f 84/12/6 88/11/6 87/10/6
f 84/12/6 83/9/6 88/11/6
f 92/1/1 93/2/1 94/3/1
f 92/1/1 95/4/1 93/2/1
f 96/1/2 97/2/2 98/3/2
f 96/1/2 99/4/2 97/2/2
f 100/5/3 101/6/3 102/7/3
f 100/5/3 103/8/3 101/6/3
f 104/5/4 105/7/4 106/6/4
f 104/5/4 106/6/4 107/8/4
f 104/5/5 108/6/5 109/7/5
f 104/5/5 107/8/5 108/6/5
f 110/5/6 106/6/6 105/7/6
f 110/5/6 111/8/6 106/6/6
f 112/17/1 113/18/1 114/19/1
f 112/17/1 115/20/1 113/18/1
f 116/17/2 117/18/2 118/19/2
f 116/17/2 119/20/2 117/18/2
f 115/20/3 118/19/3 113/18/3
f 115/20/3 116/17/3 118/19/3
f 120/20/4 121/18/4 122/19/4
f 120/20/4 122/19/4 123/17/4
f 120/20/5 124/19/5 125/18/5
f 120/20/5 123/17/5 124/19/5
f 126/20/6 122/19/6 121/18/6
f 126/20/6 127/17/6 122/19/6
f 128/1/1 129/2/1 130/3/1
f 128/1/1 131/4/1 129/2/1
f 132/1/2 133/2/2 134/3/2
f 132/1/2 135/4/2 133/2/2
f 136/5/3 137/6/3 138/7/3
f 136/5/3 139/8/3 137/6/3
f 140/5/4 141/7/4 142/6/4
f 140/5/4 142/6/4 143/8/4
f 140/5/5 144/6/5 145/7/5
f 140/5/5 143/8/5 144/6/5
f 146/5/6 142/6/6 141/7/6
f 146/5/6 147/8/6 142/6/6
f 148/13/1 149/4/1 150/1/1
f 148/13/1 151/14/1 149/4/1
f 152/1/2 153/2/2 154/3/2
f 152/1/2 155/4/2 153/2/2
f 156/15/3 157/13/3 158/14/3
f 156/15/3 159/16/3 157/13/3
f 160/15/4 161/14/4 162/13/4
f 160/15/4 162/13/4 163/16/4
f 160/15/5 164/13/5 151/14/5
f 160/15/5 163/16/5 164/13/5
f 165/15/6 162/13/6 161/14/6
f 165/15/6 166/16/6 162/13/6
f 167/1/1 168/2/1 169/3/1
f 167/1/1 170/4/1 168/2/1
f 171/1/2 172/2/2 173/3/2
f 171/1/2 174/4/2 172/2/2
f 175/5/3 176/6/3 177/7/3
f 175/5/3 178/8/3 176/6/3
f 179/5/4 180/7/4 181/6/4
f 179/5/4 181/6/4 182/8/4
f 179/5/5 183/6/5 184/7/5
f 179/5/5 182/8/5 183/6/5
f 185/5/6 181/6/6 180/7/6
f 185/5/6 186/8/6 181/6/6
f 187/1/1 188/2/1 189/3/1
f 187/1/1 190/4/1 188/2/1
f 191/1/2 192/2/2 193/3/2
f 191/1/2 194/4/2 192/2/2
f 195/5/3 196/6/3 197/7/3
f 195/5/3 198/8/3 196/6/3
f 199/5/4 200/7/4 201/6/4
f 199/5/4 201/6/4 202/8/4
f 199/5/5 203/6/5 204/7/5
f 199/5/5 202/8/5 203/6/5
f 205/5/6 201/6/6 200/7/6
f 205/5/6 206/8/6 201/6/6
f 207/1/1 208/2/1 209/3/1
f 207/1/1 210/4/1 208/2/1
f 211/1/2 212/2/2 213/3/2
f 211/1/2 214/4/2 212/2/2
f 215/5/3 216/6/3 217/7/3
f 215/5/3 218/8/3 216/6/3
f 35/5/4 219/7/4 220/6/4
f 35/5/4 220/6/4 36/8/4
f 35/5/5 221/6/5 222/7/5
f 35/5/5 36/8/5 221/6/5
f 223/5/6 220/6/6 219/7/6
f 223/5/6 224/8/6 220/6/6
f 225/1/1 226/2/1 227/3/1
f 225/1/1 228/4/1 226/2/1
f 229/1/2 230/2/2 231/3/2
f 229/1/2 232/4/2 230/2/2
f 35/5/3 220/6/3 219/7/3
f 35/5/3 36/8/3 220/6/3
f 233/5/4 234/7/4 235/6/4
f 233/5/4 235/6/4 236/8/4
f 233/5/5 29/6/5 30/7/5
f 233/5/5 236/8/5 29/6/5
f 237/5/6 235/6/6 234/7/6
f 237/5/6 238/8/6 235/6/6
f 239/9/1 240/10/1 241/11/1
f 239/9/1 47/12/1 240/10/1
f 46/9/2 242/10/2 243/11/2
f 46/9/2 244/12/2 242/10/2
f 38/10/3 245/9/3 246/12/3
f 38/10/3 43/11/3 245/9/3
f 247/12/4 248/10/4 249/11/4
f 247/12/4 249/11/4 250/9/4
f 50/10/5 46/9/5 47/12/5
f 50/10/5 51/11/5 46/9/5
f 246/12/6 249/11/6 248/10/6
f 246/12/6 245/9/6 249/11/6
f 251/13/1 252/4/1 253/1/1
f 251/13/1 65/14/1 252/4/1
f 254/1/2 255/2/2 256/3/2
f 254/1/2 257/4/2 255/2/2
f 72/15/3 258/13/3 259/14/3
f 72/15/3 73/16/3 258/13/3
f 260/15/4 261/14/4 262/13/4
f 260/15/4 262/13/4 263/16/4
f 260/15/5 64/13/5 65/14/5
f 260/15/5 263/16/5 64/13/5
f 264/15/6 262/13/6 261/14/6
f 264/15/6 265/16/6 262/13/6
f 69/13/1 266/4/1 267/1/1
f 69/13/1 268/14/1 266/4/1
f 269/1/2 270/2/2 271/3/2
f 269/1/2 272/4/2 270/2/2
f 273/15/3 274/13/3 275/14/3
f 273/15/3 276/16/3 274/13/3
f 277/15/4 278/14/4 279/13/4
f 277/15/4 279/13/4 280/16/4
f 277/15/5 281/13/5 268/14/5
f 277/15/5 280/16/5 281/13/5
f 282/15/6 279/13/6 278/14/6
f 282/15/6 283/16/6 279/13/6
f 284/13/1 285/4/1 286/1/1
f 284/13/1 287/14/1 285/4/1
f 288/1/2 289/2/2 290/3/2
f 288/1/2 291/4/2 289/2/2
f 292/15/3 293/13/3 294/14/3
f 292/15/3 295/16/3 293/13/3
f 296/15/4 297/14/4 298/13/4
f 296/15/4 298/13/4 299/16/4
f 296/15/5 300/13/5 287/14/5
f 296/15/5 299/16/5 300/13/5
f 301/15/6 298/13/6 297/14/6
f 301/15/6 302/16/6 298/13/6
f 303/13/1 304/4/1 305/1/1
f 303/13/1 306/14/1 304/4/1
f 307/1/2 308/2/2 309/3/2
f 307/1/2 310/4/2 308/2/2
f 311/15/3 312/13/3 313/14/3
f 311/15/3 314/16/3 312/13/3
f 315/15/4 316/14/4 317/13/4
f 315/15/4 317/13/4 318/16/4
f 315/15/5 319/13/5 306/14/5
f 315/15/5 318/16/5 319/13/5
f 320/15/6 317/13/6 316/14/6
f 320/15/6 321/16/6 317/13/6
f 322/9/1 323/10/1 324/11/1
f 322/9/1 325/12/1 323/10/1
f 326/9/2 327/10/2 328/11/2
f 326/9/2 329/12/2 327/10/2
f 330/10/3 331/9/3 332/12/3
f 330/10/3 333/11/3 331/9/3
f 334/12/4 335/10/4 336/11/4
f 334/12/4 336/11/4 337/9/4
f 338/10/5 326/9/5 325/12/5
f 338/10/5 339/11/5 326/9/5
f 332/12/6 336/11/6 335/10/6
f 332/12/6 331/9/6 336/11/6
f 150/1/1 340/2/1 341/3/1
f 150/1/1 149/4/1 340/2/1
f 342/1/2 343/2/2 344/3/2
f 342/1/2 345/4/2 343/2/2
f 346/5/3 347/6/3 348/7/3
f 346/5/3 349/8/3 347/6/3
f 350/5/4 351/7/4 352/6/4
f 350/5/4 352/6/4 353/8/4
f 350/5/5 354/6/5 355/7/5
f 350/5/5 353/8/5 354/6/5
f 356/5/6 352/6/6 351/7/6
f 356/5/6 357/8/6 352/6/6
f 358/1/1 359/2/1 360/3/1
f 358/1/1 361/4/1 359/2/1
f 362/1/2 363/2/2 364/3/2
f 362/1/2 365/4/2 363/2/2
f 361/4/3 364/3/3 359/2/3
f 361/4/3 362/1/3 364/3/3
f 366/4/4 367/2/4 368/3/4
f 366/4/4 368/3/4 369/1/4
f 366/4/5 193/3/5 188/2/5
f 366/4/5 369/1/5 193/3/5
f 370/4/6 368/3/6 367/2/6
f 370/4/6 371/1/6 368/3/6
f 372/1/1 373/2/1 374/3/1
f 372/1/1 375/4/1 373/2/1
f 376/1/2 377/2/2 378/3/2
f 376/1/2 379/4/2 377/2/2
f 223/5/3 380/6/3 381/7/3
f 223/5/3 224/8/3 380/6/3
f 237/5/4 382/7/4 383/6/4
f 237/5/4 383/6/4 238/8/4
f 237/5/5 216/6/5 217/7/5
f 237/5/5 238/8/5 216/6/5
f 384/5/6 383/6/6 382/7/6
f 384/5/6 385/8/6 383/6/6
f 386/1/1 387/2/1 388/3/1
f 386/1/1 389/4/1 387/2/1
f 390/1/2 391/2/2 392/3/2
f 390/1/2 393/4/2 391/2/2
f 237/5/3 383/6/3 382/7/3
f 237/5/3 238/8/3 383/6/3
f 394/5/4 395/7/4 396/6/4
f 394/5/4 396/6/4 397/8/4
f 394/5/5 220/6/5 219/7/5
f 394/5/5 397/8/5 220/6/5
f 398/5/6 396/6/6 395/7/6
f 398/5/6 399/8/6 396/6/6
f 400/1/1 377/2/1 401/3/1
f 400/1/1 379/4/1 377/2/1
f 402/1/2 403/2/2 404/3/2
f 402/1/2 405/4/2 403/2/2
f 406/5/3 407/6/3 408/7/3
f 406/5/3 409/8/3 407/6/3
f 410/5/4 411/7/4 412/6/4
f 410/5/4 412/6/4 413/8/4
f 410/5/5 414/6/5 415/7/5
f 410/5/5 413/8/5 414/6/5
f 416/5/6 412/6/6 411/7/6
f 416/5/6 417/8/6 412/6/6
f 253/1/1 418/2/1 419/3/1
f 253/1/1 252/4/1 418/2/1
f 420/1/2 421/2/2 422/3/2
f 420/1/2 423/4/2 421/2/2
f 424/5/3 425/6/3 426/7/3
f 424/5/3 427/8/3 425/6/3
f 428/5/4 429/7/4 430/6/4
f 428/5/4 430/6/4 431/8/4
f 428/5/5 432/6/5 433/7/5
f 428/5/5 431/8/5 432/6/5
f 434/5/6 430/6/6 429/7/6
f 434/5/6 435/8/6 430/6/6
f 267/1/1 436/2/1 437/3/1
f 267/1/1 266/4/1 436/2/1
f 438/1/2 439/2/2 440/3/2
f 438/1/2 441/4/2 439/2/2
f 442/5/3 443/6/3 444/7/3
f 442/5/3 445/8/3 443/6/3
f 446/5/4 447/7/4 448/6/4
f 446/5/4 448/6/4 449/8/4
f 446/5/5 450/6/5 451/7/5
f 446/5/5 449/8/5 450/6/5
f 452/5/6 448/6/6 447/7/6
f 452/5/6 453/8/6 448/6/6
f 279/13/1 454/4/1 455/1/1
f 279/13/1 294/14/1 454/4/1
f 456/1/2 457/2/2 458/3/2
f 456/1/2 459/4/2 457/2/2
f 301/15/3 460/13/3 461/14/3
f 301/15/3 302/16/3 460/13/3
f 462/15/4 463/14/4 464/13/4
f 462/15/4 464/13/4 465/16/4
f 462/15/5 293/13/5 294/14/5
f 462/15/5 465/16/5 293/13/5
f 466/15/6 464/13/6 463/14/6
f 466/15/6 467/16/6 464/13/6
f 298/13/1 468/4/1 469/1/1
f 298/13/1 313/14/1 468/4/1
f 470/1/2 471/2/2 472/3/2
f 470/1/2 473/4/2 471/2/2
f 320/15/3 474/13/3 475/14/3
f 320/15/3 321/16/3 474/13/3
f 476/15/4 477/14/4 478/13/4
f 476/15/4 478/13/4 479/16/4
f 476/15/5 312/13/5 313/14/5
f 476/15/5 479/16/5 312/13/5
f 480/15/6 478/13/6 477/14/6
f 480/15/6 481/16/6 478/13/6
f 317/13/1 482/4/1 483/1/1
f 317/13/1 484/14/1 482/4/1
f 485/1/2 486/2/2 487/3/2
f 485/1/2 488/4/2 486/2/2
f 489/15/3 490/13/3 491/14/3
f 489/15/3 492/16/3 490/13/3
f 493/15/4 494/14/4 495/13/4
f 493/15/4 495/13/4 496/16/4
f 493/15/5 497/13/5 484/14/5
f 493/15/5 496/16/5 497/13/5
f 498/15/6 495/13/6 494/14/6
f 498/15/6 499/16/6 495/13/6
f 500/1/1 501/2/1 502/3/1
f 500/1/1 503/4/1 501/2/1
f 504/1/2 505/2/2 506/3/2
f 504/1/2 507/4/2 505/2/2
f 356/5/3 508/6/3 509/7/3
f 356/5/3 357/8/3 508/6/3
f 510/5/4 511/7/4 512/6/4
f 510/5/4 512/6/4 513/8/4
f 510/5/5 347/6/5 348/7/5
f 510/5/5 513/8/5 347/6/5
f 514/5/6 512/6/6 511/7/6
f 514/5/6 515/8/6 512/6/6
f 516/17/1 517/18/1 518/19/1
f 516/17/1 519/20/1 517/18/1
f 520/17/2 521/18/2 522/19/2
f 520/17/2 523/20/2 521/18/2
f 519/20/3 522/19/3 517/18/3
f 519/20/3 520/17/3 522/19/3
f 524/20/4 525/18/4 526/19/4
f 524/20/4 526/19/4 527/17/4
f 524/20/5 528/19/5 529/18/5
f 524/20/5 527/17/5 528/19/5
f 530/20/6 526/19/6 525/18/6
f 530/20/6 531/17/6 526/19/6
f 532/13/1 533/4/1 534/1/1
f 532/13/1 535/14/1 533/4/1
f 371/1/2 536/2/2 537/3/2
f 371/1/2 538/4/2 536/2/2
f 539/15/3 540/13/3 541/14/3
f 539/15/3 542/16/3 540/13/3
f 543/15/4 544/14/4 545/13/4
f 543/15/4 545/13/4 546/16/4
f 543/15/5 547/13/5 535/14/5
f 543/15/5 546/16/5 547/13/5
f 548/15/6 545/13/6 544/14/6
f 548/15/6 549/16/6 545/13/6
f 550/13/1 551/4/1 552/1/1
f 550/13/1 553/14/1 551/4/1
f 554/1/2 555/2/2 556/3/2
f 554/1/2 557/4/2 555/2/2
f 558/15/3 559/13/3 560/14/3
f 558/15/3 561/16/3 559/13/3
f 562/15/4 563/14/4 564/13/4
f 562/15/4 564/13/4 565/16/4
f 562/15/5 566/13/5 553/14/5
f 562/15/5 565/16/5 566/13/5
f 567/15/6 564/13/6 563/14/6
f 567/15/6 568/16/6 564/13/6
f 569/1/1 570/2/1 571/3/1
f 569/1/1 572/4/1 570/2/1
f 573/1/2 574/2/2 575/3/2
f 573/1/2 576/4/2 574/2/2
f 384/5/3 577/6/3 578/7/3
f 384/5/3 385/8/3 577/6/3
f 398/5/4 579/7/4 580/6/4
f 398/5/4 580/6/4 399/8/4
f 398/5/5 380/6/5 381/7/5
f 398/5/5 399/8/5 380/6/5
f 581/5/6 580/6/6 579/7/6
f 581/5/6 582/8/6 580/6/6
f 583/1/1 584/2/1 585/3/1
f 583/1/1 586/4/1 584/2/1
f 587/1/2 588/2/2 589/3/2
f 587/1/2 590/4/2 588/2/2
f 398/5/3 580/6/3 579/7/3
f 398/5/3 399/8/3 580/6/3
f 591/5/4 592/7/4 593/6/4
f 591/5/4 593/6/4 594/8/4
f 591/5/5 383/6/5 382/7/5
f 591/5/5 594/8/5 383/6/5
f 595/5/6 593/6/6 592/7/6
f 595/5/6 596/8/6 593/6/6
f 552/1/1 597/2/1 598/3/1
f 552/1/1 551/4/1 597/2/1
f 599/1/2 600/2/2 601/3/2
f 599/1/2 602/4/2 600/2/2
f 603/5/3 604/6/3 605/7/3
f 603/5/3 606/8/3 604/6/3
f 607/5/4 608/7/4 609/6/4
f 607/5/4 609/6/4 610/8/4
f 607/5/5 611/6/5 612/7/5
f 607/5/5 610/8/5 611/6/5
f 613/5/6 609/6/6 608/7/6
f 613/5/6 614/8/6 609/6/6
f 615/1/1 616/2/1 617/3/1
f 615/1/1 618/4/1 616/2/1
f 619/1/2 620/2/2 621/3/2
f 619/1/2 622/4/2 620/2/2
f 623/5/3 624/6/3 625/7/3
f 623/5/3 626/8/3 624/6/3
f 627/5/4 628/7/4 629/6/4
f 627/5/4 629/6/4 630/8/4
f 627/5/5 631/6/5 632/7/5
f 627/5/5 630/8/5 631/6/5
f 633/5/6 629/6/6 628/7/6
f 633/5/6 634/8/6 629/6/6
f 635/1/1 636/2/1 637/3/1
f 635/1/1 638/4/1 636/2/1
f 639/1/2 640/2/2 641/3/2
f 639/1/2 642/4/2 640/2/2
f 581/5/3 643/6/3 644/7/3
f 581/5/3 582/8/3 643/6/3
f 595/5/4 645/7/4 646/6/4
f 595/5/4 646/6/4 596/8/4
f 595/5/5 577/6/5 578/7/5
f 595/5/5 596/8/5 577/6/5
f 647/5/6 646/6/6 645/7/6
f 647/5/6 648/8/6 646/6/6
f 649/1/1 650/2/1 651/3/1
f 649/1/1 652/4/1 650/2/1
f 653/1/2 654/2/2 655/3/2
f 653/1/2 656/4/2 654/2/2
f 595/5/3 646/6/3 645/7/3
f 595/5/3 596/8/3 646/6/3
f 657/5/4 658/7/4 659/6/4
f 657/5/4 659/6/4 660/8/4
f 657/5/5 580/6/5 579/7/5
f 657/5/5 660/8/5 580/6/5
f 661/5/6 659/6/6 658/7/6
f 661/5/6 662/8/6 659/6/6
f 663/9/1 664/10/1 665/11/1
f 663/9/1 666/12/1 664/10/1
f 667/9/2 668/10/2 669/11/2
f 667/9/2 670/12/2 668/10/2
f 671/10/3 672/9/3 673/12/3
f 671/10/3 674/11/3 672/9/3
f 675/12/4 676/10/4 677/11/4
f 675/12/4 677/11/4 678/9/4
f 679/10/5 667/9/5 666/12/5
f 679/10/5 680/11/5 667/9/5
f 673/12/6 677/11/6 676/10/6
f 673/12/6 672/9/6 677/11/6
f 681/1/1 682/2/1 683/3/1
f 681/1/1 684/4/1 682/2/1
f 685/1/2 686/2/2 687/3/2
f 685/1/2 688/4/2 686/2/2
f 684/4/3 687/3/3 682/2/3
f 684/4/3 685/1/3 687/3/3
f 689/4/4 690/2/4 691/3/4
f 689/4/4 691/3/4 692/1/4
f 689/4/5 693/3/5 694/2/5
f 689/4/5 692/1/5 693/3/5
f 695/4/6 691/3/6 690/2/6
f 695/4/6 696/1/6 691/3/6
f 697/1/1 698/2/1 699/3/1
f 697/1/1 700/4/1 698/2/1
f 701/1/2 702/2/2 703/3/2
f 701/1/2 704/4/2 702/2/2
f 647/5/3 705/6/3 706/7/3
f 647/5/3 648/8/3 705/6/3
f 661/5/4 707/7/4 708/6/4
f 661/5/4 708/6/4 662/8/4
f 661/5/5 643/6/5 644/7/5
f 661/5/5 662/8/5 643/6/5
f 709/5/6 708/6/6 707/7/6
f 709/5/6 710/8/6 708/6/6
f 711/1/1 712/2/1 713/3/1
f 711/1/1 714/4/1 712/2/1
f 715/1/2 716/2/2 717/3/2
f 715/1/2 718/4/2 716/2/2
f 661/5/3 708/6/3 707/7/3
f 661/5/3 662/8/3 708/6/3
f 719/5/4 720/7/4 721/6/4
f 719/5/4 721/6/4 722/8/4
f 719/5/5 646/6/5 645/7/5
f 719/5/5 722/8/5 646/6/5
f 723/5/6 721/6/6 720/7/6
f 723/5/6 724/8/6 721/6/6
f 725/1/1 726/2/1 727/3/1
f 725/1/1 728/4/1 726/2/1
f 729/1/2 730/2/2 731/3/2
f 729/1/2 732/4/2 730/2/2
f 733/5/3 734/6/3 735/7/3
f 733/5/3 736/8/3 734/6/3
f 737/5/4 738/7/4 739/6/4
f 737/5/4 739/6/4 740/8/4
f 737/5/5 741/6/5 742/7/5
f 737/5/5 740/8/5 741/6/5
f 743/5/6 739/6/6 738/7/6
f 743/5/6 744/8/6 739/6/6
f 745/1/1 746/2/1 747/3/1
f 745/1/1 695/4/1 746/2/1
f 696/1/2 748/2/2 749/3/2
f 696/1/2 750/4/2 748/2/2
f 751/5/3 752/6/3 753/7/3
f 751/5/3 754/8/3 752/6/3
f 755/5/4 756/7/4 757/6/4
f 755/5/4 757/6/4 758/8/4
f 755/5/5 759/6/5 760/7/5
f 755/5/5 758/8/5 759/6/5
f 761/5/6 757/6/6 756/7/6
f 761/5/6 762/8/6 757/6/6
f 763/1/1 764/2/1 765/3/1
f 763/1/1 766/4/1 764/2/1
f 767/1/2 768/2/2 769/3/2
f 767/1/2 770/4/2 768/2/2
f 723/5/3 771/6/3 772/7/3
f 723/5/3 724/8/3 771/6/3
f 773/5/4 774/7/4 775/6/4
f 773/5/4 775/6/4 776/8/4
f 773/5/5 708/6/5 707/7/5
f 773/5/5 776/8/5 708/6/5
f 777/5/6 775/6/6 774/7/6
f 777/5/6 778/8/6 775/6/6
f 779/13/1 780/4/1 781/1/1
f 779/13/1 782/14/1 780/4/1
f 783/1/2 784/2/2 785/3/2
f 783/1/2 786/4/2 784/2/2
f 787/15/3 788/13/3 789/14/3
f 787/15/3 790/16/3 788/13/3
f 791/15/4 792/14/4 793/13/4
f 791/15/4 793/13/4 794/16/4
f 791/15/5 795/13/5 782/14/5
f 791/15/5 794/16/5 795/13/5
f 796/15/6 793/13/6 792/14/6
f 796/15/6 797/16/6 793/13/6
f 798/1/1 799/2/1 800/3/1
f 798/1/1 801/4/1 799/2/1
f 802/1/2 803/2/2 804/3/2
f 802/1/2 805/4/2 803/2/2
f 777/5/3 806/6/3 807/7/3
f 777/5/3 778/8/3 806/6/3
f 808/5/4 809/7/4 810/6/4
f 808/5/4 810/6/4 811/8/4
f 808/5/5 771/6/5 772/7/5
f 808/5/5 811/8/5 771/6/5
f 812/5/6 810/6/6 809/7/6
f 812/5/6 813/8/6 810/6/6
f 814/1/1 815/2/1 816/3/1
f 814/1/1 817/4/1 815/2/1
f 818/1/2 819/2/2 820/3/2
f 818/1/2 821/4/2 819/2/2
f 822/5/3 823/6/3 824/7/3
f 822/5/3 825/8/3 823/6/3
f 812/5/4 826/7/4 827/6/4
f 812/5/4 827/6/4 813/8/4
f 812/5/5 828/6/5 829/7/5
f 812/5/5 813/8/5 828/6/5
f 830/5/6 827/6/6 826/7/6
f 830/5/6 831/8/6 827/6/6
f 832/1/1 833/2/1 834/3/1
f 832/1/1 835/4/1 833/2/1
f 836/1/2 837/2/2 838/3/2
f 836/1/2 839/4/2 837/2/2
f 812/5/3 827/6/3 826/7/3
f 812/5/3 813/8/3 827/6/3
f 840/5/4 841/7/4 842/6/4
f 840/5/4 842/6/4 843/8/4
f 840/5/5 806/6/5 807/7/5
f 840/5/5 843/8/5 806/6/5
f 844/5/6 842/6/6 841/7/6
f 844/5/6 845/8/6 842/6/6
f 846/1/1 819/2/1 847/3/1
f 846/1/1 821/4/1 819/2/1
f 848/1/2 849/2/2 850/3/2
f 848/1/2 851/4/2 849/2/2
f 852/5/3 853/6/3 854/7/3
f 852/5/3 855/8/3 853/6/3
f 856/5/4 857/7/4 858/6/4
f 856/5/4 858/6/4 859/8/4
f 856/5/5 860/6/5 861/7/5
f 856/5/5 859/8/5 860/6/5
f 862/5/6 858/6/6 857/7/6
f 862/5/6 863/8/6 858/6/6
f 864/1/1 865/2/1 866/3/1
f 864/1/1 867/4/1 865/2/1
f 868/1/2 869/2/2 870/3/2
f 868/1/2 871/4/2 869/2/2
f 872/5/3 873/6/3 874/7/3
f 872/5/3 875/8/3 873/6/3
f 876/5/4 877/7/4 878/6/4
f 876/5/4 878/6/4 879/8/4
f 876/5/5 880/6/5 881/7/5
f 876/5/5 879/8/5 880/6/5
f 882/5/6 878/6/6 877/7/6
f 882/5/6 883/8/6 878/6/6
f 884/17/1 885/18/1 886/19/1
f 884/17/1 887/20/1 885/18/1
f 888/17/2 889/18/2 890/19/2
f 888/17/2 891/20/2 889/18/2
f 887/20/3 890/19/3 885/18/3
f 887/20/3 888/17/3 890/19/3
f 892/20/4 893/18/4 894/19/4
f 892/20/4 894/19/4 895/17/4
f 892/20/5 896/19/5 897/18/5
f 892/20/5 895/17/5 896/19/5
f 898/20/6 894/19/6 893/18/6
f 898/20/6 899/17/6 894/19/6
f 900/1/1 901/2/1 902/3/1
f 900/1/1 903/4/1 901/2/1
f 904/1/2 905/2/2 906/3/2
f 904/1/2 907/4/2 905/2/2
f 908/5/3 909/6/3 910/7/3
f 908/5/3 911/8/3 909/6/3
f 912/5/4 913/7/4 914/6/4
f 912/5/4 914/6/4 915/8/4
f 912/5/5 916/6/5 917/7/5
f 912/5/5 915/8/5 916/6/5
f 918/5/6 914/6/6 913/7/6
f 918/5/6 919/8/6 914/6/6
f 920/17/1 921/18/1 922/19/1
f 920/17/1 923/20/1 921/18/1
f 924/17/2 925/18/2 926/19/2
f 924/17/2 927/20/2 925/18/2
f 923/20/3 926/19/3 921/18/3
f 923/20/3 924/17/3 926/19/3
f 928/20/4 929/18/4 930/19/4
f 928/20/4 930/19/4 931/17/4
f 928/20/5 932/19/5 933/18/5
f 928/20/5 931/17/5 932/19/5
f 934/20/6 930/19/6 929/18/6
f 934/20/6 935/17/6 930/19/6
f 936/13/1 937/4/1 938/1/1
f 936/13/1 939/14/1 937/4/1
f 940/1/2 941/2/2 942/3/2
f 940/1/2 943/4/2 941/2/2
f 944/15/3 945/13/3 946/14/3
f 944/15/3 947/16/3 945/13/3
f 948/15/4 949/14/4 950/13/4
f 948/15/4 950/13/4 951/16/4
f 948/15/5 952/13/5 939/14/5
f 948/15/5 951/16/5 952/13/5
f 953/15/6 950/13/6 949/14/6
f 953/15/6 954/16/6 950/13/6
f 955/9/1 956/10/1 957/11/1
f 955/9/1 958/12/1 956/10/1
f 959/9/2 960/10/2 961/11/2
f 959/9/2 962/12/2 960/10/2
f 963/10/3 964/9/3 965/12/3
f 963/10/3 966/11/3 964/9/3
f 967/12/4 968/10/4 969/11/4
f 967/12/4 969/11/4 970/9/4
f 971/10/5 959/9/5 958/12/5
f 971/10/5 972/11/5 959/9/5
f 965/12/6 969/11/6 968/10/6
f 965/12/6 964/9/6 969/11/6
f 973/1/1 974/2/1 975/3/1
f 973/1/1 976/4/1 974/2/1
f 977/1/2 978/2/2 979/3/2
f 977/1/2 980/4/2 978/2/2
f 981/5/3 982/6/3 983/7/3
f 981/5/3 984/8/3 982/6/3
f 985/5/4 986/7/4 987/6/4
f 985/5/4 987/6/4 988/8/4
f 985/5/5 989/6/5 990/7/5
f 985/5/5 988/8/5 989/6/5
f 991/5/6 987/6/6 986/7/6
f 991/5/6 992/8/6 987/6/6
f 993/1/1 994/2/1 995/3/1
f 993/1/1 996/4/1 994/2/1
f 997/1/2 998/2/2 999/3/2
f 997/1/2 1000/4/2 998/2/2
f 830/5/3 1001/6/3 1002/7/3
f 830/5/3 831/8/3 1001/6/3
f 844/5/4 1003/7/4 1004/6/4
f 844/5/4 1004/6/4 845/8/4
f 844/5/5 823/6/5 824/7/5
f 844/5/5 845/8/5 823/6/5
f 1005/5/6 1004/6/6 1003/7/6
f 1005/5/6 1006/8/6 1004/6/6
f 1007/1/1 1008/2/1 1009/3/1
f 1007/1/1 1010/4/1 1008/2/1
f 1011/1/2 1012/2/2 1013/3/2
f 1011/1/2 1014/4/2 1012/2/2
f 844/5/3 1004/6/3 1003/7/3
f 844/5/3 845/8/3 1004/6/3
f 1015/5/4 1016/7/4 1017/6/4
f 1015/5/4 1017/6/4 1018/8/4
f 1015/5/5 827/6/5 826/7/5
f 1015/5/5 1018/8/5 827/6/5
f 1019/5/6 1017/6/6 1016/7/6
f 1019/5/6 1020/8/6 1017/6/6
f 1021/13/1 1022/4/1 1023/1/1
f 1021/13/1 1024/14/1 1022/4/1
f 1025/1/2 1026/2/2 1027/3/2
f 1025/1/2 1028/4/2 1026/2/2
f 1029/15/3 1030/13/3 1031/14/3
f 1029/15/3 1032/16/3 1030/13/3
f 1033/15/4 1034/14/4 1035/13/4
f 1033/15/4 1035/13/4 1036/16/4
f 1033/15/5 1037/13/5 1024/14/5
f 1033/15/5 1036/16/5 1037/13/5
f 1038/15/6 1035/13/6 1034/14/6
f 1038/15/6 1039/16/6 1035/13/6
f 1040/13/1 1041/4/1 1042/1/1
f 1040/13/1 1043/14/1 1041/4/1
f 1044/1/2 1045/2/2 1046/3/2
f 1044/1/2 1047/4/2 1045/2/2
f 1048/15/3 1049/13/3 1050/14/3
f 1048/15/3 1051/16/3 1049/13/3
f 1052/15/4 1053/14/4 1054/13/4
f 1052/15/4 1054/13/4 1055/16/4
f 1052/15/5 1056/13/5 1043/14/5
f 1052/15/5 1055/16/5 1056/13/5
f 1057/15/6 1054/13/6 1053/14/6
f 1057/15/6 1058/16/6 1054/13/6
f 1059/13/1 1060/4/1 1061/1/1
f 1059/13/1 1062/14/1 1060/4/1
f 1063/1/2 1064/2/2 1065/3/2
f 1063/1/2 1066/4/2 1064/2/2
f 1067/15/3 1068/13/3 1069/14/3
f 1067/15/3 1070/16/3 1068/13/3
f 1071/15/4 1072/14/4 1073/13/4
f 1071/15/4 1073/13/4 1074/16/4
f 1071/15/5 1075/13/5 1062/14/5
f 1071/15/5 1074/16/5 1075/13/5
f 1076/15/6 1073/13/6 1072/14/6
f 1076/15/6 1077/16/6 1073/13/6
f 1078/1/1 1079/2/1 1080/3/1
f 1078/1/1 1081/4/1 1079/2/1
f 1082/1/2 1083/2/2 1084/3/2
f 1082/1/2 1085/4/2 1083/2/2
f 918/5/3 1086/6/3 1087/7/3
f 918/5/3 919/8/3 1086/6/3
f 1088/5/4 1089/7/4 1090/6/4
f 1088/5/4 1090/6/4 1091/8/4
f 1088/5/5 909/6/5 910/7/5
f 1088/5/5 1091/8/5 909/6/5
f 1092/5/6 1090/6/6 1089/7/6
f 1092/5/6 1093/8/6 1090/6/6
f 1094/1/1 1095/2/1 1096/3/1
f 1094/1/1 1097/4/1 1095/2/1
f 1098/1/2 1099/2/2 1100/3/2
f 1098/1/2 1022/4/2 1099/2/2
f 1005/5/3 1101/6/3 1102/7/3
f 1005/5/3 1006/8/3 1101/6/3
f 1019/5/4 1103/7/4 1104/6/4
f 1019/5/4 1104/6/4 1020/8/4
f 1019/5/5 1001/6/5 1002/7/5
f 1019/5/5 1020/8/5 1001/6/5
f 1105/5/6 1104/6/6 1103/7/6
f 1105/5/6 1106/8/6 1104/6/6
f 1107/13/1 1108/4/1 1109/1/1
f 1107/13/1 1031/14/1 1108/4/1
f 1110/1/2 1111/2/2 1112/3/2
f 1110/1/2 1113/4/2 1111/2/2
f 1038/15/3 1114/13/3 1115/14/3
f 1038/15/3 1039/16/3 1114/13/3
f 1116/15/4 1117/14/4 1118/13/4
f 1116/15/4 1118/13/4 1119/16/4
f 1116/15/5 1030/13/5 1031/14/5
f 1116/15/5 1119/16/5 1030/13/5
f 1120/15/6 1118/13/6 1117/14/6
f 1120/15/6 1121/16/6 1118/13/6
f 1042/1/1 1122/2/1 1123/3/1
f 1042/1/1 1041/4/1 1122/2/1
f 1124/1/2 1125/2/2 1126/3/2
f 1124/1/2 1127/4/2 1125/2/2
f 1128/5/3 1129/6/3 1130/7/3
f 1128/5/3 1131/8/3 1129/6/3
f 1132/5/4 1133/7/4 1134/6/4
f 1132/5/4 1134/6/4 1135/8/4
f 1132/5/5 1136/6/5 1137/7/5
f 1132/5/5 1135/8/5 1136/6/5
f 1138/5/6 1134/6/6 1133/7/6
f 1138/5/6 1139/8/6 1134/6/6
f 1140/21/1 1141/22/1 1142/23/1
f 1140/21/1 1143/24/1 1141/22/1
f 1144/21/2 1145/22/2 1146/23/2
f 1144/21/2 1147/24/2 1145/22/2
f 1143/24/3 1146/23/3 1141/22/3
f 1143/24/3 1144/21/3 1146/23/3
f 1148/24/4 1149/22/4 1150/23/4
f 1148/24/4 1150/23/4 1151/21/4
f 1148/24/5 1152/23/5 1153/22/5
f 1148/24/5 1151/21/5 1152/23/5
f 1154/24/6 1150/23/6 1149/22/6
f 1154/24/6 1155/21/6 1150/23/6
f 1156/1/1 1157/2/1 1158/3/1
f 1156/1/1 1159/4/1 1157/2/1
f 1160/1/2 1161/2/2 1162/3/2
f 1160/1/2 1163/4/2 1161/2/2
f 1164/5/3 1165/6/3 1166/7/3
f 1164/5/3 1167/8/3 1165/6/3
f 1168/5/4 1169/7/4 1170/6/4
f 1168/5/4 1170/6/4 1171/8/4
f 1168/5/5 1104/6/5 1103/7/5
f 1168/5/5 1171/8/5 1104/6/5
f 1172/5/6 1170/6/6 1169/7/6
f 1172/5/6 1173/8/6 1170/6/6
# Vertices: 1173, normals: 6, texture coordinates: 24, faces: 828

