# File generated by ImageToStl.com - Free Image and 3D model conversion tools

mtllib dome_chapel.mtl

o obj1
v -0.5 -0.5 4.5
v 0.5 -0.5 3.5
v 0.5 -0.5 4.5
v -0.5 -0.5 3.5
v -0.5 0.5 3.5
v 0.5 0.5 4.5
v 0.5 0.5 3.5
v -0.5 0.5 4.5
v -0.5 -0.5 3.5
v 0.5 0.5 3.5
v 0.5 -0.5 3.5
v -0.5 0.5 3.5
v -0.5 -0.5 4.5
v 0.5 -0.5 4.5
v 0.5 0.5 4.5
v -0.5 0.5 4.5
v -0.5 0.5 3.5
v -0.5 -0.5 3.5
v 0.5 -0.5 3.5
v 0.5 0.5 3.5
v -0.5 -0.5 5.5
v 0.5 -0.5 4.5
v 0.5 -0.5 5.5
v -0.5 -0.5 4.5
v -0.5 0.5 4.5
v 0.5 0.5 5.5
v 0.5 0.5 4.5
v -0.5 0.5 5.5
v -0.5 -0.5 5.5
v 0.5 -0.5 5.5
v 0.5 0.5 5.5
v -0.5 0.5 5.5
v -0.5 0.5 4.5
v -0.5 -0.5 4.5
v 0.5 -0.5 4.5
v 0.5 0.5 4.5
v 0.5 -0.5 3.5
v 1.5 -0.5 2.5
v 1.5 -0.5 3.5
v 0.5 -0.5 2.5
v 0.5 0.5 2.5
v 1.5 0.5 3.5
v 1.5 0.5 2.5
v 0.5 0.5 3.5
v 0.5 -0.5 2.5
v 1.5 0.5 2.5
v 1.5 -0.5 2.5
v 0.5 0.5 2.5
v 1.5 -0.5 3.5
v 1.5 0.5 3.5
v 0.5 0.5 2.5
v 0.5 -0.5 2.5
v 1.5 -0.5 2.5
v 1.5 0.5 2.5
v 0.5 -0.5 4.5
v 1.5 -0.5 3.5
v 1.5 -0.5 4.5
v 0.5 -0.5 3.5
v 0.5 0.5 3.5
v 1.5 0.5 4.5
v 1.5 0.5 3.5
v 0.5 0.5 4.5
v 1.5 -0.5 4.5
v 1.5 0.5 4.5
v 1.5 -0.5 3.5
v 1.5 0.5 3.5
v 0.5 -0.5 5.5
v 1.5 -0.5 4.5
v 1.5 -0.5 5.5
v 0.5 -0.5 4.5
v 0.5 0.5 4.5
v 1.5 0.5 5.5
v 1.5 0.5 4.5
v 0.5 0.5 5.5
v 0.5 -0.5 5.5
v 1.5 -0.5 5.5
v 1.5 0.5 5.5
v 0.5 0.5 5.5
v 1.5 -0.5 4.5
v 1.5 0.5 4.5
v 0.5 -0.5 6.5
v 1.5 -0.5 5.5
v 1.5 -0.5 6.5
v 0.5 -0.5 5.5
v 0.5 0.5 5.5
v 1.5 0.5 6.5
v 1.5 0.5 5.5
v 0.5 0.5 6.5
v 0.5 -0.5 6.5
v 1.5 -0.5 6.5
v 1.5 0.5 6.5
v 0.5 0.5 6.5
v 1.5 -0.5 5.5
v 1.5 0.5 5.5
v 0.5 4.5 1.5
v 1.5 4.5 0.5
v 1.5 4.5 1.5
v 0.5 4.5 0.5
v 0.5 5.5 0.5
v 1.5 5.5 1.5
v 1.5 5.5 0.5
v 0.5 5.5 1.5
v 0.5 4.5 0.5
v 1.5 5.5 0.5
v 1.5 4.5 0.5
v 0.5 5.5 0.5
v 0.5 4.5 1.5
v 1.5 4.5 1.5
v 1.5 5.5 1.5
v 0.5 5.5 1.5
v 0.5 5.5 0.5
v 0.5 4.5 0.5
v 1.5 4.5 0.5
v 1.5 5.5 0.5
v 0.5 4.5 2.5
v 1.5 4.5 1.5
v 1.5 4.5 2.5
v 0.5 4.5 1.5
v 0.5 5.5 1.5
v 1.5 5.5 2.5
v 1.5 5.5 1.5
v 0.5 5.5 2.5
v 0.5 4.5 2.5
v 1.5 4.5 2.5
v 1.5 5.5 2.5
v 0.5 5.5 2.5
v 0.5 5.5 1.5
v 0.5 4.5 1.5
v 1.5 4.5 1.5
v 1.5 5.5 1.5
v 1.5 -0.5 4.5
v 2.5 -0.5 3.5
v 2.5 -0.5 4.5
v 1.5 -0.5 3.5
v 1.5 0.5 3.5
v 2.5 0.5 4.5
v 2.5 0.5 3.5
v 1.5 0.5 4.5
v 2.5 0.5 3.5
v 2.5 -0.5 3.5
v 2.5 -0.5 4.5
v 2.5 0.5 4.5
v 2.5 -0.5 3.5
v 2.5 0.5 3.5
v 1.5 -0.5 5.5
v 2.5 -0.5 4.5
v 2.5 -0.5 5.5
v 1.5 -0.5 4.5
v 1.5 0.5 4.5
v 2.5 0.5 5.5
v 2.5 0.5 4.5
v 1.5 0.5 5.5
v 2.5 -0.5 5.5
v 2.5 0.5 5.5
v 2.5 -0.5 4.5
v 2.5 0.5 4.5
v 1.5 0.5 5.5
v 2.5 0.5 4.5
v 2.5 0.5 5.5
v 1.5 0.5 4.5
v 1.5 1.5 4.5
v 2.5 1.5 5.5
v 2.5 1.5 4.5
v 1.5 1.5 5.5
v 1.5 0.5 5.5
v 2.5 0.5 5.5
v 2.5 1.5 5.5
v 1.5 1.5 5.5
v 1.5 1.5 4.5
v 1.5 0.5 4.5
v 2.5 0.5 4.5
v 2.5 1.5 4.5
v 1.5 1.5 5.5
v 2.5 1.5 4.5
v 2.5 1.5 5.5
v 1.5 1.5 4.5
v 1.5 2.5 4.5
v 2.5 2.5 5.5
v 2.5 2.5 4.5
v 1.5 2.5 5.5
v 1.5 1.5 4.5
v 2.5 2.5 4.5
v 2.5 1.5 4.5
v 1.5 2.5 4.5
v 1.5 1.5 5.5
v 2.5 1.5 5.5
v 2.5 2.5 5.5
v 1.5 2.5 5.5
v 1.5 2.5 4.5
v 2.5 1.5 4.5
v 2.5 2.5 4.5
v 1.5 2.5 5.5
v 2.5 2.5 4.5
v 2.5 2.5 5.5
v 1.5 2.5 4.5
v 1.5 3.5 4.5
v 2.5 3.5 5.5
v 2.5 3.5 4.5
v 1.5 3.5 5.5
v 1.5 2.5 4.5
v 2.5 3.5 4.5
v 2.5 2.5 4.5
v 1.5 3.5 4.5
v 1.5 2.5 5.5
v 2.5 2.5 5.5
v 2.5 3.5 5.5
v 1.5 3.5 5.5
v 1.5 3.5 4.5
v 1.5 2.5 4.5
v 2.5 2.5 4.5
v 2.5 3.5 4.5
v 2.5 3.5 3.5
v 1.5 3.5 3.5
v 1.5 4.5 3.5
v 2.5 4.5 4.5
v 2.5 4.5 3.5
v 1.5 4.5 4.5
v 1.5 3.5 3.5
v 2.5 4.5 3.5
v 2.5 3.5 3.5
v 1.5 4.5 3.5
v 1.5 3.5 4.5
v 2.5 3.5 4.5
v 2.5 4.5 4.5
v 1.5 4.5 4.5
v 1.5 4.5 3.5
v 1.5 3.5 3.5
v 2.5 3.5 3.5
v 2.5 4.5 3.5
v 1.5 3.5 5.5
v 2.5 3.5 4.5
v 2.5 3.5 5.5
v 1.5 3.5 4.5
v 1.5 4.5 4.5
v 2.5 4.5 5.5
v 2.5 4.5 4.5
v 1.5 4.5 5.5
v 1.5 3.5 5.5
v 2.5 3.5 5.5
v 2.5 4.5 5.5
v 1.5 4.5 5.5
v 1.5 4.5 4.5
v 1.5 3.5 4.5
v 2.5 3.5 4.5
v 2.5 4.5 4.5
v 2.5 4.5 3.5
v 1.5 4.5 3.5
v 1.5 5.5 3.5
v 2.5 5.5 4.5
v 2.5 5.5 3.5
v 1.5 5.5 4.5
v 1.5 4.5 3.5
v 2.5 5.5 3.5
v 2.5 4.5 3.5
v 1.5 5.5 3.5
v 1.5 4.5 4.5
v 2.5 4.5 4.5
v 2.5 5.5 4.5
v 1.5 5.5 4.5
v 1.5 5.5 3.5
v 1.5 4.5 3.5
v 2.5 4.5 3.5
v 2.5 5.5 3.5
v 1.5 4.5 5.5
v 2.5 4.5 5.5
v 1.5 5.5 4.5
v 2.5 5.5 5.5
v 2.5 5.5 4.5
v 1.5 5.5 5.5
v 2.5 5.5 5.5
v 1.5 5.5 5.5
v 1.5 5.5 4.5
v 1.5 4.5 4.5
v 2.5 4.5 4.5
v 2.5 5.5 4.5
v 1.5 5.5 1.5
v 2.5 5.5 0.5
v 2.5 5.5 1.5
v 1.5 5.5 0.5
v 1.5 6.5 0.5
v 2.5 6.5 1.5
v 2.5 6.5 0.5
v 1.5 6.5 1.5
v 1.5 5.5 0.5
v 2.5 6.5 0.5
v 2.5 5.5 0.5
v 1.5 6.5 0.5
v 1.5 5.5 1.5
v 2.5 5.5 1.5
v 2.5 6.5 1.5
v 1.5 6.5 1.5
v 1.5 6.5 0.5
v 1.5 5.5 0.5
v 2.5 5.5 0.5
v 2.5 6.5 0.5
v 1.5 5.5 2.5
v 2.5 5.5 1.5
v 2.5 5.5 2.5
v 1.5 5.5 1.5
v 1.5 6.5 1.5
v 2.5 6.5 2.5
v 2.5 6.5 1.5
v 1.5 6.5 2.5
v 1.5 5.5 2.5
v 2.5 5.5 2.5
v 2.5 6.5 2.5
v 1.5 6.5 2.5
v 1.5 6.5 1.5
v 1.5 5.5 1.5
v 2.5 5.5 1.5
v 2.5 6.5 1.5
v 2.5 5.5 3.5
v 1.5 5.5 3.5
v 1.5 6.5 3.5
v 2.5 6.5 4.5
v 2.5 6.5 3.5
v 1.5 6.5 4.5
v 1.5 5.5 3.5
v 2.5 6.5 3.5
v 2.5 5.5 3.5
v 1.5 6.5 3.5
v 1.5 5.5 4.5
v 2.5 5.5 4.5
v 2.5 6.5 4.5
v 1.5 6.5 4.5
v 1.5 6.5 3.5
v 1.5 5.5 3.5
v 2.5 5.5 3.5
v 2.5 6.5 3.5
v 2.5 -0.5 5.5
v 3.5 -0.5 4.5
v 3.5 -0.5 5.5
v 2.5 -0.5 4.5
v 2.5 0.5 4.5
v 3.5 0.5 5.5
v 3.5 0.5 4.5
v 2.5 0.5 5.5
v 3.5 0.5 4.5
v 3.5 -0.5 4.5
v 2.5 -0.5 5.5
v 3.5 -0.5 5.5
v 3.5 0.5 5.5
v 2.5 0.5 5.5
v 3.5 -0.5 4.5
v 3.5 0.5 4.5
v 2.5 0.5 5.5
v 3.5 0.5 4.5
v 3.5 0.5 5.5
v 2.5 0.5 4.5
v 2.5 1.5 4.5
v 3.5 1.5 5.5
v 3.5 1.5 4.5
v 2.5 1.5 5.5
v 2.5 0.5 5.5
v 3.5 0.5 5.5
v 3.5 1.5 5.5
v 2.5 1.5 5.5
v 2.5 1.5 4.5
v 2.5 0.5 4.5
v 3.5 0.5 4.5
v 3.5 1.5 4.5
v 3.5 1.5 4.5
v 3.5 1.5 5.5
v 2.5 2.5 4.5
v 3.5 2.5 5.5
v 3.5 2.5 4.5
v 2.5 2.5 5.5
v 2.5 1.5 5.5
v 3.5 1.5 5.5
v 3.5 2.5 5.5
v 2.5 2.5 5.5
v 2.5 1.5 4.5
v 3.5 1.5 4.5
v 3.5 2.5 4.5
v 3.5 2.5 4.5
v 3.5 2.5 5.5
v 2.5 2.5 4.5
v 2.5 3.5 4.5
v 3.5 3.5 5.5
v 3.5 3.5 4.5
v 2.5 3.5 5.5
v 2.5 2.5 4.5
v 3.5 3.5 4.5
v 3.5 2.5 4.5
v 2.5 3.5 4.5
v 2.5 2.5 5.5
v 3.5 2.5 5.5
v 3.5 3.5 5.5
v 2.5 3.5 5.5
v 2.5 3.5 4.5
v 3.5 2.5 4.5
v 3.5 3.5 4.5
v 2.5 3.5 5.5
v 3.5 3.5 4.5
v 3.5 3.5 5.5
v 2.5 3.5 4.5
v 2.5 4.5 4.5
v 3.5 4.5 5.5
v 3.5 4.5 4.5
v 2.5 4.5 5.5
v 3.5 4.5 4.5
v 3.5 3.5 4.5
v 2.5 3.5 5.5
v 3.5 3.5 5.5
v 3.5 4.5 5.5
v 2.5 4.5 5.5
v 3.5 3.5 4.5
v 3.5 4.5 4.5
v 2.5 4.5 5.5
v 3.5 4.5 4.5
v 3.5 4.5 5.5
v 2.5 4.5 4.5
v 2.5 5.5 4.5
v 3.5 5.5 5.5
v 3.5 5.5 4.5
v 2.5 5.5 5.5
v 2.5 4.5 5.5
v 3.5 4.5 5.5
v 3.5 5.5 5.5
v 2.5 5.5 5.5
v 2.5 5.5 4.5
v 2.5 4.5 4.5
v 3.5 4.5 4.5
v 3.5 5.5 4.5
v 3.5 5.5 3.5
v 3.5 5.5 4.5
v 2.5 5.5 3.5
v 2.5 6.5 3.5
v 3.5 6.5 4.5
v 3.5 6.5 3.5
v 2.5 6.5 4.5
v 3.5 6.5 3.5
v 3.5 5.5 3.5
v 2.5 5.5 4.5
v 3.5 5.5 4.5
v 3.5 6.5 4.5
v 2.5 6.5 4.5
v 3.5 5.5 3.5
v 3.5 6.5 3.5
v 2.5 5.5 5.5
v 3.5 5.5 4.5
v 3.5 5.5 5.5
v 2.5 5.5 4.5
v 2.5 6.5 4.5
v 3.5 6.5 5.5
v 3.5 6.5 4.5
v 2.5 6.5 5.5
v 2.5 5.5 5.5
v 3.5 5.5 5.5
v 3.5 6.5 5.5
v 2.5 6.5 5.5
v 3.5 5.5 4.5
v 3.5 6.5 4.5
v 2.5 6.5 2.5
v 3.5 6.5 1.5
v 3.5 6.5 2.5
v 2.5 6.5 1.5
v 2.5 7.5 1.5
v 3.5 7.5 2.5
v 3.5 7.5 1.5
v 2.5 7.5 2.5
v 2.5 6.5 1.5
v 3.5 7.5 1.5
v 3.5 6.5 1.5
v 2.5 7.5 1.5
v 2.5 6.5 2.5
v 3.5 6.5 2.5
v 3.5 7.5 2.5
v 2.5 7.5 2.5
v 2.5 7.5 1.5
v 2.5 6.5 1.5
v 3.5 6.5 1.5
v 3.5 7.5 1.5
v 3.5 -0.5 5.5
v 4.5 -0.5 4.5
v 4.5 -0.5 5.5
v 3.5 -0.5 4.5
v 3.5 0.5 4.5
v 4.5 0.5 5.5
v 4.5 0.5 4.5
v 3.5 0.5 5.5
v 4.5 0.5 4.5
v 4.5 -0.5 4.5
v 3.5 -0.5 5.5
v 4.5 -0.5 5.5
v 4.5 0.5 5.5
v 3.5 0.5 5.5
v 4.5 -0.5 4.5
v 4.5 0.5 4.5
v 3.5 -0.5 6.5
v 4.5 -0.5 5.5
v 4.5 -0.5 6.5
v 3.5 -0.5 5.5
v 3.5 0.5 5.5
v 4.5 0.5 6.5
v 4.5 0.5 5.5
v 3.5 0.5 6.5
v 3.5 -0.5 6.5
v 4.5 -0.5 6.5
v 4.5 0.5 6.5
v 3.5 0.5 6.5
v 4.5 -0.5 5.5
v 4.5 0.5 5.5
v 3.5 0.5 5.5
v 4.5 0.5 4.5
v 4.5 0.5 5.5
v 3.5 0.5 4.5
v 3.5 1.5 4.5
v 4.5 1.5 5.5
v 4.5 1.5 4.5
v 3.5 1.5 5.5
v 3.5 0.5 5.5
v 4.5 0.5 5.5
v 4.5 1.5 5.5
v 3.5 1.5 5.5
v 3.5 1.5 4.5
v 3.5 0.5 4.5
v 4.5 0.5 4.5
v 4.5 1.5 4.5
v 3.5 1.5 5.5
v 4.5 1.5 4.5
v 4.5 1.5 5.5
v 3.5 1.5 4.5
v 4.5 2.5 5.5
v 4.5 2.5 4.5
v 3.5 2.5 5.5
v 3.5 1.5 4.5
v 4.5 2.5 4.5
v 4.5 1.5 4.5
v 3.5 2.5 4.5
v 3.5 1.5 5.5
v 4.5 1.5 5.5
v 4.5 2.5 5.5
v 3.5 2.5 5.5
v 3.5 2.5 4.5
v 4.5 1.5 4.5
v 4.5 2.5 4.5
v 3.5 2.5 5.5
v 4.5 2.5 4.5
v 4.5 2.5 5.5
v 3.5 2.5 4.5
v 3.5 3.5 4.5
v 4.5 3.5 5.5
v 4.5 3.5 4.5
v 3.5 3.5 5.5
v 3.5 2.5 5.5
v 4.5 2.5 5.5
v 4.5 3.5 5.5
v 3.5 3.5 5.5
v 3.5 3.5 4.5
v 3.5 2.5 4.5
v 4.5 2.5 4.5
v 4.5 3.5 4.5
v 3.5 3.5 5.5
v 4.5 3.5 4.5
v 4.5 3.5 5.5
v 3.5 3.5 4.5
v 3.5 4.5 4.5
v 4.5 4.5 5.5
v 4.5 4.5 4.5
v 3.5 4.5 5.5
v 4.5 4.5 4.5
v 4.5 3.5 4.5
v 3.5 3.5 5.5
v 4.5 3.5 5.5
v 4.5 4.5 5.5
v 3.5 4.5 5.5
v 4.5 3.5 4.5
v 4.5 4.5 4.5
v 3.5 4.5 5.5
v 4.5 4.5 4.5
v 4.5 4.5 5.5
v 3.5 4.5 4.5
v 3.5 5.5 4.5
v 4.5 5.5 5.5
v 4.5 5.5 4.5
v 3.5 5.5 5.5
v 3.5 4.5 4.5
v 4.5 5.5 4.5
v 4.5 4.5 4.5
v 3.5 5.5 4.5
v 3.5 4.5 5.5
v 4.5 4.5 5.5
v 4.5 5.5 5.5
v 3.5 5.5 5.5
v 3.5 4.5 5.5
v 3.5 5.5 5.5
v 3.5 5.5 5.5
v 4.5 5.5 4.5
v 4.5 5.5 5.5
v 3.5 5.5 4.5
v 3.5 6.5 4.5
v 4.5 6.5 5.5
v 4.5 6.5 4.5
v 3.5 6.5 5.5
v 3.5 5.5 4.5
v 4.5 6.5 4.5
v 4.5 5.5 4.5
v 3.5 6.5 4.5
v 3.5 5.5 5.5
v 4.5 5.5 5.5
v 4.5 6.5 5.5
v 3.5 6.5 5.5
v 3.5 6.5 4.5
v 4.5 5.5 4.5
v 4.5 6.5 4.5
v 3.5 6.5 3.5
v 4.5 6.5 2.5
v 4.5 6.5 3.5
v 3.5 6.5 2.5
v 3.5 7.5 2.5
v 4.5 7.5 3.5
v 4.5 7.5 2.5
v 3.5 7.5 3.5
v 3.5 6.5 2.5
v 4.5 7.5 2.5
v 4.5 6.5 2.5
v 3.5 7.5 2.5
v 3.5 6.5 3.5
v 4.5 6.5 3.5
v 4.5 7.5 3.5
v 3.5 7.5 3.5
v 4.5 6.5 2.5
v 4.5 7.5 2.5
v 3.5 7.5 1.5
v 4.5 7.5 0.5
v 4.5 7.5 1.5
v 3.5 7.5 0.5
v 3.5 8.5 0.5
v 4.5 8.5 1.5
v 4.5 8.5 0.5
v 3.5 8.5 1.5
v 3.5 7.5 0.5
v 4.5 8.5 0.5
v 4.5 7.5 0.5
v 3.5 8.5 0.5
v 3.5 7.5 1.5
v 4.5 7.5 1.5
v 4.5 8.5 1.5
v 3.5 8.5 1.5
v 3.5 8.5 0.5
v 3.5 7.5 0.5
v 4.5 7.5 0.5
v 4.5 8.5 0.5
v 4.5 7.5 1.5
v 3.5 7.5 1.5
v 3.5 8.5 1.5
v 4.5 8.5 2.5
v 4.5 8.5 1.5
v 3.5 8.5 2.5
v 3.5 7.5 2.5
v 4.5 7.5 2.5
v 4.5 8.5 2.5
v 3.5 8.5 2.5
v 3.5 8.5 1.5
v 3.5 7.5 1.5
v 4.5 7.5 1.5
v 4.5 8.5 1.5
v 4.5 -0.5 5.5
v 5.5 -0.5 4.5
v 5.5 -0.5 5.5
v 4.5 -0.5 4.5
v 4.5 0.5 4.5
v 5.5 0.5 5.5
v 5.5 0.5 4.5
v 4.5 0.5 5.5
v 5.5 0.5 4.5
v 5.5 -0.5 4.5
v 5.5 -0.5 5.5
v 5.5 0.5 5.5
v 5.5 -0.5 4.5
v 5.5 0.5 4.5
v 4.5 0.5 4.5
v 5.5 0.5 3.5
v 5.5 0.5 4.5
v 4.5 0.5 3.5
v 4.5 1.5 3.5
v 5.5 1.5 4.5
v 5.5 1.5 3.5
v 4.5 1.5 4.5
v 4.5 0.5 4.5
v 5.5 0.5 4.5
v 5.5 1.5 4.5
v 4.5 1.5 4.5
v 4.5 1.5 3.5
v 4.5 0.5 3.5
v 5.5 0.5 3.5
v 5.5 1.5 3.5
v 5.5 1.5 3.5
v 4.5 1.5 3.5
v 4.5 2.5 3.5
v 5.5 2.5 4.5
v 5.5 2.5 3.5
v 4.5 2.5 4.5
v 5.5 2.5 4.5
v 4.5 2.5 4.5
v 4.5 2.5 3.5
v 4.5 1.5 3.5
v 5.5 1.5 3.5
v 5.5 2.5 3.5
v 5.5 2.5 4.5
v 5.5 2.5 5.5
v 4.5 2.5 4.5
v 4.5 3.5 4.5
v 5.5 3.5 5.5
v 5.5 3.5 4.5
v 4.5 3.5 5.5
v 4.5 2.5 4.5
v 5.5 3.5 4.5
v 5.5 2.5 4.5
v 4.5 3.5 4.5
v 4.5 2.5 5.5
v 5.5 2.5 5.5
v 5.5 3.5 5.5
v 4.5 3.5 5.5
v 4.5 3.5 4.5
v 5.5 2.5 4.5
v 5.5 3.5 4.5
v 4.5 3.5 5.5
v 5.5 3.5 4.5
v 5.5 3.5 5.5
v 4.5 3.5 4.5
v 4.5 4.5 4.5
v 5.5 4.5 5.5
v 5.5 4.5 4.5
v 4.5 4.5 5.5
v 5.5 4.5 4.5
v 5.5 3.5 4.5
v 4.5 3.5 5.5
v 5.5 3.5 5.5
v 5.5 4.5 5.5
v 4.5 4.5 5.5
v 5.5 3.5 4.5
v 5.5 4.5 4.5
v 4.5 4.5 5.5
v 5.5 4.5 4.5
v 5.5 4.5 5.5
v 4.5 4.5 4.5
v 4.5 5.5 4.5
v 5.5 5.5 5.5
v 5.5 5.5 4.5
v 4.5 5.5 5.5
v 4.5 4.5 4.5
v 5.5 5.5 4.5
v 5.5 4.5 4.5
v 4.5 5.5 4.5
v 4.5 4.5 5.5
v 5.5 4.5 5.5
v 5.5 5.5 5.5
v 4.5 5.5 5.5
v 4.5 5.5 4.5
v 5.5 4.5 4.5
v 5.5 5.5 4.5
v 4.5 4.5 6.5
v 5.5 4.5 5.5
v 5.5 4.5 6.5
v 4.5 4.5 5.5
v 4.5 5.5 5.5
v 5.5 5.5 6.5
v 5.5 5.5 5.5
v 4.5 5.5 6.5
v 4.5 4.5 6.5
v 5.5 4.5 6.5
v 5.5 5.5 6.5
v 4.5 5.5 6.5
v 4.5 5.5 5.5
v 4.5 4.5 5.5
v 5.5 4.5 5.5
v 5.5 5.5 5.5
v 5.5 5.5 4.5
v 5.5 5.5 5.5
v 4.5 6.5 4.5
v 5.5 6.5 5.5
v 5.5 6.5 4.5
v 4.5 6.5 5.5
v 4.5 5.5 4.5
v 5.5 6.5 4.5
v 5.5 5.5 4.5
v 4.5 6.5 4.5
v 4.5 5.5 5.5
v 5.5 5.5 5.5
v 5.5 6.5 5.5
v 4.5 6.5 5.5
v 4.5 6.5 4.5
v 4.5 5.5 4.5
v 5.5 5.5 4.5
v 5.5 6.5 4.5
v 4.5 6.5 4.5
v 5.5 6.5 3.5
v 5.5 6.5 4.5
v 4.5 6.5 3.5
v 4.5 7.5 3.5
v 5.5 7.5 4.5
v 5.5 7.5 3.5
v 4.5 7.5 4.5
v 4.5 6.5 3.5
v 5.5 7.5 3.5
v 5.5 6.5 3.5
v 4.5 7.5 3.5
v 4.5 6.5 4.5
v 5.5 6.5 4.5
v 5.5 7.5 4.5
v 4.5 7.5 4.5
v 4.5 6.5 4.5
v 4.5 7.5 4.5
v 4.5 7.5 1.5
v 5.5 7.5 0.5
v 5.5 7.5 1.5
v 4.5 7.5 0.5
v 4.5 8.5 0.5
v 5.5 8.5 1.5
v 5.5 8.5 0.5
v 4.5 8.5 1.5
v 5.5 8.5 0.5
v 5.5 7.5 0.5
v 5.5 7.5 1.5
v 5.5 8.5 1.5
v 5.5 7.5 0.5
v 5.5 8.5 0.5
v 4.5 7.5 2.5
v 5.5 7.5 1.5
v 5.5 7.5 2.5
v 4.5 7.5 1.5
v 4.5 8.5 1.5
v 5.5 8.5 2.5
v 5.5 8.5 1.5
v 4.5 8.5 2.5
v 4.5 7.5 2.5
v 5.5 7.5 2.5
v 5.5 8.5 2.5
v 4.5 8.5 2.5
v 5.5 7.5 1.5
v 5.5 8.5 1.5
v 4.5 7.5 3.5
v 5.5 7.5 2.5
v 5.5 7.5 3.5
v 4.5 7.5 2.5
v 4.5 8.5 2.5
v 5.5 8.5 3.5
v 5.5 8.5 2.5
v 4.5 8.5 3.5
v 4.5 7.5 3.5
v 5.5 7.5 3.5
v 5.5 8.5 3.5
v 4.5 8.5 3.5
v 5.5 7.5 2.5
v 5.5 8.5 2.5
v 5.5 8.5 0.5
v 4.5 8.5 0.5
v 4.5 9.5 0.5
v 5.5 9.5 1.5
v 5.5 9.5 0.5
v 4.5 9.5 1.5
v 4.5 8.5 0.5
v 5.5 9.5 0.5
v 5.5 8.5 0.5
v 4.5 9.5 0.5
v 4.5 8.5 1.5
v 5.5 8.5 1.5
v 5.5 9.5 1.5
v 4.5 9.5 1.5
v 4.5 9.5 0.5
v 4.5 8.5 0.5
v 5.5 8.5 0.5
v 5.5 9.5 0.5
v 4.5 9.5 1.5
v 5.5 9.5 2.5
v 5.5 9.5 1.5
v 4.5 9.5 2.5
v 5.5 9.5 2.5
v 4.5 9.5 2.5
v 4.5 9.5 1.5
v 5.5 8.5 1.5
v 5.5 9.5 1.5
v 5.5 -0.5 5.5
v 6.5 -0.5 4.5
v 6.5 -0.5 5.5
v 5.5 -0.5 4.5
v 5.5 0.5 4.5
v 6.5 0.5 5.5
v 6.5 0.5 4.5
v 5.5 0.5 5.5
v 6.5 0.5 4.5
v 6.5 -0.5 4.5
v 5.5 -0.5 5.5
v 6.5 -0.5 5.5
v 6.5 0.5 5.5
v 5.5 0.5 5.5
v 6.5 -0.5 4.5
v 6.5 0.5 4.5
v 5.5 -0.5 6.5
v 6.5 -0.5 5.5
v 6.5 -0.5 6.5
v 5.5 -0.5 5.5
v 5.5 0.5 5.5
v 6.5 0.5 6.5
v 6.5 0.5 5.5
v 5.5 0.5 6.5
v 5.5 -0.5 6.5
v 6.5 -0.5 6.5
v 6.5 0.5 6.5
v 5.5 0.5 6.5
v 6.5 -0.5 5.5
v 6.5 0.5 5.5
v 5.5 0.5 4.5
v 6.5 0.5 3.5
v 6.5 0.5 4.5
v 6.5 1.5 4.5
v 6.5 1.5 3.5
v 5.5 1.5 4.5
v 5.5 0.5 4.5
v 6.5 0.5 4.5
v 6.5 1.5 4.5
v 5.5 1.5 4.5
v 6.5 0.5 3.5
v 6.5 1.5 3.5
v 6.5 1.5 3.5
v 6.5 2.5 4.5
v 6.5 2.5 3.5
v 5.5 2.5 4.5
v 6.5 2.5 4.5
v 5.5 2.5 4.5
v 6.5 1.5 3.5
v 6.5 2.5 3.5
v 6.5 2.5 3.5
v 5.5 2.5 3.5
v 5.5 3.5 3.5
v 6.5 3.5 4.5
v 6.5 3.5 3.5
v 5.5 3.5 4.5
v 6.5 3.5 4.5
v 5.5 3.5 4.5
v 5.5 3.5 3.5
v 5.5 2.5 3.5
v 6.5 2.5 3.5
v 6.5 3.5 3.5
v 5.5 3.5 5.5
v 6.5 3.5 4.5
v 6.5 3.5 5.5
v 5.5 3.5 4.5
v 5.5 4.5 4.5
v 6.5 4.5 5.5
v 6.5 4.5 4.5
v 5.5 4.5 5.5
v 5.5 3.5 5.5
v 6.5 3.5 5.5
v 6.5 4.5 5.5
v 5.5 4.5 5.5
v 5.5 4.5 4.5
v 5.5 3.5 4.5
v 6.5 3.5 4.5
v 6.5 4.5 4.5
v 5.5 4.5 5.5
v 6.5 4.5 4.5
v 6.5 4.5 5.5
v 5.5 5.5 4.5
v 6.5 5.5 5.5
v 6.5 5.5 4.5
v 5.5 5.5 5.5
v 6.5 5.5 4.5
v 6.5 4.5 4.5
v 5.5 4.5 5.5
v 6.5 4.5 5.5
v 6.5 5.5 5.5
v 5.5 5.5 5.5
v 6.5 4.5 4.5
v 6.5 5.5 4.5
v 5.5 4.5 6.5
v 6.5 4.5 5.5
v 6.5 4.5 6.5
v 5.5 5.5 5.5
v 6.5 5.5 6.5
v 6.5 5.5 5.5
v 5.5 5.5 6.5
v 5.5 4.5 6.5
v 6.5 4.5 6.5
v 6.5 5.5 6.5
v 5.5 5.5 6.5
v 6.5 4.5 5.5
v 6.5 5.5 5.5
v 6.5 5.5 4.5
v 5.5 5.5 4.5
v 5.5 6.5 4.5
v 6.5 6.5 5.5
v 6.5 6.5 4.5
v 5.5 6.5 5.5
v 6.5 6.5 4.5
v 6.5 5.5 4.5
v 5.5 5.5 5.5
v 6.5 5.5 5.5
v 6.5 6.5 5.5
v 5.5 6.5 5.5
v 6.5 5.5 4.5
v 6.5 6.5 4.5
v 5.5 6.5 4.5
v 6.5 6.5 3.5
v 6.5 6.5 4.5
v 5.5 6.5 3.5
v 5.5 7.5 3.5
v 6.5 7.5 4.5
v 6.5 7.5 3.5
v 5.5 7.5 4.5
v 5.5 6.5 3.5
v 6.5 7.5 3.5
v 6.5 6.5 3.5
v 5.5 7.5 3.5
v 5.5 6.5 4.5
v 6.5 6.5 4.5
v 6.5 7.5 4.5
v 5.5 7.5 4.5
v 5.5 7.5 3.5
v 6.5 6.5 3.5
v 6.5 7.5 3.5
v 6.5 7.5 2.5
v 5.5 7.5 2.5
v 5.5 8.5 2.5
v 6.5 8.5 3.5
v 6.5 8.5 2.5
v 5.5 8.5 3.5
v 6.5 8.5 2.5
v 6.5 7.5 2.5
v 5.5 7.5 3.5
v 6.5 7.5 3.5
v 6.5 8.5 3.5
v 5.5 8.5 3.5
v 6.5 7.5 2.5
v 6.5 8.5 2.5
v 6.5 8.5 1.5
v 6.5 9.5 2.5
v 6.5 9.5 1.5
v 5.5 9.5 2.5
v 5.5 8.5 2.5
v 6.5 8.5 2.5
v 6.5 9.5 2.5
v 5.5 9.5 2.5
v 6.5 8.5 1.5
v 6.5 9.5 1.5
v 6.5 9.5 0.5
v 5.5 9.5 0.5
v 5.5 10.5 0.5
v 6.5 10.5 1.5
v 6.5 10.5 0.5
v 5.5 10.5 1.5
v 5.5 9.5 0.5
v 6.5 10.5 0.5
v 6.5 9.5 0.5
v 5.5 10.5 0.5
v 5.5 9.5 1.5
v 6.5 9.5 1.5
v 6.5 10.5 1.5
v 5.5 10.5 1.5
v 5.5 10.5 0.5
v 5.5 9.5 0.5
v 6.5 9.5 0.5
v 6.5 10.5 0.5
v 5.5 10.5 1.5
v 6.5 10.5 0.5
v 6.5 10.5 1.5
v 5.5 10.5 0.5
v 5.5 11.5 0.5
v 6.5 11.5 1.5
v 6.5 11.5 0.5
v 5.5 11.5 1.5
v 5.5 10.5 1.5
v 6.5 10.5 1.5
v 6.5 11.5 1.5
v 5.5 11.5 1.5
v 5.5 11.5 0.5
v 5.5 10.5 0.5
v 6.5 10.5 0.5
v 6.5 11.5 0.5
v 6.5 -0.5 5.5
v 7.5 -0.5 4.5
v 7.5 -0.5 5.5
v 6.5 -0.5 4.5
v 6.5 0.5 4.5
v 7.5 0.5 5.5
v 7.5 0.5 4.5
v 6.5 0.5 5.5
v 7.5 0.5 4.5
v 7.5 -0.5 4.5
v 7.5 -0.5 5.5
v 7.5 0.5 5.5
v 7.5 -0.5 4.5
v 7.5 0.5 4.5
v 6.5 -0.5 6.5
v 7.5 -0.5 5.5
v 7.5 -0.5 6.5
v 6.5 -0.5 5.5
v 6.5 0.5 5.5
v 7.5 0.5 6.5
v 7.5 0.5 5.5
v 6.5 0.5 6.5
v 6.5 -0.5 6.5
v 7.5 -0.5 6.5
v 7.5 0.5 6.5
v 6.5 0.5 6.5
v 7.5 -0.5 5.5
v 7.5 0.5 5.5
v 6.5 0.5 4.5
v 7.5 0.5 3.5
v 7.5 0.5 4.5
v 7.5 1.5 4.5
v 7.5 1.5 3.5
v 6.5 1.5 4.5
v 6.5 0.5 4.5
v 7.5 0.5 4.5
v 7.5 1.5 4.5
v 6.5 1.5 4.5
v 7.5 0.5 3.5
v 7.5 1.5 3.5
v 7.5 1.5 3.5
v 7.5 2.5 4.5
v 7.5 2.5 3.5
v 6.5 2.5 4.5
v 7.5 2.5 4.5
v 6.5 2.5 4.5
v 7.5 1.5 3.5
v 7.5 2.5 3.5
v 7.5 2.5 3.5
v 7.5 3.5 4.5
v 7.5 3.5 3.5
v 6.5 3.5 4.5
v 7.5 3.5 4.5
v 6.5 3.5 4.5
v 7.5 2.5 3.5
v 7.5 3.5 3.5
v 6.5 3.5 5.5
v 7.5 3.5 4.5
v 7.5 3.5 5.5
v 6.5 3.5 4.5
v 6.5 4.5 4.5
v 7.5 4.5 5.5
v 7.5 4.5 4.5
v 6.5 3.5 4.5
v 7.5 4.5 4.5
v 7.5 3.5 4.5
v 6.5 4.5 4.5
v 6.5 3.5 5.5
v 7.5 3.5 5.5
v 7.5 4.5 5.5
v 6.5 4.5 5.5
v 6.5 4.5 4.5
v 6.5 3.5 4.5
v 7.5 3.5 4.5
v 7.5 4.5 4.5
v 6.5 4.5 5.5
v 7.5 4.5 4.5
v 7.5 4.5 5.5
v 6.5 5.5 4.5
v 7.5 5.5 5.5
v 7.5 5.5 4.5
v 6.5 5.5 5.5
v 7.5 5.5 4.5
v 7.5 4.5 4.5
v 7.5 4.5 5.5
v 7.5 5.5 5.5
v 7.5 4.5 4.5
v 7.5 5.5 4.5
v 6.5 4.5 6.5
v 7.5 4.5 5.5
v 7.5 4.5 6.5
v 6.5 5.5 5.5
v 7.5 5.5 6.5
v 7.5 5.5 5.5
v 6.5 5.5 6.5
v 6.5 4.5 6.5
v 7.5 4.5 6.5
v 7.5 5.5 6.5
v 6.5 5.5 6.5
v 7.5 4.5 5.5
v 7.5 5.5 5.5
v 7.5 5.5 4.5
v 6.5 5.5 4.5
v 7.5 6.5 5.5
v 7.5 6.5 4.5
v 6.5 6.5 5.5
v 7.5 6.5 4.5
v 7.5 5.5 4.5
v 6.5 5.5 5.5
v 7.5 5.5 5.5
v 7.5 6.5 5.5
v 6.5 6.5 5.5
v 7.5 5.5 4.5
v 7.5 6.5 4.5
v 7.5 6.5 3.5
v 6.5 7.5 3.5
v 7.5 7.5 4.5
v 7.5 7.5 3.5
v 6.5 7.5 4.5
v 6.5 6.5 4.5
v 7.5 6.5 4.5
v 7.5 7.5 4.5
v 6.5 7.5 4.5
v 6.5 6.5 3.5
v 7.5 6.5 3.5
v 7.5 7.5 3.5
v 7.5 7.5 2.5
v 6.5 7.5 2.5
v 6.5 8.5 2.5
v 7.5 8.5 3.5
v 7.5 8.5 2.5
v 6.5 8.5 3.5
v 7.5 8.5 2.5
v 7.5 7.5 2.5
v 6.5 7.5 3.5
v 7.5 7.5 3.5
v 7.5 8.5 3.5
v 6.5 8.5 3.5
v 7.5 7.5 2.5
v 7.5 8.5 2.5
v 7.5 8.5 1.5
v 7.5 9.5 2.5
v 7.5 9.5 1.5
v 6.5 9.5 2.5
v 6.5 8.5 2.5
v 7.5 8.5 2.5
v 7.5 9.5 2.5
v 6.5 9.5 2.5
v 7.5 8.5 1.5
v 7.5 9.5 1.5
v 7.5 -0.5 6.5
v 8.5 -0.5 5.5
v 8.5 -0.5 6.5
v 7.5 -0.5 5.5
v 7.5 0.5 5.5
v 8.5 0.5 6.5
v 8.5 0.5 5.5
v 7.5 0.5 6.5
v 8.5 0.5 5.5
v 8.5 -0.5 5.5
v 7.5 -0.5 6.5
v 8.5 -0.5 6.5
v 8.5 0.5 6.5
v 7.5 0.5 6.5
v 8.5 -0.5 5.5
v 8.5 0.5 5.5
v 7.5 0.5 5.5
v 8.5 0.5 4.5
v 8.5 0.5 5.5
v 7.5 0.5 4.5
v 7.5 1.5 4.5
v 8.5 1.5 5.5
v 8.5 1.5 4.5
v 7.5 1.5 5.5
v 7.5 0.5 4.5
v 8.5 1.5 4.5
v 8.5 0.5 4.5
v 7.5 1.5 4.5
v 7.5 0.5 5.5
v 8.5 0.5 5.5
v 8.5 1.5 5.5
v 7.5 1.5 5.5
v 7.5 1.5 4.5
v 8.5 0.5 4.5
v 8.5 1.5 4.5
v 7.5 1.5 5.5
v 8.5 1.5 4.5
v 8.5 1.5 5.5
v 7.5 1.5 4.5
v 7.5 2.5 4.5
v 8.5 2.5 5.5
v 8.5 2.5 4.5
v 7.5 2.5 5.5
v 7.5 1.5 4.5
v 8.5 2.5 4.5
v 8.5 1.5 4.5
v 7.5 2.5 4.5
v 7.5 1.5 5.5
v 8.5 1.5 5.5
v 8.5 2.5 5.5
v 7.5 2.5 5.5
v 7.5 2.5 4.5
v 7.5 1.5 4.5
v 8.5 1.5 4.5
v 8.5 2.5 4.5
v 7.5 2.5 5.5
v 8.5 2.5 4.5
v 8.5 2.5 5.5
v 7.5 2.5 4.5
v 7.5 3.5 4.5
v 8.5 3.5 5.5
v 8.5 3.5 4.5
v 7.5 3.5 5.5
v 7.5 2.5 4.5
v 8.5 3.5 4.5
v 8.5 2.5 4.5
v 7.5 3.5 4.5
v 7.5 2.5 5.5
v 8.5 2.5 5.5
v 8.5 3.5 5.5
v 7.5 3.5 5.5
v 7.5 3.5 4.5
v 8.5 2.5 4.5
v 8.5 3.5 4.5
v 7.5 3.5 5.5
v 8.5 3.5 4.5
v 8.5 3.5 5.5
v 7.5 3.5 4.5
v 7.5 4.5 4.5
v 8.5 4.5 5.5
v 8.5 4.5 4.5
v 8.5 4.5 4.5
v 8.5 3.5 4.5
v 7.5 3.5 5.5
v 8.5 3.5 5.5
v 8.5 4.5 5.5
v 7.5 4.5 5.5
v 8.5 3.5 4.5
v 8.5 4.5 4.5
v 7.5 4.5 5.5
v 8.5 4.5 4.5
v 8.5 4.5 5.5
v 7.5 5.5 4.5
v 8.5 5.5 5.5
v 8.5 5.5 4.5
v 7.5 5.5 5.5
v 8.5 5.5 4.5
v 8.5 4.5 4.5
v 8.5 4.5 5.5
v 8.5 5.5 5.5
v 8.5 4.5 4.5
v 8.5 5.5 4.5
v 7.5 5.5 5.5
v 8.5 5.5 4.5
v 8.5 5.5 5.5
v 7.5 5.5 4.5
v 7.5 6.5 4.5
v 8.5 6.5 5.5
v 8.5 6.5 4.5
v 7.5 6.5 5.5
v 8.5 6.5 5.5
v 7.5 6.5 5.5
v 8.5 5.5 4.5
v 8.5 6.5 4.5
v 7.5 6.5 3.5
v 8.5 6.5 2.5
v 8.5 6.5 3.5
v 7.5 6.5 2.5
v 7.5 7.5 2.5
v 8.5 7.5 3.5
v 8.5 7.5 2.5
v 7.5 7.5 3.5
v 7.5 6.5 2.5
v 8.5 7.5 2.5
v 8.5 6.5 2.5
v 7.5 7.5 2.5
v 7.5 6.5 3.5
v 8.5 6.5 3.5
v 8.5 7.5 3.5
v 7.5 7.5 3.5
v 7.5 7.5 2.5
v 7.5 6.5 2.5
v 8.5 6.5 2.5
v 8.5 7.5 2.5
v 8.5 7.5 1.5
v 7.5 7.5 1.5
v 7.5 8.5 1.5
v 8.5 8.5 2.5
v 8.5 8.5 1.5
v 7.5 8.5 2.5
v 7.5 7.5 1.5
v 8.5 8.5 1.5
v 8.5 7.5 1.5
v 7.5 8.5 1.5
v 8.5 7.5 2.5
v 8.5 8.5 2.5
v 7.5 8.5 1.5
v 7.5 7.5 1.5
v 8.5 7.5 1.5
v 8.5 8.5 1.5
v 9.5 0.5 4.5
v 9.5 0.5 5.5
v 8.5 1.5 4.5
v 9.5 1.5 5.5
v 9.5 1.5 4.5
v 8.5 1.5 5.5
v 8.5 0.5 4.5
v 9.5 1.5 4.5
v 9.5 0.5 4.5
v 8.5 1.5 4.5
v 8.5 0.5 5.5
v 9.5 0.5 5.5
v 9.5 1.5 5.5
v 8.5 1.5 5.5
v 8.5 1.5 4.5
v 8.5 0.5 4.5
v 9.5 0.5 4.5
v 9.5 1.5 4.5
v 8.5 1.5 5.5
v 9.5 1.5 4.5
v 9.5 1.5 5.5
v 8.5 1.5 4.5
v 8.5 2.5 4.5
v 9.5 2.5 5.5
v 9.5 2.5 4.5
v 8.5 2.5 5.5
v 8.5 1.5 5.5
v 9.5 1.5 5.5
v 9.5 2.5 5.5
v 8.5 2.5 5.5
v 8.5 2.5 4.5
v 8.5 1.5 4.5
v 9.5 1.5 4.5
v 9.5 2.5 4.5
v 8.5 2.5 5.5
v 9.5 2.5 4.5
v 9.5 2.5 5.5
v 8.5 3.5 4.5
v 9.5 3.5 5.5
v 9.5 3.5 4.5
v 8.5 3.5 5.5
v 9.5 3.5 4.5
v 9.5 2.5 4.5
v 8.5 2.5 5.5
v 9.5 2.5 5.5
v 9.5 3.5 5.5
v 8.5 3.5 5.5
v 9.5 2.5 4.5
v 9.5 3.5 4.5
v 8.5 3.5 5.5
v 9.5 3.5 4.5
v 9.5 3.5 5.5
v 8.5 3.5 4.5
v 8.5 4.5 4.5
v 9.5 4.5 5.5
v 9.5 4.5 4.5
v 8.5 4.5 5.5
v 9.5 4.5 4.5
v 9.5 3.5 4.5
v 8.5 3.5 5.5
v 9.5 3.5 5.5
v 9.5 4.5 5.5
v 8.5 4.5 5.5
v 9.5 3.5 4.5
v 9.5 4.5 4.5
v 8.5 4.5 5.5
v 9.5 4.5 4.5
v 9.5 4.5 5.5
v 8.5 5.5 4.5
v 9.5 5.5 5.5
v 9.5 5.5 4.5
v 8.5 5.5 5.5
v 9.5 5.5 4.5
v 9.5 4.5 4.5
v 8.5 4.5 5.5
v 9.5 4.5 5.5
v 9.5 5.5 5.5
v 8.5 5.5 5.5
v 9.5 4.5 4.5
v 9.5 5.5 4.5
v 8.5 5.5 1.5
v 9.5 5.5 0.5
v 9.5 5.5 1.5
v 8.5 5.5 0.5
v 8.5 6.5 0.5
v 9.5 6.5 1.5
v 9.5 6.5 0.5
v 8.5 6.5 1.5
v 8.5 5.5 0.5
v 9.5 6.5 0.5
v 9.5 5.5 0.5
v 8.5 6.5 0.5
v 8.5 5.5 1.5
v 9.5 5.5 1.5
v 9.5 6.5 1.5
v 8.5 6.5 1.5
v 8.5 6.5 0.5
v 8.5 5.5 0.5
v 9.5 5.5 0.5
v 9.5 6.5 0.5
v 8.5 5.5 3.5
v 9.5 5.5 2.5
v 9.5 5.5 3.5
v 8.5 5.5 2.5
v 8.5 6.5 2.5
v 9.5 6.5 3.5
v 9.5 6.5 2.5
v 8.5 6.5 3.5
v 8.5 5.5 2.5
v 9.5 6.5 2.5
v 9.5 5.5 2.5
v 8.5 6.5 2.5
v 8.5 5.5 3.5
v 9.5 5.5 3.5
v 9.5 6.5 3.5
v 8.5 6.5 3.5
v 8.5 6.5 2.5
v 8.5 5.5 2.5
v 9.5 5.5 2.5
v 9.5 6.5 2.5
v 8.5 5.5 5.5
v 9.5 5.5 4.5
v 9.5 5.5 5.5
v 9.5 6.5 5.5
v 9.5 6.5 4.5
v 8.5 6.5 5.5
v 9.5 6.5 5.5
v 8.5 6.5 5.5
v 9.5 5.5 4.5
v 9.5 6.5 4.5
v 8.5 7.5 1.5
v 9.5 7.5 2.5
v 9.5 7.5 1.5
v 8.5 7.5 2.5
v 8.5 6.5 2.5
v 9.5 6.5 2.5
v 9.5 7.5 2.5
v 8.5 7.5 2.5
v 8.5 7.5 1.5
v 8.5 6.5 1.5
v 9.5 6.5 1.5
v 9.5 7.5 1.5
v 9.5 -0.5 4.5
v 10.5 -0.5 3.5
v 10.5 -0.5 4.5
v 9.5 -0.5 3.5
v 9.5 0.5 3.5
v 10.5 0.5 4.5
v 10.5 0.5 3.5
v 9.5 0.5 4.5
v 9.5 -0.5 3.5
v 10.5 0.5 3.5
v 10.5 -0.5 3.5
v 9.5 0.5 3.5
v 9.5 -0.5 4.5
v 10.5 -0.5 4.5
v 10.5 0.5 4.5
v 9.5 0.5 4.5
v 9.5 0.5 3.5
v 9.5 -0.5 3.5
v 10.5 -0.5 3.5
v 10.5 0.5 3.5
v 9.5 -0.5 5.5
v 10.5 -0.5 4.5
v 10.5 -0.5 5.5
v 9.5 -0.5 4.5
v 9.5 0.5 4.5
v 10.5 0.5 5.5
v 10.5 0.5 4.5
v 9.5 0.5 5.5
v 9.5 -0.5 5.5
v 10.5 -0.5 5.5
v 10.5 0.5 5.5
v 9.5 0.5 5.5
v 9.5 0.5 4.5
v 9.5 -0.5 4.5
v 10.5 -0.5 4.5
v 10.5 0.5 4.5
v 9.5 -0.5 6.5
v 10.5 -0.5 5.5
v 10.5 -0.5 6.5
v 9.5 -0.5 5.5
v 9.5 0.5 5.5
v 10.5 0.5 6.5
v 10.5 0.5 5.5
v 9.5 0.5 6.5
v 9.5 -0.5 6.5
v 10.5 -0.5 6.5
v 10.5 0.5 6.5
v 9.5 0.5 6.5
v 9.5 0.5 5.5
v 9.5 -0.5 5.5
v 10.5 -0.5 5.5
v 10.5 0.5 5.5
v 9.5 0.5 4.5
v 10.5 0.5 3.5
v 10.5 0.5 4.5
v 9.5 0.5 3.5
v 9.5 1.5 3.5
v 10.5 1.5 4.5
v 10.5 1.5 3.5
v 9.5 1.5 4.5
v 9.5 0.5 3.5
v 10.5 1.5 3.5
v 10.5 0.5 3.5
v 9.5 1.5 3.5
v 9.5 0.5 4.5
v 10.5 0.5 4.5
v 10.5 1.5 4.5
v 9.5 1.5 4.5
v 9.5 1.5 3.5
v 10.5 0.5 3.5
v 10.5 1.5 3.5
v 9.5 0.5 5.5
v 10.5 0.5 4.5
v 10.5 0.5 5.5
v 9.5 0.5 4.5
v 9.5 1.5 4.5
v 10.5 1.5 5.5
v 10.5 1.5 4.5
v 9.5 1.5 5.5
v 9.5 0.5 5.5
v 10.5 0.5 5.5
v 10.5 1.5 5.5
v 9.5 1.5 5.5
v 9.5 1.5 4.5
v 10.5 0.5 4.5
v 10.5 1.5 4.5
v 10.5 1.5 3.5
v 9.5 1.5 3.5
v 9.5 2.5 3.5
v 10.5 2.5 4.5
v 10.5 2.5 3.5
v 9.5 1.5 3.5
v 10.5 2.5 3.5
v 10.5 1.5 3.5
v 9.5 2.5 3.5
v 9.5 1.5 4.5
v 10.5 1.5 4.5
v 10.5 2.5 4.5
v 9.5 2.5 4.5
v 9.5 2.5 3.5
v 9.5 1.5 3.5
v 10.5 1.5 3.5
v 10.5 2.5 3.5
v 9.5 1.5 5.5
v 10.5 1.5 5.5
v 9.5 2.5 4.5
v 10.5 2.5 5.5
v 10.5 2.5 4.5
v 9.5 2.5 5.5
v 9.5 1.5 5.5
v 10.5 1.5 5.5
v 10.5 2.5 5.5
v 9.5 2.5 5.5
v 9.5 2.5 4.5
v 9.5 1.5 4.5
v 10.5 1.5 4.5
v 10.5 2.5 4.5
v 9.5 2.5 4.5
v 10.5 2.5 3.5
v 10.5 2.5 4.5
v 9.5 2.5 3.5
v 9.5 3.5 3.5
v 10.5 3.5 4.5
v 10.5 3.5 3.5
v 9.5 3.5 4.5
v 9.5 2.5 3.5
v 10.5 3.5 3.5
v 10.5 2.5 3.5
v 9.5 3.5 3.5
v 10.5 2.5 4.5
v 10.5 3.5 4.5
v 9.5 3.5 3.5
v 10.5 2.5 3.5
v 10.5 3.5 3.5
v 10.5 2.5 5.5
v 9.5 3.5 4.5
v 10.5 3.5 5.5
v 10.5 3.5 4.5
v 9.5 3.5 5.5
v 9.5 2.5 4.5
v 10.5 3.5 4.5
v 10.5 2.5 4.5
v 9.5 3.5 4.5
v 9.5 2.5 5.5
v 10.5 2.5 5.5
v 10.5 3.5 5.5
v 9.5 3.5 5.5
v 9.5 3.5 4.5
v 9.5 2.5 4.5
v 10.5 2.5 4.5
v 10.5 3.5 4.5
v 10.5 3.5 2.5
v 9.5 3.5 2.5
v 9.5 4.5 2.5
v 10.5 4.5 3.5
v 10.5 4.5 2.5
v 9.5 4.5 3.5
v 9.5 3.5 2.5
v 10.5 4.5 2.5
v 10.5 3.5 2.5
v 9.5 4.5 2.5
v 9.5 3.5 3.5
v 10.5 3.5 3.5
v 10.5 4.5 3.5
v 9.5 4.5 3.5
v 9.5 4.5 2.5
v 9.5 3.5 2.5
v 10.5 3.5 2.5
v 10.5 4.5 2.5
v 10.5 3.5 3.5
v 9.5 3.5 3.5
v 9.5 4.5 3.5
v 10.5 4.5 4.5
v 10.5 4.5 3.5
v 10.5 3.5 4.5
v 10.5 4.5 4.5
v 9.5 4.5 3.5
v 9.5 3.5 3.5
v 10.5 3.5 3.5
v 10.5 4.5 3.5
v 9.5 3.5 5.5
v 10.5 3.5 5.5
v 9.5 4.5 4.5
v 10.5 4.5 5.5
v 10.5 4.5 4.5
v 9.5 4.5 5.5
v 9.5 3.5 5.5
v 10.5 3.5 5.5
v 10.5 4.5 5.5
v 9.5 4.5 5.5
v 10.5 3.5 4.5
v 10.5 4.5 4.5
v 9.5 4.5 3.5
v 10.5 4.5 2.5
v 10.5 4.5 3.5
v 9.5 4.5 2.5
v 9.5 5.5 2.5
v 10.5 5.5 3.5
v 10.5 5.5 2.5
v 9.5 5.5 3.5
v 9.5 4.5 2.5
v 10.5 5.5 2.5
v 10.5 4.5 2.5
v 9.5 5.5 2.5
v 9.5 4.5 3.5
v 10.5 4.5 3.5
v 10.5 5.5 3.5
v 9.5 5.5 3.5
v 9.5 5.5 2.5
v 10.5 4.5 2.5
v 10.5 5.5 2.5
v 9.5 5.5 3.5
v 10.5 5.5 4.5
v 10.5 5.5 3.5
v 9.5 4.5 3.5
v 10.5 5.5 3.5
v 10.5 4.5 3.5
v 9.5 5.5 3.5
v 9.5 4.5 4.5
v 10.5 4.5 4.5
v 10.5 5.5 4.5
v 9.5 5.5 4.5
v 9.5 5.5 3.5
v 9.5 4.5 3.5
v 10.5 4.5 3.5
v 10.5 5.5 3.5
v 9.5 4.5 5.5
v 10.5 4.5 4.5
v 10.5 4.5 5.5
v 9.5 5.5 4.5
v 10.5 5.5 5.5
v 10.5 5.5 4.5
v 9.5 5.5 5.5
v 10.5 5.5 4.5
v 10.5 4.5 4.5
v 9.5 4.5 5.5
v 10.5 4.5 5.5
v 10.5 5.5 5.5
v 9.5 5.5 5.5
v 10.5 4.5 4.5
v 10.5 5.5 4.5
v 9.5 5.5 1.5
v 10.5 5.5 0.5
v 10.5 5.5 1.5
v 9.5 5.5 0.5
v 9.5 6.5 0.5
v 10.5 6.5 1.5
v 10.5 6.5 0.5
v 10.5 6.5 0.5
v 10.5 5.5 0.5
v 9.5 5.5 1.5
v 10.5 5.5 1.5
v 10.5 6.5 1.5
v 9.5 6.5 1.5
v 10.5 5.5 0.5
v 10.5 6.5 0.5
v 10.5 5.5 1.5
v 9.5 5.5 1.5
v 9.5 6.5 1.5
v 10.5 6.5 2.5
v 10.5 6.5 1.5
v 9.5 6.5 2.5
v 10.5 5.5 2.5
v 10.5 6.5 2.5
v 10.5 5.5 1.5
v 10.5 6.5 1.5
v 9.5 5.5 3.5
v 10.5 5.5 2.5
v 10.5 5.5 3.5
v 9.5 5.5 2.5
v 9.5 6.5 2.5
v 10.5 6.5 3.5
v 10.5 6.5 2.5
v 9.5 6.5 3.5
v 9.5 5.5 2.5
v 10.5 6.5 2.5
v 10.5 5.5 2.5
v 9.5 6.5 2.5
v 9.5 5.5 3.5
v 10.5 5.5 3.5
v 10.5 6.5 3.5
v 9.5 6.5 3.5
v 9.5 6.5 2.5
v 10.5 5.5 2.5
v 10.5 6.5 2.5
v 10.5 5.5 3.5
v 10.5 5.5 4.5
v 9.5 5.5 3.5
v 9.5 6.5 3.5
v 10.5 6.5 4.5
v 10.5 6.5 3.5
v 9.5 6.5 4.5
v 9.5 5.5 4.5
v 10.5 5.5 4.5
v 10.5 6.5 4.5
v 9.5 6.5 4.5
v 9.5 6.5 3.5
v 10.5 5.5 3.5
v 10.5 6.5 3.5
v 10.5 -0.5 5.5
v 11.5 -0.5 4.5
v 11.5 -0.5 5.5
v 10.5 -0.5 4.5
v 11.5 0.5 5.5
v 11.5 0.5 4.5
v 10.5 0.5 5.5
v 11.5 0.5 4.5
v 11.5 -0.5 4.5
v 11.5 -0.5 5.5
v 11.5 0.5 5.5
v 11.5 -0.5 4.5
v 11.5 0.5 4.5
v 10.5 4.5 1.5
v 11.5 4.5 0.5
v 11.5 4.5 1.5
v 10.5 4.5 0.5
v 10.5 5.5 0.5
v 11.5 5.5 1.5
v 11.5 5.5 0.5
v 10.5 5.5 1.5
v 10.5 4.5 1.5
v 11.5 4.5 1.5
v 11.5 5.5 1.5
v 10.5 5.5 1.5
v 10.5 5.5 0.5
v 10.5 4.5 0.5
v 11.5 4.5 0.5
v 11.5 5.5 0.5
v 10.5 4.5 2.5
v 11.5 4.5 1.5
v 11.5 4.5 2.5
v 10.5 4.5 1.5
v 11.5 5.5 2.5
v 10.5 4.5 1.5
v 11.5 5.5 1.5
v 11.5 4.5 1.5
v 10.5 5.5 1.5
v 11.5 4.5 2.5
v 11.5 5.5 2.5
v 10.5 5.5 1.5
v 11.5 4.5 1.5
v 11.5 5.5 1.5
v 11.5 -0.5 1.5
v 12.5 -0.5 0.5
v 12.5 -0.5 1.5
v 11.5 -0.5 0.5
v 11.5 0.5 0.5
v 12.5 0.5 1.5
v 12.5 0.5 0.5
v 11.5 0.5 1.5
v 11.5 -0.5 0.5
v 12.5 0.5 0.5
v 12.5 -0.5 0.5
v 11.5 0.5 0.5
v 11.5 -0.5 1.5
v 12.5 -0.5 1.5
v 12.5 0.5 1.5
v 11.5 0.5 1.5
v 11.5 0.5 0.5
v 11.5 -0.5 0.5
v 12.5 -0.5 0.5
v 12.5 0.5 0.5
v 11.5 -0.5 5.5
v 12.5 -0.5 4.5
v 12.5 -0.5 5.5
v 11.5 -0.5 4.5
v 11.5 0.5 4.5
v 12.5 0.5 5.5
v 12.5 0.5 4.5
v 11.5 0.5 5.5
v 12.5 0.5 4.5
v 12.5 -0.5 4.5
v 11.5 -0.5 5.5
v 12.5 -0.5 5.5
v 12.5 0.5 5.5
v 11.5 0.5 5.5
v 12.5 -0.5 4.5
v 12.5 0.5 4.5
vn 0 -0.99999 -0.00394
vn 0 0.99999 -0.00394
vn 0 0 -1
vn 0.00395 0.00395 0.99998
vn -0.99999 0 -0.00394
vn 0.99999 0 -0.00394
vt 0.875 0.15625
vt 0.89062 0.14062
vt 0.89062 0.15625
vt 0.875 0.14062
vt 0.96875 0.29688
vt 0.98438 0.3125
vt 0.98438 0.29688
vt 0.96875 0.3125
vt 0.10938 0.10938
vt 0.125 0.09375
vt 0.125 0.10938
vt 0.10938 0.09375
vt 0.85938 0.15625
vt 0.85938 0.14062
vt 0.84375 0.14062
vt 0.84375 0.15625
vt 0.39062 0.29688
vt 0.40625 0.28125
vt 0.40625 0.29688
vt 0.39062 0.28125
vt 0.8125 0.21875
vt 0.82812 0.20312
vt 0.82812 0.21875
vt 0.8125 0.20312
vt 0.42188 0.35938
vt 0.4375 0.34375
vt 0.4375 0.35938
vt 0.42188 0.34375
vt 0.35938 0.34375
vt 0.375 0.32812
vt 0.375 0.34375
vt 0.35938 0.32812
vt 0.59375 0.3125
vt 0.60938 0.32812
vt 0.60938 0.3125
vt 0.59375 0.32812
vt 0.1875 0.07812
vt 0.20312 0.0625
vt 0.20312 0.07812
vt 0.1875 0.0625
usemtl mat0
f 1/1/1 2/2/1 3/3/1
f 1/1/1 4/4/1 2/2/1
f 5/1/2 6/2/2 7/3/2
f 5/1/2 8/4/2 6/2/2
f 9/5/3 10/6/3 11/7/3
f 9/5/3 12/8/3 10/6/3
f 13/5/4 14/7/4 15/6/4
f 13/5/4 15/6/4 16/8/4
f 13/5/5 17/6/5 18/7/5
f 13/5/5 16/8/5 17/6/5
f 19/5/6 15/6/6 14/7/6
f 19/5/6 20/8/6 15/6/6
f 21/1/1 22/2/1 23/3/1
f 21/1/1 24/4/1 22/2/1
f 25/1/2 26/2/2 27/3/2
f 25/1/2 28/4/2 26/2/2
f 13/5/3 15/6/3 14/7/3
f 13/5/3 16/8/3 15/6/3
f 29/5/4 30/7/4 31/6/4
f 29/5/4 31/6/4 32/8/4
f 29/5/5 33/6/5 34/7/5
f 29/5/5 32/8/5 33/6/5
f 35/5/6 31/6/6 30/7/6
f 35/5/6 36/8/6 31/6/6
f 37/1/1 38/2/1 39/3/1
f 37/1/1 40/4/1 38/2/1
f 41/1/2 42/2/2 43/3/2
f 41/1/2 44/4/2 42/2/2
f 45/5/3 46/6/3 47/7/3
f 45/5/3 48/8/3 46/6/3
f 19/5/4 49/7/4 50/6/4
f 19/5/4 50/6/4 20/8/4
f 19/5/5 51/6/5 52/7/5
f 19/5/5 20/8/5 51/6/5
f 53/5/6 50/6/6 49/7/6
f 53/5/6 54/8/6 50/6/6
f 55/1/1 56/2/1 57/3/1
f 55/1/1 58/4/1 56/2/1
f 59/1/2 60/2/2 61/3/2
f 59/1/2 62/4/2 60/2/2
f 19/5/3 50/6/3 49/7/3
f 19/5/3 20/8/3 50/6/3
f 35/5/4 63/7/4 64/6/4
f 35/5/4 64/6/4 36/8/4
f 35/5/5 10/6/5 11/7/5
f 35/5/5 36/8/5 10/6/5
f 65/5/6 64/6/6 63/7/6
f 65/5/6 66/8/6 64/6/6
f 67/1/1 68/2/1 69/3/1
f 67/1/1 70/4/1 68/2/1
f 71/1/2 72/2/2 73/3/2
f 71/1/2 74/4/2 72/2/2
f 35/5/3 64/6/3 63/7/3
f 35/5/3 36/8/3 64/6/3
f 75/5/4 76/7/4 77/6/4
f 75/5/4 77/6/4 78/8/4
f 75/5/5 15/6/5 14/7/5
f 75/5/5 78/8/5 15/6/5
f 79/5/6 77/6/6 76/7/6
f 79/5/6 80/8/6 77/6/6
f 81/1/1 82/2/1 83/3/1
f 81/1/1 84/4/1 82/2/1
f 85/1/2 86/2/2 87/3/2
f 85/1/2 88/4/2 86/2/2
f 75/5/3 77/6/3 76/7/3
f 75/5/3 78/8/3 77/6/3
f 89/5/4 90/7/4 91/6/4
f 89/5/4 91/6/4 92/8/4
f 89/5/5 31/6/5 30/7/5
f 89/5/5 92/8/5 31/6/5
f 93/5/6 91/6/6 90/7/6
f 93/5/6 94/8/6 91/6/6
f 95/1/1 96/2/1 97/3/1
f 95/1/1 98/4/1 96/2/1
f 99/1/2 100/2/2 101/3/2
f 99/1/2 102/4/2 100/2/2
f 103/5/3 104/6/3 105/7/3
f 103/5/3 106/8/3 104/6/3
f 107/5/4 108/7/4 109/6/4
f 107/5/4 109/6/4 110/8/4
f 107/5/5 111/6/5 112/7/5
f 107/5/5 110/8/5 111/6/5
f 113/5/6 109/6/6 108/7/6
f 113/5/6 114/8/6 109/6/6
f 115/1/1 116/2/1 117/3/1
f 115/1/1 118/4/1 116/2/1
f 119/1/2 120/2/2 121/3/2
f 119/1/2 122/4/2 120/2/2
f 107/5/3 109/6/3 108/7/3
f 107/5/3 110/8/3 109/6/3
f 123/5/4 124/7/4 125/6/4
f 123/5/4 125/6/4 126/8/4
f 123/5/5 127/6/5 128/7/5
f 123/5/5 126/8/5 127/6/5
f 129/5/6 125/6/6 124/7/6
f 129/5/6 130/8/6 125/6/6
f 131/1/1 132/2/1 133/3/1
f 131/1/1 134/4/1 132/2/1
f 135/1/2 136/2/2 137/3/2
f 135/1/2 138/4/2 136/2/2
f 65/5/3 139/6/3 140/7/3
f 65/5/3 66/8/3 139/6/3
f 79/5/4 141/7/4 142/6/4
f 79/5/4 142/6/4 80/8/4
f 79/5/5 50/6/5 49/7/5
f 79/5/5 80/8/5 50/6/5
f 143/5/6 142/6/6 141/7/6
f 143/5/6 144/8/6 142/6/6
f 145/1/1 146/2/1 147/3/1
f 145/1/1 148/4/1 146/2/1
f 149/1/2 150/2/2 151/3/2
f 149/1/2 152/4/2 150/2/2
f 79/5/3 142/6/3 141/7/3
f 79/5/3 80/8/3 142/6/3
f 93/5/4 153/7/4 154/6/4
f 93/5/4 154/6/4 94/8/4
f 93/5/5 64/6/5 63/7/5
f 93/5/5 94/8/5 64/6/5
f 155/5/6 154/6/6 153/7/6
f 155/5/6 156/8/6 154/6/6
f 157/9/1 158/10/1 159/11/1
f 157/9/1 160/12/1 158/10/1
f 161/9/2 162/10/2 163/11/2
f 161/9/2 164/12/2 162/10/2
f 160/12/3 163/11/3 158/10/3
f 160/12/3 161/9/3 163/11/3
f 165/12/4 166/10/4 167/11/4
f 165/12/4 167/11/4 168/9/4
f 165/12/5 169/11/5 170/10/5
f 165/12/5 168/9/5 169/11/5
f 171/12/6 167/11/6 166/10/6
f 171/12/6 172/9/6 167/11/6
f 173/13/1 174/4/1 175/1/1
f 173/13/1 176/14/1 174/4/1
f 177/1/2 178/2/2 179/3/2
f 177/1/2 180/4/2 178/2/2
f 181/15/3 182/13/3 183/14/3
f 181/15/3 184/16/3 182/13/3
f 185/15/4 186/14/4 187/13/4
f 185/15/4 187/13/4 188/16/4
f 185/15/5 189/13/5 176/14/5
f 185/15/5 188/16/5 189/13/5
f 190/15/6 187/13/6 186/14/6
f 190/15/6 191/16/6 187/13/6
f 192/1/1 193/2/1 194/3/1
f 192/1/1 195/4/1 193/2/1
f 196/1/2 197/2/2 198/3/2
f 196/1/2 199/4/2 197/2/2
f 200/5/3 201/6/3 202/7/3
f 200/5/3 203/8/3 201/6/3
f 204/5/4 205/7/4 206/6/4
f 204/5/4 206/6/4 207/8/4
f 204/5/5 208/6/5 209/7/5
f 204/5/5 207/8/5 208/6/5
f 210/5/6 206/6/6 205/7/6
f 210/5/6 211/8/6 206/6/6
f 196/1/1 212/2/1 198/3/1
f 196/1/1 213/4/1 212/2/1
f 214/1/2 215/2/2 216/3/2
f 214/1/2 217/4/2 215/2/2
f 218/5/3 219/6/3 220/7/3
f 218/5/3 221/8/3 219/6/3
f 222/5/4 223/7/4 224/6/4
f 222/5/4 224/6/4 225/8/4
f 222/5/5 226/6/5 227/7/5
f 222/5/5 225/8/5 226/6/5
f 228/5/6 224/6/6 223/7/6
f 228/5/6 229/8/6 224/6/6
f 230/1/1 231/2/1 232/3/1
f 230/1/1 233/4/1 231/2/1
f 234/1/2 235/2/2 236/3/2
f 234/1/2 237/4/2 235/2/2
f 222/5/3 224/6/3 223/7/3
f 222/5/3 225/8/3 224/6/3
f 238/5/4 239/7/4 240/6/4
f 238/5/4 240/6/4 241/8/4
f 238/5/5 242/6/5 243/7/5
f 238/5/5 241/8/5 242/6/5
f 244/5/6 240/6/6 239/7/6
f 244/5/6 245/8/6 240/6/6
f 234/1/1 246/2/1 236/3/1
f 234/1/1 247/4/1 246/2/1
f 248/1/2 249/2/2 250/3/2
f 248/1/2 251/4/2 249/2/2
f 252/5/3 253/6/3 254/7/3
f 252/5/3 255/8/3 253/6/3
f 256/5/4 257/7/4 258/6/4
f 256/5/4 258/6/4 259/8/4
f 256/5/5 260/6/5 261/7/5
f 256/5/5 259/8/5 260/6/5
f 262/5/6 258/6/6 257/7/6
f 262/5/6 263/8/6 258/6/6
f 264/1/1 215/2/1 265/3/1
f 264/1/1 217/4/1 215/2/1
f 266/1/2 267/2/2 268/3/2
f 266/1/2 269/4/2 267/2/2
f 217/4/3 268/3/3 215/2/3
f 217/4/3 266/1/3 268/3/3
f 237/4/4 235/2/4 270/3/4
f 237/4/4 270/3/4 271/1/4
f 237/4/5 272/3/5 273/2/5
f 237/4/5 271/1/5 272/3/5
f 274/4/6 270/3/6 235/2/6
f 274/4/6 275/1/6 270/3/6
f 276/1/1 277/2/1 278/3/1
f 276/1/1 279/4/1 277/2/1
f 280/1/2 281/2/2 282/3/2
f 280/1/2 283/4/2 281/2/2
f 284/5/3 285/6/3 286/7/3
f 284/5/3 287/8/3 285/6/3
f 288/5/4 289/7/4 290/6/4
f 288/5/4 290/6/4 291/8/4
f 288/5/5 292/6/5 293/7/5
f 288/5/5 291/8/5 292/6/5
f 294/5/6 290/6/6 289/7/6
f 294/5/6 295/8/6 290/6/6
f 296/1/1 297/2/1 298/3/1
f 296/1/1 299/4/1 297/2/1
f 300/1/2 301/2/2 302/3/2
f 300/1/2 303/4/2 301/2/2
f 288/5/3 290/6/3 289/7/3
f 288/5/3 291/8/3 290/6/3
f 304/5/4 305/7/4 306/6/4
f 304/5/4 306/6/4 307/8/4
f 304/5/5 308/6/5 309/7/5
f 304/5/5 307/8/5 308/6/5
f 310/5/6 306/6/6 305/7/6
f 310/5/6 311/8/6 306/6/6
f 266/1/1 312/2/1 268/3/1
f 266/1/1 313/4/1 312/2/1
f 314/1/2 315/2/2 316/3/2
f 314/1/2 317/4/2 315/2/2
f 318/5/3 319/6/3 320/7/3
f 318/5/3 321/8/3 319/6/3
f 322/5/4 323/7/4 324/6/4
f 322/5/4 324/6/4 325/8/4
f 322/5/5 326/6/5 327/7/5
f 322/5/5 325/8/5 326/6/5
f 328/5/6 324/6/6 323/7/6
f 328/5/6 329/8/6 324/6/6
f 330/1/1 331/2/1 332/3/1
f 330/1/1 333/4/1 331/2/1
f 334/1/2 335/2/2 336/3/2
f 334/1/2 337/4/2 335/2/2
f 155/5/3 338/6/3 339/7/3
f 155/5/3 156/8/3 338/6/3
f 340/5/4 341/7/4 342/6/4
f 340/5/4 342/6/4 343/8/4
f 340/5/5 142/6/5 141/7/5
f 340/5/5 343/8/5 142/6/5
f 344/5/6 342/6/6 341/7/6
f 344/5/6 345/8/6 342/6/6
f 346/17/1 347/18/1 348/19/1
f 346/17/1 349/20/1 347/18/1
f 350/17/2 351/18/2 352/19/2
f 350/17/2 353/20/2 351/18/2
f 349/20/3 352/19/3 347/18/3
f 349/20/3 350/17/3 352/19/3
f 354/20/4 355/18/4 356/19/4
f 354/20/4 356/19/4 357/17/4
f 354/20/5 358/19/5 359/18/5
f 354/20/5 357/17/5 358/19/5
f 360/20/6 356/19/6 355/18/6
f 360/20/6 361/17/6 356/19/6
f 175/1/1 362/2/1 363/3/1
f 175/1/1 174/4/1 362/2/1
f 364/1/2 365/2/2 366/3/2
f 364/1/2 367/4/2 365/2/2
f 174/4/3 366/3/3 362/2/3
f 174/4/3 364/1/3 366/3/3
f 368/4/4 369/2/4 370/3/4
f 368/4/4 370/3/4 371/1/4
f 368/4/5 179/3/5 372/2/5
f 368/4/5 371/1/5 179/3/5
f 373/4/6 370/3/6 369/2/6
f 373/4/6 374/1/6 370/3/6
f 187/13/1 375/4/1 376/1/1
f 187/13/1 377/14/1 375/4/1
f 378/1/2 379/2/2 380/3/2
f 378/1/2 381/4/2 379/2/2
f 382/15/3 383/13/3 384/14/3
f 382/15/3 385/16/3 383/13/3
f 386/15/4 387/14/4 388/13/4
f 386/15/4 388/13/4 389/16/4
f 386/15/5 390/13/5 377/14/5
f 386/15/5 389/16/5 390/13/5
f 391/15/6 388/13/6 387/14/6
f 391/15/6 392/16/6 388/13/6
f 393/1/1 394/2/1 395/3/1
f 393/1/1 396/4/1 394/2/1
f 397/1/2 398/2/2 399/3/2
f 397/1/2 400/4/2 398/2/2
f 244/5/3 401/6/3 402/7/3
f 244/5/3 245/8/3 401/6/3
f 403/5/4 404/7/4 405/6/4
f 403/5/4 405/6/4 406/8/4
f 403/5/5 224/6/5 223/7/5
f 403/5/5 406/8/5 224/6/5
f 407/5/6 405/6/6 404/7/6
f 407/5/6 408/8/6 405/6/6
f 409/17/1 410/18/1 411/19/1
f 409/17/1 412/20/1 410/18/1
f 413/17/2 414/18/2 415/19/2
f 413/17/2 416/20/2 414/18/2
f 412/20/3 415/19/3 410/18/3
f 412/20/3 413/17/3 415/19/3
f 417/20/4 418/18/4 419/19/4
f 417/20/4 419/19/4 420/17/4
f 417/20/5 421/19/5 422/18/5
f 417/20/5 420/17/5 421/19/5
f 423/20/6 419/19/6 418/18/6
f 423/20/6 424/17/6 419/19/6
f 275/1/1 425/2/1 426/3/1
f 275/1/1 427/4/1 425/2/1
f 428/1/2 429/2/2 430/3/2
f 428/1/2 431/4/2 429/2/2
f 328/5/3 432/6/3 433/7/3
f 328/5/3 329/8/3 432/6/3
f 434/5/4 435/7/4 436/6/4
f 434/5/4 436/6/4 437/8/4
f 434/5/5 319/6/5 320/7/5
f 434/5/5 437/8/5 319/6/5
f 438/5/6 436/6/6 435/7/6
f 438/5/6 439/8/6 436/6/6
f 440/1/1 441/2/1 442/3/1
f 440/1/1 443/4/1 441/2/1
f 444/1/2 445/2/2 446/3/2
f 444/1/2 447/4/2 445/2/2
f 434/5/3 436/6/3 435/7/3
f 434/5/3 437/8/3 436/6/3
f 448/5/4 449/7/4 450/6/4
f 448/5/4 450/6/4 451/8/4
f 448/5/5 324/6/5 323/7/5
f 448/5/5 451/8/5 324/6/5
f 452/5/6 450/6/6 449/7/6
f 452/5/6 453/8/6 450/6/6
f 454/1/1 455/2/1 456/3/1
f 454/1/1 457/4/1 455/2/1
f 458/1/2 459/2/2 460/3/2
f 458/1/2 461/4/2 459/2/2
f 462/5/3 463/6/3 464/7/3
f 462/5/3 465/8/3 463/6/3
f 466/5/4 467/7/4 468/6/4
f 466/5/4 468/6/4 469/8/4
f 466/5/5 470/6/5 471/7/5
f 466/5/5 469/8/5 470/6/5
f 472/5/6 468/6/6 467/7/6
f 472/5/6 473/8/6 468/6/6
f 474/1/1 475/2/1 476/3/1
f 474/1/1 477/4/1 475/2/1
f 478/1/2 479/2/2 480/3/2
f 478/1/2 481/4/2 479/2/2
f 344/5/3 482/6/3 483/7/3
f 344/5/3 345/8/3 482/6/3
f 484/5/4 485/7/4 486/6/4
f 484/5/4 486/6/4 487/8/4
f 484/5/5 338/6/5 339/7/5
f 484/5/5 487/8/5 338/6/5
f 488/5/6 486/6/6 485/7/6
f 488/5/6 489/8/6 486/6/6
f 490/1/1 491/2/1 492/3/1
f 490/1/1 493/4/1 491/2/1
f 494/1/2 495/2/2 496/3/2
f 494/1/2 497/4/2 495/2/2
f 484/5/3 486/6/3 485/7/3
f 484/5/3 487/8/3 486/6/3
f 498/5/4 499/7/4 500/6/4
f 498/5/4 500/6/4 501/8/4
f 498/5/5 342/6/5 341/7/5
f 498/5/5 501/8/5 342/6/5
f 502/5/6 500/6/6 499/7/6
f 502/5/6 503/8/6 500/6/6
f 504/9/1 505/10/1 506/11/1
f 504/9/1 507/12/1 505/10/1
f 508/9/2 509/10/2 510/11/2
f 508/9/2 511/12/2 509/10/2
f 507/12/3 510/11/3 505/10/3
f 507/12/3 508/9/3 510/11/3
f 512/12/4 513/10/4 514/11/4
f 512/12/4 514/11/4 515/9/4
f 512/12/5 516/11/5 517/10/5
f 512/12/5 515/9/5 516/11/5
f 518/12/6 514/11/6 513/10/6
f 518/12/6 519/9/6 514/11/6
f 520/13/1 521/4/1 522/1/1
f 520/13/1 523/14/1 521/4/1
f 374/1/2 524/2/2 525/3/2
f 374/1/2 526/4/2 524/2/2
f 527/15/3 528/13/3 529/14/3
f 527/15/3 530/16/3 528/13/3
f 531/15/4 532/14/4 533/13/4
f 531/15/4 533/13/4 534/16/4
f 531/15/5 535/13/5 523/14/5
f 531/15/5 534/16/5 535/13/5
f 536/15/6 533/13/6 532/14/6
f 536/15/6 537/16/6 533/13/6
f 538/9/1 539/10/1 540/11/1
f 538/9/1 541/12/1 539/10/1
f 542/9/2 543/10/2 544/11/2
f 542/9/2 545/12/2 543/10/2
f 541/12/3 544/11/3 539/10/3
f 541/12/3 542/9/3 544/11/3
f 546/12/4 547/10/4 548/11/4
f 546/12/4 548/11/4 549/9/4
f 546/12/5 550/11/5 551/10/5
f 546/12/5 549/9/5 550/11/5
f 552/12/6 548/11/6 547/10/6
f 552/12/6 553/9/6 548/11/6
f 554/1/1 555/2/1 556/3/1
f 554/1/1 557/4/1 555/2/1
f 558/1/2 559/2/2 560/3/2
f 558/1/2 561/4/2 559/2/2
f 407/5/3 562/6/3 563/7/3
f 407/5/3 408/8/3 562/6/3
f 564/5/4 565/7/4 566/6/4
f 564/5/4 566/6/4 567/8/4
f 564/5/5 401/6/5 402/7/5
f 564/5/5 567/8/5 401/6/5
f 568/5/6 566/6/6 565/7/6
f 568/5/6 569/8/6 566/6/6
f 570/21/1 571/22/1 572/23/1
f 570/21/1 573/24/1 571/22/1
f 574/21/2 575/22/2 576/23/2
f 574/21/2 577/24/2 575/22/2
f 578/22/3 579/21/3 580/24/3
f 578/22/3 581/23/3 579/21/3
f 582/24/4 583/22/4 584/23/4
f 582/24/4 584/23/4 585/21/4
f 586/22/5 574/21/5 573/24/5
f 586/22/5 587/23/5 574/21/5
f 580/24/6 584/23/6 583/22/6
f 580/24/6 579/21/6 584/23/6
f 588/13/1 589/4/1 590/1/1
f 588/13/1 591/14/1 589/4/1
f 592/1/2 593/2/2 594/3/2
f 592/1/2 595/4/2 593/2/2
f 596/15/3 597/13/3 598/14/3
f 596/15/3 599/16/3 597/13/3
f 600/15/4 601/14/4 602/13/4
f 600/15/4 602/13/4 603/16/4
f 600/15/5 604/13/5 591/14/5
f 600/15/5 603/16/5 604/13/5
f 605/15/6 602/13/6 601/14/6
f 605/15/6 606/16/6 602/13/6
f 607/1/1 608/2/1 609/3/1
f 607/1/1 610/4/1 608/2/1
f 611/1/2 612/2/2 613/3/2
f 611/1/2 614/4/2 612/2/2
f 615/5/3 616/6/3 617/7/3
f 615/5/3 618/8/3 616/6/3
f 619/5/4 620/7/4 621/6/4
f 619/5/4 621/6/4 622/8/4
f 619/5/5 468/6/5 467/7/5
f 619/5/5 622/8/5 468/6/5
f 623/5/6 621/6/6 620/7/6
f 623/5/6 624/8/6 621/6/6
f 625/1/1 626/2/1 627/3/1
f 625/1/1 628/4/1 626/2/1
f 629/1/2 630/2/2 631/3/2
f 629/1/2 632/4/2 630/2/2
f 633/5/3 634/6/3 635/7/3
f 633/5/3 636/8/3 634/6/3
f 637/5/4 638/7/4 639/6/4
f 637/5/4 639/6/4 640/8/4
f 637/5/5 641/6/5 642/7/5
f 637/5/5 640/8/5 641/6/5
f 643/5/6 639/6/6 638/7/6
f 643/5/6 644/8/6 639/6/6
f 611/1/1 645/2/1 613/3/1
f 611/1/1 646/4/1 645/2/1
f 647/1/2 648/2/2 649/3/2
f 647/1/2 650/4/2 648/2/2
f 637/5/3 639/6/3 638/7/3
f 637/5/3 640/8/3 639/6/3
f 651/5/4 652/7/4 653/6/4
f 651/5/4 653/6/4 654/8/4
f 651/5/5 655/6/5 656/7/5
f 651/5/5 654/8/5 655/6/5
f 657/5/6 653/6/6 652/7/6
f 657/5/6 658/8/6 653/6/6
f 659/1/1 660/2/1 661/3/1
f 659/1/1 662/4/1 660/2/1
f 663/1/2 664/2/2 665/3/2
f 663/1/2 666/4/2 664/2/2
f 488/5/3 667/6/3 668/7/3
f 488/5/3 489/8/3 667/6/3
f 502/5/4 669/7/4 670/6/4
f 502/5/4 670/6/4 503/8/4
f 502/5/5 482/6/5 483/7/5
f 502/5/5 503/8/5 482/6/5
f 671/5/6 670/6/6 669/7/6
f 671/5/6 672/8/6 670/6/6
f 673/25/1 674/26/1 675/27/1
f 673/25/1 676/28/1 674/26/1
f 677/25/2 678/26/2 679/27/2
f 677/25/2 680/28/2 678/26/2
f 676/28/3 679/27/3 674/26/3
f 676/28/3 677/25/3 679/27/3
f 681/28/4 682/26/4 683/27/4
f 681/28/4 683/27/4 684/25/4
f 681/28/5 685/27/5 686/26/5
f 681/28/5 684/25/5 685/27/5
f 687/28/6 683/27/6 682/26/6
f 687/28/6 688/25/6 683/27/6
f 684/25/1 689/26/1 683/27/1
f 684/25/1 690/28/1 689/26/1
f 691/25/2 692/26/2 693/27/2
f 691/25/2 694/28/2 692/26/2
f 690/28/3 693/27/3 689/26/3
f 690/28/3 691/25/3 693/27/3
f 680/28/4 678/26/4 695/27/4
f 680/28/4 695/27/4 696/25/4
f 680/28/5 697/27/5 698/26/5
f 680/28/5 696/25/5 697/27/5
f 699/28/6 695/27/6 678/26/6
f 699/28/6 700/25/6 695/27/6
f 533/13/1 701/4/1 702/1/1
f 533/13/1 703/14/1 701/4/1
f 704/1/2 705/2/2 706/3/2
f 704/1/2 707/4/2 705/2/2
f 708/15/3 709/13/3 710/14/3
f 708/15/3 711/16/3 709/13/3
f 712/15/4 713/14/4 714/13/4
f 712/15/4 714/13/4 715/16/4
f 712/15/5 716/13/5 703/14/5
f 712/15/5 715/16/5 716/13/5
f 717/15/6 714/13/6 713/14/6
f 717/15/6 718/16/6 714/13/6
f 719/1/1 720/2/1 721/3/1
f 719/1/1 722/4/1 720/2/1
f 723/1/2 724/2/2 725/3/2
f 723/1/2 726/4/2 724/2/2
f 568/5/3 727/6/3 728/7/3
f 568/5/3 569/8/3 727/6/3
f 729/5/4 730/7/4 731/6/4
f 729/5/4 731/6/4 732/8/4
f 729/5/5 562/6/5 563/7/5
f 729/5/5 732/8/5 562/6/5
f 733/5/6 731/6/6 730/7/6
f 733/5/6 734/8/6 731/6/6
f 735/13/1 736/4/1 737/1/1
f 735/13/1 738/14/1 736/4/1
f 739/1/2 740/2/2 741/3/2
f 739/1/2 742/4/2 740/2/2
f 743/15/3 744/13/3 745/14/3
f 743/15/3 746/16/3 744/13/3
f 747/15/4 748/14/4 749/13/4
f 747/15/4 749/13/4 750/16/4
f 747/15/5 751/13/5 738/14/5
f 747/15/5 750/16/5 751/13/5
f 752/15/6 749/13/6 748/14/6
f 752/15/6 753/16/6 749/13/6
f 754/9/1 755/10/1 756/11/1
f 754/9/1 757/12/1 755/10/1
f 758/9/2 759/10/2 760/11/2
f 758/9/2 761/12/2 759/10/2
f 757/12/3 760/11/3 755/10/3
f 757/12/3 758/9/3 760/11/3
f 762/12/4 763/10/4 764/11/4
f 762/12/4 764/11/4 765/9/4
f 762/12/5 766/11/5 767/10/5
f 762/12/5 765/9/5 766/11/5
f 768/12/6 764/11/6 763/10/6
f 768/12/6 769/9/6 764/11/6
f 590/1/1 770/2/1 771/3/1
f 590/1/1 589/4/1 770/2/1
f 772/1/2 773/2/2 774/3/2
f 772/1/2 775/4/2 773/2/2
f 776/5/3 777/6/3 778/7/3
f 776/5/3 779/8/3 777/6/3
f 780/5/4 781/7/4 782/6/4
f 780/5/4 782/6/4 783/8/4
f 780/5/5 784/6/5 785/7/5
f 780/5/5 783/8/5 784/6/5
f 786/5/6 782/6/6 781/7/6
f 786/5/6 787/8/6 782/6/6
f 788/21/1 789/22/1 790/23/1
f 788/21/1 791/24/1 789/22/1
f 792/21/2 793/22/2 794/23/2
f 792/21/2 795/24/2 793/22/2
f 796/22/3 797/21/3 798/24/3
f 796/22/3 799/23/3 797/21/3
f 800/24/4 801/22/4 802/23/4
f 800/24/4 802/23/4 803/21/4
f 804/22/5 792/21/5 791/24/5
f 804/22/5 805/23/5 792/21/5
f 798/24/6 802/23/6 801/22/6
f 798/24/6 797/21/6 802/23/6
f 806/1/1 807/2/1 808/3/1
f 806/1/1 809/4/1 807/2/1
f 810/1/2 811/2/2 812/3/2
f 810/1/2 813/4/2 811/2/2
f 643/5/3 814/6/3 815/7/3
f 643/5/3 644/8/3 814/6/3
f 657/5/4 816/7/4 817/6/4
f 657/5/4 817/6/4 658/8/4
f 657/5/5 634/6/5 635/7/5
f 657/5/5 658/8/5 634/6/5
f 818/5/6 817/6/6 816/7/6
f 818/5/6 819/8/6 817/6/6
f 820/1/1 821/2/1 822/3/1
f 820/1/1 823/4/1 821/2/1
f 824/1/2 825/2/2 826/3/2
f 824/1/2 827/4/2 825/2/2
f 657/5/3 817/6/3 816/7/3
f 657/5/3 658/8/3 817/6/3
f 828/5/4 829/7/4 830/6/4
f 828/5/4 830/6/4 831/8/4
f 828/5/5 639/6/5 638/7/5
f 828/5/5 831/8/5 639/6/5
f 832/5/6 830/6/6 829/7/6
f 832/5/6 833/8/6 830/6/6
f 834/1/1 835/2/1 836/3/1
f 834/1/1 837/4/1 835/2/1
f 838/1/2 839/2/2 840/3/2
f 838/1/2 841/4/2 839/2/2
f 828/5/3 830/6/3 829/7/3
f 828/5/3 831/8/3 830/6/3
f 842/5/4 843/7/4 844/6/4
f 842/5/4 844/6/4 845/8/4
f 842/5/5 653/6/5 652/7/5
f 842/5/5 845/8/5 653/6/5
f 846/5/6 844/6/6 843/7/6
f 846/5/6 847/8/6 844/6/6
f 824/1/1 848/2/1 826/3/1
f 824/1/1 849/4/1 848/2/1
f 850/1/2 851/2/2 852/3/2
f 850/1/2 853/4/2 851/2/2
f 854/5/3 855/6/3 856/7/3
f 854/5/3 857/8/3 855/6/3
f 858/5/4 859/7/4 860/6/4
f 858/5/4 860/6/4 861/8/4
f 858/5/5 862/6/5 863/7/5
f 858/5/5 861/8/5 862/6/5
f 864/5/6 860/6/6 859/7/6
f 864/5/6 865/8/6 860/6/6
f 838/1/1 811/2/1 840/3/1
f 838/1/1 813/4/1 811/2/1
f 866/1/2 867/2/2 868/3/2
f 866/1/2 869/4/2 867/2/2
f 813/4/3 868/3/3 811/2/3
f 813/4/3 866/1/3 868/3/3
f 827/4/4 825/2/4 870/3/4
f 827/4/4 870/3/4 871/1/4
f 827/4/5 872/3/5 630/2/5
f 827/4/5 871/1/5 872/3/5
f 873/4/6 870/3/6 825/2/6
f 873/4/6 874/1/6 870/3/6
f 875/1/1 876/2/1 877/3/1
f 875/1/1 878/4/1 876/2/1
f 879/1/2 880/2/2 881/3/2
f 879/1/2 882/4/2 880/2/2
f 671/5/3 883/6/3 884/7/3
f 671/5/3 672/8/3 883/6/3
f 885/5/4 886/7/4 887/6/4
f 885/5/4 887/6/4 888/8/4
f 885/5/5 667/6/5 668/7/5
f 885/5/5 888/8/5 667/6/5
f 889/5/6 887/6/6 886/7/6
f 889/5/6 890/8/6 887/6/6
f 891/1/1 892/2/1 893/3/1
f 891/1/1 894/4/1 892/2/1
f 895/1/2 896/2/2 897/3/2
f 895/1/2 898/4/2 896/2/2
f 885/5/3 887/6/3 886/7/3
f 885/5/3 888/8/3 887/6/3
f 899/5/4 900/7/4 901/6/4
f 899/5/4 901/6/4 902/8/4
f 899/5/5 670/6/5 669/7/5
f 899/5/5 902/8/5 670/6/5
f 903/5/6 901/6/6 900/7/6
f 903/5/6 904/8/6 901/6/6
f 905/25/1 906/26/1 907/27/1
f 905/25/1 687/28/1 906/26/1
f 688/25/2 908/26/2 909/27/2
f 688/25/2 910/28/2 908/26/2
f 687/28/3 909/27/3 906/26/3
f 687/28/3 688/25/3 909/27/3
f 911/28/4 912/26/4 913/27/4
f 911/28/4 913/27/4 914/25/4
f 911/28/5 679/27/5 674/26/5
f 911/28/5 914/25/5 679/27/5
f 915/28/6 913/27/6 912/26/6
f 915/28/6 916/25/6 913/27/6
f 914/25/1 917/26/1 913/27/1
f 914/25/1 699/28/1 917/26/1
f 700/25/2 918/26/2 919/27/2
f 700/25/2 920/28/2 918/26/2
f 699/28/3 919/27/3 917/26/3
f 699/28/3 700/25/3 919/27/3
f 910/28/4 908/26/4 921/27/4
f 910/28/4 921/27/4 922/25/4
f 910/28/5 693/27/5 689/26/5
f 910/28/5 922/25/5 693/27/5
f 923/28/6 921/27/6 908/26/6
f 923/28/6 924/25/6 921/27/6
f 922/25/1 925/26/1 921/27/1
f 922/25/1 926/28/1 925/26/1
f 927/25/2 928/26/2 929/27/2
f 927/25/2 930/28/2 928/26/2
f 926/28/3 929/27/3 925/26/3
f 926/28/3 927/25/3 929/27/3
f 920/28/4 918/26/4 931/27/4
f 920/28/4 931/27/4 932/25/4
f 920/28/5 933/27/5 934/26/5
f 920/28/5 932/25/5 933/27/5
f 935/28/6 931/27/6 918/26/6
f 935/28/6 936/25/6 931/27/6
f 937/29/1 938/30/1 939/31/1
f 937/29/1 940/32/1 938/30/1
f 941/29/2 942/30/2 943/31/2
f 941/29/2 944/32/2 942/30/2
f 940/32/3 943/31/3 938/30/3
f 940/32/3 941/29/3 943/31/3
f 945/32/4 946/30/4 947/31/4
f 945/32/4 947/31/4 948/29/4
f 945/32/5 949/31/5 950/30/5
f 945/32/5 948/29/5 949/31/5
f 951/32/6 947/31/6 946/30/6
f 951/32/6 952/29/6 947/31/6
f 953/13/1 954/4/1 955/1/1
f 953/13/1 745/14/1 954/4/1
f 956/1/2 957/2/2 958/3/2
f 956/1/2 959/4/2 957/2/2
f 752/15/3 960/13/3 961/14/3
f 752/15/3 753/16/3 960/13/3
f 962/15/4 963/14/4 964/13/4
f 962/15/4 964/13/4 965/16/4
f 962/15/5 744/13/5 745/14/5
f 962/15/5 965/16/5 744/13/5
f 966/15/6 964/13/6 963/14/6
f 966/15/6 967/16/6 964/13/6
f 968/13/1 969/4/1 970/1/1
f 968/13/1 748/14/1 969/4/1
f 971/1/2 972/2/2 973/3/2
f 971/1/2 974/4/2 972/2/2
f 962/15/3 964/13/3 963/14/3
f 962/15/3 965/16/3 964/13/3
f 975/15/4 976/14/4 977/13/4
f 975/15/4 977/13/4 978/16/4
f 975/15/5 749/13/5 748/14/5
f 975/15/5 978/16/5 749/13/5
f 979/15/6 977/13/6 976/14/6
f 979/15/6 980/16/6 977/13/6
f 971/1/1 981/2/1 973/3/1
f 971/1/1 982/4/1 981/2/1
f 983/1/2 984/2/2 985/3/2
f 983/1/2 986/4/2 984/2/2
f 786/5/3 987/6/3 988/7/3
f 786/5/3 787/8/3 987/6/3
f 989/5/4 990/7/4 991/6/4
f 989/5/4 991/6/4 992/8/4
f 989/5/5 777/6/5 778/7/5
f 989/5/5 992/8/5 777/6/5
f 993/5/6 991/6/6 990/7/6
f 993/5/6 994/8/6 991/6/6
f 995/13/1 996/4/1 997/1/1
f 995/13/1 998/14/1 996/4/1
f 999/1/2 1000/2/2 1001/3/2
f 999/1/2 1002/4/2 1000/2/2
f 1003/15/3 1004/13/3 1005/14/3
f 1003/15/3 1006/16/3 1004/13/3
f 1007/15/4 1008/14/4 1009/13/4
f 1007/15/4 1009/13/4 1010/16/4
f 1007/15/5 1011/13/5 998/14/5
f 1007/15/5 1010/16/5 1011/13/5
f 1012/15/6 1009/13/6 1008/14/6
f 1012/15/6 1013/16/6 1009/13/6
f 999/1/1 1014/2/1 1001/3/1
f 999/1/1 1015/4/1 1014/2/1
f 1016/1/2 1017/2/2 1018/3/2
f 1016/1/2 1019/4/2 1017/2/2
f 846/5/3 1020/6/3 1021/7/3
f 846/5/3 847/8/3 1020/6/3
f 1022/5/4 1023/7/4 1024/6/4
f 1022/5/4 1024/6/4 1025/8/4
f 1022/5/5 830/6/5 829/7/5
f 1022/5/5 1025/8/5 830/6/5
f 1026/5/6 1024/6/6 1023/7/6
f 1026/5/6 1027/8/6 1024/6/6
f 1016/1/1 1028/2/1 1018/3/1
f 1016/1/1 873/4/1 1028/2/1
f 874/1/2 1029/2/2 1030/3/2
f 874/1/2 1031/4/2 1029/2/2
f 873/4/3 1030/3/3 1028/2/3
f 873/4/3 874/1/3 1030/3/3
f 1032/4/4 1033/2/4 1034/3/4
f 1032/4/4 1034/3/4 1035/1/4
f 1032/4/5 868/3/5 811/2/5
f 1032/4/5 1035/1/5 868/3/5
f 1036/4/6 1034/3/6 1033/2/6
f 1036/4/6 1037/1/6 1034/3/6
f 874/1/1 1038/2/1 1030/3/1
f 874/1/1 1039/4/1 1038/2/1
f 1040/1/2 1041/2/2 1042/3/2
f 1040/1/2 1043/4/2 1041/2/2
f 1044/33/3 1045/34/3 1046/35/3
f 1044/33/3 1047/36/3 1045/34/3
f 1048/33/4 1049/35/4 1050/34/4
f 1048/33/4 1050/34/4 1051/36/4
f 1048/33/5 1052/34/5 1053/35/5
f 1048/33/5 1051/36/5 1052/34/5
f 1054/33/6 1050/34/6 1049/35/6
f 1054/33/6 1055/36/6 1050/34/6
f 1056/37/1 1057/38/1 1058/39/1
f 1056/37/1 1059/40/1 1057/38/1
f 1060/37/2 1061/38/2 1062/39/2
f 1060/37/2 1063/40/2 1061/38/2
f 1059/40/3 1062/39/3 1057/38/3
f 1059/40/3 1060/37/3 1062/39/3
f 1064/40/4 1065/38/4 1066/39/4
f 1064/40/4 1066/39/4 1067/37/4
f 1064/40/5 1068/39/5 1069/38/5
f 1064/40/5 1067/37/5 1068/39/5
f 1070/40/6 1066/39/6 1065/38/6
f 1070/40/6 1071/37/6 1066/39/6
f 1072/1/1 1073/2/1 1074/3/1
f 1072/1/1 1075/4/1 1073/2/1
f 1076/1/2 1077/2/2 1078/3/2
f 1076/1/2 1079/4/2 1077/2/2
f 889/5/3 1080/6/3 1081/7/3
f 889/5/3 890/8/3 1080/6/3
f 903/5/4 1082/7/4 1083/6/4
f 903/5/4 1083/6/4 904/8/4
f 903/5/5 883/6/5 884/7/5
f 903/5/5 904/8/5 883/6/5
f 1084/5/6 1083/6/6 1082/7/6
f 1084/5/6 1085/8/6 1083/6/6
f 1086/1/1 1087/2/1 1088/3/1
f 1086/1/1 1089/4/1 1087/2/1
f 1090/1/2 1091/2/2 1092/3/2
f 1090/1/2 1093/4/2 1091/2/2
f 903/5/3 1083/6/3 1082/7/3
f 903/5/3 904/8/3 1083/6/3
f 1094/5/4 1095/7/4 1096/6/4
f 1094/5/4 1096/6/4 1097/8/4
f 1094/5/5 887/6/5 886/7/5
f 1094/5/5 1097/8/5 887/6/5
f 1098/5/6 1096/6/6 1095/7/6
f 1098/5/6 1099/8/6 1096/6/6
f 1100/25/1 1101/26/1 1102/27/1
f 1100/25/1 915/28/1 1101/26/1
f 916/25/2 1103/26/2 1104/27/2
f 916/25/2 1105/28/2 1103/26/2
f 915/28/3 1104/27/3 1101/26/3
f 915/28/3 916/25/3 1104/27/3
f 1106/28/4 1107/26/4 1108/27/4
f 1106/28/4 1108/27/4 1109/25/4
f 1106/28/5 909/27/5 906/26/5
f 1106/28/5 1109/25/5 909/27/5
f 1110/28/6 1108/27/6 1107/26/6
f 1110/28/6 1111/25/6 1108/27/6
f 1109/25/1 1112/26/1 1108/27/1
f 1109/25/1 923/28/1 1112/26/1
f 924/25/2 1113/26/2 1114/27/2
f 924/25/2 1115/28/2 1113/26/2
f 923/28/3 1114/27/3 1112/26/3
f 923/28/3 924/25/3 1114/27/3
f 1105/28/4 1103/26/4 1116/27/4
f 1105/28/4 1116/27/4 1117/25/4
f 1105/28/5 919/27/5 917/26/5
f 1105/28/5 1117/25/5 919/27/5
f 1118/28/6 1116/27/6 1103/26/6
f 1118/28/6 1119/25/6 1116/27/6
f 1117/25/1 1120/26/1 1116/27/1
f 1117/25/1 935/28/1 1120/26/1
f 936/25/2 1121/26/2 1122/27/2
f 936/25/2 1123/28/2 1121/26/2
f 935/28/3 1122/27/3 1120/26/3
f 935/28/3 936/25/3 1122/27/3
f 1115/28/4 1113/26/4 1124/27/4
f 1115/28/4 1124/27/4 1125/25/4
f 1115/28/5 929/27/5 925/26/5
f 1115/28/5 1125/25/5 929/27/5
f 1126/28/6 1124/27/6 1113/26/6
f 1126/28/6 1127/25/6 1124/27/6
f 1128/1/1 1129/2/1 1130/3/1
f 1128/1/1 1131/4/1 1129/2/1
f 1132/1/2 1133/2/2 1134/3/2
f 1132/1/2 969/4/2 1133/2/2
f 1135/5/3 1136/6/3 1137/7/3
f 1135/5/3 1138/8/3 1136/6/3
f 1139/5/4 1140/7/4 1141/6/4
f 1139/5/4 1141/6/4 1142/8/4
f 1139/5/5 1143/6/5 1144/7/5
f 1139/5/5 1142/8/5 1143/6/5
f 1145/5/6 1141/6/6 1140/7/6
f 1145/5/6 1146/8/6 1141/6/6
f 1147/13/1 1148/4/1 1149/1/1
f 1147/13/1 961/14/1 1148/4/1
f 1150/1/2 1151/2/2 1152/3/2
f 1150/1/2 1153/4/2 1151/2/2
f 966/15/3 1154/13/3 1155/14/3
f 966/15/3 967/16/3 1154/13/3
f 979/15/4 1156/14/4 1157/13/4
f 979/15/4 1157/13/4 980/16/4
f 979/15/5 960/13/5 961/14/5
f 979/15/5 980/16/5 960/13/5
f 1158/15/6 1157/13/6 1156/14/6
f 1158/15/6 1159/16/6 1157/13/6
f 1160/13/1 1161/4/1 1162/1/1
f 1160/13/1 963/14/1 1161/4/1
f 1163/1/2 1164/2/2 1165/3/2
f 1163/1/2 1166/4/2 1164/2/2
f 979/15/3 1157/13/3 1156/14/3
f 979/15/3 980/16/3 1157/13/3
f 1167/15/4 1168/14/4 1169/13/4
f 1167/15/4 1169/13/4 1170/16/4
f 1167/15/5 964/13/5 963/14/5
f 1167/15/5 1170/16/5 964/13/5
f 1171/15/6 1169/13/6 1168/14/6
f 1171/15/6 1172/16/6 1169/13/6
f 1163/1/1 1173/2/1 1165/3/1
f 1163/1/1 1174/4/1 1173/2/1
f 997/1/2 1175/2/2 1176/3/2
f 997/1/2 1177/4/2 1175/2/2
f 993/5/3 1178/6/3 1179/7/3
f 993/5/3 994/8/3 1178/6/3
f 1180/5/4 1181/7/4 1182/6/4
f 1180/5/4 1182/6/4 1183/8/4
f 1180/5/5 987/6/5 988/7/5
f 1180/5/5 1183/8/5 987/6/5
f 1184/5/6 1182/6/6 1181/7/6
f 1184/5/6 1185/8/6 1182/6/6
f 997/1/1 1186/2/1 1176/3/1
f 997/1/1 996/4/1 1186/2/1
f 1187/1/2 1188/2/2 1189/3/2
f 1187/1/2 1190/4/2 1188/2/2
f 996/4/3 1189/3/3 1186/2/3
f 996/4/3 1187/1/3 1189/3/3
f 1191/4/4 1192/2/4 1193/3/4
f 1191/4/4 1193/3/4 1194/1/4
f 1191/4/5 1001/3/5 1195/2/5
f 1191/4/5 1194/1/5 1001/3/5
f 1196/4/6 1193/3/6 1192/2/6
f 1196/4/6 1197/1/6 1193/3/6
f 1187/1/1 1198/2/1 1189/3/1
f 1187/1/1 1199/4/1 1198/2/1
f 1200/1/2 1201/2/2 1202/3/2
f 1200/1/2 1203/4/2 1201/2/2
f 1026/5/3 1204/6/3 1205/7/3
f 1026/5/3 1027/8/3 1204/6/3
f 1206/5/4 1207/7/4 1208/6/4
f 1206/5/4 1208/6/4 1209/8/4
f 1206/5/5 1020/6/5 1021/7/5
f 1206/5/5 1209/8/5 1020/6/5
f 1210/5/6 1208/6/6 1207/7/6
f 1210/5/6 1211/8/6 1208/6/6
f 1200/1/1 1212/2/1 1202/3/1
f 1200/1/1 1036/4/1 1212/2/1
f 1037/1/2 1213/2/2 1214/3/2
f 1037/1/2 1215/4/2 1213/2/2
f 1036/4/3 1214/3/3 1212/2/3
f 1036/4/3 1037/1/3 1214/3/3
f 1216/4/4 1217/2/4 1218/3/4
f 1216/4/4 1218/3/4 1219/1/4
f 1216/4/5 1030/3/5 1028/2/5
f 1216/4/5 1219/1/5 1030/3/5
f 1220/4/6 1218/3/6 1217/2/6
f 1220/4/6 1221/1/6 1218/3/6
f 1222/1/1 1223/2/1 1224/3/1
f 1222/1/1 1225/4/1 1223/2/1
f 1226/1/2 1227/2/2 1228/3/2
f 1226/1/2 1229/4/2 1227/2/2
f 1098/5/3 1230/6/3 1231/7/3
f 1098/5/3 1099/8/3 1230/6/3
f 1232/5/4 1233/7/4 1234/6/4
f 1232/5/4 1234/6/4 1235/8/4
f 1232/5/5 1083/6/5 1082/7/5
f 1232/5/5 1235/8/5 1083/6/5
f 1236/5/6 1234/6/6 1233/7/6
f 1236/5/6 1237/8/6 1234/6/6
f 1238/13/1 1239/4/1 1240/1/1
f 1238/13/1 1241/14/1 1239/4/1
f 1242/1/2 1243/2/2 1244/3/2
f 1242/1/2 1245/4/2 1243/2/2
f 1246/15/3 1247/13/3 1248/14/3
f 1246/15/3 1249/16/3 1247/13/3
f 1250/15/4 1251/14/4 1252/13/4
f 1250/15/4 1252/13/4 1253/16/4
f 1250/15/5 1254/13/5 1241/14/5
f 1250/15/5 1253/16/5 1254/13/5
f 1255/15/6 1252/13/6 1251/14/6
f 1255/15/6 1256/16/6 1252/13/6
f 1257/1/1 1258/2/1 1259/3/1
f 1257/1/1 1260/4/1 1258/2/1
f 1261/1/2 1262/2/2 1263/3/2
f 1261/1/2 1264/4/2 1262/2/2
f 1265/5/3 1266/6/3 1267/7/3
f 1265/5/3 1268/8/3 1266/6/3
f 1269/5/4 1270/7/4 1271/6/4
f 1269/5/4 1271/6/4 1272/8/4
f 1269/5/5 1273/6/5 1274/7/5
f 1269/5/5 1272/8/5 1273/6/5
f 1275/5/6 1271/6/6 1270/7/6
f 1275/5/6 1276/8/6 1271/6/6
f 1277/13/1 1278/4/1 1279/1/1
f 1277/13/1 1280/14/1 1278/4/1
f 1281/1/2 1282/2/2 1283/3/2
f 1281/1/2 1284/4/2 1282/2/2
f 1285/15/3 1286/13/3 1287/14/3
f 1285/15/3 1288/16/3 1286/13/3
f 1289/15/4 1290/14/4 1291/13/4
f 1289/15/4 1291/13/4 1292/16/4
f 1289/15/5 1293/13/5 1280/14/5
f 1289/15/5 1292/16/5 1293/13/5
f 1294/15/6 1291/13/6 1290/14/6
f 1294/15/6 1295/16/6 1291/13/6
f 1296/1/1 1297/2/1 1298/3/1
f 1296/1/1 1299/4/1 1297/2/1
f 1300/1/2 1301/2/2 1302/3/2
f 1300/1/2 1161/4/2 1301/2/2
f 1145/5/3 1303/6/3 1304/7/3
f 1145/5/3 1146/8/3 1303/6/3
f 1305/5/4 1306/7/4 1307/6/4
f 1305/5/4 1307/6/4 1308/8/4
f 1305/5/5 1136/6/5 1137/7/5
f 1305/5/5 1308/8/5 1136/6/5
f 1309/5/6 1307/6/6 1306/7/6
f 1309/5/6 1310/8/6 1307/6/6
f 1311/13/1 1312/4/1 1313/1/1
f 1311/13/1 1155/14/1 1312/4/1
f 1314/1/2 1315/2/2 1316/3/2
f 1314/1/2 1317/4/2 1315/2/2
f 1158/15/3 1318/13/3 1319/14/3
f 1158/15/3 1159/16/3 1318/13/3
f 1171/15/4 1320/14/4 1321/13/4
f 1171/15/4 1321/13/4 1172/16/4
f 1171/15/5 1154/13/5 1155/14/5
f 1171/15/5 1172/16/5 1154/13/5
f 1322/15/6 1321/13/6 1320/14/6
f 1322/15/6 1323/16/6 1321/13/6
f 1324/1/1 1325/2/1 1326/3/1
f 1324/1/1 1327/4/1 1325/2/1
f 1328/1/2 1329/2/2 1330/3/2
f 1328/1/2 1331/4/2 1329/2/2
f 1327/4/3 1330/3/3 1325/2/3
f 1327/4/3 1328/1/3 1330/3/3
f 1317/4/4 1315/2/4 1332/3/4
f 1317/4/4 1332/3/4 1333/1/4
f 1317/4/5 1176/3/5 1173/2/5
f 1317/4/5 1333/1/5 1176/3/5
f 1334/4/6 1332/3/6 1315/2/6
f 1334/4/6 1335/1/6 1332/3/6
f 1336/1/1 1337/2/1 1338/3/1
f 1336/1/1 1339/4/1 1337/2/1
f 1340/1/2 1341/2/2 1342/3/2
f 1340/1/2 1343/4/2 1341/2/2
f 1344/5/3 1345/6/3 1346/7/3
f 1344/5/3 1347/8/3 1345/6/3
f 1348/5/4 1349/7/4 1350/6/4
f 1348/5/4 1350/6/4 1351/8/4
f 1348/5/5 1352/6/5 1353/7/5
f 1348/5/5 1351/8/5 1352/6/5
f 1354/5/6 1350/6/6 1349/7/6
f 1354/5/6 1355/8/6 1350/6/6
f 1340/1/1 1356/2/1 1342/3/1
f 1340/1/1 1357/4/1 1356/2/1
f 1358/1/2 1359/2/2 1360/3/2
f 1358/1/2 1361/4/2 1359/2/2
f 1362/5/3 1363/6/3 1364/7/3
f 1362/5/3 1365/8/3 1363/6/3
f 1210/5/4 1366/7/4 1367/6/4
f 1210/5/4 1367/6/4 1211/8/4
f 1210/5/5 1368/6/5 1369/7/5
f 1210/5/5 1211/8/5 1368/6/5
f 1370/5/6 1367/6/6 1366/7/6
f 1370/5/6 1371/8/6 1367/6/6
f 1240/1/1 1372/2/1 1373/3/1
f 1240/1/1 1239/4/1 1372/2/1
f 1374/1/2 1375/2/2 1376/3/2
f 1374/1/2 1377/4/2 1375/2/2
f 1378/5/3 1379/6/3 1380/7/3
f 1378/5/3 1381/8/3 1379/6/3
f 1382/5/4 1383/7/4 1384/6/4
f 1382/5/4 1384/6/4 1385/8/4
f 1382/5/5 1386/6/5 1387/7/5
f 1382/5/5 1385/8/5 1386/6/5
f 1388/5/6 1384/6/6 1383/7/6
f 1388/5/6 1389/8/6 1384/6/6
f 1390/17/1 1391/18/1 1392/19/1
f 1390/17/1 1393/20/1 1391/18/1
f 1394/17/2 1395/18/2 1396/19/2
f 1394/17/2 1397/20/2 1395/18/2
f 1393/20/3 1396/19/3 1391/18/3
f 1393/20/3 1394/17/3 1396/19/3
f 1398/20/4 1399/18/4 1400/19/4
f 1398/20/4 1400/19/4 1401/17/4
f 1398/20/5 1402/19/5 1403/18/5
f 1398/20/5 1401/17/5 1402/19/5
f 1404/20/6 1400/19/6 1399/18/6
f 1404/20/6 1405/17/6 1400/19/6
f 1406/13/1 1407/4/1 1408/1/1
f 1406/13/1 1287/14/1 1407/4/1
f 1409/1/2 1410/2/2 1411/3/2
f 1409/1/2 1412/4/2 1410/2/2
f 1294/15/3 1413/13/3 1414/14/3
f 1294/15/3 1295/16/3 1413/13/3
f 1415/15/4 1416/14/4 1417/13/4
f 1415/15/4 1417/13/4 1418/16/4
f 1415/15/5 1286/13/5 1287/14/5
f 1415/15/5 1418/16/5 1286/13/5
f 1419/15/6 1417/13/6 1416/14/6
f 1419/15/6 1420/16/6 1417/13/6
f 1421/1/1 1422/2/1 1423/3/1
f 1421/1/1 1424/4/1 1422/2/1
f 1425/1/2 1426/2/2 1427/3/2
f 1425/1/2 1428/4/2 1426/2/2
f 1309/5/3 1429/6/3 1430/7/3
f 1309/5/3 1310/8/3 1429/6/3
f 1431/5/4 1432/7/4 1433/6/4
f 1431/5/4 1433/6/4 1434/8/4
f 1431/5/5 1303/6/5 1304/7/5
f 1431/5/5 1434/8/5 1303/6/5
f 1435/5/6 1433/6/6 1432/7/6
f 1435/5/6 1436/8/6 1433/6/6
f 1437/13/1 1438/4/1 1439/1/1
f 1437/13/1 1319/14/1 1438/4/1
f 1440/1/2 1441/2/2 1442/3/2
f 1440/1/2 1443/4/2 1441/2/2
f 1322/15/3 1444/13/3 1445/14/3
f 1322/15/3 1323/16/3 1444/13/3
f 1446/15/4 1447/14/4 1448/13/4
f 1446/15/4 1448/13/4 1449/16/4
f 1446/15/5 1318/13/5 1319/14/5
f 1446/15/5 1449/16/5 1318/13/5
f 1450/15/6 1448/13/6 1447/14/6
f 1450/15/6 1451/16/6 1448/13/6
f 1452/1/1 1453/2/1 1454/3/1
f 1452/1/1 1455/4/1 1453/2/1
f 1456/1/2 1457/2/2 1458/3/2
f 1456/1/2 1459/4/2 1457/2/2
f 1460/5/3 1461/6/3 1462/7/3
f 1460/5/3 1463/8/3 1461/6/3
f 1464/5/4 1465/7/4 1466/6/4
f 1464/5/4 1466/6/4 1467/8/4
f 1464/5/5 1468/6/5 1469/7/5
f 1464/5/5 1467/8/5 1468/6/5
f 1470/5/6 1466/6/6 1465/7/6
f 1470/5/6 1471/8/6 1466/6/6
f 1472/1/1 1473/2/1 1474/3/1
f 1472/1/1 1475/4/1 1473/2/1
f 1476/1/2 1477/2/2 1478/3/2
f 1476/1/2 1479/4/2 1477/2/2
f 1480/5/3 1481/6/3 1482/7/3
f 1480/5/3 1483/8/3 1481/6/3
f 1484/5/4 1485/7/4 1486/6/4
f 1484/5/4 1486/6/4 1487/8/4
f 1484/5/5 1488/6/5 1489/7/5
f 1484/5/5 1487/8/5 1488/6/5
f 1490/5/6 1486/6/6 1485/7/6
f 1490/5/6 1491/8/6 1486/6/6
f 1492/1/1 1493/2/1 1494/3/1
f 1492/1/1 1334/4/1 1493/2/1
f 1335/1/2 1495/2/2 1496/3/2
f 1335/1/2 1497/4/2 1495/2/2
f 1334/4/3 1496/3/3 1493/2/3
f 1334/4/3 1335/1/3 1496/3/3
f 1443/4/4 1441/2/4 1498/3/4
f 1443/4/4 1498/3/4 1499/1/4
f 1443/4/5 1330/3/5 1325/2/5
f 1443/4/5 1499/1/5 1330/3/5
f 1500/4/6 1498/3/6 1441/2/6
f 1500/4/6 1501/1/6 1498/3/6
f 1476/1/1 1457/2/1 1478/3/1
f 1476/1/1 1459/4/1 1457/2/1
f 1502/1/2 1503/2/2 1504/3/2
f 1502/1/2 1505/4/2 1503/2/2
f 1459/4/3 1504/3/3 1457/2/3
f 1459/4/3 1502/1/3 1504/3/3
f 1506/4/4 1507/2/4 1508/3/4
f 1506/4/4 1508/3/4 1509/1/4
f 1506/4/5 1510/3/5 1511/2/5
f 1506/4/5 1509/1/5 1510/3/5
f 1512/4/6 1508/3/6 1507/2/6
f 1512/4/6 1513/1/6 1508/3/6
f 1514/1/1 1515/2/1 1516/3/1
f 1514/1/1 1517/4/1 1515/2/1
f 1518/1/2 1519/2/2 1520/3/2
f 1518/1/2 1521/4/2 1519/2/2
f 1522/5/3 1523/6/3 1524/7/3
f 1522/5/3 1525/8/3 1523/6/3
f 1526/5/4 1527/7/4 1528/6/4
f 1526/5/4 1528/6/4 1529/8/4
f 1526/5/5 1530/6/5 1531/7/5
f 1526/5/5 1529/8/5 1530/6/5
f 1532/5/6 1528/6/6 1527/7/6
f 1532/5/6 1533/8/6 1528/6/6
f 1534/1/1 1535/2/1 1536/3/1
f 1534/1/1 1537/4/1 1535/2/1
f 1538/1/2 1539/2/2 1540/3/2
f 1538/1/2 1541/4/2 1539/2/2
f 1526/5/3 1528/6/3 1527/7/3
f 1526/5/3 1529/8/3 1528/6/3
f 1542/5/4 1543/7/4 1544/6/4
f 1542/5/4 1544/6/4 1545/8/4
f 1542/5/5 1546/6/5 1547/7/5
f 1542/5/5 1545/8/5 1546/6/5
f 1548/5/6 1544/6/6 1543/7/6
f 1548/5/6 1549/8/6 1544/6/6
f 1550/1/1 1551/2/1 1552/3/1
f 1550/1/1 1553/4/1 1551/2/1
f 1554/1/2 1555/2/2 1556/3/2
f 1554/1/2 1557/4/2 1555/2/2
f 1542/5/3 1544/6/3 1543/7/3
f 1542/5/3 1545/8/3 1544/6/3
f 1558/5/4 1559/7/4 1560/6/4
f 1558/5/4 1560/6/4 1561/8/4
f 1558/5/5 1562/6/5 1563/7/5
f 1558/5/5 1561/8/5 1562/6/5
f 1564/5/6 1560/6/6 1559/7/6
f 1564/5/6 1565/8/6 1560/6/6
f 1566/13/1 1567/4/1 1568/1/1
f 1566/13/1 1569/14/1 1567/4/1
f 1570/1/2 1571/2/2 1572/3/2
f 1570/1/2 1573/4/2 1571/2/2
f 1574/15/3 1575/13/3 1576/14/3
f 1574/15/3 1577/16/3 1575/13/3
f 1578/15/4 1579/14/4 1580/13/4
f 1578/15/4 1580/13/4 1581/16/4
f 1578/15/5 1582/13/5 1569/14/5
f 1578/15/5 1581/16/5 1582/13/5
f 1583/15/6 1580/13/6 1579/14/6
f 1583/15/6 1584/16/6 1580/13/6
f 1585/13/1 1586/4/1 1587/1/1
f 1585/13/1 1588/14/1 1586/4/1
f 1589/1/2 1590/2/2 1591/3/2
f 1589/1/2 1592/4/2 1590/2/2
f 1578/15/3 1580/13/3 1579/14/3
f 1578/15/3 1581/16/3 1580/13/3
f 1593/15/4 1594/14/4 1595/13/4
f 1593/15/4 1595/13/4 1596/16/4
f 1593/15/5 1597/13/5 1588/14/5
f 1593/15/5 1596/16/5 1597/13/5
f 1598/15/6 1595/13/6 1594/14/6
f 1598/15/6 1599/16/6 1595/13/6
f 1589/1/1 1600/2/1 1591/3/1
f 1589/1/1 1601/4/1 1600/2/1
f 1602/1/2 1603/2/2 1604/3/2
f 1602/1/2 1407/4/2 1603/2/2
f 1605/5/3 1606/6/3 1607/7/3
f 1605/5/3 1608/8/3 1606/6/3
f 1609/5/4 1610/7/4 1611/6/4
f 1609/5/4 1611/6/4 1612/8/4
f 1609/5/5 1613/6/5 1614/7/5
f 1609/5/5 1612/8/5 1613/6/5
f 1615/5/6 1611/6/6 1610/7/6
f 1615/5/6 1616/8/6 1611/6/6
f 1617/1/1 1571/2/1 1618/3/1
f 1617/1/1 1573/4/1 1571/2/1
f 1619/1/2 1620/2/2 1621/3/2
f 1619/1/2 1622/4/2 1620/2/2
f 1609/5/3 1611/6/3 1610/7/3
f 1609/5/3 1612/8/3 1611/6/3
f 1623/5/4 1624/7/4 1625/6/4
f 1623/5/4 1625/6/4 1626/8/4
f 1623/5/5 1627/6/5 1628/7/5
f 1623/5/5 1626/8/5 1627/6/5
f 1629/5/6 1625/6/6 1624/7/6
f 1629/5/6 1630/8/6 1625/6/6
f 1631/13/1 1632/4/1 1633/1/1
f 1631/13/1 1634/14/1 1632/4/1
f 1635/1/2 1636/2/2 1637/3/2
f 1635/1/2 1638/4/2 1636/2/2
f 1639/15/3 1640/13/3 1641/14/3
f 1639/15/3 1642/16/3 1640/13/3
f 1419/15/4 1643/14/4 1644/13/4
f 1419/15/4 1644/13/4 1420/16/4
f 1419/15/5 1645/13/5 1634/14/5
f 1419/15/5 1420/16/5 1645/13/5
f 1646/15/6 1644/13/6 1643/14/6
f 1646/15/6 1647/16/6 1644/13/6
f 1408/1/1 1603/2/1 1648/3/1
f 1408/1/1 1407/4/1 1603/2/1
f 1649/1/2 1650/2/2 1651/3/2
f 1649/1/2 1652/4/2 1650/2/2
f 1653/5/3 1654/6/3 1655/7/3
f 1653/5/3 1656/8/3 1654/6/3
f 1657/5/4 1658/7/4 1659/6/4
f 1657/5/4 1659/6/4 1660/8/4
f 1657/5/5 1661/6/5 1662/7/5
f 1657/5/5 1660/8/5 1661/6/5
f 1663/5/6 1659/6/6 1658/7/6
f 1663/5/6 1664/8/6 1659/6/6
f 1635/1/1 1665/2/1 1637/3/1
f 1635/1/1 1666/4/1 1665/2/1
f 1667/1/2 1668/2/2 1669/3/2
f 1667/1/2 1670/4/2 1668/2/2
f 1671/5/3 1672/6/3 1673/7/3
f 1671/5/3 1674/8/3 1672/6/3
f 1675/5/4 1676/7/4 1677/6/4
f 1675/5/4 1677/6/4 1678/8/4
f 1675/5/5 1679/6/5 1680/7/5
f 1675/5/5 1678/8/5 1679/6/5
f 1681/5/6 1677/6/6 1676/7/6
f 1681/5/6 1682/8/6 1677/6/6
f 1649/1/1 1683/2/1 1651/3/1
f 1649/1/1 1684/4/1 1683/2/1
f 1685/1/2 1686/2/2 1687/3/2
f 1685/1/2 1438/4/2 1686/2/2
f 1675/5/3 1677/6/3 1676/7/3
f 1675/5/3 1678/8/3 1677/6/3
f 1435/5/4 1688/7/4 1689/6/4
f 1435/5/4 1689/6/4 1436/8/4
f 1435/5/5 1690/6/5 1691/7/5
f 1435/5/5 1436/8/5 1690/6/5
f 1692/5/6 1689/6/6 1688/7/6
f 1692/5/6 1693/8/6 1689/6/6
f 1694/1/1 1636/2/1 1695/3/1
f 1694/1/1 1638/4/1 1636/2/1
f 1696/1/2 1697/2/2 1698/3/2
f 1696/1/2 1699/4/2 1697/2/2
f 1435/5/3 1689/6/3 1688/7/3
f 1435/5/3 1436/8/3 1689/6/3
f 1700/5/4 1701/7/4 1702/6/4
f 1700/5/4 1702/6/4 1703/8/4
f 1700/5/5 1429/6/5 1430/7/5
f 1700/5/5 1703/8/5 1429/6/5
f 1704/5/6 1702/6/6 1701/7/6
f 1704/5/6 1705/8/6 1702/6/6
f 1706/13/1 1707/4/1 1708/1/1
f 1706/13/1 1709/14/1 1707/4/1
f 1710/1/2 1711/2/2 1712/3/2
f 1710/1/2 1713/4/2 1711/2/2
f 1714/15/3 1715/13/3 1716/14/3
f 1714/15/3 1717/16/3 1715/13/3
f 1718/15/4 1719/14/4 1720/13/4
f 1718/15/4 1720/13/4 1721/16/4
f 1718/15/5 1722/13/5 1709/14/5
f 1718/15/5 1721/16/5 1722/13/5
f 1723/15/6 1720/13/6 1719/14/6
f 1723/15/6 1724/16/6 1720/13/6
f 1696/1/1 1668/2/1 1698/3/1
f 1696/1/1 1670/4/1 1668/2/1
f 1725/1/2 1726/2/2 1727/3/2
f 1725/1/2 1500/4/2 1726/2/2
f 1728/5/3 1729/6/3 1730/7/3
f 1728/5/3 1731/8/3 1729/6/3
f 1732/5/4 1733/7/4 1734/6/4
f 1732/5/4 1734/6/4 1735/8/4
f 1732/5/5 1736/6/5 1737/7/5
f 1732/5/5 1735/8/5 1736/6/5
f 1738/5/6 1734/6/6 1733/7/6
f 1738/5/6 1739/8/6 1734/6/6
f 1740/13/1 1741/4/1 1742/1/1
f 1740/13/1 1445/14/1 1741/4/1
f 1743/1/2 1744/2/2 1745/3/2
f 1743/1/2 1746/4/2 1744/2/2
f 1450/15/3 1747/13/3 1748/14/3
f 1450/15/3 1451/16/3 1747/13/3
f 1749/15/4 1750/14/4 1751/13/4
f 1749/15/4 1751/13/4 1752/16/4
f 1749/15/5 1444/13/5 1445/14/5
f 1749/15/5 1752/16/5 1444/13/5
f 1753/15/6 1751/13/6 1750/14/6
f 1753/15/6 1754/16/6 1751/13/6
f 1755/1/1 1756/2/1 1757/3/1
f 1755/1/1 1758/4/1 1756/2/1
f 1759/1/2 1760/2/2 1761/3/2
f 1759/1/2 1512/4/2 1760/2/2
f 1470/5/3 1762/6/3 1763/7/3
f 1470/5/3 1471/8/3 1762/6/3
f 1764/5/4 1765/7/4 1766/6/4
f 1764/5/4 1766/6/4 1767/8/4
f 1764/5/5 1461/6/5 1462/7/5
f 1764/5/5 1767/8/5 1461/6/5
f 1768/5/6 1766/6/6 1765/7/6
f 1768/5/6 1769/8/6 1766/6/6
f 1710/1/1 1770/2/1 1712/3/1
f 1710/1/1 1771/4/1 1770/2/1
f 1772/1/2 1773/2/2 1774/3/2
f 1772/1/2 1775/4/2 1773/2/2
f 1764/5/3 1766/6/3 1765/7/3
f 1764/5/3 1767/8/3 1766/6/3
f 1490/5/4 1776/7/4 1777/6/4
f 1490/5/4 1777/6/4 1491/8/4
f 1490/5/5 1466/6/5 1465/7/5
f 1490/5/5 1491/8/5 1466/6/5
f 1778/5/6 1777/6/6 1776/7/6
f 1778/5/6 1779/8/6 1777/6/6
f 1780/13/1 1781/4/1 1782/1/1
f 1780/13/1 1783/14/1 1781/4/1
f 1784/1/2 1785/2/2 1786/3/2
f 1784/1/2 1787/4/2 1785/2/2
f 1788/15/3 1789/13/3 1790/14/3
f 1788/15/3 1791/16/3 1789/13/3
f 1792/15/4 1793/14/4 1794/13/4
f 1792/15/4 1794/13/4 1795/16/4
f 1792/15/5 1796/13/5 1783/14/5
f 1792/15/5 1795/16/5 1796/13/5
f 1797/15/6 1794/13/6 1793/14/6
f 1797/15/6 1798/16/6 1794/13/6
f 1444/13/1 1799/4/1 1800/1/1
f 1444/13/1 1801/14/1 1799/4/1
f 1802/1/2 1803/2/2 1804/3/2
f 1802/1/2 1805/4/2 1803/2/2
f 1792/15/3 1794/13/3 1793/14/3
f 1792/15/3 1795/16/3 1794/13/3
f 1806/15/4 1807/14/4 1808/13/4
f 1806/15/4 1808/13/4 1809/16/4
f 1806/15/5 1810/13/5 1801/14/5
f 1806/15/5 1809/16/5 1810/13/5
f 1811/15/6 1808/13/6 1807/14/6
f 1811/15/6 1812/16/6 1808/13/6
f 1813/1/1 1814/2/1 1815/3/1
f 1813/1/1 1816/4/1 1814/2/1
f 1568/1/2 1817/2/2 1818/3/2
f 1568/1/2 1819/4/2 1817/2/2
f 1548/5/3 1820/6/3 1821/7/3
f 1548/5/3 1549/8/3 1820/6/3
f 1564/5/4 1822/7/4 1823/6/4
f 1564/5/4 1823/6/4 1565/8/4
f 1564/5/5 1528/6/5 1527/7/5
f 1564/5/5 1565/8/5 1528/6/5
f 1824/5/6 1823/6/6 1822/7/6
f 1824/5/6 1825/8/6 1823/6/6
f 1826/1/1 1827/2/1 1828/3/1
f 1826/1/1 1829/4/1 1827/2/1
f 1830/1/2 1831/2/2 1832/3/2
f 1830/1/2 1833/4/2 1831/2/2
f 1829/4/3 1832/3/3 1827/2/3
f 1829/4/3 1830/1/3 1832/3/3
f 1834/4/4 1835/2/4 1836/3/4
f 1834/4/4 1836/3/4 1837/1/4
f 1834/4/5 1838/3/5 1839/2/5
f 1834/4/5 1837/1/5 1838/3/5
f 1840/4/6 1836/3/6 1835/2/6
f 1840/4/6 1841/1/6 1836/3/6
f 1842/13/1 1843/4/1 1844/1/1
f 1842/13/1 1845/14/1 1843/4/1
f 1837/1/2 1846/2/2 1836/3/2
f 1837/1/2 1781/4/2 1846/2/2
f 1847/15/3 1848/13/3 1849/14/3
f 1847/15/3 1850/16/3 1848/13/3
f 1723/15/4 1851/14/4 1852/13/4
f 1723/15/4 1852/13/4 1724/16/4
f 1723/15/5 1853/13/5 1845/14/5
f 1723/15/5 1724/16/5 1853/13/5
f 1854/15/6 1852/13/6 1851/14/6
f 1854/15/6 1855/16/6 1852/13/6
f 1856/1/1 1857/2/1 1858/3/1
f 1856/1/1 1859/4/1 1857/2/1
f 1860/1/2 1861/2/2 1862/3/2
f 1860/1/2 1863/4/2 1861/2/2
f 1864/5/3 1865/6/3 1866/7/3
f 1864/5/3 1867/8/3 1865/6/3
f 1868/5/4 1869/7/4 1870/6/4
f 1868/5/4 1870/6/4 1871/8/4
f 1868/5/5 1872/6/5 1873/7/5
f 1868/5/5 1871/8/5 1872/6/5
f 1874/5/6 1870/6/6 1869/7/6
f 1874/5/6 1875/8/6 1870/6/6
f 1876/1/1 1877/2/1 1878/3/1
f 1876/1/1 1879/4/1 1877/2/1
f 1880/1/2 1881/2/2 1882/3/2
f 1880/1/2 1883/4/2 1881/2/2
f 1824/5/3 1884/6/3 1885/7/3
f 1824/5/3 1825/8/3 1884/6/3
f 1886/5/4 1887/7/4 1888/6/4
f 1886/5/4 1888/6/4 1889/8/4
f 1886/5/5 1820/6/5 1821/7/5
f 1886/5/5 1889/8/5 1820/6/5
f 1890/5/6 1888/6/6 1887/7/6
f 1890/5/6 1891/8/6 1888/6/6
# Vertices: 1891, normals: 6, texture coordinates: 40, faces: 1464

