# File generated by ImageToStl.com - Free Image and 3D model conversion tools

mtllib foundation_rubble.mtl

o obj1
v -0.5 -0.5 1.5
v 0.5 -0.5 0.5
v 0.5 -0.5 1.5
v -0.5 -0.5 0.5
v -0.5 0.5 0.5
v 0.5 0.5 1.5
v 0.5 0.5 0.5
v -0.5 0.5 1.5
v -0.5 -0.5 0.5
v 0.5 0.5 0.5
v 0.5 -0.5 0.5
v -0.5 0.5 0.5
v -0.5 -0.5 1.5
v 0.5 -0.5 1.5
v 0.5 0.5 1.5
v -0.5 0.5 1.5
v -0.5 0.5 0.5
v 0.5 -0.5 0.5
v 0.5 0.5 0.5
v -0.5 -0.5 2.5
v 0.5 -0.5 1.5
v 0.5 -0.5 2.5
v -0.5 -0.5 1.5
v -0.5 0.5 1.5
v 0.5 0.5 2.5
v 0.5 0.5 1.5
v -0.5 0.5 2.5
v -0.5 -0.5 1.5
v 0.5 0.5 1.5
v 0.5 -0.5 1.5
v -0.5 0.5 1.5
v -0.5 -0.5 2.5
v 0.5 -0.5 2.5
v 0.5 0.5 2.5
v -0.5 0.5 2.5
v -0.5 0.5 1.5
v -0.5 -0.5 1.5
v 0.5 -0.5 1.5
v 0.5 0.5 1.5
v -0.5 -0.5 3.5
v 0.5 -0.5 2.5
v 0.5 -0.5 3.5
v -0.5 -0.5 2.5
v -0.5 0.5 2.5
v 0.5 0.5 3.5
v 0.5 0.5 2.5
v -0.5 0.5 3.5
v -0.5 -0.5 2.5
v 0.5 0.5 2.5
v 0.5 -0.5 2.5
v -0.5 0.5 2.5
v -0.5 -0.5 3.5
v 0.5 -0.5 3.5
v 0.5 0.5 3.5
v -0.5 0.5 3.5
v -0.5 0.5 2.5
v 0.5 -0.5 2.5
v 0.5 0.5 2.5
v -0.5 -0.5 4.5
v 0.5 -0.5 3.5
v 0.5 -0.5 4.5
v -0.5 -0.5 3.5
v -0.5 0.5 3.5
v 0.5 0.5 4.5
v 0.5 0.5 3.5
v -0.5 0.5 4.5
v -0.5 -0.5 4.5
v 0.5 -0.5 4.5
v 0.5 0.5 4.5
v -0.5 0.5 4.5
v -0.5 0.5 3.5
v 0.5 -0.5 3.5
v 0.5 0.5 3.5
v -0.5 -0.5 5.5
v 0.5 -0.5 4.5
v 0.5 -0.5 5.5
v -0.5 -0.5 4.5
v -0.5 0.5 4.5
v 0.5 0.5 5.5
v 0.5 0.5 4.5
v -0.5 0.5 5.5
v -0.5 -0.5 5.5
v 0.5 -0.5 5.5
v 0.5 0.5 5.5
v -0.5 0.5 5.5
v -0.5 0.5 4.5
v 0.5 -0.5 4.5
v 0.5 0.5 4.5
v -0.5 -0.5 6.5
v 0.5 -0.5 5.5
v 0.5 -0.5 6.5
v -0.5 -0.5 5.5
v -0.5 0.5 5.5
v 0.5 0.5 6.5
v 0.5 0.5 5.5
v -0.5 0.5 6.5
v -0.5 -0.5 5.5
v 0.5 0.5 5.5
v 0.5 -0.5 5.5
v -0.5 0.5 5.5
v -0.5 -0.5 6.5
v 0.5 -0.5 6.5
v 0.5 0.5 6.5
v -0.5 0.5 6.5
v -0.5 0.5 5.5
v -0.5 -0.5 5.5
v 0.5 -0.5 5.5
v 0.5 0.5 5.5
v 0.5 -0.5 0.5
v 1.5 -0.5 -0.5
v 1.5 -0.5 0.5
v 0.5 -0.5 -0.5
v 0.5 0.5 -0.5
v 1.5 0.5 0.5
v 1.5 0.5 -0.5
v 0.5 0.5 0.5
v 0.5 -0.5 -0.5
v 1.5 0.5 -0.5
v 1.5 -0.5 -0.5
v 0.5 0.5 -0.5
v 0.5 -0.5 0.5
v 1.5 -0.5 0.5
v 1.5 0.5 0.5
v 0.5 0.5 0.5
v 0.5 -0.5 0.5
v 0.5 0.5 0.5
v 1.5 -0.5 0.5
v 1.5 -0.5 1.5
v 0.5 0.5 0.5
v 1.5 0.5 1.5
v 1.5 0.5 0.5
v 0.5 0.5 1.5
v 0.5 -0.5 0.5
v 1.5 0.5 0.5
v 1.5 -0.5 0.5
v 0.5 0.5 0.5
v 1.5 -0.5 1.5
v 1.5 0.5 1.5
v 0.5 0.5 0.5
v 0.5 -0.5 0.5
v 1.5 -0.5 0.5
v 1.5 0.5 0.5
v 0.5 -0.5 2.5
v 1.5 -0.5 1.5
v 1.5 -0.5 2.5
v 0.5 -0.5 1.5
v 0.5 0.5 1.5
v 1.5 0.5 2.5
v 1.5 0.5 1.5
v 0.5 0.5 2.5
v 0.5 -0.5 2.5
v 1.5 -0.5 2.5
v 1.5 0.5 2.5
v 0.5 0.5 2.5
v 1.5 -0.5 1.5
v 1.5 0.5 1.5
v 1.5 -0.5 2.5
v 1.5 -0.5 3.5
v 0.5 0.5 2.5
v 1.5 0.5 3.5
v 1.5 0.5 2.5
v 0.5 0.5 3.5
v 1.5 -0.5 3.5
v 1.5 0.5 3.5
v 0.5 0.5 3.5
v 0.5 -0.5 2.5
v 1.5 -0.5 2.5
v 1.5 0.5 2.5
v 0.5 -0.5 4.5
v 1.5 -0.5 3.5
v 1.5 -0.5 4.5
v 0.5 -0.5 3.5
v 0.5 0.5 3.5
v 1.5 0.5 4.5
v 1.5 0.5 3.5
v 0.5 0.5 4.5
v 0.5 -0.5 4.5
v 1.5 -0.5 4.5
v 1.5 0.5 4.5
v 0.5 0.5 4.5
v 0.5 0.5 3.5
v 0.5 -0.5 3.5
v 1.5 -0.5 3.5
v 1.5 0.5 3.5
v 1.5 -0.5 4.5
v 1.5 -0.5 5.5
v 0.5 0.5 4.5
v 1.5 0.5 5.5
v 1.5 0.5 4.5
v 0.5 0.5 5.5
v 0.5 -0.5 4.5
v 1.5 0.5 4.5
v 1.5 -0.5 4.5
v 0.5 0.5 4.5
v 1.5 -0.5 5.5
v 1.5 0.5 5.5
v 0.5 0.5 4.5
v 0.5 -0.5 4.5
v 1.5 -0.5 4.5
v 1.5 0.5 4.5
v 0.5 -0.5 6.5
v 1.5 -0.5 5.5
v 1.5 -0.5 6.5
v 0.5 0.5 5.5
v 1.5 0.5 6.5
v 1.5 0.5 5.5
v 0.5 0.5 6.5
v 0.5 -0.5 5.5
v 1.5 0.5 5.5
v 1.5 -0.5 5.5
v 0.5 0.5 5.5
v 0.5 -0.5 6.5
v 1.5 -0.5 6.5
v 1.5 0.5 6.5
v 0.5 0.5 6.5
v 1.5 -0.5 5.5
v 1.5 0.5 5.5
v 1.5 0.5 -0.5
v 0.5 0.5 -0.5
v 0.5 1 -0.5
v 1.5 1 0.5
v 1.5 1 -0.5
v 0.5 1 0.5
v 0.5 0.5 -0.5
v 1.5 1 -0.5
v 1.5 0.5 -0.5
v 0.5 1 -0.5
v 0.5 0.5 0.5
v 1.5 0.5 0.5
v 1.5 1 0.5
v 0.5 1 0.5
v 0.5 1 -0.5
v 0.5 0.5 -0.5
v 1.5 0.5 -0.5
v 1.5 1 -0.5
v 0.5 0.5 1.5
v 1.5 0.5 0.5
v 1.5 0.5 1.5
v 0.5 0.5 0.5
v 0.5 1.5 0.5
v 1.5 1.5 1.5
v 1.5 1.5 0.5
v 0.5 1.5 1.5
v 0.5 0.5 1.5
v 1.5 0.5 1.5
v 1.5 1.5 1.5
v 0.5 1.5 1.5
v 0.5 1.5 0.5
v 0.5 0.5 0.5
v 1.5 0.5 0.5
v 1.5 1.5 0.5
v 1.5 -0.5 0.5
v 2.5 -0.5 -0.5
v 2.5 -0.5 0.5
v 1.5 -0.5 -0.5
v 1.5 0.5 -0.5
v 2.5 0.5 0.5
v 2.5 0.5 -0.5
v 1.5 0.5 0.5
v 1.5 -0.5 -0.5
v 2.5 0.5 -0.5
v 2.5 -0.5 -0.5
v 1.5 0.5 -0.5
v 2.5 -0.5 0.5
v 2.5 0.5 0.5
v 1.5 0.5 -0.5
v 1.5 -0.5 -0.5
v 2.5 -0.5 -0.5
v 2.5 0.5 -0.5
v 1.5 -0.5 1.5
v 2.5 -0.5 0.5
v 2.5 -0.5 1.5
v 1.5 -0.5 0.5
v 1.5 0.5 0.5
v 2.5 0.5 1.5
v 2.5 0.5 0.5
v 1.5 0.5 1.5
v 2.5 0.5 0.5
v 2.5 -0.5 0.5
v 1.5 -0.5 1.5
v 2.5 -0.5 1.5
v 2.5 0.5 1.5
v 1.5 0.5 1.5
v 1.5 -0.5 1.5
v 1.5 0.5 1.5
v 1.5 -0.5 2.5
v 2.5 -0.5 1.5
v 2.5 -0.5 2.5
v 1.5 -0.5 1.5
v 1.5 0.5 1.5
v 2.5 0.5 2.5
v 2.5 0.5 1.5
v 1.5 0.5 2.5
v 1.5 -0.5 1.5
v 2.5 0.5 1.5
v 2.5 -0.5 1.5
v 1.5 0.5 1.5
v 1.5 -0.5 2.5
v 2.5 -0.5 2.5
v 2.5 0.5 2.5
v 1.5 0.5 2.5
v 1.5 0.5 1.5
v 2.5 -0.5 1.5
v 2.5 0.5 1.5
v 1.5 -0.5 3.5
v 2.5 -0.5 2.5
v 2.5 -0.5 3.5
v 1.5 -0.5 2.5
v 2.5 0.5 3.5
v 2.5 0.5 2.5
v 1.5 0.5 3.5
v 1.5 -0.5 3.5
v 2.5 -0.5 3.5
v 2.5 0.5 3.5
v 1.5 0.5 3.5
v 1.5 0.5 2.5
v 2.5 -0.5 2.5
v 2.5 0.5 2.5
v 1.5 -0.5 4.5
v 2.5 -0.5 3.5
v 2.5 -0.5 4.5
v 1.5 -0.5 3.5
v 1.5 0.5 3.5
v 2.5 0.5 4.5
v 2.5 0.5 3.5
v 1.5 0.5 4.5
v 1.5 -0.5 3.5
v 2.5 0.5 3.5
v 2.5 -0.5 3.5
v 1.5 0.5 3.5
v 2.5 -0.5 4.5
v 2.5 0.5 4.5
v 1.5 0.5 3.5
v 1.5 -0.5 3.5
v 2.5 -0.5 3.5
v 2.5 0.5 3.5
v 1.5 -0.5 5.5
v 2.5 -0.5 4.5
v 2.5 -0.5 5.5
v 1.5 -0.5 4.5
v 1.5 0.5 4.5
v 2.5 0.5 5.5
v 2.5 0.5 4.5
v 1.5 0.5 5.5
v 1.5 -0.5 4.5
v 2.5 0.5 4.5
v 2.5 -0.5 4.5
v 1.5 0.5 4.5
v 2.5 -0.5 5.5
v 2.5 0.5 5.5
v 1.5 0.5 4.5
v 2.5 -0.5 4.5
v 2.5 0.5 4.5
v 1.5 -0.5 8.5
v 2.5 -0.5 7.5
v 2.5 -0.5 8.5
v 1.5 -0.5 7.5
v 1.5 0.5 7.5
v 2.5 0.5 8.5
v 2.5 0.5 7.5
v 1.5 0.5 8.5
v 1.5 -0.5 7.5
v 2.5 0.5 7.5
v 2.5 -0.5 7.5
v 1.5 0.5 7.5
v 1.5 -0.5 8.5
v 2.5 -0.5 8.5
v 2.5 0.5 8.5
v 1.5 0.5 8.5
v 1.5 0.5 7.5
v 1.5 -0.5 7.5
v 2.5 -0.5 7.5
v 2.5 0.5 7.5
v 1.5 0.5 1.5
v 2.5 0.5 0.5
v 2.5 0.5 1.5
v 2.5 1.5 1.5
v 2.5 1.5 0.5
v 1.5 1.5 1.5
v 1.5 0.5 1.5
v 2.5 0.5 1.5
v 2.5 1.5 1.5
v 1.5 1.5 1.5
v 2.5 0.5 0.5
v 2.5 1.5 0.5
v 2.5 1.5 0.5
v 1.5 1.5 0.5
v 1.5 2.5 0.5
v 2.5 2.5 1.5
v 2.5 2.5 0.5
v 1.5 2.5 1.5
v 2.5 2.5 1.5
v 1.5 2.5 1.5
v 1.5 2.5 0.5
v 1.5 1.5 0.5
v 2.5 1.5 0.5
v 2.5 2.5 0.5
v 2.5 -0.5 0.5
v 3.5 -0.5 -0.5
v 3.5 -0.5 0.5
v 2.5 -0.5 -0.5
v 2.5 0.5 -0.5
v 3.5 0.5 0.5
v 3.5 0.5 -0.5
v 2.5 0.5 0.5
v 3.5 0.5 -0.5
v 3.5 -0.5 -0.5
v 2.5 -0.5 0.5
v 3.5 -0.5 0.5
v 3.5 0.5 0.5
v 2.5 0.5 0.5
v 3.5 -0.5 -0.5
v 3.5 0.5 -0.5
v 2.5 -0.5 1.5
v 3.5 -0.5 0.5
v 3.5 -0.5 1.5
v 2.5 -0.5 0.5
v 2.5 0.5 0.5
v 3.5 0.5 1.5
v 3.5 0.5 0.5
v 2.5 0.5 1.5
v 3.5 -0.5 1.5
v 3.5 0.5 1.5
v 2.5 0.5 1.5
v 2.5 0.5 0.5
v 2.5 -0.5 0.5
v 3.5 -0.5 0.5
v 3.5 0.5 0.5
v 2.5 -0.5 2.5
v 3.5 -0.5 1.5
v 3.5 -0.5 2.5
v 2.5 -0.5 1.5
v 2.5 0.5 1.5
v 3.5 0.5 2.5
v 3.5 0.5 1.5
v 2.5 0.5 2.5
v 2.5 -0.5 2.5
v 3.5 -0.5 2.5
v 3.5 0.5 2.5
v 2.5 0.5 2.5
v 2.5 0.5 1.5
v 2.5 -0.5 1.5
v 3.5 -0.5 1.5
v 3.5 0.5 1.5
v 2.5 -0.5 4.5
v 3.5 -0.5 3.5
v 3.5 -0.5 4.5
v 2.5 0.5 3.5
v 3.5 0.5 4.5
v 3.5 0.5 3.5
v 2.5 0.5 4.5
v 2.5 -0.5 3.5
v 3.5 0.5 3.5
v 3.5 -0.5 3.5
v 2.5 0.5 3.5
v 3.5 -0.5 4.5
v 3.5 0.5 4.5
v 3.5 -0.5 3.5
v 3.5 0.5 3.5
v 2.5 -0.5 5.5
v 3.5 -0.5 4.5
v 3.5 -0.5 5.5
v 2.5 0.5 4.5
v 3.5 0.5 5.5
v 3.5 0.5 4.5
v 2.5 0.5 5.5
v 2.5 -0.5 5.5
v 3.5 -0.5 5.5
v 3.5 0.5 5.5
v 2.5 0.5 5.5
v 3.5 -0.5 4.5
v 3.5 0.5 4.5
v 2.5 -0.5 6.5
v 3.5 -0.5 5.5
v 3.5 -0.5 6.5
v 2.5 0.5 5.5
v 3.5 0.5 6.5
v 3.5 0.5 5.5
v 2.5 0.5 6.5
v 2.5 -0.5 6.5
v 3.5 -0.5 6.5
v 3.5 0.5 6.5
v 2.5 0.5 6.5
v 3.5 -0.5 5.5
v 3.5 0.5 5.5
v 2.5 -0.5 7.5
v 3.5 -0.5 6.5
v 3.5 -0.5 7.5
v 2.5 -0.5 6.5
v 2.5 0.5 6.5
v 3.5 0.5 7.5
v 3.5 0.5 6.5
v 2.5 0.5 7.5
v 2.5 -0.5 6.5
v 3.5 0.5 6.5
v 3.5 -0.5 6.5
v 2.5 0.5 6.5
v 3.5 -0.5 7.5
v 3.5 0.5 7.5
v 2.5 0.5 6.5
v 2.5 -0.5 6.5
v 3.5 -0.5 6.5
v 3.5 0.5 6.5
v 2.5 -0.5 8.5
v 3.5 -0.5 7.5
v 3.5 -0.5 8.5
v 2.5 -0.5 7.5
v 2.5 0.5 7.5
v 3.5 0.5 8.5
v 3.5 0.5 7.5
v 2.5 0.5 8.5
v 2.5 -0.5 8.5
v 3.5 -0.5 8.5
v 3.5 0.5 8.5
v 2.5 0.5 8.5
v 3.5 -0.5 7.5
v 3.5 0.5 7.5
v 2.5 0.5 1.5
v 3.5 0.5 0.5
v 3.5 0.5 1.5
v 3.5 1.5 1.5
v 3.5 1.5 0.5
v 2.5 1.5 1.5
v 2.5 0.5 1.5
v 3.5 0.5 1.5
v 3.5 1.5 1.5
v 2.5 1.5 1.5
v 3.5 0.5 0.5
v 3.5 1.5 0.5
v 3.5 1.5 0.5
v 3.5 2.5 1.5
v 3.5 2.5 0.5
v 2.5 2.5 1.5
v 3.5 2.5 1.5
v 2.5 2.5 1.5
v 3.5 1.5 0.5
v 3.5 2.5 0.5
v 3.5 -0.5 0.5
v 4.5 -0.5 -0.5
v 4.5 -0.5 0.5
v 3.5 -0.5 -0.5
v 3.5 0.5 -0.5
v 4.5 0.5 0.5
v 4.5 0.5 -0.5
v 3.5 0.5 0.5
v 3.5 -0.5 -0.5
v 4.5 0.5 -0.5
v 4.5 -0.5 -0.5
v 3.5 0.5 -0.5
v 3.5 -0.5 0.5
v 4.5 -0.5 0.5
v 4.5 0.5 0.5
v 3.5 0.5 0.5
v 3.5 0.5 -0.5
v 4.5 -0.5 -0.5
v 4.5 0.5 -0.5
v 3.5 -0.5 1.5
v 4.5 -0.5 0.5
v 4.5 -0.5 1.5
v 3.5 -0.5 0.5
v 4.5 0.5 1.5
v 4.5 0.5 0.5
v 3.5 0.5 1.5
v 3.5 -0.5 1.5
v 4.5 -0.5 1.5
v 4.5 0.5 1.5
v 3.5 0.5 1.5
v 3.5 0.5 0.5
v 4.5 -0.5 0.5
v 4.5 0.5 0.5
v 3.5 -0.5 2.5
v 4.5 -0.5 1.5
v 4.5 -0.5 2.5
v 3.5 -0.5 1.5
v 3.5 0.5 1.5
v 4.5 0.5 2.5
v 4.5 0.5 1.5
v 3.5 0.5 2.5
v 3.5 -0.5 1.5
v 4.5 0.5 1.5
v 4.5 -0.5 1.5
v 3.5 0.5 1.5
v 3.5 -0.5 2.5
v 4.5 -0.5 2.5
v 4.5 0.5 2.5
v 3.5 0.5 2.5
v 3.5 0.5 1.5
v 3.5 -0.5 1.5
v 4.5 -0.5 1.5
v 4.5 0.5 1.5
v 3.5 -0.5 5.5
v 4.5 -0.5 4.5
v 4.5 -0.5 5.5
v 3.5 0.5 4.5
v 4.5 0.5 5.5
v 4.5 0.5 4.5
v 3.5 0.5 5.5
v 4.5 0.5 4.5
v 4.5 -0.5 4.5
v 4.5 -0.5 5.5
v 4.5 0.5 5.5
v 4.5 -0.5 4.5
v 4.5 0.5 4.5
v 4.5 -0.5 5.5
v 4.5 -0.5 6.5
v 3.5 0.5 5.5
v 4.5 0.5 6.5
v 4.5 0.5 5.5
v 3.5 0.5 6.5
v 3.5 -0.5 5.5
v 4.5 0.5 5.5
v 4.5 -0.5 5.5
v 3.5 0.5 5.5
v 4.5 -0.5 6.5
v 4.5 0.5 6.5
v 3.5 0.5 5.5
v 3.5 -0.5 5.5
v 4.5 -0.5 5.5
v 4.5 0.5 5.5
v 3.5 -0.5 8.5
v 4.5 -0.5 7.5
v 4.5 -0.5 8.5
v 3.5 -0.5 7.5
v 3.5 0.5 7.5
v 4.5 0.5 8.5
v 4.5 0.5 7.5
v 3.5 0.5 8.5
v 3.5 -0.5 7.5
v 4.5 0.5 7.5
v 4.5 -0.5 7.5
v 3.5 0.5 7.5
v 3.5 -0.5 8.5
v 4.5 -0.5 8.5
v 4.5 0.5 8.5
v 3.5 0.5 8.5
v 3.5 0.5 7.5
v 4.5 -0.5 7.5
v 4.5 0.5 7.5
v 3.5 0.5 0.5
v 4.5 0.5 -0.5
v 4.5 0.5 0.5
v 3.5 0.5 -0.5
v 3.5 1.5 -0.5
v 4.5 1.5 0.5
v 4.5 1.5 -0.5
v 3.5 1.5 0.5
v 3.5 0.5 0.5
v 4.5 0.5 0.5
v 4.5 1.5 0.5
v 3.5 1.5 0.5
v 3.5 1.5 -0.5
v 3.5 0.5 -0.5
v 4.5 0.5 -0.5
v 4.5 1.5 -0.5
v 4.5 -0.5 0.5
v 5.5 -0.5 -0.5
v 5.5 -0.5 0.5
v 4.5 0.5 -0.5
v 5.5 0.5 0.5
v 5.5 0.5 -0.5
v 4.5 0.5 0.5
v 5.5 0.5 -0.5
v 5.5 -0.5 -0.5
v 5.5 -0.5 0.5
v 5.5 0.5 0.5
v 5.5 -0.5 -0.5
v 5.5 0.5 -0.5
v 5.5 -0.5 0.5
v 5.5 -0.5 1.5
v 4.5 0.5 0.5
v 5.5 0.5 1.5
v 5.5 0.5 0.5
v 4.5 0.5 1.5
v 4.5 -0.5 0.5
v 5.5 0.5 0.5
v 5.5 -0.5 0.5
v 4.5 0.5 0.5
v 5.5 -0.5 1.5
v 5.5 0.5 1.5
v 4.5 0.5 0.5
v 4.5 -0.5 0.5
v 5.5 -0.5 0.5
v 5.5 0.5 0.5
v 4.5 -0.5 3.5
v 5.5 -0.5 2.5
v 5.5 -0.5 3.5
v 4.5 -0.5 2.5
v 4.5 0.5 2.5
v 5.5 0.5 3.5
v 5.5 0.5 2.5
v 4.5 0.5 3.5
v 4.5 -0.5 2.5
v 5.5 0.5 2.5
v 5.5 -0.5 2.5
v 4.5 0.5 2.5
v 4.5 -0.5 3.5
v 5.5 -0.5 3.5
v 5.5 0.5 3.5
v 4.5 0.5 3.5
v 4.5 0.5 2.5
v 5.5 -0.5 2.5
v 5.5 0.5 2.5
v 4.5 -0.5 4.5
v 5.5 -0.5 3.5
v 5.5 -0.5 4.5
v 4.5 -0.5 3.5
v 4.5 0.5 3.5
v 5.5 0.5 4.5
v 5.5 0.5 3.5
v 4.5 0.5 4.5
v 4.5 -0.5 4.5
v 5.5 -0.5 4.5
v 5.5 0.5 4.5
v 4.5 0.5 4.5
v 4.5 0.5 3.5
v 4.5 -0.5 3.5
v 5.5 -0.5 3.5
v 5.5 0.5 3.5
v 4.5 -0.5 6.5
v 5.5 -0.5 5.5
v 5.5 -0.5 6.5
v 4.5 -0.5 5.5
v 4.5 0.5 5.5
v 5.5 0.5 6.5
v 5.5 0.5 5.5
v 4.5 0.5 6.5
v 4.5 -0.5 6.5
v 5.5 -0.5 6.5
v 5.5 0.5 6.5
v 4.5 0.5 6.5
v 5.5 -0.5 5.5
v 5.5 0.5 5.5
v 4.5 -0.5 7.5
v 5.5 -0.5 6.5
v 5.5 -0.5 7.5
v 4.5 -0.5 6.5
v 5.5 0.5 7.5
v 4.5 0.5 7.5
v 4.5 -0.5 6.5
v 5.5 0.5 6.5
v 5.5 -0.5 6.5
v 4.5 0.5 6.5
v 5.5 -0.5 7.5
v 5.5 0.5 7.5
v 4.5 0.5 6.5
v 5.5 -0.5 6.5
v 5.5 0.5 6.5
v 4.5 -0.5 8.5
v 5.5 -0.5 7.5
v 5.5 -0.5 8.5
v 4.5 -0.5 7.5
v 4.5 0.5 7.5
v 5.5 0.5 8.5
v 5.5 0.5 7.5
v 4.5 0.5 8.5
v 4.5 -0.5 7.5
v 5.5 0.5 7.5
v 5.5 -0.5 7.5
v 4.5 0.5 7.5
v 4.5 -0.5 8.5
v 5.5 -0.5 8.5
v 5.5 0.5 8.5
v 4.5 0.5 8.5
v 4.5 -0.5 8.5
v 4.5 0.5 8.5
v 4.5 1 1.5
v 5.5 1 2.5
v 5.5 1 1.5
v 4.5 1 2.5
v 4.5 0.5 1.5
v 5.5 1 1.5
v 5.5 0.5 1.5
v 4.5 1 1.5
v 4.5 0.5 2.5
v 5.5 0.5 2.5
v 5.5 1 2.5
v 4.5 1 2.5
v 4.5 1 1.5
v 4.5 0.5 1.5
v 5.5 0.5 1.5
v 5.5 1 1.5
v 6.5 -0.5 -0.5
v 6.5 -0.5 0.5
v 5.5 0.5 -0.5
v 6.5 0.5 0.5
v 6.5 0.5 -0.5
v 5.5 0.5 0.5
v 5.5 -0.5 -0.5
v 6.5 0.5 -0.5
v 6.5 -0.5 -0.5
v 5.5 0.5 -0.5
v 6.5 -0.5 0.5
v 6.5 0.5 0.5
v 5.5 0.5 -0.5
v 5.5 -0.5 -0.5
v 6.5 -0.5 -0.5
v 6.5 0.5 -0.5
v 5.5 -0.5 1.5
v 6.5 -0.5 0.5
v 6.5 -0.5 1.5
v 5.5 0.5 0.5
v 6.5 0.5 1.5
v 6.5 0.5 0.5
v 5.5 0.5 1.5
v 5.5 -0.5 0.5
v 6.5 0.5 0.5
v 6.5 -0.5 0.5
v 5.5 0.5 0.5
v 5.5 -0.5 1.5
v 6.5 -0.5 1.5
v 6.5 0.5 1.5
v 5.5 0.5 1.5
v 6.5 -0.5 0.5
v 6.5 0.5 0.5
v 6.5 -0.5 2.5
v 6.5 -0.5 3.5
v 5.5 0.5 2.5
v 6.5 0.5 3.5
v 6.5 0.5 2.5
v 5.5 0.5 3.5
v 5.5 -0.5 2.5
v 6.5 0.5 2.5
v 6.5 -0.5 2.5
v 5.5 0.5 2.5
v 5.5 -0.5 3.5
v 6.5 -0.5 3.5
v 6.5 0.5 3.5
v 5.5 0.5 3.5
v 5.5 0.5 2.5
v 5.5 -0.5 2.5
v 6.5 -0.5 2.5
v 6.5 0.5 2.5
v 5.5 -0.5 4.5
v 6.5 -0.5 3.5
v 6.5 -0.5 4.5
v 5.5 -0.5 3.5
v 5.5 0.5 3.5
v 6.5 0.5 4.5
v 6.5 0.5 3.5
v 5.5 0.5 4.5
v 5.5 -0.5 4.5
v 6.5 -0.5 4.5
v 6.5 0.5 4.5
v 5.5 0.5 4.5
v 5.5 0.5 3.5
v 5.5 -0.5 3.5
v 6.5 -0.5 3.5
v 6.5 0.5 3.5
v 5.5 -0.5 5.5
v 6.5 -0.5 4.5
v 6.5 -0.5 5.5
v 5.5 -0.5 4.5
v 5.5 0.5 4.5
v 6.5 0.5 5.5
v 6.5 0.5 4.5
v 5.5 0.5 5.5
v 5.5 -0.5 5.5
v 6.5 -0.5 5.5
v 6.5 0.5 5.5
v 5.5 0.5 5.5
v 5.5 0.5 4.5
v 5.5 -0.5 4.5
v 6.5 -0.5 4.5
v 6.5 0.5 4.5
v 5.5 -0.5 7.5
v 6.5 -0.5 6.5
v 6.5 -0.5 7.5
v 5.5 0.5 6.5
v 6.5 0.5 7.5
v 6.5 0.5 6.5
v 5.5 0.5 7.5
v 6.5 0.5 6.5
v 6.5 -0.5 6.5
v 5.5 -0.5 7.5
v 6.5 -0.5 7.5
v 6.5 0.5 7.5
v 5.5 0.5 7.5
v 6.5 -0.5 6.5
v 6.5 0.5 6.5
v 5.5 -0.5 8.5
v 6.5 -0.5 7.5
v 6.5 -0.5 8.5
v 5.5 -0.5 7.5
v 5.5 0.5 7.5
v 6.5 0.5 8.5
v 6.5 0.5 7.5
v 5.5 0.5 8.5
v 5.5 -0.5 7.5
v 6.5 0.5 7.5
v 6.5 -0.5 7.5
v 5.5 0.5 7.5
v 5.5 -0.5 8.5
v 6.5 -0.5 8.5
v 6.5 0.5 8.5
v 5.5 0.5 8.5
v 5.5 0.5 7.5
v 5.5 -0.5 7.5
v 6.5 -0.5 7.5
v 6.5 0.5 7.5
v 6.5 -0.5 0.5
v 7.5 -0.5 -0.5
v 7.5 -0.5 0.5
v 6.5 -0.5 -0.5
v 6.5 0.5 -0.5
v 7.5 0.5 0.5
v 7.5 0.5 -0.5
v 6.5 0.5 0.5
v 6.5 -0.5 -0.5
v 7.5 0.5 -0.5
v 7.5 -0.5 -0.5
v 6.5 0.5 -0.5
v 7.5 -0.5 0.5
v 7.5 0.5 0.5
v 6.5 0.5 -0.5
v 7.5 -0.5 -0.5
v 7.5 0.5 -0.5
v 6.5 -0.5 1.5
v 7.5 -0.5 0.5
v 7.5 -0.5 1.5
v 6.5 0.5 0.5
v 7.5 0.5 1.5
v 7.5 0.5 0.5
v 6.5 0.5 1.5
v 6.5 -0.5 1.5
v 7.5 -0.5 1.5
v 7.5 0.5 1.5
v 6.5 0.5 1.5
v 7.5 -0.5 0.5
v 7.5 0.5 0.5
v 6.5 -0.5 2.5
v 7.5 -0.5 1.5
v 7.5 -0.5 2.5
v 6.5 -0.5 1.5
v 6.5 0.5 1.5
v 7.5 0.5 2.5
v 7.5 0.5 1.5
v 6.5 0.5 2.5
v 6.5 -0.5 1.5
v 7.5 0.5 1.5
v 7.5 -0.5 1.5
v 6.5 0.5 1.5
v 7.5 -0.5 2.5
v 7.5 0.5 2.5
v 6.5 0.5 1.5
v 6.5 -0.5 1.5
v 7.5 -0.5 1.5
v 7.5 0.5 1.5
v 6.5 -0.5 5.5
v 7.5 -0.5 4.5
v 7.5 -0.5 5.5
v 6.5 -0.5 4.5
v 6.5 0.5 4.5
v 7.5 0.5 5.5
v 7.5 0.5 4.5
v 6.5 0.5 5.5
v 6.5 -0.5 4.5
v 7.5 0.5 4.5
v 7.5 -0.5 4.5
v 6.5 0.5 4.5
v 6.5 -0.5 5.5
v 7.5 -0.5 5.5
v 7.5 0.5 5.5
v 6.5 0.5 5.5
v 6.5 0.5 4.5
v 7.5 -0.5 4.5
v 7.5 0.5 4.5
v 7.5 -0.5 6.5
v 7.5 -0.5 7.5
v 6.5 0.5 6.5
v 7.5 0.5 7.5
v 7.5 0.5 6.5
v 6.5 0.5 7.5
v 6.5 -0.5 6.5
v 7.5 0.5 6.5
v 7.5 -0.5 6.5
v 6.5 0.5 6.5
v 7.5 -0.5 7.5
v 7.5 0.5 7.5
v 6.5 0.5 6.5
v 6.5 -0.5 6.5
v 7.5 -0.5 6.5
v 7.5 0.5 6.5
v 6.5 -0.5 8.5
v 7.5 -0.5 7.5
v 7.5 -0.5 8.5
v 6.5 0.5 7.5
v 7.5 0.5 8.5
v 7.5 0.5 7.5
v 6.5 0.5 8.5
v 6.5 -0.5 7.5
v 7.5 0.5 7.5
v 7.5 -0.5 7.5
v 6.5 0.5 7.5
v 6.5 -0.5 8.5
v 7.5 -0.5 8.5
v 7.5 0.5 8.5
v 6.5 0.5 8.5
v 7.5 -0.5 7.5
v 7.5 0.5 7.5
v 6.5 0.5 3.5
v 7.5 0.5 3.5
v 6.5 1.5 2.5
v 7.5 1.5 3.5
v 7.5 1.5 2.5
v 6.5 1.5 3.5
v 6.5 0.5 2.5
v 7.5 1.5 2.5
v 7.5 0.5 2.5
v 6.5 1.5 2.5
v 6.5 0.5 3.5
v 7.5 0.5 3.5
v 7.5 1.5 3.5
v 6.5 1.5 3.5
v 6.5 1.5 2.5
v 6.5 0.5 2.5
v 7.5 0.5 2.5
v 7.5 1.5 2.5
v 7.5 -0.5 0.5
v 8.5 -0.5 -0.5
v 8.5 -0.5 0.5
v 7.5 0.5 -0.5
v 8.5 0.5 0.5
v 8.5 0.5 -0.5
v 7.5 0.5 0.5
v 8.5 0.5 -0.5
v 8.5 -0.5 -0.5
v 8.5 -0.5 0.5
v 8.5 0.5 0.5
v 8.5 -0.5 -0.5
v 8.5 0.5 -0.5
v 7.5 -0.5 2.5
v 8.5 -0.5 1.5
v 8.5 -0.5 2.5
v 7.5 -0.5 1.5
v 7.5 0.5 1.5
v 8.5 0.5 2.5
v 8.5 0.5 1.5
v 7.5 0.5 2.5
v 8.5 0.5 1.5
v 8.5 -0.5 1.5
v 7.5 -0.5 2.5
v 8.5 -0.5 2.5
v 8.5 0.5 2.5
v 7.5 0.5 2.5
v 8.5 -0.5 1.5
v 8.5 0.5 1.5
v 7.5 -0.5 3.5
v 8.5 -0.5 2.5
v 8.5 -0.5 3.5
v 7.5 -0.5 2.5
v 7.5 0.5 2.5
v 8.5 0.5 3.5
v 8.5 0.5 2.5
v 7.5 0.5 3.5
v 7.5 -0.5 2.5
v 8.5 0.5 2.5
v 8.5 -0.5 2.5
v 7.5 0.5 2.5
v 7.5 -0.5 3.5
v 8.5 -0.5 3.5
v 8.5 0.5 3.5
v 7.5 0.5 3.5
v 7.5 0.5 2.5
v 8.5 -0.5 2.5
v 8.5 0.5 2.5
v 7.5 -0.5 5.5
v 8.5 -0.5 4.5
v 8.5 -0.5 5.5
v 7.5 0.5 4.5
v 8.5 0.5 5.5
v 8.5 0.5 4.5
v 7.5 0.5 5.5
v 8.5 0.5 4.5
v 8.5 -0.5 4.5
v 7.5 -0.5 5.5
v 8.5 -0.5 5.5
v 8.5 0.5 5.5
v 7.5 0.5 5.5
v 8.5 -0.5 4.5
v 8.5 0.5 4.5
v 7.5 -0.5 8.5
v 8.5 -0.5 7.5
v 8.5 -0.5 8.5
v 7.5 0.5 7.5
v 8.5 0.5 8.5
v 8.5 0.5 7.5
v 7.5 0.5 8.5
v 8.5 0.5 7.5
v 8.5 -0.5 7.5
v 7.5 -0.5 8.5
v 8.5 -0.5 8.5
v 8.5 0.5 8.5
v 7.5 0.5 8.5
v 8.5 -0.5 7.5
v 8.5 0.5 7.5
v 8.5 -0.5 0.5
v 9.5 -0.5 -0.5
v 9.5 -0.5 0.5
v 8.5 0.5 -0.5
v 9.5 0.5 0.5
v 9.5 0.5 -0.5
v 8.5 0.5 0.5
v 9.5 0.5 -0.5
v 9.5 -0.5 -0.5
v 8.5 -0.5 0.5
v 9.5 -0.5 0.5
v 9.5 0.5 0.5
v 8.5 0.5 0.5
v 9.5 -0.5 -0.5
v 9.5 0.5 -0.5
v 8.5 -0.5 1.5
v 9.5 -0.5 0.5
v 9.5 -0.5 1.5
v 8.5 -0.5 0.5
v 8.5 0.5 0.5
v 9.5 0.5 1.5
v 9.5 0.5 0.5
v 8.5 0.5 1.5
v 8.5 -0.5 0.5
v 9.5 0.5 0.5
v 9.5 -0.5 0.5
v 8.5 0.5 0.5
v 9.5 -0.5 1.5
v 9.5 0.5 1.5
v 8.5 0.5 0.5
v 8.5 -0.5 0.5
v 9.5 -0.5 0.5
v 9.5 0.5 0.5
v 8.5 -0.5 2.5
v 9.5 -0.5 1.5
v 9.5 -0.5 2.5
v 8.5 -0.5 1.5
v 8.5 0.5 1.5
v 9.5 0.5 2.5
v 9.5 0.5 1.5
v 8.5 0.5 2.5
v 8.5 -0.5 2.5
v 9.5 -0.5 2.5
v 9.5 0.5 2.5
v 8.5 0.5 2.5
v 9.5 -0.5 1.5
v 9.5 0.5 1.5
v 9.5 -0.5 2.5
v 9.5 -0.5 3.5
v 8.5 0.5 2.5
v 9.5 0.5 3.5
v 9.5 0.5 2.5
v 8.5 0.5 3.5
v 8.5 -0.5 3.5
v 9.5 -0.5 3.5
v 9.5 0.5 3.5
v 8.5 0.5 3.5
v 9.5 -0.5 2.5
v 9.5 0.5 2.5
v 8.5 -0.5 6.5
v 9.5 -0.5 5.5
v 9.5 -0.5 6.5
v 8.5 -0.5 5.5
v 8.5 0.5 5.5
v 9.5 0.5 6.5
v 9.5 0.5 5.5
v 8.5 0.5 6.5
v 8.5 -0.5 5.5
v 9.5 0.5 5.5
v 9.5 -0.5 5.5
v 8.5 0.5 5.5
v 8.5 -0.5 6.5
v 9.5 -0.5 6.5
v 9.5 0.5 6.5
v 8.5 0.5 6.5
v 8.5 0.5 5.5
v 8.5 -0.5 5.5
v 9.5 -0.5 5.5
v 9.5 0.5 5.5
v 8.5 -0.5 8.5
v 9.5 -0.5 7.5
v 9.5 -0.5 8.5
v 8.5 0.5 7.5
v 9.5 0.5 8.5
v 9.5 0.5 7.5
v 8.5 0.5 8.5
v 9.5 0.5 7.5
v 9.5 -0.5 7.5
v 8.5 -0.5 8.5
v 9.5 -0.5 8.5
v 9.5 0.5 8.5
v 8.5 0.5 8.5
v 9.5 -0.5 7.5
v 9.5 0.5 7.5
v 8.5 0.5 4.5
v 9.5 0.5 4.5
v 8.5 1 3.5
v 9.5 1 4.5
v 9.5 1 3.5
v 8.5 1 4.5
v 8.5 0.5 3.5
v 9.5 1 3.5
v 9.5 0.5 3.5
v 8.5 1 3.5
v 8.5 0.5 4.5
v 9.5 0.5 4.5
v 9.5 1 4.5
v 8.5 1 4.5
v 8.5 1 3.5
v 8.5 0.5 3.5
v 9.5 0.5 3.5
v 9.5 1 3.5
v 9.5 -0.5 1.5
v 10.5 -0.5 0.5
v 10.5 -0.5 1.5
v 9.5 0.5 0.5
v 10.5 0.5 1.5
v 10.5 0.5 0.5
v 9.5 0.5 1.5
v 9.5 -0.5 0.5
v 10.5 0.5 0.5
v 10.5 -0.5 0.5
v 9.5 0.5 0.5
v 9.5 -0.5 1.5
v 10.5 -0.5 1.5
v 10.5 0.5 1.5
v 9.5 0.5 1.5
v 10.5 -0.5 0.5
v 10.5 0.5 0.5
v 9.5 -0.5 2.5
v 10.5 -0.5 1.5
v 10.5 -0.5 2.5
v 9.5 -0.5 1.5
v 9.5 0.5 1.5
v 10.5 0.5 2.5
v 10.5 0.5 1.5
v 9.5 0.5 2.5
v 9.5 -0.5 2.5
v 10.5 -0.5 2.5
v 10.5 0.5 2.5
v 9.5 0.5 2.5
v 10.5 -0.5 1.5
v 10.5 0.5 1.5
v 9.5 -0.5 4.5
v 10.5 -0.5 3.5
v 10.5 -0.5 4.5
v 9.5 -0.5 3.5
v 9.5 0.5 3.5
v 10.5 0.5 4.5
v 10.5 0.5 3.5
v 9.5 0.5 4.5
v 9.5 -0.5 3.5
v 10.5 0.5 3.5
v 10.5 -0.5 3.5
v 9.5 0.5 3.5
v 9.5 -0.5 4.5
v 10.5 -0.5 4.5
v 10.5 0.5 4.5
v 9.5 0.5 4.5
v 10.5 -0.5 3.5
v 10.5 0.5 3.5
v 9.5 -0.5 5.5
v 10.5 -0.5 4.5
v 10.5 -0.5 5.5
v 9.5 -0.5 4.5
v 9.5 0.5 4.5
v 10.5 0.5 5.5
v 10.5 0.5 4.5
v 9.5 0.5 5.5
v 9.5 -0.5 4.5
v 10.5 0.5 4.5
v 10.5 -0.5 4.5
v 9.5 0.5 4.5
v 9.5 -0.5 5.5
v 10.5 -0.5 5.5
v 10.5 0.5 5.5
v 9.5 0.5 5.5
v 9.5 0.5 4.5
v 10.5 -0.5 4.5
v 10.5 0.5 4.5
v 9.5 -0.5 7.5
v 10.5 -0.5 6.5
v 10.5 -0.5 7.5
v 9.5 -0.5 6.5
v 9.5 0.5 6.5
v 10.5 0.5 7.5
v 10.5 0.5 6.5
v 9.5 0.5 7.5
v 9.5 -0.5 6.5
v 10.5 0.5 6.5
v 10.5 -0.5 6.5
v 9.5 0.5 6.5
v 10.5 -0.5 7.5
v 10.5 0.5 7.5
v 9.5 0.5 6.5
v 10.5 -0.5 6.5
v 10.5 0.5 6.5
v 10.5 -0.5 7.5
v 10.5 -0.5 8.5
v 9.5 0.5 7.5
v 10.5 0.5 8.5
v 10.5 0.5 7.5
v 9.5 0.5 8.5
v 9.5 -0.5 7.5
v 10.5 0.5 7.5
v 10.5 -0.5 7.5
v 9.5 0.5 7.5
v 9.5 -0.5 8.5
v 10.5 -0.5 8.5
v 10.5 0.5 8.5
v 9.5 0.5 8.5
v 9.5 0.5 7.5
v 9.5 -0.5 7.5
v 10.5 -0.5 7.5
v 10.5 0.5 7.5
v 9.5 0.5 6.5
v 10.5 0.5 5.5
v 10.5 0.5 6.5
v 9.5 0.5 5.5
v 9.5 1.5 5.5
v 10.5 1.5 6.5
v 10.5 1.5 5.5
v 9.5 1.5 6.5
v 9.5 0.5 6.5
v 10.5 0.5 6.5
v 10.5 1.5 6.5
v 9.5 1.5 6.5
v 9.5 1.5 5.5
v 9.5 0.5 5.5
v 10.5 0.5 5.5
v 10.5 1.5 5.5
v 9.5 0.5 7.5
v 10.5 0.5 7.5
v 10.5 1.5 7.5
v 9.5 1.5 7.5
v 9.5 0.5 7.5
v 10.5 0.5 7.5
v 10.5 1.5 7.5
v 9.5 1.5 7.5
v 9.5 1.5 6.5
v 9.5 0.5 6.5
v 10.5 0.5 6.5
v 10.5 1.5 6.5
v 10.5 -0.5 0.5
v 11.5 -0.5 -0.5
v 11.5 -0.5 0.5
v 10.5 -0.5 -0.5
v 10.5 0.5 -0.5
v 11.5 0.5 0.5
v 11.5 0.5 -0.5
v 10.5 0.5 0.5
v 11.5 -0.5 0.5
v 11.5 0.5 0.5
v 10.5 0.5 0.5
v 10.5 0.5 -0.5
v 10.5 -0.5 -0.5
v 11.5 -0.5 -0.5
v 11.5 0.5 -0.5
v 11.5 -0.5 1.5
v 11.5 0.5 1.5
v 10.5 0.5 1.5
v 11.5 -0.5 1.5
v 11.5 0.5 1.5
v 10.5 -0.5 0.5
v 11.5 -0.5 0.5
v 11.5 0.5 0.5
v 10.5 -0.5 2.5
v 11.5 -0.5 2.5
v 11.5 0.5 2.5
v 10.5 0.5 2.5
v 10.5 -0.5 1.5
v 11.5 0.5 1.5
v 11.5 -0.5 1.5
v 10.5 0.5 1.5
v 10.5 -0.5 2.5
v 11.5 -0.5 2.5
v 11.5 0.5 2.5
v 10.5 0.5 2.5
v 10.5 0.5 1.5
v 10.5 -0.5 1.5
v 11.5 -0.5 1.5
v 11.5 0.5 1.5
v 10.5 -0.5 3.5
v 11.5 -0.5 2.5
v 11.5 -0.5 3.5
v 10.5 -0.5 2.5
v 10.5 0.5 2.5
v 11.5 0.5 3.5
v 11.5 0.5 2.5
v 10.5 0.5 3.5
v 11.5 -0.5 3.5
v 11.5 0.5 3.5
v 10.5 0.5 2.5
v 10.5 -0.5 2.5
v 11.5 -0.5 2.5
v 11.5 0.5 2.5
v 10.5 -0.5 4.5
v 11.5 -0.5 3.5
v 11.5 -0.5 4.5
v 10.5 -0.5 3.5
v 10.5 0.5 3.5
v 11.5 0.5 4.5
v 11.5 0.5 3.5
v 10.5 0.5 4.5
v 10.5 -0.5 4.5
v 11.5 -0.5 4.5
v 11.5 0.5 4.5
v 10.5 0.5 4.5
v 11.5 -0.5 3.5
v 11.5 0.5 3.5
v 11.5 -0.5 4.5
v 11.5 -0.5 5.5
v 10.5 0.5 4.5
v 11.5 0.5 5.5
v 11.5 0.5 4.5
v 10.5 0.5 5.5
v 10.5 -0.5 5.5
v 11.5 -0.5 5.5
v 11.5 0.5 5.5
v 10.5 0.5 5.5
v 11.5 -0.5 4.5
v 11.5 0.5 4.5
v 10.5 -0.5 8.5
v 11.5 -0.5 7.5
v 11.5 -0.5 8.5
v 10.5 -0.5 7.5
v 10.5 0.5 7.5
v 11.5 0.5 8.5
v 11.5 0.5 7.5
v 10.5 0.5 8.5
v 10.5 -0.5 8.5
v 11.5 -0.5 8.5
v 11.5 0.5 8.5
v 10.5 0.5 8.5
v 10.5 0.5 7.5
v 10.5 -0.5 7.5
v 11.5 -0.5 7.5
v 11.5 0.5 7.5
v 10.5 0.5 5.5
v 11.5 0.5 5.5
v 10.5 1 4.5
v 11.5 1 5.5
v 11.5 1 4.5
v 10.5 1 5.5
v 10.5 0.5 4.5
v 11.5 1 4.5
v 11.5 0.5 4.5
v 10.5 1 4.5
v 10.5 0.5 5.5
v 11.5 0.5 5.5
v 11.5 1 5.5
v 10.5 1 5.5
v 10.5 1 4.5
v 10.5 0.5 4.5
v 11.5 0.5 4.5
v 11.5 1 4.5
v 10.5 0.5 6.5
v 11.5 0.5 5.5
v 11.5 0.5 6.5
v 11.5 1.5 6.5
v 11.5 1.5 5.5
v 10.5 1.5 6.5
v 11.5 0.5 6.5
v 11.5 1.5 6.5
v 11.5 0.5 5.5
v 11.5 1.5 5.5
v 10.5 0.5 7.5
v 11.5 0.5 7.5
v 11.5 1.5 7.5
v 10.5 1.5 7.5
v 10.5 0.5 7.5
v 11.5 0.5 7.5
v 11.5 1.5 7.5
v 10.5 1.5 7.5
v 11.5 0.5 6.5
v 11.5 1.5 6.5
v 11.5 -0.5 0.5
v 12.5 -0.5 -0.5
v 12.5 -0.5 0.5
v 12.5 0.5 0.5
v 12.5 0.5 -0.5
v 11.5 0.5 0.5
v 12.5 -0.5 0.5
v 12.5 0.5 0.5
v 12.5 -0.5 -0.5
v 12.5 0.5 -0.5
v 11.5 -0.5 2.5
v 12.5 -0.5 1.5
v 12.5 -0.5 2.5
v 11.5 -0.5 1.5
v 11.5 0.5 1.5
v 12.5 0.5 2.5
v 12.5 0.5 1.5
v 11.5 0.5 2.5
v 12.5 0.5 1.5
v 12.5 -0.5 1.5
v 12.5 -0.5 2.5
v 12.5 0.5 2.5
v 12.5 -0.5 1.5
v 12.5 0.5 1.5
v 11.5 -0.5 4.5
v 12.5 -0.5 3.5
v 12.5 -0.5 4.5
v 11.5 -0.5 3.5
v 11.5 0.5 3.5
v 12.5 0.5 4.5
v 12.5 0.5 3.5
v 11.5 0.5 4.5
v 12.5 0.5 3.5
v 12.5 -0.5 3.5
v 12.5 -0.5 4.5
v 12.5 0.5 4.5
v 12.5 -0.5 3.5
v 12.5 0.5 3.5
v 11.5 -0.5 5.5
v 12.5 -0.5 4.5
v 12.5 -0.5 5.5
v 11.5 -0.5 4.5
v 11.5 0.5 4.5
v 12.5 0.5 5.5
v 12.5 0.5 4.5
v 11.5 0.5 5.5
v 11.5 -0.5 5.5
v 12.5 -0.5 5.5
v 12.5 0.5 5.5
v 11.5 0.5 5.5
v 11.5 0.5 4.5
v 11.5 -0.5 4.5
v 12.5 -0.5 4.5
v 12.5 0.5 4.5
v 11.5 -0.5 8.5
v 12.5 -0.5 7.5
v 12.5 -0.5 8.5
v 11.5 -0.5 7.5
v 11.5 0.5 7.5
v 12.5 0.5 8.5
v 12.5 0.5 7.5
v 11.5 0.5 8.5
v 11.5 -0.5 8.5
v 12.5 -0.5 8.5
v 12.5 0.5 8.5
v 11.5 0.5 8.5
v 11.5 0.5 7.5
v 11.5 -0.5 7.5
v 12.5 -0.5 7.5
v 12.5 0.5 7.5
v 11.5 0.5 6.5
v 12.5 0.5 5.5
v 12.5 0.5 6.5
v 12.5 1.5 6.5
v 12.5 1.5 5.5
v 11.5 1.5 6.5
v 12.5 0.5 6.5
v 12.5 1.5 6.5
v 12.5 0.5 5.5
v 12.5 1.5 5.5
v 11.5 0.5 7.5
v 12.5 0.5 7.5
v 12.5 1.5 7.5
v 11.5 1.5 7.5
v 11.5 0.5 7.5
v 12.5 0.5 7.5
v 12.5 1.5 7.5
v 11.5 1.5 7.5
v 12.5 0.5 6.5
v 12.5 1.5 6.5
v 12.5 -0.5 2.5
v 13.5 -0.5 1.5
v 13.5 -0.5 2.5
v 12.5 -0.5 1.5
v 12.5 0.5 1.5
v 13.5 0.5 2.5
v 13.5 0.5 1.5
v 12.5 0.5 2.5
v 12.5 -0.5 2.5
v 13.5 -0.5 2.5
v 13.5 0.5 2.5
v 12.5 0.5 2.5
v 13.5 -0.5 1.5
v 13.5 0.5 1.5
v 12.5 -0.5 3.5
v 13.5 -0.5 3.5
v 13.5 0.5 3.5
v 12.5 0.5 3.5
v 12.5 -0.5 3.5
v 13.5 -0.5 3.5
v 13.5 0.5 3.5
v 12.5 0.5 3.5
v 12.5 0.5 2.5
v 12.5 -0.5 2.5
v 13.5 -0.5 2.5
v 13.5 0.5 2.5
v 12.5 -0.5 4.5
v 13.5 -0.5 4.5
v 13.5 0.5 4.5
v 12.5 0.5 4.5
v 12.5 -0.5 4.5
v 13.5 -0.5 4.5
v 13.5 0.5 4.5
v 12.5 0.5 4.5
v 13.5 -0.5 3.5
v 13.5 0.5 3.5
v 12.5 -0.5 5.5
v 13.5 -0.5 5.5
v 13.5 0.5 5.5
v 12.5 0.5 5.5
v 12.5 -0.5 4.5
v 13.5 0.5 4.5
v 13.5 -0.5 4.5
v 12.5 0.5 4.5
v 12.5 -0.5 5.5
v 13.5 -0.5 5.5
v 13.5 0.5 5.5
v 12.5 0.5 5.5
v 13.5 -0.5 4.5
v 13.5 0.5 4.5
v 12.5 -0.5 8.5
v 13.5 -0.5 7.5
v 13.5 -0.5 8.5
v 12.5 -0.5 7.5
v 12.5 0.5 7.5
v 13.5 0.5 8.5
v 13.5 0.5 7.5
v 12.5 0.5 8.5
v 12.5 -0.5 8.5
v 13.5 -0.5 8.5
v 13.5 0.5 8.5
v 12.5 0.5 8.5
v 12.5 0.5 7.5
v 12.5 -0.5 7.5
v 13.5 -0.5 7.5
v 13.5 0.5 7.5
v 12.5 0.5 6.5
v 13.5 0.5 5.5
v 13.5 0.5 6.5
v 13.5 1.5 6.5
v 13.5 1.5 5.5
v 12.5 1.5 6.5
v 13.5 0.5 6.5
v 13.5 1.5 6.5
v 13.5 0.5 5.5
v 13.5 1.5 5.5
v 12.5 0.5 7.5
v 13.5 0.5 7.5
v 13.5 1.5 7.5
v 12.5 1.5 7.5
v 12.5 0.5 7.5
v 13.5 0.5 7.5
v 13.5 1.5 7.5
v 12.5 1.5 7.5
v 13.5 0.5 6.5
v 13.5 1.5 6.5
v 13.5 -0.5 2.5
v 14.5 -0.5 1.5
v 14.5 -0.5 2.5
v 14.5 0.5 2.5
v 14.5 0.5 1.5
v 13.5 0.5 2.5
v 14.5 -0.5 2.5
v 14.5 0.5 2.5
v 14.5 -0.5 1.5
v 14.5 0.5 1.5
v 13.5 -0.5 3.5
v 14.5 -0.5 3.5
v 14.5 0.5 3.5
v 13.5 0.5 3.5
v 14.5 -0.5 3.5
v 14.5 0.5 3.5
v 14.5 -0.5 2.5
v 14.5 0.5 2.5
v 13.5 -0.5 4.5
v 14.5 -0.5 4.5
v 14.5 0.5 4.5
v 13.5 0.5 4.5
v 13.5 -0.5 3.5
v 14.5 0.5 3.5
v 14.5 -0.5 3.5
v 13.5 0.5 3.5
v 14.5 -0.5 4.5
v 14.5 0.5 4.5
v 13.5 0.5 3.5
v 13.5 -0.5 3.5
v 14.5 -0.5 3.5
v 14.5 0.5 3.5
v 13.5 -0.5 5.5
v 14.5 -0.5 4.5
v 14.5 -0.5 5.5
v 13.5 -0.5 4.5
v 13.5 0.5 4.5
v 14.5 0.5 5.5
v 14.5 0.5 4.5
v 13.5 0.5 5.5
v 13.5 -0.5 5.5
v 14.5 -0.5 5.5
v 14.5 0.5 5.5
v 13.5 0.5 5.5
v 14.5 -0.5 4.5
v 14.5 0.5 4.5
v 13.5 -0.5 6.5
v 14.5 -0.5 6.5
v 14.5 0.5 6.5
v 13.5 0.5 6.5
v 13.5 -0.5 6.5
v 14.5 -0.5 6.5
v 14.5 0.5 6.5
v 13.5 0.5 6.5
v 13.5 0.5 5.5
v 13.5 -0.5 5.5
v 14.5 -0.5 5.5
v 14.5 0.5 5.5
v 13.5 -0.5 7.5
v 14.5 -0.5 7.5
v 14.5 0.5 7.5
v 13.5 0.5 7.5
v 14.5 -0.5 7.5
v 14.5 0.5 7.5
v 13.5 0.5 6.5
v 13.5 -0.5 6.5
v 14.5 -0.5 6.5
v 14.5 0.5 6.5
v 13.5 -0.5 8.5
v 14.5 -0.5 8.5
v 14.5 0.5 8.5
v 13.5 0.5 8.5
v 13.5 -0.5 7.5
v 14.5 0.5 7.5
v 14.5 -0.5 7.5
v 13.5 0.5 7.5
v 13.5 -0.5 8.5
v 14.5 -0.5 8.5
v 14.5 0.5 8.5
v 13.5 0.5 8.5
v 13.5 0.5 7.5
v 13.5 -0.5 7.5
v 14.5 -0.5 7.5
v 14.5 0.5 7.5
vn 0 -0.99999 -0.00394
vn 0 0.99999 -0.00394
vn 0 0 -1
vn 0.00395 0.00395 0.99998
vn -0.99999 0 -0.00394
vn 0.99999 0 -0.00394
vt 0.85938 0.15625
vt 0.875 0.14062
vt 0.875 0.15625
vt 0.85938 0.14062
vt 0.89062 0.14062
vt 0.89062 0.15625
vt 0.84375 0.14062
vt 0.84375 0.15625
vt 0.96875 0.29688
vt 0.98438 0.3125
vt 0.98438 0.29688
vt 0.96875 0.3125
vt 0.8125 0.21875
vt 0.82812 0.20312
vt 0.82812 0.21875
vt 0.8125 0.20312
vt 0.10938 0.10938
vt 0.125 0.09375
vt 0.125 0.10938
vt 0.10938 0.09375
vt 0.98438 0.30469
vt 0.96875 0.30469
vt 0.48438 0.34375
vt 0.5 0.32812
vt 0.5 0.34375
vt 0.48438 0.32812
vt 0.34375 0.15625
vt 0.35938 0.14062
vt 0.35938 0.15625
vt 0.34375 0.14062
vt 0.59375 0.3125
vt 0.60938 0.32812
vt 0.60938 0.3125
vt 0.59375 0.32812
vt 0.39062 0.29688
vt 0.40625 0.28125
vt 0.40625 0.29688
vt 0.39062 0.28125
usemtl mat0
f 1/1/1 2/2/1 3/3/1
f 1/1/1 4/4/1 2/2/1
f 5/3/2 6/5/2 7/6/2
f 5/3/2 8/2/2 6/5/2
f 9/7/3 10/1/3 11/4/3
f 9/7/3 12/8/3 10/1/3
f 13/7/4 14/4/4 15/1/4
f 13/7/4 15/1/4 16/8/4
f 13/7/5 17/1/5 4/4/5
f 13/7/5 16/8/5 17/1/5
f 18/7/6 15/1/6 14/4/6
f 18/7/6 19/8/6 15/1/6
f 20/3/1 21/5/1 22/6/1
f 20/3/1 23/2/1 21/5/1
f 24/3/2 25/5/2 26/6/2
f 24/3/2 27/2/2 25/5/2
f 28/9/3 29/10/3 30/11/3
f 28/9/3 31/12/3 29/10/3
f 32/9/4 33/11/4 34/10/4
f 32/9/4 34/10/4 35/12/4
f 32/9/5 36/10/5 37/11/5
f 32/9/5 35/12/5 36/10/5
f 38/9/6 34/10/6 33/11/6
f 38/9/6 39/12/6 34/10/6
f 40/1/1 41/2/1 42/3/1
f 40/1/1 43/4/1 41/2/1
f 44/3/2 45/5/2 46/6/2
f 44/3/2 47/2/2 45/5/2
f 48/7/3 49/1/3 50/4/3
f 48/7/3 51/8/3 49/1/3
f 52/7/4 53/4/4 54/1/4
f 52/7/4 54/1/4 55/8/4
f 52/7/5 56/1/5 43/4/5
f 52/7/5 55/8/5 56/1/5
f 57/7/6 54/1/6 53/4/6
f 57/7/6 58/8/6 54/1/6
f 59/1/1 60/2/1 61/3/1
f 59/1/1 62/4/1 60/2/1
f 63/3/2 64/5/2 65/6/2
f 63/3/2 66/2/2 64/5/2
f 52/7/3 54/1/3 53/4/3
f 52/7/3 55/8/3 54/1/3
f 67/7/4 68/4/4 69/1/4
f 67/7/4 69/1/4 70/8/4
f 67/7/5 71/1/5 62/4/5
f 67/7/5 70/8/5 71/1/5
f 72/7/6 69/1/6 68/4/6
f 72/7/6 73/8/6 69/1/6
f 74/1/1 75/2/1 76/3/1
f 74/1/1 77/4/1 75/2/1
f 78/3/2 79/5/2 80/6/2
f 78/3/2 81/2/2 79/5/2
f 67/7/3 69/1/3 68/4/3
f 67/7/3 70/8/3 69/1/3
f 82/7/4 83/4/4 84/1/4
f 82/7/4 84/1/4 85/8/4
f 82/7/5 86/1/5 77/4/5
f 82/7/5 85/8/5 86/1/5
f 87/7/6 84/1/6 83/4/6
f 87/7/6 88/8/6 84/1/6
f 89/3/1 90/5/1 91/6/1
f 89/3/1 92/2/1 90/5/1
f 93/3/2 94/5/2 95/6/2
f 93/3/2 96/2/2 94/5/2
f 97/9/3 98/10/3 99/11/3
f 97/9/3 100/12/3 98/10/3
f 101/9/4 102/11/4 103/10/4
f 101/9/4 103/10/4 104/12/4
f 101/9/5 105/10/5 106/11/5
f 101/9/5 104/12/5 105/10/5
f 107/9/6 103/10/6 102/11/6
f 107/9/6 108/12/6 103/10/6
f 109/13/1 110/14/1 111/15/1
f 109/13/1 112/16/1 110/14/1
f 113/13/2 114/14/2 115/15/2
f 113/13/2 116/16/2 114/14/2
f 117/14/3 118/13/3 119/16/3
f 117/14/3 120/15/3 118/13/3
f 121/16/4 122/14/4 123/15/4
f 121/16/4 123/15/4 124/13/4
f 125/14/5 113/13/5 112/16/5
f 125/14/5 126/15/5 113/13/5
f 119/16/6 123/15/6 122/14/6
f 119/16/6 118/13/6 123/15/6
f 3/3/1 127/5/1 128/6/1
f 3/3/1 2/2/1 127/5/1
f 129/3/2 130/5/2 131/6/2
f 129/3/2 132/2/2 130/5/2
f 133/9/3 134/10/3 135/11/3
f 133/9/3 136/12/3 134/10/3
f 38/9/4 137/11/4 138/10/4
f 38/9/4 138/10/4 39/12/4
f 38/9/5 139/10/5 140/11/5
f 38/9/5 39/12/5 139/10/5
f 141/9/6 138/10/6 137/11/6
f 141/9/6 142/12/6 138/10/6
f 143/3/1 144/5/1 145/6/1
f 143/3/1 146/2/1 144/5/1
f 147/3/2 148/5/2 149/6/2
f 147/3/2 150/2/2 148/5/2
f 38/9/3 138/10/3 137/11/3
f 38/9/3 39/12/3 138/10/3
f 151/9/4 152/11/4 153/10/4
f 151/9/4 153/10/4 154/12/4
f 151/9/5 29/10/5 30/11/5
f 151/9/5 154/12/5 29/10/5
f 155/9/6 153/10/6 152/11/6
f 155/9/6 156/12/6 153/10/6
f 42/3/1 157/5/1 158/6/1
f 42/3/1 41/2/1 157/5/1
f 159/3/2 160/5/2 161/6/2
f 159/3/2 162/2/2 160/5/2
f 41/2/3 161/6/3 157/5/3
f 41/2/3 159/3/3 161/6/3
f 60/2/4 163/5/4 164/6/4
f 60/2/4 164/6/4 165/3/4
f 60/2/5 46/6/5 166/5/5
f 60/2/5 165/3/5 46/6/5
f 167/2/6 164/6/6 163/5/6
f 167/2/6 168/3/6 164/6/6
f 169/17/1 170/18/1 171/19/1
f 169/17/1 172/20/1 170/18/1
f 173/17/2 174/18/2 175/19/2
f 173/17/2 176/20/2 174/18/2
f 172/20/3 175/19/3 170/18/3
f 172/20/3 173/17/3 175/19/3
f 177/20/4 178/18/4 179/19/4
f 177/20/4 179/19/4 180/17/4
f 177/20/5 181/19/5 182/18/5
f 177/20/5 180/17/5 181/19/5
f 183/20/6 179/19/6 178/18/6
f 183/20/6 184/17/6 179/19/6
f 76/3/1 185/5/1 186/6/1
f 76/3/1 75/2/1 185/5/1
f 187/3/2 188/5/2 189/6/2
f 187/3/2 190/2/2 188/5/2
f 191/9/3 192/10/3 193/11/3
f 191/9/3 194/12/3 192/10/3
f 107/9/4 195/11/4 196/10/4
f 107/9/4 196/10/4 108/12/4
f 107/9/5 197/10/5 198/11/5
f 107/9/5 108/12/5 197/10/5
f 199/9/6 196/10/6 195/11/6
f 199/9/6 200/12/6 196/10/6
f 201/1/1 202/2/1 203/3/1
f 201/1/1 83/4/1 202/2/1
f 204/3/2 205/5/2 206/6/2
f 204/3/2 207/2/2 205/5/2
f 208/7/3 209/1/3 210/4/3
f 208/7/3 211/8/3 209/1/3
f 212/7/4 213/4/4 214/1/4
f 212/7/4 214/1/4 215/8/4
f 212/7/5 84/1/5 83/4/5
f 212/7/5 215/8/5 84/1/5
f 216/7/6 214/1/6 213/4/6
f 216/7/6 217/8/6 214/1/6
f 129/3/1 218/5/1 131/6/1
f 129/3/1 219/2/1 218/5/1
f 220/3/2 221/5/2 222/6/2
f 220/3/2 223/2/2 221/5/2
f 224/9/3 225/21/3 226/11/3
f 224/9/3 227/22/3 225/21/3
f 228/9/4 229/11/4 230/21/4
f 228/9/4 230/21/4 231/22/4
f 228/9/5 232/21/5 233/11/5
f 228/9/5 231/22/5 232/21/5
f 234/9/6 230/21/6 229/11/6
f 234/9/6 235/22/6 230/21/6
f 236/23/1 237/24/1 238/25/1
f 236/23/1 239/26/1 237/24/1
f 240/23/2 241/24/2 242/25/2
f 240/23/2 243/26/2 241/24/2
f 239/26/3 242/25/3 237/24/3
f 239/26/3 240/23/3 242/25/3
f 244/26/4 245/24/4 246/25/4
f 244/26/4 246/25/4 247/23/4
f 244/26/5 248/25/5 249/24/5
f 244/26/5 247/23/5 248/25/5
f 250/26/6 246/25/6 245/24/6
f 250/26/6 251/23/6 246/25/6
f 252/3/1 253/5/1 254/6/1
f 252/3/1 255/2/1 253/5/1
f 256/3/2 257/5/2 258/6/2
f 256/3/2 259/2/2 257/5/2
f 260/9/3 261/10/3 262/11/3
f 260/9/3 263/12/3 261/10/3
f 141/9/4 264/11/4 265/10/4
f 141/9/4 265/10/4 142/12/4
f 141/9/5 266/10/5 267/11/5
f 141/9/5 142/12/5 266/10/5
f 268/9/6 265/10/6 264/11/6
f 268/9/6 269/12/6 265/10/6
f 270/13/1 271/14/1 272/15/1
f 270/13/1 273/16/1 271/14/1
f 274/13/2 275/14/2 276/15/2
f 274/13/2 277/16/2 275/14/2
f 122/14/3 278/13/3 279/16/3
f 122/14/3 123/15/3 278/13/3
f 280/16/4 281/14/4 282/15/4
f 280/16/4 282/15/4 283/13/4
f 284/14/5 274/13/5 273/16/5
f 284/14/5 285/15/5 274/13/5
f 279/16/6 282/15/6 281/14/6
f 279/16/6 278/13/6 282/15/6
f 286/1/1 287/2/1 288/3/1
f 286/1/1 289/4/1 287/2/1
f 290/3/2 291/5/2 292/6/2
f 290/3/2 293/2/2 291/5/2
f 294/7/3 295/1/3 296/4/3
f 294/7/3 297/8/3 295/1/3
f 298/7/4 299/4/4 300/1/4
f 298/7/4 300/1/4 301/8/4
f 298/7/5 302/1/5 289/4/5
f 298/7/5 301/8/5 302/1/5
f 303/7/6 300/1/6 299/4/6
f 303/7/6 304/8/6 300/1/6
f 305/1/1 306/2/1 307/3/1
f 305/1/1 308/4/1 306/2/1
f 168/3/2 309/5/2 310/6/2
f 168/3/2 311/2/2 309/5/2
f 298/7/3 300/1/3 299/4/3
f 298/7/3 301/8/3 300/1/3
f 312/7/4 313/4/4 314/1/4
f 312/7/4 314/1/4 315/8/4
f 312/7/5 316/1/5 308/4/5
f 312/7/5 315/8/5 316/1/5
f 317/7/6 314/1/6 313/4/6
f 317/7/6 318/8/6 314/1/6
f 319/3/1 320/5/1 321/6/1
f 319/3/1 322/2/1 320/5/1
f 323/3/2 324/5/2 325/6/2
f 323/3/2 326/2/2 324/5/2
f 327/9/3 328/10/3 329/11/3
f 327/9/3 330/12/3 328/10/3
f 199/9/4 331/11/4 332/10/4
f 199/9/4 332/10/4 200/12/4
f 199/9/5 333/10/5 334/11/5
f 199/9/5 200/12/5 333/10/5
f 335/9/6 332/10/6 331/11/6
f 335/9/6 336/12/6 332/10/6
f 337/1/1 338/2/1 339/3/1
f 337/1/1 340/4/1 338/2/1
f 341/3/2 342/5/2 343/6/2
f 341/3/2 344/2/2 342/5/2
f 345/7/3 346/1/3 347/4/3
f 345/7/3 348/8/3 346/1/3
f 216/7/4 349/4/4 350/1/4
f 216/7/4 350/1/4 217/8/4
f 216/7/5 351/1/5 340/4/5
f 216/7/5 217/8/5 351/1/5
f 352/7/6 350/1/6 349/4/6
f 352/7/6 353/8/6 350/1/6
f 354/3/1 355/5/1 356/6/1
f 354/3/1 357/2/1 355/5/1
f 358/3/2 359/5/2 360/6/2
f 358/3/2 361/2/2 359/5/2
f 362/9/3 363/10/3 364/11/3
f 362/9/3 365/12/3 363/10/3
f 366/9/4 367/11/4 368/10/4
f 366/9/4 368/10/4 369/12/4
f 366/9/5 370/10/5 371/11/5
f 366/9/5 369/12/5 370/10/5
f 372/9/6 368/10/6 367/11/6
f 372/9/6 373/12/6 368/10/6
f 374/23/1 375/24/1 376/25/1
f 374/23/1 250/26/1 375/24/1
f 251/23/2 377/24/2 378/25/2
f 251/23/2 379/26/2 377/24/2
f 250/26/3 378/25/3 375/24/3
f 250/26/3 251/23/3 378/25/3
f 380/26/4 381/24/4 382/25/4
f 380/26/4 382/25/4 383/23/4
f 380/26/5 242/25/5 237/24/5
f 380/26/5 383/23/5 242/25/5
f 384/26/6 382/25/6 381/24/6
f 384/26/6 385/23/6 382/25/6
f 383/23/1 386/24/1 382/25/1
f 383/23/1 387/26/1 386/24/1
f 388/23/2 389/24/2 390/25/2
f 388/23/2 391/26/2 389/24/2
f 387/26/3 390/25/3 386/24/3
f 387/26/3 388/23/3 390/25/3
f 379/26/4 377/24/4 392/25/4
f 379/26/4 392/25/4 393/23/4
f 379/26/5 394/25/5 395/24/5
f 379/26/5 393/23/5 394/25/5
f 396/26/6 392/25/6 377/24/6
f 396/26/6 397/23/6 392/25/6
f 398/3/1 399/5/1 400/6/1
f 398/3/1 401/2/1 399/5/1
f 402/3/2 403/5/2 404/6/2
f 402/3/2 405/2/2 403/5/2
f 268/9/3 406/10/3 407/11/3
f 268/9/3 269/12/3 406/10/3
f 408/9/4 409/11/4 410/10/4
f 408/9/4 410/10/4 411/12/4
f 408/9/5 261/10/5 262/11/5
f 408/9/5 411/12/5 261/10/5
f 412/9/6 410/10/6 409/11/6
f 412/9/6 413/12/6 410/10/6
f 414/3/1 415/5/1 416/6/1
f 414/3/1 417/2/1 415/5/1
f 418/3/2 419/5/2 420/6/2
f 418/3/2 421/2/2 419/5/2
f 417/2/3 420/6/3 415/5/3
f 417/2/3 418/3/3 420/6/3
f 287/2/4 422/5/4 423/6/4
f 287/2/4 423/6/4 424/3/4
f 287/2/5 425/6/5 426/5/5
f 287/2/5 424/3/5 425/6/5
f 427/2/6 423/6/6 422/5/6
f 427/2/6 428/3/6 423/6/6
f 429/17/1 430/18/1 431/19/1
f 429/17/1 432/20/1 430/18/1
f 433/17/2 434/18/2 435/19/2
f 433/17/2 436/20/2 434/18/2
f 432/20/3 435/19/3 430/18/3
f 432/20/3 433/17/3 435/19/3
f 437/20/4 438/18/4 439/19/4
f 437/20/4 439/19/4 440/17/4
f 437/20/5 441/19/5 442/18/5
f 437/20/5 440/17/5 441/19/5
f 443/20/6 439/19/6 438/18/6
f 443/20/6 444/17/6 439/19/6
f 445/1/1 446/2/1 447/3/1
f 445/1/1 313/4/1 446/2/1
f 448/3/2 449/5/2 450/6/2
f 448/3/2 451/2/2 449/5/2
f 452/7/3 453/1/3 454/4/3
f 452/7/3 455/8/3 453/1/3
f 352/7/4 456/4/4 457/1/4
f 352/7/4 457/1/4 353/8/4
f 352/7/5 314/1/5 313/4/5
f 352/7/5 353/8/5 314/1/5
f 458/7/6 457/1/6 456/4/6
f 458/7/6 459/8/6 457/1/6
f 460/1/1 461/2/1 462/3/1
f 460/1/1 347/4/1 461/2/1
f 463/3/2 464/5/2 465/6/2
f 463/3/2 466/2/2 464/5/2
f 352/7/3 457/1/3 456/4/3
f 352/7/3 353/8/3 457/1/3
f 467/7/4 468/4/4 469/1/4
f 467/7/4 469/1/4 470/8/4
f 467/7/5 346/1/5 347/4/5
f 467/7/5 470/8/5 346/1/5
f 471/7/6 469/1/6 468/4/6
f 471/7/6 472/8/6 469/1/6
f 473/1/1 474/2/1 475/3/1
f 473/1/1 349/4/1 474/2/1
f 476/3/2 477/5/2 478/6/2
f 476/3/2 479/2/2 477/5/2
f 467/7/3 469/1/3 468/4/3
f 467/7/3 470/8/3 469/1/3
f 480/7/4 481/4/4 482/1/4
f 480/7/4 482/1/4 483/8/4
f 480/7/5 350/1/5 349/4/5
f 480/7/5 483/8/5 350/1/5
f 484/7/6 482/1/6 481/4/6
f 484/7/6 485/8/6 482/1/6
f 486/3/1 487/5/1 488/6/1
f 486/3/1 489/2/1 487/5/1
f 490/3/2 491/5/2 492/6/2
f 490/3/2 493/2/2 491/5/2
f 494/9/3 495/10/3 496/11/3
f 494/9/3 497/12/3 495/10/3
f 372/9/4 498/11/4 499/10/4
f 372/9/4 499/10/4 373/12/4
f 372/9/5 500/10/5 501/11/5
f 372/9/5 373/12/5 500/10/5
f 502/9/6 499/10/6 498/11/6
f 502/9/6 503/12/6 499/10/6
f 504/3/1 505/5/1 506/6/1
f 504/3/1 507/2/1 505/5/1
f 508/3/2 509/5/2 510/6/2
f 508/3/2 511/2/2 509/5/2
f 372/9/3 499/10/3 498/11/3
f 372/9/3 373/12/3 499/10/3
f 512/9/4 513/11/4 514/10/4
f 512/9/4 514/10/4 515/12/4
f 512/9/5 363/10/5 364/11/5
f 512/9/5 515/12/5 363/10/5
f 516/9/6 514/10/6 513/11/6
f 516/9/6 517/12/6 514/10/6
f 518/23/1 519/24/1 520/25/1
f 518/23/1 384/26/1 519/24/1
f 385/23/2 521/24/2 522/25/2
f 385/23/2 523/26/2 521/24/2
f 384/26/3 522/25/3 519/24/3
f 384/26/3 385/23/3 522/25/3
f 524/26/4 525/24/4 526/25/4
f 524/26/4 526/25/4 527/23/4
f 524/26/5 378/25/5 375/24/5
f 524/26/5 527/23/5 378/25/5
f 528/26/6 526/25/6 525/24/6
f 528/26/6 529/23/6 526/25/6
f 527/23/1 530/24/1 526/25/1
f 527/23/1 396/26/1 530/24/1
f 397/23/2 531/24/2 532/25/2
f 397/23/2 533/26/2 531/24/2
f 396/26/3 532/25/3 530/24/3
f 396/26/3 397/23/3 532/25/3
f 523/26/4 521/24/4 534/25/4
f 523/26/4 534/25/4 535/23/4
f 523/26/5 390/25/5 386/24/5
f 523/26/5 535/23/5 390/25/5
f 536/26/6 534/25/6 521/24/6
f 536/26/6 537/23/6 534/25/6
f 538/1/1 539/2/1 540/3/1
f 538/1/1 541/4/1 539/2/1
f 542/3/2 543/5/2 544/6/2
f 542/3/2 545/2/2 543/5/2
f 546/7/3 547/1/3 548/4/3
f 546/7/3 549/8/3 547/1/3
f 550/7/4 551/4/4 552/1/4
f 550/7/4 552/1/4 553/8/4
f 550/7/5 554/1/5 541/4/5
f 550/7/5 553/8/5 554/1/5
f 555/7/6 552/1/6 551/4/6
f 555/7/6 556/8/6 552/1/6
f 557/1/1 558/2/1 559/3/1
f 557/1/1 560/4/1 558/2/1
f 428/3/2 561/5/2 562/6/2
f 428/3/2 563/2/2 561/5/2
f 550/7/3 552/1/3 551/4/3
f 550/7/3 553/8/3 552/1/3
f 564/7/4 565/4/4 566/1/4
f 564/7/4 566/1/4 567/8/4
f 564/7/5 568/1/5 560/4/5
f 564/7/5 567/8/5 568/1/5
f 569/7/6 566/1/6 565/4/6
f 569/7/6 570/8/6 566/1/6
f 571/3/1 572/5/1 573/6/1
f 571/3/1 574/2/1 572/5/1
f 575/3/2 576/5/2 577/6/2
f 575/3/2 578/2/2 576/5/2
f 579/9/3 580/10/3 581/11/3
f 579/9/3 582/12/3 580/10/3
f 583/9/4 584/11/4 585/10/4
f 583/9/4 585/10/4 586/12/4
f 583/9/5 587/10/5 588/11/5
f 583/9/5 586/12/5 587/10/5
f 589/9/6 585/10/6 584/11/6
f 589/9/6 590/12/6 585/10/6
f 591/1/1 592/2/1 593/3/1
f 591/1/1 456/4/1 592/2/1
f 594/3/2 595/5/2 596/6/2
f 594/3/2 597/2/2 595/5/2
f 471/7/3 598/1/3 599/4/3
f 471/7/3 472/8/3 598/1/3
f 484/7/4 600/4/4 601/1/4
f 484/7/4 601/1/4 485/8/4
f 484/7/5 457/1/5 456/4/5
f 484/7/5 485/8/5 457/1/5
f 602/7/6 601/1/6 600/4/6
f 602/7/6 603/8/6 601/1/6
f 475/3/1 604/5/1 605/6/1
f 475/3/1 474/2/1 604/5/1
f 606/3/2 607/5/2 608/6/2
f 606/3/2 609/2/2 607/5/2
f 610/9/3 611/10/3 612/11/3
f 610/9/3 613/12/3 611/10/3
f 502/9/4 614/11/4 615/10/4
f 502/9/4 615/10/4 503/12/4
f 502/9/5 616/10/5 617/11/5
f 502/9/5 503/12/5 616/10/5
f 618/9/6 615/10/6 614/11/6
f 618/9/6 619/12/6 615/10/6
f 620/1/1 621/2/1 622/3/1
f 620/1/1 623/4/1 621/2/1
f 624/3/2 625/5/2 626/6/2
f 624/3/2 627/2/2 625/5/2
f 628/7/3 629/1/3 630/4/3
f 628/7/3 631/8/3 629/1/3
f 632/7/4 633/4/4 634/1/4
f 632/7/4 634/1/4 635/8/4
f 632/7/5 636/1/5 623/4/5
f 632/7/5 635/8/5 636/1/5
f 637/7/6 634/1/6 633/4/6
f 637/7/6 638/8/6 634/1/6
f 639/27/1 640/28/1 641/29/1
f 639/27/1 642/30/1 640/28/1
f 643/27/2 644/28/2 645/29/2
f 643/27/2 646/30/2 644/28/2
f 642/30/3 645/29/3 640/28/3
f 642/30/3 643/27/3 645/29/3
f 647/30/4 648/28/4 649/29/4
f 647/30/4 649/29/4 650/27/4
f 647/30/5 651/29/5 652/28/5
f 647/30/5 650/27/5 651/29/5
f 653/30/6 649/29/6 648/28/6
f 653/30/6 654/27/6 649/29/6
f 655/1/1 656/2/1 657/3/1
f 655/1/1 548/4/1 656/2/1
f 658/3/2 659/5/2 660/6/2
f 658/3/2 661/2/2 659/5/2
f 555/7/3 662/1/3 663/4/3
f 555/7/3 556/8/3 662/1/3
f 569/7/4 664/4/4 665/1/4
f 569/7/4 665/1/4 570/8/4
f 569/7/5 547/1/5 548/4/5
f 569/7/5 570/8/5 547/1/5
f 666/7/6 665/1/6 664/4/6
f 666/7/6 667/8/6 665/1/6
f 559/3/1 668/5/1 669/6/1
f 559/3/1 558/2/1 668/5/1
f 670/3/2 671/5/2 672/6/2
f 670/3/2 673/2/2 671/5/2
f 674/9/3 675/10/3 676/11/3
f 674/9/3 677/12/3 675/10/3
f 589/9/4 678/11/4 679/10/4
f 589/9/4 679/10/4 590/12/4
f 589/9/5 680/10/5 681/11/5
f 589/9/5 590/12/5 680/10/5
f 682/9/6 679/10/6 678/11/6
f 682/9/6 683/12/6 679/10/6
f 684/1/1 685/2/1 686/3/1
f 684/1/1 687/4/1 685/2/1
f 688/3/2 689/5/2 690/6/2
f 688/3/2 691/2/2 689/5/2
f 692/7/3 693/1/3 694/4/3
f 692/7/3 695/8/3 693/1/3
f 696/7/4 697/4/4 698/1/4
f 696/7/4 698/1/4 699/8/4
f 696/7/5 700/1/5 687/4/5
f 696/7/5 699/8/5 700/1/5
f 701/7/6 698/1/6 697/4/6
f 701/7/6 702/8/6 698/1/6
f 703/17/1 704/18/1 705/19/1
f 703/17/1 706/20/1 704/18/1
f 707/17/2 708/18/2 709/19/2
f 707/17/2 710/20/2 708/18/2
f 706/20/3 709/19/3 704/18/3
f 706/20/3 707/17/3 709/19/3
f 711/20/4 712/18/4 713/19/4
f 711/20/4 713/19/4 714/17/4
f 711/20/5 715/19/5 716/18/5
f 711/20/5 714/17/5 715/19/5
f 717/20/6 713/19/6 712/18/6
f 717/20/6 718/17/6 713/19/6
f 719/3/1 720/5/1 721/6/1
f 719/3/1 722/2/1 720/5/1
f 723/3/2 724/5/2 725/6/2
f 723/3/2 726/2/2 724/5/2
f 722/2/3 725/6/3 720/5/3
f 722/2/3 723/3/3 725/6/3
f 727/2/4 728/5/4 729/6/4
f 727/2/4 729/6/4 730/3/4
f 727/2/5 608/6/5 604/5/5
f 727/2/5 730/3/5 608/6/5
f 731/2/6 729/6/6 728/5/6
f 731/2/6 732/3/6 729/6/6
f 733/1/1 734/2/1 735/3/1
f 733/1/1 736/4/1 734/2/1
f 730/3/2 737/5/2 729/6/2
f 730/3/2 738/2/2 737/5/2
f 739/7/3 740/1/3 741/4/3
f 739/7/3 742/8/3 740/1/3
f 637/7/4 743/4/4 744/1/4
f 637/7/4 744/1/4 638/8/4
f 637/7/5 745/1/5 736/4/5
f 637/7/5 638/8/5 745/1/5
f 746/7/6 744/1/6 743/4/6
f 746/7/6 747/8/6 744/1/6
f 748/13/1 749/14/1 750/15/1
f 748/13/1 751/16/1 749/14/1
f 752/13/2 753/14/2 754/15/2
f 752/13/2 755/16/2 753/14/2
f 756/14/3 757/13/3 758/16/3
f 756/14/3 759/15/3 757/13/3
f 760/16/4 761/14/4 762/15/4
f 760/16/4 762/15/4 763/13/4
f 764/14/5 752/13/5 751/16/5
f 764/14/5 765/15/5 752/13/5
f 758/16/6 762/15/6 761/14/6
f 758/16/6 757/13/6 762/15/6
f 688/3/1 671/5/1 690/6/1
f 688/3/1 673/2/1 671/5/1
f 766/3/2 767/5/2 768/6/2
f 766/3/2 769/2/2 767/5/2
f 770/9/3 771/21/3 772/11/3
f 770/9/3 773/22/3 771/21/3
f 774/9/4 775/11/4 776/21/4
f 774/9/4 776/21/4 777/22/4
f 774/9/5 778/21/5 779/11/5
f 774/9/5 777/22/5 778/21/5
f 780/9/6 776/21/6 775/11/6
f 780/9/6 781/22/6 776/21/6
f 657/3/1 782/5/1 783/6/1
f 657/3/1 656/2/1 782/5/1
f 784/3/2 785/5/2 786/6/2
f 784/3/2 787/2/2 785/5/2
f 788/9/3 789/10/3 790/11/3
f 788/9/3 791/12/3 789/10/3
f 682/9/4 792/11/4 793/10/4
f 682/9/4 793/10/4 683/12/4
f 682/9/5 794/10/5 795/11/5
f 682/9/5 683/12/5 794/10/5
f 796/9/6 793/10/6 792/11/6
f 796/9/6 797/12/6 793/10/6
f 798/1/1 799/2/1 800/3/1
f 798/1/1 664/4/1 799/2/1
f 801/3/2 802/5/2 803/6/2
f 801/3/2 804/2/2 802/5/2
f 805/7/3 806/1/3 807/4/3
f 805/7/3 808/8/3 806/1/3
f 809/7/4 810/4/4 811/1/4
f 809/7/4 811/1/4 812/8/4
f 809/7/5 665/1/5 664/4/5
f 809/7/5 812/8/5 665/1/5
f 813/7/6 811/1/6 810/4/6
f 813/7/6 814/8/6 811/1/6
f 686/3/1 815/5/1 816/6/1
f 686/3/1 685/2/1 815/5/1
f 817/3/2 818/5/2 819/6/2
f 817/3/2 820/2/2 818/5/2
f 821/9/3 822/10/3 823/11/3
f 821/9/3 824/12/3 822/10/3
f 825/9/4 826/11/4 827/10/4
f 825/9/4 827/10/4 828/12/4
f 825/9/5 829/10/5 830/11/5
f 825/9/5 828/12/5 829/10/5
f 831/9/6 827/10/6 826/11/6
f 831/9/6 832/12/6 827/10/6
f 833/3/1 834/5/1 835/6/1
f 833/3/1 836/2/1 834/5/1
f 837/3/2 838/5/2 839/6/2
f 837/3/2 840/2/2 838/5/2
f 825/9/3 827/10/3 826/11/3
f 825/9/3 828/12/3 827/10/3
f 841/9/4 842/11/4 843/10/4
f 841/9/4 843/10/4 844/12/4
f 841/9/5 845/10/5 846/11/5
f 841/9/5 844/12/5 845/10/5
f 847/9/6 843/10/6 842/11/6
f 847/9/6 848/12/6 843/10/6
f 849/3/1 850/5/1 851/6/1
f 849/3/1 852/2/1 850/5/1
f 853/3/2 854/5/2 855/6/2
f 853/3/2 856/2/2 854/5/2
f 841/9/3 843/10/3 842/11/3
f 841/9/3 844/12/3 843/10/3
f 857/9/4 858/11/4 859/10/4
f 857/9/4 859/10/4 860/12/4
f 857/9/5 861/10/5 862/11/5
f 857/9/5 860/12/5 861/10/5
f 863/9/6 859/10/6 858/11/6
f 863/9/6 864/12/6 859/10/6
f 865/1/1 866/2/1 867/3/1
f 865/1/1 741/4/1 866/2/1
f 868/3/2 869/5/2 870/6/2
f 868/3/2 871/2/2 869/5/2
f 746/7/3 872/1/3 873/4/3
f 746/7/3 747/8/3 872/1/3
f 874/7/4 875/4/4 876/1/4
f 874/7/4 876/1/4 877/8/4
f 874/7/5 740/1/5 741/4/5
f 874/7/5 877/8/5 740/1/5
f 878/7/6 876/1/6 875/4/6
f 878/7/6 879/8/6 876/1/6
f 880/3/1 881/5/1 882/6/1
f 880/3/1 883/2/1 881/5/1
f 884/3/2 885/5/2 886/6/2
f 884/3/2 887/2/2 885/5/2
f 888/9/3 889/10/3 890/11/3
f 888/9/3 891/12/3 889/10/3
f 892/9/4 893/11/4 894/10/4
f 892/9/4 894/10/4 895/12/4
f 892/9/5 896/10/5 897/11/5
f 892/9/5 895/12/5 896/10/5
f 898/9/6 894/10/6 893/11/6
f 898/9/6 899/12/6 894/10/6
f 900/1/1 901/2/1 902/3/1
f 900/1/1 903/4/1 901/2/1
f 904/3/2 905/5/2 906/6/2
f 904/3/2 907/2/2 905/5/2
f 908/7/3 909/1/3 910/4/3
f 908/7/3 911/8/3 909/1/3
f 813/7/4 912/4/4 913/1/4
f 813/7/4 913/1/4 814/8/4
f 813/7/5 914/1/5 903/4/5
f 813/7/5 814/8/5 914/1/5
f 915/7/6 913/1/6 912/4/6
f 915/7/6 916/8/6 913/1/6
f 917/1/1 918/2/1 919/3/1
f 917/1/1 807/4/1 918/2/1
f 920/3/2 921/5/2 922/6/2
f 920/3/2 923/2/2 921/5/2
f 813/7/3 913/1/3 912/4/3
f 813/7/3 814/8/3 913/1/3
f 924/7/4 925/4/4 926/1/4
f 924/7/4 926/1/4 927/8/4
f 924/7/5 806/1/5 807/4/5
f 924/7/5 927/8/5 806/1/5
f 928/7/6 926/1/6 925/4/6
f 928/7/6 929/8/6 926/1/6
f 930/3/1 931/5/1 932/6/1
f 930/3/1 933/2/1 931/5/1
f 934/3/2 935/5/2 936/6/2
f 934/3/2 937/2/2 935/5/2
f 938/9/3 939/10/3 940/11/3
f 938/9/3 941/12/3 939/10/3
f 831/9/4 942/11/4 943/10/4
f 831/9/4 943/10/4 832/12/4
f 831/9/5 944/10/5 945/11/5
f 831/9/5 832/12/5 944/10/5
f 946/9/6 943/10/6 942/11/6
f 946/9/6 947/12/6 943/10/6
f 948/1/1 949/2/1 950/3/1
f 948/1/1 951/4/1 949/2/1
f 952/3/2 953/5/2 954/6/2
f 952/3/2 955/2/2 953/5/2
f 956/7/3 957/1/3 958/4/3
f 956/7/3 959/8/3 957/1/3
f 960/7/4 961/4/4 962/1/4
f 960/7/4 962/1/4 963/8/4
f 960/7/5 964/1/5 951/4/5
f 960/7/5 963/8/5 964/1/5
f 965/7/6 962/1/6 961/4/6
f 965/7/6 966/8/6 962/1/6
f 867/3/1 967/5/1 968/6/1
f 867/3/1 866/2/1 967/5/1
f 969/3/2 970/5/2 971/6/2
f 969/3/2 972/2/2 970/5/2
f 973/9/3 974/10/3 975/11/3
f 973/9/3 976/12/3 974/10/3
f 898/9/4 977/11/4 978/10/4
f 898/9/4 978/10/4 899/12/4
f 898/9/5 979/10/5 980/11/5
f 898/9/5 899/12/5 979/10/5
f 981/9/6 978/10/6 977/11/6
f 981/9/6 982/12/6 978/10/6
f 983/1/1 984/2/1 985/3/1
f 983/1/1 875/4/1 984/2/1
f 986/3/2 987/5/2 988/6/2
f 986/3/2 989/2/2 987/5/2
f 990/7/3 991/1/3 992/4/3
f 990/7/3 993/8/3 991/1/3
f 994/7/4 995/4/4 996/1/4
f 994/7/4 996/1/4 997/8/4
f 994/7/5 876/1/5 875/4/5
f 994/7/5 997/8/5 876/1/5
f 998/7/6 996/1/6 995/4/6
f 998/7/6 999/8/6 996/1/6
f 1000/3/1 935/5/1 1001/6/1
f 1000/3/1 937/2/1 935/5/1
f 1002/3/2 1003/5/2 1004/6/2
f 1002/3/2 1005/2/2 1003/5/2
f 1006/31/3 1007/32/3 1008/33/3
f 1006/31/3 1009/34/3 1007/32/3
f 1010/31/4 1011/33/4 1012/32/4
f 1010/31/4 1012/32/4 1013/34/4
f 1010/31/5 1014/32/5 1015/33/5
f 1010/31/5 1013/34/5 1014/32/5
f 1016/31/6 1012/32/6 1011/33/6
f 1016/31/6 1017/34/6 1012/32/6
f 1018/1/1 1019/2/1 1020/3/1
f 1018/1/1 910/4/1 1019/2/1
f 1021/3/2 1022/5/2 1023/6/2
f 1021/3/2 1024/2/2 1022/5/2
f 915/7/3 1025/1/3 1026/4/3
f 915/7/3 916/8/3 1025/1/3
f 928/7/4 1027/4/4 1028/1/4
f 928/7/4 1028/1/4 929/8/4
f 928/7/5 909/1/5 910/4/5
f 928/7/5 929/8/5 909/1/5
f 1029/7/6 1028/1/6 1027/4/6
f 1029/7/6 1030/8/6 1028/1/6
f 1031/3/1 1032/5/1 1033/6/1
f 1031/3/1 1034/2/1 1032/5/1
f 1035/3/2 1036/5/2 1037/6/2
f 1035/3/2 1038/2/2 1036/5/2
f 946/9/3 1039/10/3 1040/11/3
f 946/9/3 947/12/3 1039/10/3
f 1041/9/4 1042/11/4 1043/10/4
f 1041/9/4 1043/10/4 1044/12/4
f 1041/9/5 939/10/5 940/11/5
f 1041/9/5 1044/12/5 939/10/5
f 1045/9/6 1043/10/6 1042/11/6
f 1045/9/6 1046/12/6 1043/10/6
f 1047/1/1 1048/2/1 1049/3/1
f 1047/1/1 1050/4/1 1048/2/1
f 1051/3/2 1052/5/2 1053/6/2
f 1051/3/2 1054/2/2 1052/5/2
f 1055/7/3 1056/1/3 1057/4/3
f 1055/7/3 1058/8/3 1056/1/3
f 1059/7/4 1060/4/4 1061/1/4
f 1059/7/4 1061/1/4 1062/8/4
f 1059/7/5 1063/1/5 1050/4/5
f 1059/7/5 1062/8/5 1063/1/5
f 1064/7/6 1061/1/6 1060/4/6
f 1064/7/6 1065/8/6 1061/1/6
f 1066/1/1 1067/2/1 1068/3/1
f 1066/1/1 958/4/1 1067/2/1
f 1069/3/2 1070/5/2 1071/6/2
f 1069/3/2 1072/2/2 1070/5/2
f 965/7/3 1073/1/3 1074/4/3
f 965/7/3 966/8/3 1073/1/3
f 1075/7/4 1076/4/4 1077/1/4
f 1075/7/4 1077/1/4 1078/8/4
f 1075/7/5 957/1/5 958/4/5
f 1075/7/5 1078/8/5 957/1/5
f 1079/7/6 1077/1/6 1076/4/6
f 1079/7/6 1080/8/6 1077/1/6
f 1081/1/1 1082/2/1 1083/3/1
f 1081/1/1 992/4/1 1082/2/1
f 1084/3/2 1085/5/2 1086/6/2
f 1084/3/2 1087/2/2 1085/5/2
f 998/7/3 1088/1/3 1089/4/3
f 998/7/3 999/8/3 1088/1/3
f 1090/7/4 1091/4/4 1092/1/4
f 1090/7/4 1092/1/4 1093/8/4
f 1090/7/5 991/1/5 992/4/5
f 1090/7/5 1093/8/5 991/1/5
f 1094/7/6 1092/1/6 1091/4/6
f 1094/7/6 1095/8/6 1092/1/6
f 1096/1/1 1097/2/1 1098/3/1
f 1096/1/1 1026/4/1 1097/2/1
f 1099/3/2 1100/5/2 1101/6/2
f 1099/3/2 1102/2/2 1100/5/2
f 1029/7/3 1103/1/3 1104/4/3
f 1029/7/3 1030/8/3 1103/1/3
f 1105/7/4 1106/4/4 1107/1/4
f 1105/7/4 1107/1/4 1108/8/4
f 1105/7/5 1025/1/5 1026/4/5
f 1105/7/5 1108/8/5 1025/1/5
f 1109/7/6 1107/1/6 1106/4/6
f 1109/7/6 1110/8/6 1107/1/6
f 1111/3/1 1112/5/1 1113/6/1
f 1111/3/1 1114/2/1 1112/5/1
f 1115/3/2 1116/5/2 1117/6/2
f 1115/3/2 1118/2/2 1116/5/2
f 1119/9/3 1120/10/3 1121/11/3
f 1119/9/3 1122/12/3 1120/10/3
f 1045/9/4 1123/11/4 1124/10/4
f 1045/9/4 1124/10/4 1046/12/4
f 1045/9/5 1125/10/5 1126/11/5
f 1045/9/5 1046/12/5 1125/10/5
f 1127/9/6 1124/10/6 1123/11/6
f 1127/9/6 1128/12/6 1124/10/6
f 1129/3/1 1130/5/1 1131/6/1
f 1129/3/1 1132/2/1 1130/5/1
f 1133/3/2 1134/5/2 1135/6/2
f 1133/3/2 1136/2/2 1134/5/2
f 1045/9/3 1124/10/3 1123/11/3
f 1045/9/3 1046/12/3 1124/10/3
f 1137/9/4 1138/11/4 1139/10/4
f 1137/9/4 1139/10/4 1140/12/4
f 1137/9/5 1039/10/5 1040/11/5
f 1137/9/5 1140/12/5 1039/10/5
f 1141/9/6 1139/10/6 1138/11/6
f 1141/9/6 1142/12/6 1139/10/6
f 1049/3/1 1143/5/1 1144/6/1
f 1049/3/1 1048/2/1 1143/5/1
f 1145/3/2 1146/5/2 1147/6/2
f 1145/3/2 1148/2/2 1146/5/2
f 1137/9/3 1139/10/3 1138/11/3
f 1137/9/3 1140/12/3 1139/10/3
f 1149/9/4 1150/11/4 1151/10/4
f 1149/9/4 1151/10/4 1152/12/4
f 1149/9/5 1043/10/5 1042/11/5
f 1149/9/5 1152/12/5 1043/10/5
f 1153/9/6 1151/10/6 1150/11/6
f 1153/9/6 1154/12/6 1151/10/6
f 1155/3/1 1156/5/1 1157/6/1
f 1155/3/1 1158/2/1 1156/5/1
f 1159/3/2 1160/5/2 1161/6/2
f 1159/3/2 1162/2/2 1160/5/2
f 1163/9/3 1164/10/3 1165/11/3
f 1163/9/3 1166/12/3 1164/10/3
f 1167/9/4 1168/11/4 1169/10/4
f 1167/9/4 1169/10/4 1170/12/4
f 1167/9/5 1171/10/5 1172/11/5
f 1167/9/5 1170/12/5 1171/10/5
f 1173/9/6 1169/10/6 1168/11/6
f 1173/9/6 1174/12/6 1169/10/6
f 1175/1/1 1176/2/1 1177/3/1
f 1175/1/1 1089/4/1 1176/2/1
f 1178/3/2 1179/5/2 1180/6/2
f 1178/3/2 1181/2/2 1179/5/2
f 1094/7/3 1182/1/3 1183/4/3
f 1094/7/3 1095/8/3 1182/1/3
f 1184/7/4 1185/4/4 1186/1/4
f 1184/7/4 1186/1/4 1187/8/4
f 1184/7/5 1088/1/5 1089/4/5
f 1184/7/5 1187/8/5 1088/1/5
f 1188/7/6 1186/1/6 1185/4/6
f 1188/7/6 1189/8/6 1186/1/6
f 1190/3/1 1146/5/1 1191/6/1
f 1190/3/1 1148/2/1 1146/5/1
f 1192/3/2 1193/5/2 1194/6/2
f 1192/3/2 1195/2/2 1193/5/2
f 1196/9/3 1197/21/3 1198/11/3
f 1196/9/3 1199/22/3 1197/21/3
f 1200/9/4 1201/11/4 1202/21/4
f 1200/9/4 1202/21/4 1203/22/4
f 1200/9/5 1204/21/5 1205/11/5
f 1200/9/5 1203/22/5 1204/21/5
f 1206/9/6 1202/21/6 1201/11/6
f 1206/9/6 1207/22/6 1202/21/6
f 1208/1/1 1209/2/1 1210/3/1
f 1208/1/1 1106/4/1 1209/2/1
f 1211/3/2 1212/5/2 1213/6/2
f 1211/3/2 1214/2/2 1212/5/2
f 1215/7/3 1216/1/3 1217/4/3
f 1215/7/3 1218/8/3 1216/1/3
f 1219/7/4 1220/4/4 1221/1/4
f 1219/7/4 1221/1/4 1222/8/4
f 1219/7/5 1107/1/5 1106/4/5
f 1219/7/5 1222/8/5 1107/1/5
f 1223/7/6 1221/1/6 1220/4/6
f 1223/7/6 1224/8/6 1221/1/6
f 1225/3/1 1226/5/1 1227/6/1
f 1225/3/1 1228/2/1 1226/5/1
f 1229/3/2 1230/5/2 1231/6/2
f 1229/3/2 1232/2/2 1230/5/2
f 1228/2/3 1231/6/3 1226/5/3
f 1228/2/3 1229/3/3 1231/6/3
f 1233/2/4 1234/5/4 1235/6/4
f 1233/2/4 1235/6/4 1236/3/4
f 1233/2/5 1135/6/5 1130/5/5
f 1233/2/5 1236/3/5 1135/6/5
f 1237/2/6 1235/6/6 1234/5/6
f 1237/2/6 1238/3/6 1235/6/6
f 1239/3/1 1240/5/1 1241/6/1
f 1239/3/1 1242/2/1 1240/5/1
f 1243/3/2 1244/5/2 1245/6/2
f 1243/3/2 1246/2/2 1244/5/2
f 1247/9/3 1248/10/3 1249/11/3
f 1247/9/3 1250/12/3 1248/10/3
f 1251/9/4 1252/11/4 1253/10/4
f 1251/9/4 1253/10/4 1254/12/4
f 1251/9/5 1151/10/5 1150/11/5
f 1251/9/5 1254/12/5 1151/10/5
f 1255/9/6 1253/10/6 1252/11/6
f 1255/9/6 1256/12/6 1253/10/6
f 1257/1/1 1258/2/1 1259/3/1
f 1257/1/1 1260/4/1 1258/2/1
f 1261/3/2 1262/5/2 1263/6/2
f 1261/3/2 1264/2/2 1262/5/2
f 1265/7/3 1266/1/3 1267/4/3
f 1265/7/3 1268/8/3 1266/1/3
f 1269/7/4 1270/4/4 1271/1/4
f 1269/7/4 1271/1/4 1272/8/4
f 1269/7/5 1273/1/5 1260/4/5
f 1269/7/5 1272/8/5 1273/1/5
f 1274/7/6 1271/1/6 1270/4/6
f 1274/7/6 1275/8/6 1271/1/6
f 1276/1/1 1277/2/1 1278/3/1
f 1276/1/1 1279/4/1 1277/2/1
f 1280/3/2 1281/5/2 1282/6/2
f 1280/3/2 1283/2/2 1281/5/2
f 1284/7/3 1285/1/3 1286/4/3
f 1284/7/3 1287/8/3 1285/1/3
f 1188/7/4 1288/4/4 1289/1/4
f 1188/7/4 1289/1/4 1189/8/4
f 1188/7/5 1290/1/5 1279/4/5
f 1188/7/5 1189/8/5 1290/1/5
f 1291/7/6 1289/1/6 1288/4/6
f 1291/7/6 1292/8/6 1289/1/6
f 1177/3/1 1293/5/1 1294/6/1
f 1177/3/1 1176/2/1 1293/5/1
f 1295/3/2 1296/5/2 1297/6/2
f 1295/3/2 1298/2/2 1296/5/2
f 1299/9/3 1300/10/3 1301/11/3
f 1299/9/3 1302/12/3 1300/10/3
f 1303/9/4 1304/11/4 1305/10/4
f 1303/9/4 1305/10/4 1306/12/4
f 1303/9/5 1307/10/5 1308/11/5
f 1303/9/5 1306/12/5 1307/10/5
f 1309/9/6 1305/10/6 1304/11/6
f 1309/9/6 1310/12/6 1305/10/6
f 1311/23/1 1312/24/1 1313/25/1
f 1311/23/1 1314/26/1 1312/24/1
f 1315/23/2 1316/24/2 1317/25/2
f 1315/23/2 1318/26/2 1316/24/2
f 1314/26/3 1317/25/3 1312/24/3
f 1314/26/3 1315/23/3 1317/25/3
f 1319/26/4 1320/24/4 1321/25/4
f 1319/26/4 1321/25/4 1322/23/4
f 1319/26/5 1323/25/5 1324/24/5
f 1319/26/5 1322/23/5 1323/25/5
f 1325/26/6 1321/25/6 1320/24/6
f 1325/26/6 1326/23/6 1321/25/6
f 1327/23/1 1320/24/1 1328/25/1
f 1327/23/1 1319/26/1 1320/24/1
f 1322/23/2 1329/24/2 1321/25/2
f 1322/23/2 1330/26/2 1329/24/2
f 1319/26/3 1321/25/3 1320/24/3
f 1319/26/3 1322/23/3 1321/25/3
f 1331/26/4 1332/24/4 1333/25/4
f 1331/26/4 1333/25/4 1334/23/4
f 1331/26/5 1335/25/5 1336/24/5
f 1331/26/5 1334/23/5 1335/25/5
f 1337/26/6 1333/25/6 1332/24/6
f 1337/26/6 1338/23/6 1333/25/6
f 1339/3/1 1340/5/1 1341/6/1
f 1339/3/1 1342/2/1 1340/5/1
f 1343/3/2 1344/5/2 1345/6/2
f 1343/3/2 1346/2/2 1344/5/2
f 1342/2/3 1345/6/3 1340/5/3
f 1342/2/3 1343/3/3 1345/6/3
f 1209/2/4 1347/5/4 1348/6/4
f 1209/2/4 1348/6/4 1349/3/4
f 1209/2/5 1350/6/5 1351/5/5
f 1209/2/5 1349/3/5 1350/6/5
f 1352/2/6 1348/6/6 1347/5/6
f 1352/2/6 1353/3/6 1348/6/6
f 1210/3/1 1347/5/1 1354/6/1
f 1210/3/1 1209/2/1 1347/5/1
f 1349/3/2 1355/5/2 1348/6/2
f 1349/3/2 1356/2/2 1355/5/2
f 1209/2/3 1348/6/3 1347/5/3
f 1209/2/3 1349/3/3 1348/6/3
f 1237/2/4 1357/5/4 1358/6/4
f 1237/2/4 1358/6/4 1238/3/4
f 1237/2/5 1213/6/5 1359/5/5
f 1237/2/5 1238/3/5 1213/6/5
f 1360/2/6 1358/6/6 1357/5/6
f 1360/2/6 1361/3/6 1358/6/6
f 1362/3/1 1357/5/1 1363/6/1
f 1362/3/1 1237/2/1 1357/5/1
f 1238/3/2 1364/5/2 1358/6/2
f 1238/3/2 1365/2/2 1364/5/2
f 1366/9/3 1367/10/3 1368/11/3
f 1366/9/3 1369/12/3 1367/10/3
f 1370/9/4 1371/11/4 1372/10/4
f 1370/9/4 1372/10/4 1373/12/4
f 1370/9/5 1374/10/5 1375/11/5
f 1370/9/5 1373/12/5 1374/10/5
f 1376/9/6 1372/10/6 1371/11/6
f 1376/9/6 1377/12/6 1372/10/6
f 1378/3/1 1379/5/1 1380/6/1
f 1378/3/1 1381/2/1 1379/5/1
f 1382/3/2 1383/5/2 1384/6/2
f 1382/3/2 1385/2/2 1383/5/2
f 1370/9/3 1372/10/3 1371/11/3
f 1370/9/3 1373/12/3 1372/10/3
f 1255/9/4 1386/11/4 1387/10/4
f 1255/9/4 1387/10/4 1256/12/4
f 1255/9/5 1388/10/5 1389/11/5
f 1255/9/5 1256/12/5 1388/10/5
f 1390/9/6 1387/10/6 1386/11/6
f 1390/9/6 1391/12/6 1387/10/6
f 1392/3/1 1393/5/1 1394/6/1
f 1392/3/1 1395/2/1 1393/5/1
f 1396/3/2 1397/5/2 1398/6/2
f 1396/3/2 1399/2/2 1397/5/2
f 1255/9/3 1387/10/3 1386/11/3
f 1255/9/3 1256/12/3 1387/10/3
f 1400/9/4 1401/11/4 1402/10/4
f 1400/9/4 1402/10/4 1403/12/4
f 1400/9/5 1248/10/5 1249/11/5
f 1400/9/5 1403/12/5 1248/10/5
f 1404/9/6 1402/10/6 1401/11/6
f 1404/9/6 1405/12/6 1402/10/6
f 1259/3/1 1406/5/1 1407/6/1
f 1259/3/1 1258/2/1 1406/5/1
f 1408/3/2 1409/5/2 1410/6/2
f 1408/3/2 1411/2/2 1409/5/2
f 1400/9/3 1402/10/3 1401/11/3
f 1400/9/3 1403/12/3 1402/10/3
f 1412/9/4 1413/11/4 1414/10/4
f 1412/9/4 1414/10/4 1415/12/4
f 1412/9/5 1253/10/5 1252/11/5
f 1412/9/5 1415/12/5 1253/10/5
f 1416/9/6 1414/10/6 1413/11/6
f 1416/9/6 1417/12/6 1414/10/6
f 1418/17/1 1419/18/1 1420/19/1
f 1418/17/1 1421/20/1 1419/18/1
f 1422/17/2 1423/18/2 1424/19/2
f 1422/17/2 1425/20/2 1423/18/2
f 1421/20/3 1424/19/3 1419/18/3
f 1421/20/3 1422/17/3 1424/19/3
f 1426/20/4 1427/18/4 1428/19/4
f 1426/20/4 1428/19/4 1429/17/4
f 1426/20/5 1430/19/5 1431/18/5
f 1426/20/5 1429/17/5 1430/19/5
f 1432/20/6 1428/19/6 1427/18/6
f 1432/20/6 1433/17/6 1428/19/6
f 1434/3/1 1397/5/1 1435/6/1
f 1434/3/1 1399/2/1 1397/5/1
f 1436/3/2 1437/5/2 1438/6/2
f 1436/3/2 1439/2/2 1437/5/2
f 1440/9/3 1441/21/3 1442/11/3
f 1440/9/3 1443/22/3 1441/21/3
f 1444/9/4 1445/11/4 1446/21/4
f 1444/9/4 1446/21/4 1447/22/4
f 1444/9/5 1448/21/5 1449/11/5
f 1444/9/5 1447/22/5 1448/21/5
f 1450/9/6 1446/21/6 1445/11/6
f 1450/9/6 1451/22/6 1446/21/6
f 1452/23/1 1453/24/1 1454/25/1
f 1452/23/1 1325/26/1 1453/24/1
f 1326/23/2 1455/24/2 1456/25/2
f 1326/23/2 1457/26/2 1455/24/2
f 1325/26/3 1456/25/3 1453/24/3
f 1325/26/3 1326/23/3 1456/25/3
f 1337/26/4 1458/24/4 1459/25/4
f 1337/26/4 1459/25/4 1338/23/4
f 1337/26/5 1317/25/5 1312/24/5
f 1337/26/5 1338/23/5 1317/25/5
f 1460/26/6 1459/25/6 1458/24/6
f 1460/26/6 1461/23/6 1459/25/6
f 1462/23/1 1458/24/1 1463/25/1
f 1462/23/1 1337/26/1 1458/24/1
f 1338/23/2 1464/24/2 1459/25/2
f 1338/23/2 1465/26/2 1464/24/2
f 1337/26/3 1459/25/3 1458/24/3
f 1337/26/3 1338/23/3 1459/25/3
f 1466/26/4 1467/24/4 1468/25/4
f 1466/26/4 1468/25/4 1469/23/4
f 1466/26/5 1321/25/5 1320/24/5
f 1466/26/5 1469/23/5 1321/25/5
f 1470/26/6 1468/25/6 1467/24/6
f 1470/26/6 1471/23/6 1468/25/6
f 1472/3/1 1473/5/1 1474/6/1
f 1472/3/1 1352/2/1 1473/5/1
f 1353/3/2 1475/5/2 1476/6/2
f 1353/3/2 1477/2/2 1475/5/2
f 1352/2/3 1476/6/3 1473/5/3
f 1352/2/3 1353/3/3 1476/6/3
f 1360/2/4 1478/5/4 1479/6/4
f 1360/2/4 1479/6/4 1361/3/4
f 1360/2/5 1345/6/5 1340/5/5
f 1360/2/5 1361/3/5 1345/6/5
f 1480/2/6 1479/6/6 1478/5/6
f 1480/2/6 1481/3/6 1479/6/6
f 1482/3/1 1483/5/1 1484/6/1
f 1482/3/1 1485/2/1 1483/5/1
f 1486/3/2 1487/5/2 1488/6/2
f 1486/3/2 1489/2/2 1487/5/2
f 1376/9/3 1490/10/3 1491/11/3
f 1376/9/3 1377/12/3 1490/10/3
f 1390/9/4 1492/11/4 1493/10/4
f 1390/9/4 1493/10/4 1391/12/4
f 1390/9/5 1367/10/5 1368/11/5
f 1390/9/5 1391/12/5 1367/10/5
f 1494/9/6 1493/10/6 1492/11/6
f 1494/9/6 1495/12/6 1493/10/6
f 1496/3/1 1497/5/1 1498/6/1
f 1496/3/1 1499/2/1 1497/5/1
f 1500/3/2 1501/5/2 1502/6/2
f 1500/3/2 1503/2/2 1501/5/2
f 1404/9/3 1504/10/3 1505/11/3
f 1404/9/3 1405/12/3 1504/10/3
f 1416/9/4 1506/11/4 1507/10/4
f 1416/9/4 1507/10/4 1417/12/4
f 1416/9/5 1387/10/5 1386/11/5
f 1416/9/5 1417/12/5 1387/10/5
f 1508/9/6 1507/10/6 1506/11/6
f 1508/9/6 1509/12/6 1507/10/6
f 1510/17/1 1511/18/1 1512/19/1
f 1510/17/1 1513/20/1 1511/18/1
f 1514/17/2 1515/18/2 1516/19/2
f 1514/17/2 1517/20/2 1515/18/2
f 1513/20/3 1516/19/3 1511/18/3
f 1513/20/3 1514/17/3 1516/19/3
f 1518/20/4 1519/18/4 1520/19/4
f 1518/20/4 1520/19/4 1521/17/4
f 1518/20/5 1522/19/5 1523/18/5
f 1518/20/5 1521/17/5 1522/19/5
f 1524/20/6 1520/19/6 1519/18/6
f 1524/20/6 1525/17/6 1520/19/6
f 1526/35/1 1527/36/1 1528/37/1
f 1526/35/1 1529/38/1 1527/36/1
f 1530/35/2 1531/36/2 1532/37/2
f 1530/35/2 1533/38/2 1531/36/2
f 1529/38/3 1532/37/3 1527/36/3
f 1529/38/3 1530/35/3 1532/37/3
f 1534/38/4 1535/36/4 1536/37/4
f 1534/38/4 1536/37/4 1537/35/4
f 1534/38/5 1538/37/5 1539/36/5
f 1534/38/5 1537/35/5 1538/37/5
f 1540/38/6 1536/37/6 1535/36/6
f 1540/38/6 1541/35/6 1536/37/6
f 1542/23/1 1543/24/1 1544/25/1
f 1542/23/1 1460/26/1 1543/24/1
f 1461/23/2 1545/24/2 1546/25/2
f 1461/23/2 1547/26/2 1545/24/2
f 1460/26/3 1546/25/3 1543/24/3
f 1460/26/3 1461/23/3 1546/25/3
f 1470/26/4 1548/24/4 1549/25/4
f 1470/26/4 1549/25/4 1471/23/4
f 1470/26/5 1456/25/5 1453/24/5
f 1470/26/5 1471/23/5 1456/25/5
f 1550/26/6 1549/25/6 1548/24/6
f 1550/26/6 1551/23/6 1549/25/6
f 1552/23/1 1548/24/1 1553/25/1
f 1552/23/1 1470/26/1 1548/24/1
f 1471/23/2 1554/24/2 1549/25/2
f 1471/23/2 1555/26/2 1554/24/2
f 1470/26/3 1549/25/3 1548/24/3
f 1470/26/3 1471/23/3 1549/25/3
f 1556/26/4 1557/24/4 1558/25/4
f 1556/26/4 1558/25/4 1559/23/4
f 1556/26/5 1459/25/5 1458/24/5
f 1556/26/5 1559/23/5 1459/25/5
f 1560/26/6 1558/25/6 1557/24/6
f 1560/26/6 1561/23/6 1558/25/6
f 1562/3/1 1563/5/1 1564/6/1
f 1562/3/1 1565/2/1 1563/5/1
f 1566/3/2 1567/5/2 1568/6/2
f 1566/3/2 1569/2/2 1567/5/2
f 1565/2/3 1568/6/3 1563/5/3
f 1565/2/3 1566/3/3 1568/6/3
f 1570/2/4 1571/5/4 1572/6/4
f 1570/2/4 1572/6/4 1573/3/4
f 1570/2/5 1488/6/5 1483/5/5
f 1570/2/5 1573/3/5 1488/6/5
f 1574/2/6 1572/6/6 1571/5/6
f 1574/2/6 1575/3/6 1572/6/6
f 1576/3/1 1571/5/1 1577/6/1
f 1576/3/1 1570/2/1 1571/5/1
f 1573/3/2 1578/5/2 1572/6/2
f 1573/3/2 1579/2/2 1578/5/2
f 1570/2/3 1572/6/3 1571/5/3
f 1570/2/3 1573/3/3 1572/6/3
f 1580/2/4 1581/5/4 1582/6/4
f 1580/2/4 1582/6/4 1583/3/4
f 1580/2/5 1584/6/5 1585/5/5
f 1580/2/5 1583/3/5 1584/6/5
f 1586/2/6 1582/6/6 1581/5/6
f 1586/2/6 1587/3/6 1582/6/6
f 1588/3/1 1581/5/1 1589/6/1
f 1588/3/1 1580/2/1 1581/5/1
f 1583/3/2 1590/5/2 1582/6/2
f 1583/3/2 1591/2/2 1590/5/2
f 1580/2/3 1582/6/3 1581/5/3
f 1580/2/3 1583/3/3 1582/6/3
f 1592/2/4 1593/5/4 1594/6/4
f 1592/2/4 1594/6/4 1595/3/4
f 1592/2/5 1502/6/5 1497/5/5
f 1592/2/5 1595/3/5 1502/6/5
f 1596/2/6 1594/6/6 1593/5/6
f 1596/2/6 1597/3/6 1594/6/6
f 1598/3/1 1593/5/1 1599/6/1
f 1598/3/1 1592/2/1 1593/5/1
f 1595/3/2 1600/5/2 1594/6/2
f 1595/3/2 1601/2/2 1600/5/2
f 1602/9/3 1603/10/3 1604/11/3
f 1602/9/3 1605/12/3 1603/10/3
f 1606/9/4 1607/11/4 1608/10/4
f 1606/9/4 1608/10/4 1609/12/4
f 1606/9/5 1507/10/5 1506/11/5
f 1606/9/5 1609/12/5 1507/10/5
f 1610/9/6 1608/10/6 1607/11/6
f 1610/9/6 1611/12/6 1608/10/6
f 1612/3/1 1613/5/1 1614/6/1
f 1612/3/1 1615/2/1 1613/5/1
f 1616/3/2 1617/5/2 1618/6/2
f 1616/3/2 1619/2/2 1617/5/2
f 1615/2/3 1618/6/3 1613/5/3
f 1615/2/3 1616/3/3 1618/6/3
f 1620/2/4 1621/5/4 1622/6/4
f 1620/2/4 1622/6/4 1623/3/4
f 1620/2/5 1624/6/5 1625/5/5
f 1620/2/5 1623/3/5 1624/6/5
f 1626/2/6 1622/6/6 1621/5/6
f 1626/2/6 1627/3/6 1622/6/6
f 1628/23/1 1629/24/1 1630/25/1
f 1628/23/1 1550/26/1 1629/24/1
f 1551/23/2 1631/24/2 1632/25/2
f 1551/23/2 1633/26/2 1631/24/2
f 1550/26/3 1632/25/3 1629/24/3
f 1550/26/3 1551/23/3 1632/25/3
f 1560/26/4 1634/24/4 1635/25/4
f 1560/26/4 1635/25/4 1561/23/4
f 1560/26/5 1546/25/5 1543/24/5
f 1560/26/5 1561/23/5 1546/25/5
f 1636/26/6 1635/25/6 1634/24/6
f 1636/26/6 1637/23/6 1635/25/6
f 1638/23/1 1634/24/1 1639/25/1
f 1638/23/1 1560/26/1 1634/24/1
f 1561/23/2 1640/24/2 1635/25/2
f 1561/23/2 1641/26/2 1640/24/2
f 1560/26/3 1635/25/3 1634/24/3
f 1560/26/3 1561/23/3 1635/25/3
f 1642/26/4 1643/24/4 1644/25/4
f 1642/26/4 1644/25/4 1645/23/4
f 1642/26/5 1549/25/5 1548/24/5
f 1642/26/5 1645/23/5 1549/25/5
f 1646/26/6 1644/25/6 1643/24/6
f 1646/26/6 1647/23/6 1644/25/6
f 1648/3/1 1649/5/1 1650/6/1
f 1648/3/1 1574/2/1 1649/5/1
f 1575/3/2 1651/5/2 1652/6/2
f 1575/3/2 1653/2/2 1651/5/2
f 1574/2/3 1652/6/3 1649/5/3
f 1574/2/3 1575/3/3 1652/6/3
f 1586/2/4 1654/5/4 1655/6/4
f 1586/2/4 1655/6/4 1587/3/4
f 1586/2/5 1568/6/5 1563/5/5
f 1586/2/5 1587/3/5 1568/6/5
f 1656/2/6 1655/6/6 1654/5/6
f 1656/2/6 1657/3/6 1655/6/6
f 1658/3/1 1654/5/1 1659/6/1
f 1658/3/1 1586/2/1 1654/5/1
f 1587/3/2 1660/5/2 1655/6/2
f 1587/3/2 1661/2/2 1660/5/2
f 1586/2/3 1655/6/3 1654/5/3
f 1586/2/3 1587/3/3 1655/6/3
f 1596/2/4 1662/5/4 1663/6/4
f 1596/2/4 1663/6/4 1597/3/4
f 1596/2/5 1572/6/5 1571/5/5
f 1596/2/5 1597/3/5 1572/6/5
f 1664/2/6 1663/6/6 1662/5/6
f 1664/2/6 1665/3/6 1663/6/6
f 1666/3/1 1662/5/1 1667/6/1
f 1666/3/1 1596/2/1 1662/5/1
f 1597/3/2 1668/5/2 1663/6/2
f 1597/3/2 1669/2/2 1668/5/2
f 1670/9/3 1671/10/3 1672/11/3
f 1670/9/3 1673/12/3 1671/10/3
f 1610/9/4 1674/11/4 1675/10/4
f 1610/9/4 1675/10/4 1611/12/4
f 1610/9/5 1676/10/5 1677/11/5
f 1610/9/5 1611/12/5 1676/10/5
f 1678/9/6 1675/10/6 1674/11/6
f 1678/9/6 1679/12/6 1675/10/6
f 1680/3/1 1681/5/1 1682/6/1
f 1680/3/1 1683/2/1 1681/5/1
f 1684/3/2 1685/5/2 1686/6/2
f 1684/3/2 1687/2/2 1685/5/2
f 1683/2/3 1686/6/3 1681/5/3
f 1683/2/3 1684/3/3 1686/6/3
f 1688/2/4 1689/5/4 1690/6/4
f 1688/2/4 1690/6/4 1691/3/4
f 1688/2/5 1594/6/5 1593/5/5
f 1688/2/5 1691/3/5 1594/6/5
f 1692/2/6 1690/6/6 1689/5/6
f 1692/2/6 1693/3/6 1690/6/6
f 1694/3/1 1689/5/1 1695/6/1
f 1694/3/1 1688/2/1 1689/5/1
f 1691/3/2 1696/5/2 1690/6/2
f 1691/3/2 1697/2/2 1696/5/2
f 1688/2/3 1690/6/3 1689/5/3
f 1688/2/3 1691/3/3 1690/6/3
f 1698/2/4 1699/5/4 1700/6/4
f 1698/2/4 1700/6/4 1701/3/4
f 1698/2/5 1702/6/5 1703/5/5
f 1698/2/5 1701/3/5 1702/6/5
f 1704/2/6 1700/6/6 1699/5/6
f 1704/2/6 1705/3/6 1700/6/6
f 1706/3/1 1699/5/1 1707/6/1
f 1706/3/1 1698/2/1 1699/5/1
f 1701/3/2 1708/5/2 1700/6/2
f 1701/3/2 1709/2/2 1708/5/2
f 1698/2/3 1700/6/3 1699/5/3
f 1698/2/3 1701/3/3 1700/6/3
f 1626/2/4 1710/5/4 1711/6/4
f 1626/2/4 1711/6/4 1627/3/4
f 1626/2/5 1712/6/5 1713/5/5
f 1626/2/5 1627/3/5 1712/6/5
f 1714/2/6 1711/6/6 1710/5/6
f 1714/2/6 1715/3/6 1711/6/6
f 1716/3/1 1710/5/1 1717/6/1
f 1716/3/1 1626/2/1 1710/5/1
f 1627/3/2 1718/5/2 1711/6/2
f 1627/3/2 1719/2/2 1718/5/2
f 1720/9/3 1721/10/3 1722/11/3
f 1720/9/3 1723/12/3 1721/10/3
f 1724/9/4 1725/11/4 1726/10/4
f 1724/9/4 1726/10/4 1727/12/4
f 1724/9/5 1728/10/5 1729/11/5
f 1724/9/5 1727/12/5 1728/10/5
f 1730/9/6 1726/10/6 1725/11/6
f 1730/9/6 1731/12/6 1726/10/6
# Vertices: 1731, normals: 6, texture coordinates: 38, faces: 1368

