# File generated by ImageToStl.com - Free Image and 3D model conversion tools

mtllib spire_fragment.mtl

o obj1
v -0.5 -0.5 0.5
v 0.5 -0.5 -0.5
v 0.5 -0.5 0.5
v -0.5 -0.5 -0.5
v -0.5 0.5 -0.5
v 0.5 0.5 0.5
v 0.5 0.5 -0.5
v -0.5 0.5 0.5
v -0.5 -0.5 -0.5
v 0.5 0.5 -0.5
v 0.5 -0.5 -0.5
v -0.5 0.5 -0.5
v -0.5 -0.5 0.5
v 0.5 -0.5 0.5
v 0.5 0.5 0.5
v -0.5 0.5 0.5
v -0.5 0.5 -0.5
v -0.5 -0.5 -0.5
v 0.5 -0.5 -0.5
v 0.5 0.5 -0.5
v -0.5 -0.5 1.5
v 0.5 -0.5 0.5
v 0.5 -0.5 1.5
v -0.5 -0.5 0.5
v -0.5 0.5 0.5
v 0.5 0.5 1.5
v 0.5 0.5 0.5
v -0.5 0.5 1.5
v -0.5 -0.5 1.5
v 0.5 -0.5 1.5
v 0.5 0.5 1.5
v -0.5 0.5 1.5
v -0.5 0.5 0.5
v -0.5 -0.5 0.5
v 0.5 -0.5 0.5
v 0.5 0.5 0.5
v -0.5 -0.5 2.5
v 0.5 -0.5 1.5
v 0.5 -0.5 2.5
v -0.5 -0.5 1.5
v -0.5 0.5 1.5
v 0.5 0.5 2.5
v 0.5 0.5 1.5
v -0.5 0.5 2.5
v -0.5 -0.5 2.5
v 0.5 -0.5 2.5
v 0.5 0.5 2.5
v -0.5 0.5 2.5
v -0.5 0.5 1.5
v -0.5 -0.5 1.5
v 0.5 -0.5 1.5
v 0.5 0.5 1.5
v -0.5 7.5 0.5
v 0.5 7.5 -0.5
v 0.5 7.5 0.5
v -0.5 7.5 -0.5
v -0.5 8.5 -0.5
v 0.5 8.5 0.5
v 0.5 8.5 -0.5
v -0.5 8.5 0.5
v -0.5 7.5 0.5
v 0.5 7.5 0.5
v 0.5 8.5 0.5
v -0.5 8.5 0.5
v -0.5 8.5 -0.5
v -0.5 7.5 -0.5
v 0.5 7.5 -0.5
v 0.5 8.5 -0.5
v -0.5 7.5 1.5
v 0.5 7.5 0.5
v 0.5 7.5 1.5
v -0.5 7.5 0.5
v -0.5 8.5 0.5
v 0.5 8.5 1.5
v 0.5 8.5 0.5
v -0.5 8.5 1.5
v -0.5 7.5 0.5
v 0.5 8.5 0.5
v 0.5 7.5 0.5
v -0.5 8.5 0.5
v -0.5 7.5 1.5
v 0.5 7.5 1.5
v 0.5 8.5 1.5
v -0.5 8.5 1.5
v -0.5 8.5 0.5
v -0.5 7.5 0.5
v 0.5 7.5 0.5
v 0.5 8.5 0.5
v -0.5 9.5 0.5
v 0.5 9.5 -0.5
v 0.5 9.5 0.5
v -0.5 9.5 -0.5
v -0.5 10.5 -0.5
v 0.5 10.5 0.5
v 0.5 10.5 -0.5
v -0.5 10.5 0.5
v -0.5 9.5 -0.5
v 0.5 10.5 -0.5
v 0.5 9.5 -0.5
v -0.5 10.5 -0.5
v -0.5 9.5 0.5
v 0.5 9.5 0.5
v 0.5 10.5 0.5
v -0.5 10.5 0.5
v -0.5 9.5 0.5
v -0.5 10.5 0.5
v 0.5 -0.5 0.5
v 1.5 -0.5 -0.5
v 1.5 -0.5 0.5
v 0.5 -0.5 -0.5
v 0.5 0.5 -0.5
v 1.5 0.5 0.5
v 1.5 0.5 -0.5
v 0.5 0.5 0.5
v 1.5 0.5 -0.5
v 1.5 -0.5 -0.5
v 1.5 -0.5 0.5
v 1.5 0.5 0.5
v 1.5 -0.5 -0.5
v 1.5 0.5 -0.5
v 0.5 -0.5 1.5
v 1.5 -0.5 0.5
v 1.5 -0.5 1.5
v 0.5 -0.5 0.5
v 0.5 0.5 0.5
v 1.5 0.5 1.5
v 1.5 0.5 0.5
v 0.5 0.5 1.5
v 1.5 -0.5 1.5
v 1.5 0.5 1.5
v 1.5 -0.5 0.5
v 1.5 0.5 0.5
v 0.5 0.5 0.5
v 1.5 0.5 -0.5
v 1.5 0.5 0.5
v 0.5 0.5 -0.5
v 0.5 1.5 -0.5
v 1.5 1.5 0.5
v 1.5 1.5 -0.5
v 0.5 1.5 0.5
v 0.5 0.5 -0.5
v 1.5 1.5 -0.5
v 1.5 0.5 -0.5
v 0.5 1.5 -0.5
v 0.5 0.5 0.5
v 1.5 0.5 0.5
v 1.5 1.5 0.5
v 0.5 1.5 0.5
v 0.5 1.5 -0.5
v 1.5 0.5 -0.5
v 1.5 1.5 -0.5
v 0.5 0.5 1.5
v 1.5 0.5 1.5
v 0.5 1.5 0.5
v 1.5 1.5 1.5
v 1.5 1.5 0.5
v 0.5 1.5 1.5
v 0.5 0.5 0.5
v 1.5 1.5 0.5
v 1.5 0.5 0.5
v 0.5 1.5 0.5
v 0.5 0.5 1.5
v 1.5 0.5 1.5
v 1.5 1.5 1.5
v 0.5 1.5 1.5
v 0.5 1.5 0.5
v 0.5 0.5 0.5
v 1.5 0.5 0.5
v 1.5 1.5 0.5
v 0.5 1.5 0.5
v 1.5 1.5 -0.5
v 1.5 1.5 0.5
v 0.5 1.5 -0.5
v 0.5 2.5 -0.5
v 1.5 2.5 0.5
v 1.5 2.5 -0.5
v 0.5 2.5 0.5
v 0.5 1.5 -0.5
v 1.5 2.5 -0.5
v 1.5 1.5 -0.5
v 0.5 2.5 -0.5
v 0.5 1.5 0.5
v 1.5 1.5 0.5
v 1.5 2.5 0.5
v 0.5 2.5 0.5
v 0.5 2.5 -0.5
v 1.5 1.5 -0.5
v 1.5 2.5 -0.5
v 0.5 2.5 0.5
v 1.5 2.5 -0.5
v 1.5 2.5 0.5
v 0.5 2.5 -0.5
v 0.5 3.5 -0.5
v 1.5 3.5 0.5
v 1.5 3.5 -0.5
v 0.5 3.5 0.5
v 0.5 2.5 -0.5
v 1.5 3.5 -0.5
v 1.5 2.5 -0.5
v 0.5 3.5 -0.5
v 0.5 2.5 0.5
v 1.5 2.5 0.5
v 1.5 3.5 0.5
v 0.5 3.5 0.5
v 0.5 3.5 -0.5
v 0.5 2.5 -0.5
v 1.5 2.5 -0.5
v 1.5 3.5 -0.5
v 0.5 3.5 0.5
v 1.5 3.5 -0.5
v 1.5 3.5 0.5
v 0.5 3.5 -0.5
v 0.5 4.5 -0.5
v 1.5 4.5 0.5
v 1.5 4.5 -0.5
v 0.5 4.5 0.5
v 0.5 3.5 -0.5
v 1.5 4.5 -0.5
v 1.5 3.5 -0.5
v 0.5 4.5 -0.5
v 0.5 3.5 0.5
v 1.5 3.5 0.5
v 1.5 4.5 0.5
v 0.5 4.5 0.5
v 0.5 4.5 -0.5
v 1.5 3.5 -0.5
v 1.5 4.5 -0.5
v 0.5 4.5 0.5
v 1.5 4.5 -0.5
v 1.5 4.5 0.5
v 0.5 4.5 -0.5
v 0.5 5.5 -0.5
v 1.5 5.5 0.5
v 1.5 5.5 -0.5
v 0.5 5.5 0.5
v 0.5 4.5 -0.5
v 1.5 5.5 -0.5
v 1.5 4.5 -0.5
v 0.5 5.5 -0.5
v 0.5 4.5 0.5
v 1.5 4.5 0.5
v 1.5 5.5 0.5
v 0.5 5.5 0.5
v 0.5 5.5 -0.5
v 1.5 4.5 -0.5
v 1.5 5.5 -0.5
v 0.5 5.5 0.5
v 1.5 5.5 -0.5
v 1.5 5.5 0.5
v 0.5 5.5 -0.5
v 0.5 6.5 -0.5
v 1.5 6.5 0.5
v 1.5 6.5 -0.5
v 0.5 6.5 0.5
v 0.5 5.5 -0.5
v 1.5 6.5 -0.5
v 1.5 5.5 -0.5
v 0.5 6.5 -0.5
v 0.5 5.5 0.5
v 1.5 5.5 0.5
v 1.5 6.5 0.5
v 0.5 6.5 0.5
v 0.5 6.5 -0.5
v 1.5 5.5 -0.5
v 1.5 6.5 -0.5
v 0.5 5.5 1.5
v 1.5 5.5 0.5
v 1.5 5.5 1.5
v 0.5 5.5 0.5
v 0.5 6.5 0.5
v 1.5 6.5 1.5
v 1.5 6.5 0.5
v 0.5 6.5 1.5
v 0.5 5.5 1.5
v 1.5 5.5 1.5
v 1.5 6.5 1.5
v 0.5 6.5 1.5
v 0.5 6.5 0.5
v 1.5 5.5 0.5
v 1.5 6.5 0.5
v 0.5 6.5 0.5
v 1.5 6.5 -0.5
v 1.5 6.5 0.5
v 0.5 6.5 -0.5
v 0.5 7.5 -0.5
v 1.5 7.5 0.5
v 1.5 7.5 -0.5
v 0.5 7.5 0.5
v 0.5 6.5 -0.5
v 1.5 7.5 -0.5
v 1.5 6.5 -0.5
v 0.5 7.5 -0.5
v 0.5 6.5 0.5
v 1.5 6.5 0.5
v 1.5 7.5 0.5
v 0.5 7.5 0.5
v 0.5 6.5 0.5
v 0.5 7.5 0.5
v 0.5 6.5 1.5
v 1.5 6.5 0.5
v 1.5 6.5 1.5
v 0.5 6.5 0.5
v 0.5 7.5 0.5
v 1.5 7.5 1.5
v 1.5 7.5 0.5
v 0.5 7.5 1.5
v 0.5 6.5 0.5
v 1.5 7.5 0.5
v 1.5 6.5 0.5
v 0.5 7.5 0.5
v 0.5 6.5 1.5
v 1.5 6.5 1.5
v 1.5 7.5 1.5
v 0.5 7.5 1.5
v 0.5 7.5 0.5
v 1.5 6.5 0.5
v 1.5 7.5 0.5
v 1.5 7.5 -0.5
v 0.5 7.5 -0.5
v 0.5 8.5 -0.5
v 1.5 8.5 0.5
v 1.5 8.5 -0.5
v 0.5 8.5 0.5
v 0.5 7.5 -0.5
v 1.5 8.5 -0.5
v 1.5 7.5 -0.5
v 0.5 8.5 -0.5
v 1.5 7.5 0.5
v 1.5 8.5 0.5
v 0.5 8.5 -0.5
v 0.5 7.5 -0.5
v 1.5 7.5 -0.5
v 1.5 8.5 -0.5
v 0.5 7.5 1.5
v 1.5 7.5 0.5
v 1.5 7.5 1.5
v 0.5 7.5 0.5
v 0.5 8.5 0.5
v 1.5 8.5 1.5
v 1.5 8.5 0.5
v 0.5 8.5 1.5
v 0.5 7.5 0.5
v 1.5 8.5 0.5
v 1.5 7.5 0.5
v 0.5 8.5 0.5
v 0.5 7.5 1.5
v 1.5 7.5 1.5
v 1.5 8.5 1.5
v 0.5 8.5 1.5
v 0.5 8.5 0.5
v 1.5 7.5 0.5
v 1.5 8.5 0.5
v 0.5 7.5 2.5
v 1.5 7.5 1.5
v 1.5 7.5 2.5
v 0.5 7.5 1.5
v 0.5 8.5 1.5
v 1.5 8.5 2.5
v 1.5 8.5 1.5
v 0.5 8.5 2.5
v 0.5 7.5 2.5
v 1.5 7.5 2.5
v 1.5 8.5 2.5
v 0.5 8.5 2.5
v 0.5 8.5 1.5
v 1.5 7.5 1.5
v 1.5 8.5 1.5
v 1.5 8.5 -0.5
v 0.5 8.5 -0.5
v 0.5 9.5 -0.5
v 1.5 9.5 0.5
v 1.5 9.5 -0.5
v 0.5 9.5 0.5
v 0.5 8.5 -0.5
v 1.5 9.5 -0.5
v 1.5 8.5 -0.5
v 0.5 9.5 -0.5
v 0.5 8.5 0.5
v 1.5 8.5 0.5
v 1.5 9.5 0.5
v 0.5 9.5 0.5
v 0.5 9.5 -0.5
v 0.5 8.5 -0.5
v 1.5 8.5 -0.5
v 1.5 9.5 -0.5
v 1.5 8.5 0.5
v 1.5 8.5 1.5
v 0.5 8.5 0.5
v 0.5 9.5 0.5
v 1.5 9.5 1.5
v 1.5 9.5 0.5
v 0.5 9.5 1.5
v 0.5 8.5 0.5
v 1.5 9.5 0.5
v 1.5 8.5 0.5
v 0.5 9.5 0.5
v 0.5 8.5 1.5
v 1.5 8.5 1.5
v 1.5 9.5 1.5
v 0.5 9.5 1.5
v 0.5 9.5 0.5
v 1.5 8.5 0.5
v 1.5 9.5 0.5
v 0.5 8.5 2.5
v 1.5 8.5 1.5
v 1.5 8.5 2.5
v 0.5 8.5 1.5
v 0.5 9.5 1.5
v 1.5 9.5 2.5
v 1.5 9.5 1.5
v 0.5 9.5 2.5
v 0.5 8.5 2.5
v 1.5 8.5 2.5
v 1.5 9.5 2.5
v 0.5 9.5 2.5
v 0.5 9.5 1.5
v 0.5 8.5 1.5
v 1.5 8.5 1.5
v 1.5 9.5 1.5
v 0.5 9.5 0.5
v 1.5 9.5 -0.5
v 1.5 9.5 0.5
v 1.5 10.5 0.5
v 1.5 10.5 -0.5
v 0.5 10.5 0.5
v 1.5 10.5 -0.5
v 1.5 9.5 -0.5
v 0.5 9.5 0.5
v 1.5 9.5 0.5
v 1.5 10.5 0.5
v 0.5 10.5 0.5
v 0.5 9.5 1.5
v 1.5 9.5 0.5
v 1.5 9.5 1.5
v 0.5 9.5 0.5
v 0.5 10.5 0.5
v 1.5 10.5 1.5
v 1.5 10.5 0.5
v 0.5 10.5 1.5
v 0.5 9.5 0.5
v 1.5 10.5 0.5
v 1.5 9.5 0.5
v 0.5 10.5 0.5
v 0.5 9.5 1.5
v 1.5 9.5 1.5
v 1.5 10.5 1.5
v 0.5 10.5 1.5
v 0.5 10.5 0.5
v 1.5 9.5 0.5
v 1.5 10.5 0.5
v 0.5 9.5 2.5
v 1.5 9.5 1.5
v 1.5 9.5 2.5
v 0.5 9.5 1.5
v 0.5 10.5 1.5
v 1.5 10.5 2.5
v 1.5 10.5 1.5
v 0.5 10.5 2.5
v 0.5 9.5 2.5
v 1.5 9.5 2.5
v 1.5 10.5 2.5
v 0.5 10.5 2.5
v 0.5 10.5 1.5
v 1.5 9.5 1.5
v 1.5 10.5 1.5
v 1.5 10.5 -0.5
v 0.5 10.5 -0.5
v 0.5 11.5 -0.5
v 1.5 11.5 0.5
v 1.5 11.5 -0.5
v 0.5 11.5 0.5
v 0.5 10.5 -0.5
v 1.5 11.5 -0.5
v 1.5 10.5 -0.5
v 0.5 11.5 -0.5
v 1.5 11.5 0.5
v 0.5 11.5 0.5
v 0.5 11.5 0.5
v 0.5 11.5 0.5
v 1.5 11.5 -0.5
v 1.5 11.5 0.5
v 0.5 11.5 -0.5
v 0.5 12.5 -0.5
v 1.5 12.5 0.5
v 1.5 12.5 -0.5
v 0.5 12.5 0.5
v 0.5 11.5 -0.5
v 1.5 12.5 -0.5
v 1.5 11.5 -0.5
v 0.5 12.5 -0.5
v 0.5 11.5 0.5
v 1.5 11.5 0.5
v 1.5 12.5 0.5
v 0.5 12.5 0.5
v 0.5 12.5 -0.5
v 1.5 11.5 -0.5
v 1.5 12.5 -0.5
v 0.5 12.5 0.5
v 1.5 12.5 -0.5
v 1.5 12.5 0.5
v 0.5 12.5 -0.5
v 0.5 13.5 -0.5
v 1.5 13.5 0.5
v 1.5 13.5 -0.5
v 0.5 13.5 0.5
v 0.5 12.5 -0.5
v 1.5 13.5 -0.5
v 1.5 12.5 -0.5
v 0.5 13.5 -0.5
v 0.5 12.5 0.5
v 1.5 12.5 0.5
v 1.5 13.5 0.5
v 0.5 13.5 0.5
v 0.5 13.5 -0.5
v 0.5 12.5 -0.5
v 1.5 12.5 -0.5
v 1.5 13.5 -0.5
v 1.5 -0.5 1.5
v 2.5 -0.5 0.5
v 2.5 -0.5 1.5
v 1.5 -0.5 0.5
v 2.5 0.5 1.5
v 2.5 0.5 0.5
v 1.5 0.5 1.5
v 2.5 0.5 0.5
v 2.5 -0.5 0.5
v 1.5 -0.5 1.5
v 2.5 -0.5 1.5
v 2.5 0.5 1.5
v 1.5 0.5 1.5
v 2.5 -0.5 0.5
v 2.5 0.5 0.5
v 1.5 -0.5 2.5
v 2.5 -0.5 1.5
v 2.5 -0.5 2.5
v 1.5 -0.5 1.5
v 1.5 0.5 1.5
v 2.5 0.5 2.5
v 2.5 0.5 1.5
v 1.5 0.5 2.5
v 1.5 -0.5 2.5
v 2.5 -0.5 2.5
v 2.5 0.5 2.5
v 1.5 0.5 2.5
v 2.5 -0.5 1.5
v 2.5 0.5 1.5
v 1.5 0.5 1.5
v 2.5 0.5 0.5
v 2.5 0.5 1.5
v 2.5 1.5 1.5
v 2.5 1.5 0.5
v 1.5 1.5 1.5
v 1.5 0.5 0.5
v 2.5 1.5 0.5
v 2.5 0.5 0.5
v 1.5 1.5 0.5
v 1.5 0.5 1.5
v 2.5 0.5 1.5
v 2.5 1.5 1.5
v 1.5 1.5 1.5
v 2.5 0.5 0.5
v 2.5 1.5 0.5
v 1.5 1.5 1.5
v 2.5 1.5 0.5
v 2.5 1.5 1.5
v 1.5 1.5 0.5
v 1.5 2.5 0.5
v 2.5 2.5 1.5
v 2.5 2.5 0.5
v 1.5 2.5 1.5
v 2.5 2.5 1.5
v 1.5 2.5 1.5
v 2.5 1.5 0.5
v 2.5 2.5 0.5
v 1.5 2.5 1.5
v 2.5 2.5 0.5
v 2.5 2.5 1.5
v 1.5 2.5 0.5
v 2.5 3.5 1.5
v 2.5 3.5 0.5
v 1.5 3.5 1.5
v 1.5 2.5 0.5
v 2.5 3.5 0.5
v 2.5 2.5 0.5
v 1.5 3.5 0.5
v 1.5 2.5 1.5
v 2.5 2.5 1.5
v 2.5 3.5 1.5
v 1.5 3.5 1.5
v 1.5 3.5 0.5
v 2.5 2.5 0.5
v 2.5 3.5 0.5
v 1.5 3.5 1.5
v 2.5 3.5 0.5
v 2.5 3.5 1.5
v 2.5 4.5 1.5
v 2.5 4.5 0.5
v 1.5 4.5 1.5
v 1.5 3.5 0.5
v 2.5 4.5 0.5
v 2.5 3.5 0.5
v 1.5 4.5 0.5
v 1.5 3.5 1.5
v 2.5 3.5 1.5
v 2.5 4.5 1.5
v 1.5 4.5 1.5
v 2.5 3.5 0.5
v 2.5 4.5 0.5
v 1.5 4.5 1.5
v 2.5 4.5 0.5
v 2.5 4.5 1.5
v 2.5 5.5 1.5
v 2.5 5.5 0.5
v 1.5 5.5 1.5
v 1.5 4.5 0.5
v 2.5 5.5 0.5
v 2.5 4.5 0.5
v 1.5 5.5 0.5
v 1.5 4.5 1.5
v 2.5 4.5 1.5
v 2.5 5.5 1.5
v 1.5 5.5 1.5
v 2.5 4.5 0.5
v 2.5 5.5 0.5
v 1.5 5.5 1.5
v 2.5 5.5 0.5
v 2.5 5.5 1.5
v 1.5 6.5 0.5
v 2.5 6.5 1.5
v 2.5 6.5 0.5
v 1.5 6.5 1.5
v 2.5 6.5 0.5
v 2.5 5.5 0.5
v 1.5 5.5 1.5
v 2.5 5.5 1.5
v 2.5 6.5 1.5
v 1.5 6.5 1.5
v 2.5 5.5 0.5
v 2.5 6.5 0.5
v 2.5 6.5 0.5
v 2.5 6.5 1.5
v 1.5 7.5 0.5
v 2.5 7.5 1.5
v 2.5 7.5 0.5
v 2.5 7.5 0.5
v 2.5 6.5 0.5
v 1.5 6.5 1.5
v 2.5 6.5 1.5
v 2.5 7.5 1.5
v 1.5 7.5 1.5
v 2.5 6.5 0.5
v 2.5 7.5 0.5
v 2.5 7.5 0.5
v 2.5 7.5 1.5
v 1.5 8.5 0.5
v 2.5 8.5 1.5
v 2.5 8.5 0.5
v 1.5 8.5 1.5
v 2.5 8.5 0.5
v 2.5 7.5 0.5
v 2.5 7.5 1.5
v 2.5 8.5 1.5
v 2.5 7.5 0.5
v 2.5 8.5 0.5
v 1.5 7.5 2.5
v 2.5 7.5 1.5
v 2.5 7.5 2.5
v 1.5 7.5 1.5
v 1.5 8.5 1.5
v 2.5 8.5 2.5
v 2.5 8.5 1.5
v 1.5 8.5 2.5
v 1.5 7.5 1.5
v 2.5 8.5 1.5
v 2.5 7.5 1.5
v 1.5 8.5 1.5
v 1.5 7.5 2.5
v 2.5 7.5 2.5
v 2.5 8.5 2.5
v 1.5 8.5 2.5
v 1.5 7.5 2.5
v 1.5 8.5 2.5
v 2.5 8.5 0.5
v 2.5 8.5 1.5
v 1.5 9.5 0.5
v 2.5 9.5 1.5
v 2.5 9.5 0.5
v 2.5 9.5 0.5
v 2.5 8.5 0.5
v 1.5 8.5 1.5
v 2.5 8.5 1.5
v 2.5 9.5 1.5
v 1.5 9.5 1.5
v 2.5 8.5 0.5
v 2.5 9.5 0.5
v 2.5 8.5 1.5
v 2.5 8.5 2.5
v 2.5 9.5 2.5
v 2.5 9.5 1.5
v 1.5 9.5 2.5
v 1.5 8.5 2.5
v 2.5 8.5 2.5
v 2.5 9.5 2.5
v 1.5 9.5 2.5
v 2.5 8.5 1.5
v 2.5 9.5 1.5
v 2.5 9.5 0.5
v 2.5 9.5 1.5
v 1.5 10.5 0.5
v 2.5 10.5 1.5
v 2.5 10.5 0.5
v 1.5 10.5 1.5
v 2.5 10.5 0.5
v 2.5 9.5 0.5
v 2.5 9.5 1.5
v 2.5 10.5 1.5
v 2.5 9.5 0.5
v 2.5 10.5 0.5
v 2.5 9.5 2.5
v 1.5 10.5 1.5
v 2.5 10.5 2.5
v 2.5 10.5 1.5
v 1.5 10.5 2.5
v 1.5 9.5 1.5
v 2.5 10.5 1.5
v 2.5 9.5 1.5
v 1.5 10.5 1.5
v 1.5 9.5 2.5
v 2.5 9.5 2.5
v 2.5 10.5 2.5
v 1.5 10.5 2.5
v 1.5 10.5 1.5
v 1.5 9.5 1.5
v 2.5 9.5 1.5
v 2.5 10.5 1.5
v 2.5 10.5 0.5
v 2.5 10.5 1.5
v 1.5 10.5 0.5
v 2.5 11.5 1.5
v 2.5 11.5 0.5
v 1.5 11.5 1.5
v 1.5 10.5 0.5
v 2.5 11.5 0.5
v 2.5 10.5 0.5
v 1.5 11.5 0.5
v 1.5 10.5 1.5
v 2.5 10.5 1.5
v 2.5 11.5 1.5
v 1.5 11.5 1.5
v 1.5 11.5 0.5
v 2.5 10.5 0.5
v 2.5 11.5 0.5
v 1.5 11.5 1.5
v 2.5 11.5 0.5
v 2.5 11.5 1.5
v 1.5 12.5 0.5
v 2.5 12.5 1.5
v 2.5 12.5 0.5
v 1.5 12.5 1.5
v 1.5 11.5 0.5
v 2.5 12.5 0.5
v 2.5 11.5 0.5
v 1.5 12.5 0.5
v 1.5 11.5 1.5
v 2.5 11.5 1.5
v 2.5 12.5 1.5
v 1.5 12.5 1.5
v 2.5 11.5 0.5
v 2.5 12.5 0.5
v 2.5 12.5 -0.5
v 1.5 12.5 -0.5
v 1.5 13.5 -0.5
v 2.5 13.5 0.5
v 2.5 13.5 -0.5
v 1.5 13.5 0.5
v 2.5 13.5 -0.5
v 2.5 12.5 -0.5
v 1.5 12.5 0.5
v 2.5 12.5 0.5
v 2.5 13.5 0.5
v 1.5 13.5 0.5
v 2.5 12.5 -0.5
v 2.5 13.5 -0.5
v 1.5 12.5 1.5
v 2.5 12.5 0.5
v 2.5 12.5 1.5
v 1.5 12.5 0.5
v 1.5 13.5 0.5
v 2.5 13.5 1.5
v 2.5 13.5 0.5
v 1.5 13.5 1.5
v 1.5 12.5 0.5
v 2.5 13.5 0.5
v 2.5 12.5 0.5
v 1.5 13.5 0.5
v 1.5 12.5 1.5
v 2.5 12.5 1.5
v 2.5 13.5 1.5
v 1.5 13.5 1.5
v 1.5 13.5 0.5
v 2.5 12.5 0.5
v 2.5 13.5 0.5
v 1.5 13.5 0.5
v 2.5 13.5 -0.5
v 2.5 13.5 0.5
v 1.5 13.5 -0.5
v 1.5 14.5 -0.5
v 2.5 14.5 0.5
v 2.5 14.5 -0.5
v 1.5 14.5 0.5
v 1.5 13.5 0.5
v 2.5 13.5 0.5
v 2.5 14.5 0.5
v 1.5 14.5 0.5
v 1.5 14.5 -0.5
v 1.5 13.5 -0.5
v 2.5 13.5 -0.5
v 2.5 14.5 -0.5
v 2.5 -0.5 0.5
v 3.5 -0.5 -0.5
v 3.5 -0.5 0.5
v 2.5 -0.5 -0.5
v 2.5 0.5 -0.5
v 3.5 0.5 0.5
v 3.5 0.5 -0.5
v 2.5 -0.5 -0.5
v 3.5 0.5 -0.5
v 3.5 -0.5 -0.5
v 2.5 0.5 -0.5
v 3.5 -0.5 0.5
v 3.5 0.5 0.5
v 2.5 0.5 -0.5
v 2.5 -0.5 -0.5
v 3.5 -0.5 -0.5
v 3.5 0.5 -0.5
v 2.5 -0.5 1.5
v 3.5 -0.5 0.5
v 3.5 -0.5 1.5
v 2.5 -0.5 0.5
v 2.5 0.5 0.5
v 3.5 0.5 1.5
v 3.5 0.5 0.5
v 2.5 0.5 1.5
v 3.5 -0.5 1.5
v 3.5 0.5 1.5
v 3.5 -0.5 0.5
v 3.5 0.5 0.5
v 2.5 0.5 0.5
v 3.5 0.5 -0.5
v 3.5 0.5 0.5
v 2.5 0.5 -0.5
v 2.5 1.5 -0.5
v 3.5 1.5 0.5
v 3.5 1.5 -0.5
v 2.5 1.5 0.5
v 2.5 0.5 0.5
v 3.5 0.5 0.5
v 3.5 1.5 0.5
v 2.5 1.5 0.5
v 2.5 1.5 -0.5
v 2.5 0.5 -0.5
v 3.5 0.5 -0.5
v 3.5 1.5 -0.5
v 2.5 0.5 1.5
v 3.5 0.5 0.5
v 3.5 0.5 1.5
v 2.5 1.5 0.5
v 3.5 1.5 1.5
v 3.5 1.5 0.5
v 2.5 1.5 1.5
v 3.5 1.5 0.5
v 3.5 0.5 0.5
v 2.5 0.5 1.5
v 3.5 0.5 1.5
v 3.5 1.5 1.5
v 2.5 1.5 1.5
v 3.5 0.5 0.5
v 3.5 1.5 0.5
v 3.5 1.5 -0.5
v 3.5 1.5 0.5
v 2.5 1.5 -0.5
v 2.5 2.5 -0.5
v 3.5 2.5 0.5
v 3.5 2.5 -0.5
v 2.5 1.5 -0.5
v 3.5 2.5 -0.5
v 3.5 1.5 -0.5
v 2.5 2.5 -0.5
v 2.5 1.5 0.5
v 3.5 1.5 0.5
v 3.5 2.5 0.5
v 2.5 2.5 0.5
v 2.5 2.5 -0.5
v 3.5 1.5 -0.5
v 3.5 2.5 -0.5
v 2.5 2.5 0.5
v 3.5 2.5 -0.5
v 3.5 2.5 0.5
v 2.5 2.5 -0.5
v 2.5 3.5 -0.5
v 3.5 3.5 0.5
v 3.5 3.5 -0.5
v 2.5 2.5 -0.5
v 3.5 3.5 -0.5
v 3.5 2.5 -0.5
v 2.5 3.5 -0.5
v 3.5 2.5 0.5
v 3.5 3.5 0.5
v 2.5 3.5 -0.5
v 3.5 2.5 -0.5
v 3.5 3.5 -0.5
v 3.5 4.5 -0.5
v 3.5 4.5 0.5
v 2.5 4.5 -0.5
v 2.5 5.5 -0.5
v 3.5 5.5 0.5
v 3.5 5.5 -0.5
v 2.5 4.5 -0.5
v 3.5 5.5 -0.5
v 3.5 4.5 -0.5
v 2.5 5.5 -0.5
v 3.5 4.5 0.5
v 3.5 5.5 0.5
v 2.5 5.5 -0.5
v 3.5 4.5 -0.5
v 3.5 5.5 -0.5
v 3.5 5.5 0.5
v 3.5 5.5 1.5
v 2.5 6.5 0.5
v 3.5 6.5 1.5
v 3.5 6.5 0.5
v 2.5 6.5 1.5
v 3.5 6.5 0.5
v 3.5 5.5 0.5
v 2.5 5.5 1.5
v 3.5 5.5 1.5
v 3.5 6.5 1.5
v 2.5 6.5 1.5
v 3.5 5.5 0.5
v 3.5 6.5 0.5
v 3.5 6.5 -0.5
v 2.5 6.5 -0.5
v 2.5 7.5 -0.5
v 3.5 7.5 0.5
v 3.5 7.5 -0.5
v 3.5 6.5 0.5
v 3.5 7.5 0.5
v 2.5 7.5 0.5
v 2.5 7.5 -0.5
v 2.5 6.5 -0.5
v 3.5 6.5 -0.5
v 3.5 7.5 -0.5
v 3.5 6.5 0.5
v 3.5 6.5 1.5
v 3.5 7.5 1.5
v 2.5 7.5 1.5
v 3.5 7.5 0.5
v 3.5 6.5 0.5
v 2.5 6.5 1.5
v 3.5 6.5 1.5
v 3.5 7.5 1.5
v 2.5 7.5 1.5
v 3.5 6.5 0.5
v 3.5 7.5 0.5
v 3.5 7.5 -0.5
v 3.5 7.5 0.5
v 2.5 7.5 -0.5
v 2.5 8.5 -0.5
v 3.5 8.5 0.5
v 3.5 8.5 -0.5
v 2.5 7.5 -0.5
v 3.5 8.5 -0.5
v 3.5 7.5 -0.5
v 2.5 8.5 -0.5
v 3.5 7.5 0.5
v 3.5 8.5 0.5
v 2.5 8.5 -0.5
v 3.5 7.5 -0.5
v 3.5 8.5 -0.5
v 3.5 7.5 0.5
v 3.5 7.5 1.5
v 2.5 8.5 0.5
v 3.5 8.5 1.5
v 3.5 8.5 0.5
v 2.5 7.5 1.5
v 3.5 7.5 1.5
v 3.5 8.5 1.5
v 2.5 8.5 1.5
v 3.5 7.5 0.5
v 3.5 8.5 0.5
v 2.5 7.5 2.5
v 3.5 7.5 2.5
v 3.5 8.5 2.5
v 3.5 8.5 1.5
v 2.5 8.5 2.5
v 2.5 7.5 1.5
v 3.5 8.5 1.5
v 3.5 7.5 1.5
v 2.5 8.5 1.5
v 2.5 7.5 2.5
v 3.5 7.5 2.5
v 3.5 8.5 2.5
v 2.5 8.5 2.5
v 2.5 8.5 1.5
v 2.5 7.5 1.5
v 3.5 7.5 1.5
v 3.5 8.5 1.5
v 2.5 9.5 0.5
v 3.5 9.5 1.5
v 3.5 9.5 0.5
v 2.5 9.5 1.5
v 2.5 8.5 0.5
v 3.5 9.5 0.5
v 3.5 8.5 0.5
v 2.5 9.5 0.5
v 2.5 8.5 1.5
v 3.5 8.5 1.5
v 3.5 9.5 1.5
v 2.5 9.5 1.5
v 2.5 9.5 0.5
v 2.5 8.5 0.5
v 3.5 8.5 0.5
v 3.5 9.5 0.5
v 2.5 8.5 2.5
v 3.5 8.5 1.5
v 3.5 8.5 2.5
v 3.5 9.5 2.5
v 3.5 9.5 1.5
v 2.5 9.5 2.5
v 3.5 9.5 1.5
v 3.5 8.5 1.5
v 2.5 8.5 2.5
v 3.5 8.5 2.5
v 3.5 9.5 2.5
v 2.5 9.5 2.5
v 3.5 8.5 1.5
v 3.5 9.5 1.5
v 3.5 9.5 -0.5
v 2.5 9.5 -0.5
v 2.5 10.5 -0.5
v 3.5 10.5 0.5
v 3.5 10.5 -0.5
v 2.5 9.5 -0.5
v 3.5 10.5 -0.5
v 3.5 9.5 -0.5
v 2.5 10.5 -0.5
v 2.5 9.5 0.5
v 3.5 9.5 0.5
v 3.5 10.5 0.5
v 2.5 10.5 0.5
v 2.5 10.5 -0.5
v 2.5 9.5 -0.5
v 3.5 9.5 -0.5
v 3.5 10.5 -0.5
v 3.5 9.5 0.5
v 3.5 9.5 1.5
v 2.5 10.5 0.5
v 3.5 10.5 1.5
v 3.5 10.5 0.5
v 2.5 10.5 1.5
v 3.5 10.5 0.5
v 3.5 9.5 0.5
v 2.5 9.5 1.5
v 3.5 9.5 1.5
v 3.5 10.5 1.5
v 2.5 10.5 1.5
v 3.5 9.5 0.5
v 3.5 10.5 0.5
v 3.5 9.5 1.5
v 3.5 9.5 2.5
v 3.5 10.5 2.5
v 3.5 10.5 1.5
v 2.5 10.5 2.5
v 2.5 9.5 2.5
v 3.5 9.5 2.5
v 3.5 10.5 2.5
v 2.5 10.5 2.5
v 3.5 9.5 1.5
v 3.5 10.5 1.5
v 3.5 10.5 -0.5
v 3.5 10.5 0.5
v 2.5 10.5 -0.5
v 2.5 11.5 -0.5
v 3.5 11.5 0.5
v 3.5 11.5 -0.5
v 2.5 10.5 -0.5
v 3.5 11.5 -0.5
v 3.5 10.5 -0.5
v 2.5 11.5 -0.5
v 3.5 10.5 0.5
v 3.5 11.5 0.5
v 2.5 11.5 -0.5
v 3.5 10.5 -0.5
v 3.5 11.5 -0.5
v 2.5 11.5 0.5
v 3.5 11.5 1.5
v 3.5 11.5 0.5
v 2.5 11.5 1.5
v 2.5 10.5 0.5
v 3.5 11.5 0.5
v 3.5 10.5 0.5
v 2.5 11.5 0.5
v 2.5 10.5 1.5
v 3.5 10.5 1.5
v 3.5 11.5 1.5
v 2.5 11.5 1.5
v 2.5 11.5 0.5
v 2.5 10.5 0.5
v 3.5 10.5 0.5
v 3.5 11.5 0.5
v 3.5 11.5 -0.5
v 3.5 11.5 0.5
v 2.5 11.5 -0.5
v 2.5 12.5 -0.5
v 3.5 12.5 0.5
v 3.5 12.5 -0.5
v 2.5 11.5 -0.5
v 3.5 12.5 -0.5
v 3.5 11.5 -0.5
v 2.5 12.5 -0.5
v 3.5 11.5 0.5
v 3.5 12.5 0.5
v 2.5 12.5 -0.5
v 3.5 11.5 -0.5
v 3.5 12.5 -0.5
v 3.5 12.5 -0.5
v 3.5 12.5 0.5
v 2.5 12.5 -0.5
v 2.5 13.5 -0.5
v 3.5 13.5 0.5
v 3.5 13.5 -0.5
v 2.5 13.5 0.5
v 2.5 12.5 -0.5
v 3.5 13.5 -0.5
v 3.5 12.5 -0.5
v 2.5 13.5 -0.5
v 3.5 12.5 0.5
v 3.5 13.5 0.5
v 2.5 13.5 -0.5
v 3.5 12.5 -0.5
v 3.5 13.5 -0.5
v 4.5 7.5 -0.5
v 4.5 7.5 0.5
v 3.5 8.5 -0.5
v 4.5 8.5 0.5
v 4.5 8.5 -0.5
v 3.5 8.5 0.5
v 4.5 8.5 -0.5
v 4.5 7.5 -0.5
v 4.5 7.5 0.5
v 4.5 8.5 0.5
v 4.5 7.5 -0.5
v 4.5 8.5 -0.5
v 4.5 7.5 0.5
v 4.5 7.5 1.5
v 3.5 8.5 0.5
v 4.5 8.5 1.5
v 4.5 8.5 0.5
v 3.5 7.5 1.5
v 4.5 7.5 1.5
v 4.5 8.5 1.5
v 3.5 8.5 1.5
v 4.5 7.5 0.5
v 4.5 8.5 0.5
v 4.5 8.5 -0.5
v 4.5 8.5 0.5
v 3.5 8.5 -0.5
v 3.5 9.5 -0.5
v 4.5 9.5 0.5
v 4.5 9.5 -0.5
v 3.5 8.5 -0.5
v 4.5 9.5 -0.5
v 4.5 8.5 -0.5
v 3.5 9.5 -0.5
v 3.5 8.5 0.5
v 4.5 8.5 0.5
v 4.5 9.5 0.5
v 3.5 9.5 0.5
v 3.5 9.5 -0.5
v 4.5 8.5 -0.5
v 4.5 9.5 -0.5
v 4.5 8.5 0.5
v 4.5 8.5 1.5
v 3.5 8.5 0.5
v 3.5 9.5 0.5
v 4.5 9.5 1.5
v 4.5 9.5 0.5
v 4.5 8.5 1.5
v 4.5 9.5 1.5
v 3.5 9.5 0.5
v 4.5 8.5 0.5
v 4.5 9.5 0.5
v 4.5 9.5 -0.5
v 3.5 9.5 -0.5
v 3.5 10.5 -0.5
v 4.5 10.5 0.5
v 4.5 10.5 -0.5
v 3.5 10.5 0.5
v 4.5 10.5 -0.5
v 4.5 9.5 -0.5
v 3.5 9.5 0.5
v 4.5 9.5 0.5
v 4.5 10.5 0.5
v 3.5 10.5 0.5
v 4.5 9.5 -0.5
v 4.5 10.5 -0.5
v 4.5 9.5 0.5
v 4.5 9.5 1.5
v 4.5 10.5 1.5
v 4.5 10.5 0.5
v 3.5 10.5 1.5
v 4.5 10.5 0.5
v 4.5 9.5 0.5
v 4.5 9.5 1.5
v 4.5 10.5 1.5
v 4.5 9.5 0.5
v 4.5 10.5 0.5
vn 0 -0.99999 -0.00394
vn 0 0.99999 -0.00394
vn 0 0 -1
vn 0.00395 0.00395 0.99998
vn -0.99999 0 -0.00394
vn 0.99999 0 -0.00394
vt 0.875 0.15625
vt 0.89062 0.14062
vt 0.89062 0.15625
vt 0.875 0.14062
vt 0.96875 0.29688
vt 0.98438 0.3125
vt 0.98438 0.29688
vt 0.96875 0.3125
vt 0.10938 0.10938
vt 0.125 0.09375
vt 0.125 0.10938
vt 0.10938 0.09375
vt 0.8125 0.21875
vt 0.82812 0.20312
vt 0.82812 0.21875
vt 0.8125 0.20312
vt 0.85938 0.15625
vt 0.85938 0.14062
vt 0.84375 0.14062
vt 0.84375 0.15625
vt 0.1875 0.07812
vt 0.20312 0.0625
vt 0.20312 0.07812
vt 0.1875 0.0625
usemtl mat0
f 1/1/1 2/2/1 3/3/1
f 1/1/1 4/4/1 2/2/1
f 5/1/2 6/2/2 7/3/2
f 5/1/2 8/4/2 6/2/2
f 9/5/3 10/6/3 11/7/3
f 9/5/3 12/8/3 10/6/3
f 13/5/4 14/7/4 15/6/4
f 13/5/4 15/6/4 16/8/4
f 13/5/5 17/6/5 18/7/5
f 13/5/5 16/8/5 17/6/5
f 19/5/6 15/6/6 14/7/6
f 19/5/6 20/8/6 15/6/6
f 21/1/1 22/2/1 23/3/1
f 21/1/1 24/4/1 22/2/1
f 25/1/2 26/2/2 27/3/2
f 25/1/2 28/4/2 26/2/2
f 13/5/3 15/6/3 14/7/3
f 13/5/3 16/8/3 15/6/3
f 29/5/4 30/7/4 31/6/4
f 29/5/4 31/6/4 32/8/4
f 29/5/5 33/6/5 34/7/5
f 29/5/5 32/8/5 33/6/5
f 35/5/6 31/6/6 30/7/6
f 35/5/6 36/8/6 31/6/6
f 37/1/1 38/2/1 39/3/1
f 37/1/1 40/4/1 38/2/1
f 41/1/2 42/2/2 43/3/2
f 41/1/2 44/4/2 42/2/2
f 29/5/3 31/6/3 30/7/3
f 29/5/3 32/8/3 31/6/3
f 45/5/4 46/7/4 47/6/4
f 45/5/4 47/6/4 48/8/4
f 45/5/5 49/6/5 50/7/5
f 45/5/5 48/8/5 49/6/5
f 51/5/6 47/6/6 46/7/6
f 51/5/6 52/8/6 47/6/6
f 53/9/1 54/10/1 55/11/1
f 53/9/1 56/12/1 54/10/1
f 57/9/2 58/10/2 59/11/2
f 57/9/2 60/12/2 58/10/2
f 56/12/3 59/11/3 54/10/3
f 56/12/3 57/9/3 59/11/3
f 61/12/4 62/10/4 63/11/4
f 61/12/4 63/11/4 64/9/4
f 61/12/5 65/11/5 66/10/5
f 61/12/5 64/9/5 65/11/5
f 67/12/6 63/11/6 62/10/6
f 67/12/6 68/9/6 63/11/6
f 69/1/1 70/2/1 71/3/1
f 69/1/1 72/4/1 70/2/1
f 73/1/2 74/2/2 75/3/2
f 73/1/2 76/4/2 74/2/2
f 77/5/3 78/6/3 79/7/3
f 77/5/3 80/8/3 78/6/3
f 81/5/4 82/7/4 83/6/4
f 81/5/4 83/6/4 84/8/4
f 81/5/5 85/6/5 86/7/5
f 81/5/5 84/8/5 85/6/5
f 87/5/6 83/6/6 82/7/6
f 87/5/6 88/8/6 83/6/6
f 89/13/1 90/14/1 91/15/1
f 89/13/1 92/16/1 90/14/1
f 93/13/2 94/14/2 95/15/2
f 93/13/2 96/16/2 94/14/2
f 97/14/3 98/13/3 99/16/3
f 97/14/3 100/15/3 98/13/3
f 101/16/4 102/14/4 103/15/4
f 101/16/4 103/15/4 104/13/4
f 105/14/5 93/13/5 92/16/5
f 105/14/5 106/15/5 93/13/5
f 99/16/6 103/15/6 102/14/6
f 99/16/6 98/13/6 103/15/6
f 107/1/1 108/2/1 109/3/1
f 107/1/1 110/4/1 108/2/1
f 111/1/2 112/2/2 113/3/2
f 111/1/2 114/4/2 112/2/2
f 19/5/3 115/6/3 116/7/3
f 19/5/3 20/8/3 115/6/3
f 35/5/4 117/7/4 118/6/4
f 35/5/4 118/6/4 36/8/4
f 35/5/5 10/6/5 11/7/5
f 35/5/5 36/8/5 10/6/5
f 119/5/6 118/6/6 117/7/6
f 119/5/6 120/8/6 118/6/6
f 121/1/1 122/2/1 123/3/1
f 121/1/1 124/4/1 122/2/1
f 125/1/2 126/2/2 127/3/2
f 125/1/2 128/4/2 126/2/2
f 35/5/3 118/6/3 117/7/3
f 35/5/3 36/8/3 118/6/3
f 51/5/4 129/7/4 130/6/4
f 51/5/4 130/6/4 52/8/4
f 51/5/5 15/6/5 14/7/5
f 51/5/5 52/8/5 15/6/5
f 131/5/6 130/6/6 129/7/6
f 131/5/6 132/8/6 130/6/6
f 133/17/1 134/4/1 135/1/1
f 133/17/1 136/18/1 134/4/1
f 137/1/2 138/2/2 139/3/2
f 137/1/2 140/4/2 138/2/2
f 141/19/3 142/17/3 143/18/3
f 141/19/3 144/20/3 142/17/3
f 145/19/4 146/18/4 147/17/4
f 145/19/4 147/17/4 148/20/4
f 145/19/5 149/17/5 136/18/5
f 145/19/5 148/20/5 149/17/5
f 150/19/6 147/17/6 146/18/6
f 150/19/6 151/20/6 147/17/6
f 152/1/1 112/2/1 153/3/1
f 152/1/1 114/4/1 112/2/1
f 154/1/2 155/2/2 156/3/2
f 154/1/2 157/4/2 155/2/2
f 158/5/3 159/6/3 160/7/3
f 158/5/3 161/8/3 159/6/3
f 162/5/4 163/7/4 164/6/4
f 162/5/4 164/6/4 165/8/4
f 162/5/5 166/6/5 167/7/5
f 162/5/5 165/8/5 166/6/5
f 168/5/6 164/6/6 163/7/6
f 168/5/6 169/8/6 164/6/6
f 170/17/1 171/4/1 172/1/1
f 170/17/1 173/18/1 171/4/1
f 174/1/2 175/2/2 176/3/2
f 174/1/2 177/4/2 175/2/2
f 178/19/3 179/17/3 180/18/3
f 178/19/3 181/20/3 179/17/3
f 182/19/4 183/18/4 184/17/4
f 182/19/4 184/17/4 185/20/4
f 182/19/5 186/17/5 173/18/5
f 182/19/5 185/20/5 186/17/5
f 187/19/6 184/17/6 183/18/6
f 187/19/6 188/20/6 184/17/6
f 189/1/1 190/2/1 191/3/1
f 189/1/1 192/4/1 190/2/1
f 193/1/2 194/2/2 195/3/2
f 193/1/2 196/4/2 194/2/2
f 197/5/3 198/6/3 199/7/3
f 197/5/3 200/8/3 198/6/3
f 201/5/4 202/7/4 203/6/4
f 201/5/4 203/6/4 204/8/4
f 201/5/5 205/6/5 206/7/5
f 201/5/5 204/8/5 205/6/5
f 207/5/6 203/6/6 202/7/6
f 207/5/6 208/8/6 203/6/6
f 209/17/1 210/4/1 211/1/1
f 209/17/1 212/18/1 210/4/1
f 213/1/2 214/2/2 215/3/2
f 213/1/2 216/4/2 214/2/2
f 217/19/3 218/17/3 219/18/3
f 217/19/3 220/20/3 218/17/3
f 221/19/4 222/18/4 223/17/4
f 221/19/4 223/17/4 224/20/4
f 221/19/5 225/17/5 212/18/5
f 221/19/5 224/20/5 225/17/5
f 226/19/6 223/17/6 222/18/6
f 226/19/6 227/20/6 223/17/6
f 228/17/1 229/4/1 230/1/1
f 228/17/1 231/18/1 229/4/1
f 232/1/2 233/2/2 234/3/2
f 232/1/2 235/4/2 233/2/2
f 236/19/3 237/17/3 238/18/3
f 236/19/3 239/20/3 237/17/3
f 240/19/4 241/18/4 242/17/4
f 240/19/4 242/17/4 243/20/4
f 240/19/5 244/17/5 231/18/5
f 240/19/5 243/20/5 244/17/5
f 245/19/6 242/17/6 241/18/6
f 245/19/6 246/20/6 242/17/6
f 247/17/1 248/4/1 249/1/1
f 247/17/1 250/18/1 248/4/1
f 251/1/2 252/2/2 253/3/2
f 251/1/2 254/4/2 252/2/2
f 255/19/3 256/17/3 257/18/3
f 255/19/3 258/20/3 256/17/3
f 259/19/4 260/18/4 261/17/4
f 259/19/4 261/17/4 262/20/4
f 259/19/5 263/17/5 250/18/5
f 259/19/5 262/20/5 263/17/5
f 264/19/6 261/17/6 260/18/6
f 264/19/6 265/20/6 261/17/6
f 266/17/1 267/4/1 268/1/1
f 266/17/1 269/18/1 267/4/1
f 270/1/2 271/2/2 272/3/2
f 270/1/2 273/4/2 271/2/2
f 259/19/3 261/17/3 260/18/3
f 259/19/3 262/20/3 261/17/3
f 274/19/4 275/18/4 276/17/4
f 274/19/4 276/17/4 277/20/4
f 274/19/5 278/17/5 269/18/5
f 274/19/5 277/20/5 278/17/5
f 279/19/6 276/17/6 275/18/6
f 279/19/6 280/20/6 276/17/6
f 281/13/1 282/14/1 283/15/1
f 281/13/1 284/16/1 282/14/1
f 285/13/2 286/14/2 287/15/2
f 285/13/2 288/16/2 286/14/2
f 289/14/3 290/13/3 291/16/3
f 289/14/3 292/15/3 290/13/3
f 293/16/4 294/14/4 295/15/4
f 293/16/4 295/15/4 296/13/4
f 297/14/5 285/13/5 284/16/5
f 297/14/5 298/15/5 285/13/5
f 291/16/6 295/15/6 294/14/6
f 291/16/6 290/13/6 295/15/6
f 299/17/1 300/4/1 301/1/1
f 299/17/1 302/18/1 300/4/1
f 303/1/2 304/2/2 305/3/2
f 303/1/2 306/4/2 304/2/2
f 307/19/3 308/17/3 309/18/3
f 307/19/3 310/20/3 308/17/3
f 311/19/4 312/18/4 313/17/4
f 311/19/4 313/17/4 314/20/4
f 311/19/5 315/17/5 302/18/5
f 311/19/5 314/20/5 315/17/5
f 316/19/6 313/17/6 312/18/6
f 316/19/6 317/20/6 313/17/6
f 303/1/1 318/2/1 305/3/1
f 303/1/1 319/4/1 318/2/1
f 320/1/2 321/2/2 322/3/2
f 320/1/2 323/4/2 321/2/2
f 324/5/3 325/6/3 326/7/3
f 324/5/3 327/8/3 325/6/3
f 87/5/4 328/7/4 329/6/4
f 87/5/4 329/6/4 88/8/4
f 87/5/5 330/6/5 331/7/5
f 87/5/5 88/8/5 330/6/5
f 332/5/6 329/6/6 328/7/6
f 332/5/6 333/8/6 329/6/6
f 334/17/1 335/4/1 336/1/1
f 334/17/1 337/18/1 335/4/1
f 338/1/2 339/2/2 340/3/2
f 338/1/2 341/4/2 339/2/2
f 342/19/3 343/17/3 344/18/3
f 342/19/3 345/20/3 343/17/3
f 346/19/4 347/18/4 348/17/4
f 346/19/4 348/17/4 349/20/4
f 346/19/5 350/17/5 337/18/5
f 346/19/5 349/20/5 350/17/5
f 351/19/6 348/17/6 347/18/6
f 351/19/6 352/20/6 348/17/6
f 353/17/1 354/4/1 355/1/1
f 353/17/1 356/18/1 354/4/1
f 357/1/2 358/2/2 359/3/2
f 357/1/2 360/4/2 358/2/2
f 346/19/3 348/17/3 347/18/3
f 346/19/3 349/20/3 348/17/3
f 361/19/4 362/18/4 363/17/4
f 361/19/4 363/17/4 364/20/4
f 361/19/5 365/17/5 356/18/5
f 361/19/5 364/20/5 365/17/5
f 366/19/6 363/17/6 362/18/6
f 366/19/6 367/20/6 363/17/6
f 338/1/1 368/2/1 340/3/1
f 338/1/1 369/4/1 368/2/1
f 370/1/2 371/2/2 372/3/2
f 370/1/2 373/4/2 371/2/2
f 374/5/3 375/6/3 376/7/3
f 374/5/3 377/8/3 375/6/3
f 378/5/4 379/7/4 380/6/4
f 378/5/4 380/6/4 381/8/4
f 378/5/5 382/6/5 383/7/5
f 378/5/5 381/8/5 382/6/5
f 384/5/6 380/6/6 379/7/6
f 384/5/6 385/8/6 380/6/6
f 365/17/1 386/4/1 387/1/1
f 365/17/1 388/18/1 386/4/1
f 389/1/2 390/2/2 391/3/2
f 389/1/2 392/4/2 390/2/2
f 393/19/3 394/17/3 395/18/3
f 393/19/3 396/20/3 394/17/3
f 397/19/4 398/18/4 399/17/4
f 397/19/4 399/17/4 400/20/4
f 397/19/5 401/17/5 388/18/5
f 397/19/5 400/20/5 401/17/5
f 402/19/6 399/17/6 398/18/6
f 402/19/6 403/20/6 399/17/6
f 404/9/1 405/10/1 406/11/1
f 404/9/1 407/12/1 405/10/1
f 408/9/2 409/10/2 410/11/2
f 408/9/2 411/12/2 409/10/2
f 407/12/3 410/11/3 405/10/3
f 407/12/3 408/9/3 410/11/3
f 412/12/4 413/10/4 414/11/4
f 412/12/4 414/11/4 415/9/4
f 412/12/5 416/11/5 417/10/5
f 412/12/5 415/9/5 416/11/5
f 418/12/6 414/11/6 413/10/6
f 418/12/6 419/9/6 414/11/6
f 420/13/1 421/14/1 422/15/1
f 420/13/1 99/16/1 421/14/1
f 98/13/2 423/14/2 424/15/2
f 98/13/2 425/16/2 423/14/2
f 90/14/3 426/13/3 427/16/3
f 90/14/3 95/15/3 426/13/3
f 428/16/4 429/14/4 430/15/4
f 428/16/4 430/15/4 431/13/4
f 102/14/5 98/13/5 99/16/5
f 102/14/5 103/15/5 98/13/5
f 427/16/6 430/15/6 429/14/6
f 427/16/6 426/13/6 430/15/6
f 432/17/1 433/4/1 434/1/1
f 432/17/1 435/18/1 433/4/1
f 436/1/2 437/2/2 438/3/2
f 436/1/2 439/4/2 437/2/2
f 440/19/3 441/17/3 442/18/3
f 440/19/3 443/20/3 441/17/3
f 444/19/4 445/18/4 446/17/4
f 444/19/4 446/17/4 447/20/4
f 444/19/5 448/17/5 435/18/5
f 444/19/5 447/20/5 448/17/5
f 449/19/6 446/17/6 445/18/6
f 449/19/6 450/20/6 446/17/6
f 451/17/1 452/4/1 453/1/1
f 451/17/1 454/18/1 452/4/1
f 455/1/2 456/2/2 457/3/2
f 455/1/2 458/4/2 456/2/2
f 444/19/3 446/17/3 445/18/3
f 444/19/3 447/20/3 446/17/3
f 459/19/4 460/18/4 461/17/4
f 459/19/4 461/17/4 462/20/4
f 459/19/5 463/17/5 454/18/5
f 459/19/5 462/20/5 463/17/5
f 464/19/6 461/17/6 460/18/6
f 464/19/6 465/20/6 461/17/6
f 431/13/1 466/14/1 430/15/1
f 431/13/1 467/16/1 466/14/1
f 468/13/2 469/14/2 470/15/2
f 468/13/2 471/16/2 469/14/2
f 472/14/3 473/13/3 474/16/3
f 472/14/3 475/15/3 473/13/3
f 425/16/4 423/14/4 476/15/4
f 425/16/4 476/15/4 477/13/4
f 94/14/5 468/13/5 467/16/5
f 94/14/5 478/15/5 468/13/5
f 474/16/6 476/15/6 423/14/6
f 474/16/6 473/13/6 476/15/6
f 479/17/1 480/4/1 481/1/1
f 479/17/1 482/18/1 480/4/1
f 483/1/2 484/2/2 485/3/2
f 483/1/2 486/4/2 484/2/2
f 487/19/3 488/17/3 489/18/3
f 487/19/3 490/20/3 488/17/3
f 491/19/4 492/18/4 493/17/4
f 491/19/4 493/17/4 494/20/4
f 491/19/5 495/17/5 482/18/5
f 491/19/5 494/20/5 495/17/5
f 496/19/6 493/17/6 492/18/6
f 496/19/6 497/20/6 493/17/6
f 498/1/1 499/2/1 500/3/1
f 498/1/1 501/4/1 499/2/1
f 502/1/2 503/2/2 504/3/2
f 502/1/2 505/4/2 503/2/2
f 506/5/3 507/6/3 508/7/3
f 506/5/3 509/8/3 507/6/3
f 510/5/4 511/7/4 512/6/4
f 510/5/4 512/6/4 513/8/4
f 510/5/5 514/6/5 515/7/5
f 510/5/5 513/8/5 514/6/5
f 516/5/6 512/6/6 511/7/6
f 516/5/6 517/8/6 512/6/6
f 518/1/1 519/2/1 520/3/1
f 518/1/1 521/4/1 519/2/1
f 135/1/2 522/2/2 523/3/2
f 135/1/2 524/4/2 522/2/2
f 131/5/3 525/6/3 526/7/3
f 131/5/3 132/8/3 525/6/3
f 527/5/4 528/7/4 529/6/4
f 527/5/4 529/6/4 530/8/4
f 527/5/5 118/6/5 117/7/5
f 527/5/5 530/8/5 118/6/5
f 531/5/6 529/6/6 528/7/6
f 531/5/6 532/8/6 529/6/6
f 533/1/1 534/2/1 535/3/1
f 533/1/1 536/4/1 534/2/1
f 537/1/2 538/2/2 539/3/2
f 537/1/2 540/4/2 538/2/2
f 527/5/3 529/6/3 528/7/3
f 527/5/3 530/8/3 529/6/3
f 541/5/4 542/7/4 543/6/4
f 541/5/4 543/6/4 544/8/4
f 541/5/5 130/6/5 129/7/5
f 541/5/5 544/8/5 130/6/5
f 545/5/6 543/6/6 542/7/6
f 545/5/6 546/8/6 543/6/6
f 547/17/1 548/4/1 549/1/1
f 547/17/1 146/18/1 548/4/1
f 172/1/2 550/2/2 551/3/2
f 172/1/2 552/4/2 550/2/2
f 553/19/3 554/17/3 555/18/3
f 553/19/3 556/20/3 554/17/3
f 557/19/4 558/18/4 559/17/4
f 557/19/4 559/17/4 560/20/4
f 557/19/5 147/17/5 146/18/5
f 557/19/5 560/20/5 147/17/5
f 561/19/6 559/17/6 558/18/6
f 561/19/6 562/20/6 559/17/6
f 563/1/1 564/2/1 565/3/1
f 563/1/1 566/4/1 564/2/1
f 567/1/2 568/2/2 569/3/2
f 567/1/2 570/4/2 568/2/2
f 566/4/3 569/3/3 564/2/3
f 566/4/3 567/1/3 569/3/3
f 552/4/4 550/2/4 571/3/4
f 552/4/4 571/3/4 572/1/4
f 552/4/5 191/3/5 138/2/5
f 552/4/5 572/1/5 191/3/5
f 573/4/6 571/3/6 550/2/6
f 573/4/6 574/1/6 571/3/6
f 575/17/1 576/4/1 577/1/1
f 575/17/1 578/18/1 576/4/1
f 211/1/2 579/2/2 580/3/2
f 211/1/2 581/4/2 579/2/2
f 582/19/3 583/17/3 584/18/3
f 582/19/3 585/20/3 583/17/3
f 586/19/4 587/18/4 588/17/4
f 586/19/4 588/17/4 589/20/4
f 586/19/5 590/17/5 578/18/5
f 586/19/5 589/20/5 590/17/5
f 591/19/6 588/17/6 587/18/6
f 591/19/6 592/20/6 588/17/6
f 593/17/1 594/4/1 595/1/1
f 593/17/1 222/18/1 594/4/1
f 230/1/2 596/2/2 597/3/2
f 230/1/2 598/4/2 596/2/2
f 599/19/3 600/17/3 601/18/3
f 599/19/3 602/20/3 600/17/3
f 603/19/4 604/18/4 605/17/4
f 603/19/4 605/17/4 606/20/4
f 603/19/5 223/17/5 222/18/5
f 603/19/5 606/20/5 223/17/5
f 607/19/6 605/17/6 604/18/6
f 607/19/6 608/20/6 605/17/6
f 609/17/1 610/4/1 611/1/1
f 609/17/1 241/18/1 610/4/1
f 249/1/2 612/2/2 613/3/2
f 249/1/2 614/4/2 612/2/2
f 615/19/3 616/17/3 617/18/3
f 615/19/3 618/20/3 616/17/3
f 619/19/4 620/18/4 621/17/4
f 619/19/4 621/17/4 622/20/4
f 619/19/5 242/17/5 241/18/5
f 619/19/5 622/20/5 242/17/5
f 623/19/6 621/17/6 620/18/6
f 623/19/6 624/20/6 621/17/6
f 625/17/1 626/4/1 627/1/1
f 625/17/1 260/18/1 626/4/1
f 628/1/2 629/2/2 630/3/2
f 628/1/2 631/4/2 629/2/2
f 279/19/3 632/17/3 633/18/3
f 279/19/3 280/20/3 632/17/3
f 634/19/4 635/18/4 636/17/4
f 634/19/4 636/17/4 637/20/4
f 634/19/5 261/17/5 260/18/5
f 634/19/5 637/20/5 261/17/5
f 638/19/6 636/17/6 635/18/6
f 638/19/6 639/20/6 636/17/6
f 276/17/1 640/4/1 641/1/1
f 276/17/1 309/18/1 640/4/1
f 642/1/2 643/2/2 644/3/2
f 642/1/2 354/4/2 643/2/2
f 316/19/3 645/17/3 646/18/3
f 316/19/3 317/20/3 645/17/3
f 647/19/4 648/18/4 649/17/4
f 647/19/4 649/17/4 650/20/4
f 647/19/5 308/17/5 309/18/5
f 647/19/5 650/20/5 308/17/5
f 651/19/6 649/17/6 648/18/6
f 651/19/6 652/20/6 649/17/6
f 313/17/1 653/4/1 654/1/1
f 313/17/1 344/18/1 653/4/1
f 655/1/2 656/2/2 657/3/2
f 655/1/2 658/4/2 656/2/2
f 351/19/3 659/17/3 660/18/3
f 351/19/3 352/20/3 659/17/3
f 366/19/4 661/18/4 662/17/4
f 366/19/4 662/17/4 367/20/4
f 366/19/5 343/17/5 344/18/5
f 366/19/5 367/20/5 343/17/5
f 663/19/6 662/17/6 661/18/6
f 663/19/6 664/20/6 662/17/6
f 665/13/1 666/14/1 667/15/1
f 665/13/1 668/16/1 666/14/1
f 669/13/2 670/14/2 671/15/2
f 669/13/2 672/16/2 670/14/2
f 673/14/3 674/13/3 675/16/3
f 673/14/3 676/15/3 674/13/3
f 677/16/4 678/14/4 679/15/4
f 677/16/4 679/15/4 680/13/4
f 681/14/5 669/13/5 668/16/5
f 681/14/5 682/15/5 669/13/5
f 675/16/6 679/15/6 678/14/6
f 675/16/6 674/13/6 679/15/6
f 348/17/1 683/4/1 684/1/1
f 348/17/1 395/18/1 683/4/1
f 685/1/2 686/2/2 687/3/2
f 685/1/2 452/4/2 686/2/2
f 402/19/3 688/17/3 689/18/3
f 402/19/3 403/20/3 688/17/3
f 690/19/4 691/18/4 692/17/4
f 690/19/4 692/17/4 693/20/4
f 690/19/5 394/17/5 395/18/5
f 690/19/5 693/20/5 394/17/5
f 694/19/6 692/17/6 691/18/6
f 694/19/6 695/20/6 692/17/6
f 363/17/1 696/4/1 697/1/1
f 363/17/1 398/18/1 696/4/1
f 434/1/2 698/2/2 699/3/2
f 434/1/2 700/4/2 698/2/2
f 690/19/3 692/17/3 691/18/3
f 690/19/3 693/20/3 692/17/3
f 701/19/4 702/18/4 703/17/4
f 701/19/4 703/17/4 704/20/4
f 701/19/5 399/17/5 398/18/5
f 701/19/5 704/20/5 399/17/5
f 705/19/6 703/17/6 702/18/6
f 705/19/6 706/20/6 703/17/6
f 399/17/1 707/4/1 708/1/1
f 399/17/1 442/18/1 707/4/1
f 709/1/2 710/2/2 711/3/2
f 709/1/2 712/4/2 710/2/2
f 449/19/3 713/17/3 714/18/3
f 449/19/3 450/20/3 713/17/3
f 464/19/4 715/18/4 716/17/4
f 464/19/4 716/17/4 465/20/4
f 464/19/5 441/17/5 442/18/5
f 464/19/5 465/20/5 441/17/5
f 717/19/6 716/17/6 715/18/6
f 717/19/6 718/20/6 716/17/6
f 453/1/1 686/2/1 719/3/1
f 453/1/1 452/4/1 686/2/1
f 720/1/2 721/2/2 722/3/2
f 720/1/2 723/4/2 721/2/2
f 724/5/3 725/6/3 726/7/3
f 724/5/3 727/8/3 725/6/3
f 728/5/4 729/7/4 730/6/4
f 728/5/4 730/6/4 731/8/4
f 728/5/5 732/6/5 733/7/5
f 728/5/5 731/8/5 732/6/5
f 734/5/6 730/6/6 729/7/6
f 734/5/6 735/8/6 730/6/6
f 446/17/1 736/4/1 737/1/1
f 446/17/1 738/18/1 736/4/1
f 481/1/2 739/2/2 740/3/2
f 481/1/2 741/4/2 739/2/2
f 742/19/3 743/17/3 744/18/3
f 742/19/3 745/20/3 743/17/3
f 746/19/4 747/18/4 748/17/4
f 746/19/4 748/17/4 749/20/4
f 746/19/5 750/17/5 738/18/5
f 746/19/5 749/20/5 750/17/5
f 751/19/6 748/17/6 747/18/6
f 751/19/6 752/20/6 748/17/6
f 753/17/1 754/4/1 755/1/1
f 753/17/1 492/18/1 754/4/1
f 756/1/2 757/2/2 758/3/2
f 756/1/2 759/4/2 757/2/2
f 760/19/3 761/17/3 762/18/3
f 760/19/3 763/20/3 761/17/3
f 764/19/4 765/18/4 766/17/4
f 764/19/4 766/17/4 767/20/4
f 764/19/5 493/17/5 492/18/5
f 764/19/5 767/20/5 493/17/5
f 768/19/6 766/17/6 765/18/6
f 768/19/6 769/20/6 766/17/6
f 756/1/1 770/2/1 758/3/1
f 756/1/1 771/4/1 770/2/1
f 772/1/2 773/2/2 774/3/2
f 772/1/2 775/4/2 773/2/2
f 516/5/3 776/6/3 777/7/3
f 516/5/3 517/8/3 776/6/3
f 778/5/4 779/7/4 780/6/4
f 778/5/4 780/6/4 781/8/4
f 778/5/5 507/6/5 508/7/5
f 778/5/5 781/8/5 507/6/5
f 782/5/6 780/6/6 779/7/6
f 782/5/6 783/8/6 780/6/6
f 784/17/1 785/4/1 786/1/1
f 784/17/1 787/18/1 785/4/1
f 788/1/2 789/2/2 790/3/2
f 788/1/2 791/4/2 789/2/2
f 792/19/3 793/17/3 794/18/3
f 792/19/3 795/20/3 793/17/3
f 796/19/4 797/18/4 798/17/4
f 796/19/4 798/17/4 799/20/4
f 796/19/5 800/17/5 787/18/5
f 796/19/5 799/20/5 800/17/5
f 801/19/6 798/17/6 797/18/6
f 801/19/6 802/20/6 798/17/6
f 803/21/1 804/22/1 805/23/1
f 803/21/1 806/24/1 804/22/1
f 807/21/2 808/22/2 809/23/2
f 807/21/2 810/24/2 808/22/2
f 806/24/3 809/23/3 804/22/3
f 806/24/3 807/21/3 809/23/3
f 811/24/4 812/22/4 813/23/4
f 811/24/4 813/23/4 814/21/4
f 811/24/5 815/23/5 816/22/5
f 811/24/5 814/21/5 815/23/5
f 817/24/6 813/23/6 812/22/6
f 817/24/6 818/21/6 813/23/6
f 819/1/1 820/2/1 821/3/1
f 819/1/1 822/4/1 820/2/1
f 823/1/2 824/2/2 825/3/2
f 823/1/2 548/4/2 824/2/2
f 826/5/3 827/6/3 828/7/3
f 826/5/3 829/8/3 827/6/3
f 531/5/4 830/7/4 831/6/4
f 531/5/4 831/6/4 532/8/4
f 531/5/5 832/6/5 833/7/5
f 531/5/5 532/8/5 832/6/5
f 834/5/6 831/6/6 830/7/6
f 834/5/6 835/8/6 831/6/6
f 836/1/1 837/2/1 838/3/1
f 836/1/1 839/4/1 837/2/1
f 840/1/2 841/2/2 842/3/2
f 840/1/2 843/4/2 841/2/2
f 531/5/3 831/6/3 830/7/3
f 531/5/3 532/8/3 831/6/3
f 545/5/4 844/7/4 845/6/4
f 545/5/4 845/6/4 546/8/4
f 545/5/5 525/6/5 526/7/5
f 545/5/5 546/8/5 525/6/5
f 846/5/6 845/6/6 844/7/6
f 846/5/6 847/8/6 845/6/6
f 848/9/1 849/10/1 850/11/1
f 848/9/1 851/12/1 849/10/1
f 852/9/2 853/10/2 854/11/2
f 852/9/2 855/12/2 853/10/2
f 851/12/3 854/11/3 849/10/3
f 851/12/3 852/9/3 854/11/3
f 856/12/4 857/10/4 858/11/4
f 856/12/4 858/11/4 859/9/4
f 856/12/5 860/11/5 861/10/5
f 856/12/5 859/9/5 860/11/5
f 862/12/6 858/11/6 857/10/6
f 862/12/6 863/9/6 858/11/6
f 864/17/1 865/4/1 866/1/1
f 864/17/1 555/18/1 865/4/1
f 867/1/2 868/2/2 869/3/2
f 867/1/2 870/4/2 868/2/2
f 561/19/3 871/17/3 872/18/3
f 561/19/3 562/20/3 871/17/3
f 873/19/4 874/18/4 875/17/4
f 873/19/4 875/17/4 876/20/4
f 873/19/5 554/17/5 555/18/5
f 873/19/5 876/20/5 554/17/5
f 877/19/6 875/17/6 874/18/6
f 877/19/6 878/20/6 875/17/6
f 554/17/1 879/4/1 880/1/1
f 554/17/1 881/18/1 879/4/1
f 882/1/2 883/2/2 884/3/2
f 882/1/2 576/4/2 883/2/2
f 885/19/3 886/17/3 887/18/3
f 885/19/3 888/20/3 886/17/3
f 889/19/4 890/18/4 891/17/4
f 889/19/4 891/17/4 892/20/4
f 889/19/5 893/17/5 881/18/5
f 889/19/5 892/20/5 893/17/5
f 894/19/6 891/17/6 890/18/6
f 894/19/6 895/20/6 891/17/6
f 896/17/1 897/4/1 898/1/1
f 896/17/1 899/18/1 897/4/1
f 900/1/2 901/2/2 902/3/2
f 900/1/2 594/4/2 901/2/2
f 903/19/3 904/17/3 905/18/3
f 903/19/3 906/20/3 904/17/3
f 591/19/4 907/18/4 908/17/4
f 591/19/4 908/17/4 592/20/4
f 591/19/5 909/17/5 899/18/5
f 591/19/5 592/20/5 909/17/5
f 910/19/6 908/17/6 907/18/6
f 910/19/6 911/20/6 908/17/6
f 600/17/1 912/4/1 913/1/1
f 600/17/1 914/18/1 912/4/1
f 915/1/2 916/2/2 917/3/2
f 915/1/2 626/4/2 916/2/2
f 918/19/3 919/17/3 920/18/3
f 918/19/3 921/20/3 919/17/3
f 623/19/4 922/18/4 923/17/4
f 623/19/4 923/17/4 624/20/4
f 623/19/5 924/17/5 914/18/5
f 623/19/5 624/20/5 924/17/5
f 925/19/6 923/17/6 922/18/6
f 925/19/6 926/20/6 923/17/6
f 621/17/1 927/4/1 928/1/1
f 621/17/1 633/18/1 927/4/1
f 929/1/2 930/2/2 931/3/2
f 929/1/2 932/4/2 930/2/2
f 638/19/3 933/17/3 934/18/3
f 638/19/3 639/20/3 933/17/3
f 935/19/4 936/18/4 937/17/4
f 935/19/4 937/17/4 938/20/4
f 935/19/5 632/17/5 633/18/5
f 935/19/5 938/20/5 632/17/5
f 939/19/6 937/17/6 936/18/6
f 939/19/6 940/20/6 937/17/6
f 929/1/1 941/2/1 931/3/1
f 929/1/1 942/4/1 941/2/1
f 943/1/2 944/2/2 945/3/2
f 943/1/2 653/4/2 944/2/2
f 942/4/3 945/3/3 941/2/3
f 942/4/3 943/1/3 945/3/3
f 640/4/4 946/2/4 947/3/4
f 640/4/4 947/3/4 948/1/4
f 640/4/5 949/3/5 950/2/5
f 640/4/5 948/1/5 949/3/5
f 951/4/6 947/3/6 946/2/6
f 951/4/6 952/1/6 947/3/6
f 636/17/1 953/4/1 954/1/1
f 636/17/1 646/18/1 953/4/1
f 948/1/2 955/2/2 947/3/2
f 948/1/2 956/4/2 955/2/2
f 651/19/3 957/17/3 958/18/3
f 651/19/3 652/20/3 957/17/3
f 959/19/4 960/18/4 961/17/4
f 959/19/4 961/17/4 962/20/4
f 959/19/5 645/17/5 646/18/5
f 959/19/5 962/20/5 645/17/5
f 963/19/6 961/17/6 960/18/6
f 963/19/6 964/20/6 961/17/6
f 645/17/1 965/4/1 966/1/1
f 645/17/1 967/18/1 965/4/1
f 968/1/2 969/2/2 970/3/2
f 968/1/2 683/4/2 969/2/2
f 971/19/3 972/17/3 973/18/3
f 971/19/3 974/20/3 972/17/3
f 663/19/4 975/18/4 976/17/4
f 663/19/4 976/17/4 664/20/4
f 663/19/5 977/17/5 967/18/5
f 663/19/5 664/20/5 977/17/5
f 978/19/6 976/17/6 975/18/6
f 978/19/6 979/20/6 976/17/6
f 649/17/1 980/4/1 981/1/1
f 649/17/1 660/18/1 980/4/1
f 982/1/2 983/2/2 984/3/2
f 982/1/2 696/4/2 983/2/2
f 663/19/3 976/17/3 975/18/3
f 663/19/3 664/20/3 976/17/3
f 985/19/4 986/18/4 987/17/4
f 985/19/4 987/17/4 988/20/4
f 985/19/5 659/17/5 660/18/5
f 985/19/5 988/20/5 659/17/5
f 989/19/6 987/17/6 986/18/6
f 989/19/6 990/20/6 987/17/6
f 991/1/1 955/2/1 992/3/1
f 991/1/1 956/4/1 955/2/1
f 684/1/2 993/2/2 994/3/2
f 684/1/2 995/4/2 993/2/2
f 996/5/3 997/6/3 998/7/3
f 996/5/3 999/8/3 997/6/3
f 1000/5/4 1001/7/4 1002/6/4
f 1000/5/4 1002/6/4 1003/8/4
f 1000/5/5 1004/6/5 1005/7/5
f 1000/5/5 1003/8/5 1004/6/5
f 1006/5/6 1002/6/6 1001/7/6
f 1006/5/6 1007/8/6 1002/6/6
f 684/1/1 969/2/1 994/3/1
f 684/1/1 683/4/1 969/2/1
f 1008/1/2 1009/2/2 1010/3/2
f 1008/1/2 1011/4/2 1009/2/2
f 1012/5/3 1013/6/3 1014/7/3
f 1012/5/3 1015/8/3 1013/6/3
f 1016/5/4 1017/7/4 1018/6/4
f 1016/5/4 1018/6/4 1019/8/4
f 1016/5/5 1020/6/5 1021/7/5
f 1016/5/5 1019/8/5 1020/6/5
f 1022/5/6 1018/6/6 1017/7/6
f 1022/5/6 1023/8/6 1018/6/6
f 1024/17/1 1025/4/1 1026/1/1
f 1024/17/1 691/18/1 1025/4/1
f 708/1/2 1027/2/2 1028/3/2
f 708/1/2 1029/4/2 1027/2/2
f 705/19/3 1030/17/3 1031/18/3
f 705/19/3 706/20/3 1030/17/3
f 1032/19/4 1033/18/4 1034/17/4
f 1032/19/4 1034/17/4 1035/20/4
f 1032/19/5 692/17/5 691/18/5
f 1032/19/5 1035/20/5 692/17/5
f 1036/19/6 1034/17/6 1033/18/6
f 1036/19/6 1037/20/6 1034/17/6
f 1008/1/1 1038/2/1 1010/3/1
f 1008/1/1 1039/4/1 1038/2/1
f 1040/1/2 1041/2/2 1042/3/2
f 1040/1/2 736/4/2 1041/2/2
f 1043/5/3 1044/6/3 1045/7/3
f 1043/5/3 1046/8/3 1044/6/3
f 1047/5/4 1048/7/4 1049/6/4
f 1047/5/4 1049/6/4 1050/8/4
f 1047/5/5 1051/6/5 1052/7/5
f 1047/5/5 1050/8/5 1051/6/5
f 1053/5/6 1049/6/6 1048/7/6
f 1053/5/6 1054/8/6 1049/6/6
f 692/17/1 1055/4/1 1056/1/1
f 692/17/1 714/18/1 1055/4/1
f 1057/1/2 1058/2/2 1059/3/2
f 1057/1/2 1060/4/2 1058/2/2
f 717/19/3 1061/17/3 1062/18/3
f 717/19/3 718/20/3 1061/17/3
f 1063/19/4 1064/18/4 1065/17/4
f 1063/19/4 1065/17/4 1066/20/4
f 1063/19/5 713/17/5 714/18/5
f 1063/19/5 1066/20/5 713/17/5
f 1067/19/6 1065/17/6 1064/18/6
f 1067/19/6 1068/20/6 1065/17/6
f 703/17/1 1069/4/1 1070/1/1
f 703/17/1 715/18/1 1069/4/1
f 737/1/2 1071/2/2 1072/3/2
f 737/1/2 1073/4/2 1071/2/2
f 1063/19/3 1065/17/3 1064/18/3
f 1063/19/3 1066/20/3 1065/17/3
f 1074/19/4 1075/18/4 1076/17/4
f 1074/19/4 1076/17/4 1077/20/4
f 1074/19/5 716/17/5 715/18/5
f 1074/19/5 1077/20/5 716/17/5
f 1078/19/6 1076/17/6 1075/18/6
f 1078/19/6 1079/20/6 1076/17/6
f 713/17/1 1080/4/1 1081/1/1
f 713/17/1 1082/18/1 1080/4/1
f 1083/1/2 1084/2/2 1085/3/2
f 1083/1/2 754/4/2 1084/2/2
f 1086/19/3 1087/17/3 1088/18/3
f 1086/19/3 1089/20/3 1087/17/3
f 751/19/4 1090/18/4 1091/17/4
f 751/19/4 1091/17/4 752/20/4
f 751/19/5 1092/17/5 1082/18/5
f 751/19/5 752/20/5 1092/17/5
f 1093/19/6 1091/17/6 1090/18/6
f 1093/19/6 1094/20/6 1091/17/6
f 737/1/1 1041/2/1 1072/3/1
f 737/1/1 736/4/1 1041/2/1
f 1095/1/2 1096/2/2 1097/3/2
f 1095/1/2 1098/4/2 1096/2/2
f 1099/5/3 1100/6/3 1101/7/3
f 1099/5/3 1102/8/3 1100/6/3
f 1103/5/4 1104/7/4 1105/6/4
f 1103/5/4 1105/6/4 1106/8/4
f 1103/5/5 1107/6/5 1108/7/5
f 1103/5/5 1106/8/5 1107/6/5
f 1109/5/6 1105/6/6 1104/7/6
f 1109/5/6 1110/8/6 1105/6/6
f 743/17/1 1111/4/1 1112/1/1
f 743/17/1 1113/18/1 1111/4/1
f 1114/1/2 1115/2/2 1116/3/2
f 1114/1/2 785/4/2 1115/2/2
f 1117/19/3 1118/17/3 1119/18/3
f 1117/19/3 1120/20/3 1118/17/3
f 768/19/4 1121/18/4 1122/17/4
f 768/19/4 1122/17/4 769/20/4
f 768/19/5 1123/17/5 1113/18/5
f 768/19/5 769/20/5 1123/17/5
f 1124/19/6 1122/17/6 1121/18/6
f 1124/19/6 1125/20/6 1122/17/6
f 761/17/1 1126/4/1 1127/1/1
f 761/17/1 1128/18/1 1126/4/1
f 1129/1/2 1130/2/2 1131/3/2
f 1129/1/2 1132/4/2 1130/2/2
f 1133/19/3 1134/17/3 1135/18/3
f 1133/19/3 1136/20/3 1134/17/3
f 801/19/4 1137/18/4 1138/17/4
f 801/19/4 1138/17/4 802/20/4
f 801/19/5 1139/17/5 1128/18/5
f 801/19/5 802/20/5 1139/17/5
f 1140/19/6 1138/17/6 1137/18/6
f 1140/19/6 1141/20/6 1138/17/6
f 957/17/1 1142/4/1 1143/1/1
f 957/17/1 973/18/1 1142/4/1
f 1144/1/2 1145/2/2 1146/3/2
f 1144/1/2 1147/4/2 1145/2/2
f 978/19/3 1148/17/3 1149/18/3
f 978/19/3 979/20/3 1148/17/3
f 989/19/4 1150/18/4 1151/17/4
f 989/19/4 1151/17/4 990/20/4
f 989/19/5 972/17/5 973/18/5
f 989/19/5 990/20/5 972/17/5
f 1152/19/6 1151/17/6 1150/18/6
f 1152/19/6 1153/20/6 1151/17/6
f 961/17/1 1154/4/1 1155/1/1
f 961/17/1 975/18/1 1154/4/1
f 1156/1/2 1157/2/2 1158/3/2
f 1156/1/2 1025/4/2 1157/2/2
f 989/19/3 1151/17/3 1150/18/3
f 989/19/3 990/20/3 1151/17/3
f 1159/19/4 1160/18/4 1161/17/4
f 1159/19/4 1161/17/4 1162/20/4
f 1159/19/5 976/17/5 975/18/5
f 1159/19/5 1162/20/5 976/17/5
f 1163/19/6 1161/17/6 1160/18/6
f 1163/19/6 1164/20/6 1161/17/6
f 976/17/1 1165/4/1 1166/1/1
f 976/17/1 1167/18/1 1165/4/1
f 1168/1/2 1169/2/2 1170/3/2
f 1168/1/2 1055/4/2 1169/2/2
f 1171/19/3 1172/17/3 1173/18/3
f 1171/19/3 1174/20/3 1172/17/3
f 1175/19/4 1176/18/4 1177/17/4
f 1175/19/4 1177/17/4 1178/20/4
f 1175/19/5 1179/17/5 1167/18/5
f 1175/19/5 1178/20/5 1179/17/5
f 1180/19/6 1177/17/6 1176/18/6
f 1180/19/6 1181/20/6 1177/17/6
f 987/17/1 1182/4/1 1183/1/1
f 987/17/1 1184/18/1 1182/4/1
f 1185/1/2 1186/2/2 1187/3/2
f 1185/1/2 1069/4/2 1186/2/2
f 1175/19/3 1177/17/3 1176/18/3
f 1175/19/3 1178/20/3 1177/17/3
f 1036/19/4 1188/18/4 1189/17/4
f 1036/19/4 1189/17/4 1037/20/4
f 1036/19/5 1190/17/5 1184/18/5
f 1036/19/5 1037/20/5 1190/17/5
f 1191/19/6 1189/17/6 1188/18/6
f 1191/19/6 1192/20/6 1189/17/6
f 1185/1/1 1193/2/1 1187/3/1
f 1185/1/1 1194/4/1 1193/2/1
f 1195/1/2 1196/2/2 1197/3/2
f 1195/1/2 1198/4/2 1196/2/2
f 1053/5/3 1199/6/3 1200/7/3
f 1053/5/3 1054/8/3 1199/6/3
f 1201/5/4 1202/7/4 1203/6/4
f 1201/5/4 1203/6/4 1204/8/4
f 1201/5/5 1044/6/5 1045/7/5
f 1201/5/5 1204/8/5 1044/6/5
f 1205/5/6 1203/6/6 1202/7/6
f 1205/5/6 1206/8/6 1203/6/6
f 1030/17/1 1207/4/1 1208/1/1
f 1030/17/1 1062/18/1 1207/4/1
f 1081/1/2 1209/2/2 1210/3/2
f 1081/1/2 1211/4/2 1209/2/2
f 1067/19/3 1212/17/3 1213/18/3
f 1067/19/3 1068/20/3 1212/17/3
f 1078/19/4 1214/18/4 1215/17/4
f 1078/19/4 1215/17/4 1079/20/4
f 1078/19/5 1061/17/5 1062/18/5
f 1078/19/5 1079/20/5 1061/17/5
f 1216/19/6 1215/17/6 1214/18/6
f 1216/19/6 1217/20/6 1215/17/6
# Vertices: 1217, normals: 6, texture coordinates: 24, faces: 936

