# File generated by ImageToStl.com - Free Image and 3D model conversion tools

mtllib tower_short.mtl

o obj1
v -0.5 -0.5 0.5
v 0.5 -0.5 -0.5
v 0.5 -0.5 0.5
v -0.5 -0.5 -0.5
v -0.5 0.5 -0.5
v 0.5 0.5 0.5
v 0.5 0.5 -0.5
v -0.5 0.5 0.5
v -0.5 -0.5 -0.5
v 0.5 0.5 -0.5
v 0.5 -0.5 -0.5
v -0.5 0.5 -0.5
v -0.5 -0.5 0.5
v 0.5 -0.5 0.5
v 0.5 0.5 0.5
v -0.5 0.5 0.5
v -0.5 0.5 -0.5
v -0.5 -0.5 -0.5
v 0.5 -0.5 -0.5
v 0.5 0.5 -0.5
v -0.5 -0.5 1.5
v 0.5 -0.5 0.5
v 0.5 -0.5 1.5
v -0.5 -0.5 0.5
v -0.5 0.5 0.5
v 0.5 0.5 1.5
v 0.5 0.5 0.5
v -0.5 0.5 1.5
v -0.5 -0.5 1.5
v 0.5 -0.5 1.5
v 0.5 0.5 1.5
v -0.5 0.5 1.5
v -0.5 0.5 0.5
v -0.5 -0.5 0.5
v 0.5 -0.5 0.5
v 0.5 0.5 0.5
v -0.5 -0.5 2.5
v 0.5 -0.5 1.5
v 0.5 -0.5 2.5
v -0.5 -0.5 1.5
v -0.5 0.5 1.5
v 0.5 0.5 2.5
v 0.5 0.5 1.5
v -0.5 0.5 2.5
v -0.5 -0.5 2.5
v 0.5 -0.5 2.5
v 0.5 0.5 2.5
v -0.5 0.5 2.5
v -0.5 0.5 1.5
v -0.5 -0.5 1.5
v 0.5 -0.5 1.5
v 0.5 0.5 1.5
v -0.5 -0.5 3.5
v 0.5 -0.5 2.5
v 0.5 -0.5 3.5
v -0.5 -0.5 2.5
v -0.5 0.5 2.5
v 0.5 0.5 3.5
v 0.5 0.5 2.5
v -0.5 0.5 3.5
v -0.5 -0.5 3.5
v 0.5 -0.5 3.5
v 0.5 0.5 3.5
v -0.5 0.5 3.5
v -0.5 0.5 2.5
v -0.5 -0.5 2.5
v 0.5 -0.5 2.5
v 0.5 0.5 2.5
v -0.5 1.5 0.5
v 0.5 1.5 1.5
v 0.5 1.5 0.5
v -0.5 1.5 1.5
v -0.5 0.5 0.5
v 0.5 1.5 0.5
v 0.5 0.5 0.5
v -0.5 1.5 0.5
v -0.5 0.5 1.5
v 0.5 0.5 1.5
v 0.5 1.5 1.5
v -0.5 1.5 1.5
v -0.5 1.5 0.5
v -0.5 0.5 0.5
v 0.5 0.5 0.5
v 0.5 1.5 0.5
v -0.5 1.5 1.5
v 0.5 1.5 2.5
v 0.5 1.5 1.5
v -0.5 1.5 2.5
v -0.5 0.5 2.5
v 0.5 0.5 2.5
v 0.5 1.5 2.5
v -0.5 1.5 2.5
v -0.5 1.5 1.5
v -0.5 0.5 1.5
v 0.5 0.5 1.5
v 0.5 1.5 1.5
v 0.5 1.5 0.5
v -0.5 1.5 0.5
v -0.5 2.5 0.5
v 0.5 2.5 1.5
v 0.5 2.5 0.5
v -0.5 2.5 1.5
v -0.5 1.5 0.5
v 0.5 2.5 0.5
v 0.5 1.5 0.5
v -0.5 2.5 0.5
v -0.5 1.5 1.5
v 0.5 1.5 1.5
v 0.5 2.5 1.5
v -0.5 2.5 1.5
v -0.5 2.5 0.5
v -0.5 1.5 0.5
v 0.5 1.5 0.5
v 0.5 2.5 0.5
v -0.5 1.5 2.5
v 0.5 1.5 1.5
v 0.5 1.5 2.5
v -0.5 1.5 1.5
v -0.5 2.5 1.5
v 0.5 2.5 2.5
v 0.5 2.5 1.5
v -0.5 2.5 2.5
v -0.5 1.5 1.5
v 0.5 2.5 1.5
v 0.5 1.5 1.5
v -0.5 2.5 1.5
v -0.5 1.5 2.5
v 0.5 1.5 2.5
v 0.5 2.5 2.5
v -0.5 2.5 2.5
v -0.5 2.5 1.5
v 0.5 1.5 1.5
v 0.5 2.5 1.5
v -0.5 2.5 2.5
v 0.5 2.5 1.5
v 0.5 2.5 2.5
v -0.5 2.5 1.5
v -0.5 3.5 1.5
v 0.5 3.5 2.5
v 0.5 3.5 1.5
v -0.5 3.5 2.5
v -0.5 2.5 1.5
v 0.5 3.5 1.5
v 0.5 2.5 1.5
v -0.5 3.5 1.5
v -0.5 2.5 2.5
v 0.5 2.5 2.5
v 0.5 3.5 2.5
v -0.5 3.5 2.5
v -0.5 3.5 1.5
v 0.5 2.5 1.5
v 0.5 3.5 1.5
v -0.5 3.5 2.5
v 0.5 3.5 1.5
v 0.5 3.5 2.5
v -0.5 3.5 1.5
v -0.5 4.5 1.5
v 0.5 4.5 2.5
v 0.5 4.5 1.5
v -0.5 4.5 2.5
v -0.5 3.5 1.5
v 0.5 4.5 1.5
v 0.5 3.5 1.5
v -0.5 4.5 1.5
v -0.5 3.5 2.5
v 0.5 3.5 2.5
v 0.5 4.5 2.5
v -0.5 4.5 2.5
v -0.5 4.5 1.5
v 0.5 3.5 1.5
v 0.5 4.5 1.5
v -0.5 4.5 2.5
v 0.5 4.5 1.5
v 0.5 4.5 2.5
v -0.5 4.5 1.5
v -0.5 5.5 1.5
v 0.5 5.5 2.5
v 0.5 5.5 1.5
v -0.5 5.5 2.5
v -0.5 4.5 2.5
v 0.5 4.5 2.5
v 0.5 5.5 2.5
v -0.5 5.5 2.5
v -0.5 5.5 1.5
v -0.5 4.5 1.5
v 0.5 4.5 1.5
v 0.5 5.5 1.5
v 0.5 -0.5 0.5
v 1.5 -0.5 -0.5
v 1.5 -0.5 0.5
v 0.5 -0.5 -0.5
v 0.5 0.5 -0.5
v 1.5 0.5 0.5
v 1.5 0.5 -0.5
v 0.5 0.5 0.5
v 1.5 0.5 -0.5
v 1.5 -0.5 -0.5
v 1.5 -0.5 0.5
v 1.5 0.5 0.5
v 1.5 -0.5 -0.5
v 1.5 0.5 -0.5
v 0.5 -0.5 1.5
v 1.5 -0.5 0.5
v 1.5 -0.5 1.5
v 0.5 -0.5 0.5
v 0.5 0.5 0.5
v 1.5 0.5 1.5
v 1.5 0.5 0.5
v 0.5 0.5 1.5
v 1.5 -0.5 1.5
v 1.5 0.5 1.5
v 1.5 -0.5 0.5
v 1.5 0.5 0.5
v 0.5 0.5 1.5
v 1.5 0.5 1.5
v 0.5 1.5 0.5
v 1.5 1.5 1.5
v 1.5 1.5 0.5
v 1.5 1.5 0.5
v 1.5 0.5 0.5
v 1.5 0.5 1.5
v 1.5 1.5 1.5
v 1.5 0.5 0.5
v 1.5 1.5 0.5
v 0.5 1.5 1.5
v 1.5 1.5 0.5
v 1.5 1.5 1.5
v 0.5 1.5 0.5
v 0.5 2.5 0.5
v 1.5 2.5 1.5
v 1.5 2.5 0.5
v 0.5 1.5 0.5
v 1.5 2.5 0.5
v 1.5 1.5 0.5
v 0.5 2.5 0.5
v 1.5 1.5 1.5
v 1.5 2.5 1.5
v 0.5 2.5 0.5
v 1.5 1.5 0.5
v 1.5 2.5 0.5
v 0.5 2.5 1.5
v 1.5 2.5 0.5
v 1.5 2.5 1.5
v 0.5 2.5 0.5
v 0.5 3.5 0.5
v 1.5 3.5 1.5
v 1.5 3.5 0.5
v 0.5 2.5 0.5
v 1.5 3.5 0.5
v 1.5 2.5 0.5
v 0.5 3.5 0.5
v 0.5 2.5 1.5
v 1.5 2.5 1.5
v 1.5 3.5 1.5
v 0.5 3.5 1.5
v 0.5 3.5 0.5
v 0.5 2.5 0.5
v 1.5 2.5 0.5
v 1.5 3.5 0.5
v 0.5 3.5 1.5
v 1.5 3.5 0.5
v 1.5 3.5 1.5
v 0.5 3.5 0.5
v 0.5 4.5 0.5
v 1.5 4.5 1.5
v 1.5 4.5 0.5
v 0.5 3.5 1.5
v 1.5 3.5 1.5
v 1.5 4.5 1.5
v 0.5 4.5 1.5
v 0.5 4.5 0.5
v 0.5 3.5 0.5
v 1.5 3.5 0.5
v 1.5 4.5 0.5
v 1.5 4.5 0.5
v 0.5 4.5 0.5
v 0.5 5.5 0.5
v 1.5 5.5 1.5
v 1.5 5.5 0.5
v 0.5 5.5 1.5
v 1.5 5.5 1.5
v 0.5 5.5 0.5
v 0.5 4.5 0.5
v 1.5 4.5 0.5
v 1.5 5.5 0.5
v 0.5 5.5 2.5
v 1.5 5.5 1.5
v 1.5 5.5 2.5
v 0.5 5.5 1.5
v 0.5 6.5 1.5
v 1.5 6.5 2.5
v 1.5 6.5 1.5
v 0.5 6.5 2.5
v 0.5 5.5 1.5
v 1.5 6.5 1.5
v 1.5 5.5 1.5
v 0.5 6.5 1.5
v 0.5 5.5 2.5
v 1.5 5.5 2.5
v 1.5 6.5 2.5
v 0.5 6.5 2.5
v 0.5 6.5 1.5
v 0.5 5.5 1.5
v 1.5 5.5 1.5
v 1.5 6.5 1.5
v 0.5 6.5 2.5
v 1.5 6.5 1.5
v 1.5 6.5 2.5
v 0.5 6.5 1.5
v 0.5 7.5 1.5
v 1.5 7.5 2.5
v 1.5 7.5 1.5
v 0.5 7.5 2.5
v 0.5 6.5 1.5
v 1.5 7.5 1.5
v 1.5 6.5 1.5
v 0.5 7.5 1.5
v 0.5 6.5 2.5
v 1.5 6.5 2.5
v 1.5 7.5 2.5
v 0.5 7.5 2.5
v 0.5 7.5 1.5
v 0.5 6.5 1.5
v 1.5 6.5 1.5
v 1.5 7.5 1.5
v 0.5 7.5 2.5
v 1.5 7.5 1.5
v 1.5 7.5 2.5
v 0.5 7.5 1.5
v 0.5 8.5 1.5
v 1.5 8.5 2.5
v 1.5 8.5 1.5
v 0.5 8.5 2.5
v 0.5 7.5 2.5
v 1.5 7.5 2.5
v 1.5 8.5 2.5
v 0.5 8.5 2.5
v 0.5 8.5 1.5
v 0.5 7.5 1.5
v 1.5 7.5 1.5
v 1.5 8.5 1.5
v 0.5 8.5 2.5
v 1.5 8.5 1.5
v 1.5 8.5 2.5
v 0.5 8.5 1.5
v 0.5 9.5 1.5
v 1.5 9.5 2.5
v 1.5 9.5 1.5
v 0.5 9.5 2.5
v 0.5 8.5 1.5
v 1.5 9.5 1.5
v 1.5 8.5 1.5
v 0.5 9.5 1.5
v 0.5 8.5 2.5
v 1.5 8.5 2.5
v 1.5 9.5 2.5
v 0.5 9.5 2.5
v 0.5 9.5 1.5
v 1.5 8.5 1.5
v 1.5 9.5 1.5
v 0.5 9.5 2.5
v 1.5 9.5 1.5
v 1.5 9.5 2.5
v 0.5 9.5 1.5
v 0.5 10.5 1.5
v 1.5 10.5 2.5
v 1.5 10.5 1.5
v 0.5 10.5 2.5
v 0.5 9.5 1.5
v 1.5 10.5 1.5
v 1.5 9.5 1.5
v 0.5 10.5 1.5
v 0.5 9.5 2.5
v 1.5 9.5 2.5
v 1.5 10.5 2.5
v 0.5 10.5 2.5
v 0.5 10.5 1.5
v 0.5 9.5 1.5
v 1.5 9.5 1.5
v 1.5 10.5 1.5
v 0.5 9.5 3.5
v 1.5 9.5 3.5
v 0.5 10.5 2.5
v 1.5 10.5 3.5
v 1.5 10.5 2.5
v 0.5 10.5 3.5
v 0.5 9.5 3.5
v 1.5 9.5 3.5
v 1.5 10.5 3.5
v 0.5 10.5 3.5
v 0.5 10.5 2.5
v 0.5 9.5 2.5
v 1.5 9.5 2.5
v 1.5 10.5 2.5
v 1.5 -0.5 1.5
v 2.5 -0.5 0.5
v 2.5 -0.5 1.5
v 1.5 -0.5 0.5
v 1.5 0.5 0.5
v 2.5 0.5 1.5
v 2.5 0.5 0.5
v 1.5 0.5 1.5
v 2.5 0.5 0.5
v 2.5 -0.5 0.5
v 1.5 -0.5 1.5
v 2.5 -0.5 1.5
v 2.5 0.5 1.5
v 1.5 0.5 1.5
v 2.5 -0.5 0.5
v 2.5 0.5 0.5
v 1.5 0.5 1.5
v 2.5 0.5 0.5
v 2.5 0.5 1.5
v 1.5 0.5 0.5
v 1.5 1.5 0.5
v 2.5 1.5 1.5
v 2.5 1.5 0.5
v 1.5 1.5 1.5
v 2.5 1.5 0.5
v 2.5 0.5 0.5
v 1.5 0.5 1.5
v 2.5 0.5 1.5
v 2.5 1.5 1.5
v 1.5 1.5 1.5
v 2.5 0.5 0.5
v 2.5 1.5 0.5
v 1.5 1.5 1.5
v 2.5 1.5 0.5
v 2.5 1.5 1.5
v 1.5 2.5 0.5
v 2.5 2.5 1.5
v 2.5 2.5 0.5
v 1.5 2.5 1.5
v 2.5 2.5 0.5
v 2.5 1.5 0.5
v 1.5 1.5 1.5
v 2.5 1.5 1.5
v 2.5 2.5 1.5
v 1.5 2.5 1.5
v 2.5 1.5 0.5
v 2.5 2.5 0.5
v 1.5 2.5 1.5
v 2.5 2.5 0.5
v 2.5 2.5 1.5
v 1.5 2.5 0.5
v 1.5 3.5 0.5
v 2.5 3.5 1.5
v 2.5 3.5 0.5
v 1.5 3.5 1.5
v 2.5 3.5 0.5
v 2.5 2.5 0.5
v 1.5 2.5 1.5
v 2.5 2.5 1.5
v 2.5 3.5 1.5
v 1.5 3.5 1.5
v 2.5 2.5 0.5
v 2.5 3.5 0.5
v 1.5 3.5 1.5
v 2.5 3.5 0.5
v 2.5 3.5 1.5
v 1.5 3.5 0.5
v 1.5 4.5 0.5
v 2.5 4.5 1.5
v 2.5 4.5 0.5
v 1.5 4.5 1.5
v 1.5 3.5 0.5
v 2.5 4.5 0.5
v 2.5 3.5 0.5
v 1.5 4.5 0.5
v 1.5 3.5 1.5
v 2.5 3.5 1.5
v 2.5 4.5 1.5
v 1.5 4.5 1.5
v 1.5 4.5 0.5
v 2.5 3.5 0.5
v 2.5 4.5 0.5
v 1.5 4.5 1.5
v 2.5 4.5 0.5
v 2.5 4.5 1.5
v 1.5 4.5 0.5
v 1.5 5.5 0.5
v 2.5 5.5 1.5
v 2.5 5.5 0.5
v 1.5 5.5 1.5
v 1.5 4.5 0.5
v 2.5 5.5 0.5
v 2.5 4.5 0.5
v 1.5 5.5 0.5
v 1.5 4.5 1.5
v 2.5 4.5 1.5
v 2.5 5.5 1.5
v 1.5 5.5 1.5
v 1.5 4.5 1.5
v 1.5 5.5 1.5
v 1.5 5.5 2.5
v 2.5 5.5 1.5
v 2.5 5.5 2.5
v 1.5 5.5 1.5
v 1.5 6.5 1.5
v 2.5 6.5 2.5
v 2.5 6.5 1.5
v 1.5 6.5 2.5
v 2.5 6.5 1.5
v 2.5 5.5 1.5
v 1.5 5.5 2.5
v 2.5 5.5 2.5
v 2.5 6.5 2.5
v 1.5 6.5 2.5
v 2.5 5.5 1.5
v 2.5 6.5 1.5
v 1.5 7.5 2.5
v 2.5 7.5 1.5
v 2.5 7.5 2.5
v 1.5 7.5 1.5
v 1.5 8.5 1.5
v 2.5 8.5 2.5
v 2.5 8.5 1.5
v 1.5 8.5 2.5
v 1.5 7.5 1.5
v 2.5 8.5 1.5
v 2.5 7.5 1.5
v 1.5 8.5 1.5
v 1.5 7.5 2.5
v 2.5 7.5 2.5
v 2.5 8.5 2.5
v 1.5 8.5 2.5
v 1.5 7.5 2.5
v 1.5 8.5 2.5
v 1.5 8.5 2.5
v 2.5 8.5 1.5
v 2.5 8.5 2.5
v 1.5 8.5 1.5
v 1.5 9.5 1.5
v 2.5 9.5 2.5
v 2.5 9.5 1.5
v 1.5 9.5 2.5
v 1.5 8.5 2.5
v 2.5 8.5 2.5
v 2.5 9.5 2.5
v 1.5 9.5 2.5
v 1.5 9.5 1.5
v 1.5 8.5 1.5
v 2.5 8.5 1.5
v 2.5 9.5 1.5
v 1.5 9.5 2.5
v 2.5 9.5 1.5
v 2.5 9.5 2.5
v 1.5 9.5 1.5
v 1.5 10.5 1.5
v 2.5 10.5 2.5
v 2.5 10.5 1.5
v 1.5 10.5 2.5
v 2.5 10.5 1.5
v 2.5 9.5 1.5
v 2.5 9.5 2.5
v 2.5 10.5 2.5
v 2.5 9.5 1.5
v 2.5 10.5 1.5
v 1.5 10 3.5
v 2.5 10 2.5
v 2.5 10 3.5
v 1.5 10 2.5
v 1.5 10.5 2.5
v 2.5 10.5 3.5
v 2.5 10.5 2.5
v 1.5 10.5 3.5
v 1.5 10 2.5
v 2.5 10 2.5
v 1.5 10 3.5
v 2.5 10 3.5
v 2.5 10.5 3.5
v 1.5 10.5 3.5
v 1.5 10 2.5
v 2.5 10 2.5
v 2.5 10.5 2.5
v 1.5 10.5 3.5
v 2.5 10.5 2.5
v 2.5 10.5 3.5
v 1.5 10.5 2.5
v 1.5 11 2.5
v 2.5 11 3.5
v 2.5 11 2.5
v 1.5 11 3.5
v 1.5 10.5 2.5
v 2.5 11 2.5
v 2.5 10.5 2.5
v 1.5 11 2.5
v 1.5 10.5 3.5
v 2.5 10.5 3.5
v 2.5 11 3.5
v 1.5 11 3.5
v 1.5 11 2.5
v 2.5 10.5 2.5
v 2.5 11 2.5
v 2 11.5 2.5
v 2.5 11.5 3.5
v 2.5 11.5 2.5
v 2 11.5 3.5
v 2 11 2.5
v 2.5 11.5 2.5
v 2.5 11 2.5
v 2 11.5 2.5
v 2 11 3.5
v 2.5 11.5 3.5
v 2 11.5 3.5
v 2 11 3.5
v 2 11.5 2.5
v 2 11 2.5
v 2 11.5 3.5
v 2.5 11.5 2.5
v 2.5 -0.5 0.5
v 3.5 -0.5 -0.5
v 3.5 -0.5 0.5
v 2.5 -0.5 -0.5
v 2.5 0.5 -0.5
v 3.5 0.5 0.5
v 3.5 0.5 -0.5
v 2.5 0.5 0.5
v 2.5 -0.5 -0.5
v 3.5 0.5 -0.5
v 3.5 -0.5 -0.5
v 2.5 0.5 -0.5
v 3.5 -0.5 0.5
v 3.5 0.5 0.5
v 2.5 0.5 -0.5
v 2.5 -0.5 -0.5
v 3.5 -0.5 -0.5
v 3.5 0.5 -0.5
v 2.5 -0.5 1.5
v 3.5 -0.5 0.5
v 3.5 -0.5 1.5
v 2.5 -0.5 0.5
v 2.5 0.5 0.5
v 3.5 0.5 1.5
v 3.5 0.5 0.5
v 2.5 0.5 1.5
v 2.5 -0.5 1.5
v 3.5 -0.5 1.5
v 3.5 0.5 1.5
v 2.5 0.5 1.5
v 3.5 -0.5 0.5
v 3.5 0.5 0.5
v 2.5 0.5 2.5
v 3.5 0.5 1.5
v 3.5 0.5 2.5
v 2.5 0.5 1.5
v 2.5 1.5 1.5
v 3.5 1.5 2.5
v 3.5 1.5 1.5
v 2.5 1.5 2.5
v 2.5 0.5 2.5
v 3.5 0.5 2.5
v 3.5 1.5 2.5
v 2.5 1.5 2.5
v 2.5 1.5 1.5
v 2.5 0.5 1.5
v 3.5 0.5 1.5
v 3.5 1.5 1.5
v 3.5 1.5 1.5
v 2.5 1.5 1.5
v 2.5 2.5 1.5
v 3.5 2.5 2.5
v 3.5 2.5 1.5
v 2.5 2.5 2.5
v 3.5 2.5 2.5
v 2.5 2.5 2.5
v 2.5 2.5 1.5
v 2.5 1.5 1.5
v 3.5 1.5 1.5
v 3.5 2.5 1.5
v 2.5 2.5 1.5
v 3.5 2.5 0.5
v 3.5 2.5 1.5
v 2.5 2.5 0.5
v 2.5 3.5 0.5
v 3.5 3.5 1.5
v 3.5 3.5 0.5
v 2.5 3.5 1.5
v 2.5 2.5 1.5
v 3.5 2.5 1.5
v 3.5 3.5 1.5
v 2.5 3.5 1.5
v 2.5 3.5 0.5
v 2.5 2.5 0.5
v 3.5 2.5 0.5
v 3.5 3.5 0.5
v 3.5 3.5 0.5
v 2.5 3.5 0.5
v 2.5 4.5 0.5
v 3.5 4.5 1.5
v 3.5 4.5 0.5
v 2.5 4.5 1.5
v 3.5 4.5 1.5
v 2.5 4.5 1.5
v 2.5 4.5 0.5
v 2.5 3.5 0.5
v 3.5 3.5 0.5
v 3.5 4.5 0.5
v 2.5 4.5 1.5
v 3.5 4.5 0.5
v 3.5 4.5 1.5
v 3.5 5.5 1.5
v 3.5 5.5 0.5
v 2.5 5.5 1.5
v 3.5 5.5 0.5
v 3.5 4.5 0.5
v 2.5 4.5 1.5
v 3.5 4.5 1.5
v 3.5 5.5 1.5
v 2.5 5.5 1.5
v 2.5 5.5 1.5
v 3.5 5.5 0.5
v 3.5 5.5 1.5
v 2.5 5.5 0.5
v 2.5 6.5 0.5
v 3.5 6.5 1.5
v 3.5 6.5 0.5
v 2.5 6.5 1.5
v 2.5 5.5 1.5
v 3.5 5.5 1.5
v 3.5 6.5 1.5
v 2.5 6.5 1.5
v 2.5 6.5 0.5
v 2.5 5.5 0.5
v 3.5 5.5 0.5
v 3.5 6.5 0.5
v 3.5 6.5 0.5
v 2.5 6.5 0.5
v 2.5 7.5 0.5
v 3.5 7.5 1.5
v 3.5 7.5 0.5
v 2.5 7.5 1.5
v 3.5 7.5 1.5
v 2.5 7.5 1.5
v 2.5 7.5 0.5
v 2.5 6.5 0.5
v 3.5 6.5 0.5
v 3.5 7.5 0.5
v 2.5 8.5 2.5
v 3.5 8.5 1.5
v 3.5 8.5 2.5
v 2.5 8.5 1.5
v 2.5 9.5 1.5
v 3.5 9.5 2.5
v 3.5 9.5 1.5
v 2.5 9.5 2.5
v 2.5 8.5 1.5
v 3.5 9.5 1.5
v 3.5 8.5 1.5
v 2.5 9.5 1.5
v 2.5 8.5 2.5
v 3.5 8.5 2.5
v 3.5 9.5 2.5
v 2.5 9.5 2.5
v 2.5 9.5 1.5
v 2.5 8.5 1.5
v 3.5 8.5 1.5
v 3.5 9.5 1.5
v 2.5 9.5 2.5
v 3.5 9.5 1.5
v 3.5 9.5 2.5
v 2.5 9.5 1.5
v 2.5 10.5 1.5
v 3.5 10.5 2.5
v 3.5 10.5 1.5
v 3.5 10.5 1.5
v 3.5 9.5 1.5
v 2.5 9.5 2.5
v 3.5 9.5 2.5
v 3.5 10.5 2.5
v 3.5 9.5 1.5
v 3.5 10.5 1.5
v 2.5 10 3.5
v 3.5 10 2.5
v 3.5 10 3.5
v 2.5 10 2.5
v 2.5 10.5 2.5
v 3.5 10.5 3.5
v 3.5 10.5 2.5
v 2.5 10.5 3.5
v 3.5 10 2.5
v 2.5 10 3.5
v 3.5 10 3.5
v 3.5 10.5 3.5
v 2.5 10.5 3.5
v 3.5 10 2.5
v 3.5 10.5 2.5
v 3.5 10.5 2.5
v 3.5 10.5 1.5
v 3.5 11 1.5
v 2.5 11 2.5
v 3.5 11 2.5
v 2.5 11 1.5
v 3.5 10.5 1.5
v 3.5 11 2.5
v 3.5 10.5 2.5
v 3.5 11 1.5
v 2.5 10.5 1.5
v 2.5 11 2.5
v 2.5 11 1.5
v 3.5 11 1.5
v 3.5 10.5 1.5
v 3.5 10.5 2.5
v 3.5 11 2.5
v 3.5 11.5 2
v 2.5 11.5 2.5
v 3.5 11.5 2.5
v 2.5 11.5 2
v 3.5 11 2
v 3.5 11.5 2.5
v 3.5 11 2.5
v 3.5 11.5 2
v 2.5 11 2
v 2.5 11.5 2.5
v 2.5 11.5 2
v 2.5 11 2
v 3.5 11.5 2
v 3.5 11 2
v 2.5 11.5 2
v 3.5 11.5 2.5
v 2.75 10.5 3.25
v 3.25 10.5 2.75
v 3.25 10.5 3.25
v 2.75 10.5 2.75
v 2.75 11.5 2.75
v 3.25 11.5 3.25
v 3.25 11.5 2.75
v 2.75 11.5 3.25
v 2.75 10.5 2.75
v 3.25 11.5 2.75
v 3.25 10.5 2.75
v 2.75 11.5 2.75
v 2.75 10.5 3.25
v 3.25 10.5 3.25
v 3.25 11.5 3.25
v 2.75 11.5 3.25
v 2.75 11.5 2.75
v 2.75 10.5 2.75
v 3.25 10.5 2.75
v 3.25 11.5 2.75
v 2.8125 10.5 3
v 3.1875 10.5 2.5
v 3.1875 10.5 3
v 2.8125 10.5 2.5
v 2.8125 11.5 2.5
v 3.1875 11.5 3
v 3.1875 11.5 2.5
v 2.8125 11.5 3
v 2.8125 10.5 3
v 2.8125 11.5 2.5
v 2.8125 10.5 2.5
v 2.8125 11.5 3
v 3.1875 10.5 2.5
v 3.1875 11.5 3
v 3.1875 10.5 3
v 3.1875 11.5 2.5
v 3 10.5 2.8125
v 3.5 10.5 3.1875
v 3 10.5 3.1875
v 3.5 10.5 2.8125
v 3.5 11.5 2.8125
v 3 11.5 3.1875
v 3.5 11.5 3.1875
v 3 11.5 2.8125
v 3 10.5 2.8125
v 3.5 11.5 2.8125
v 3.5 10.5 2.8125
v 3 11.5 2.8125
v 3.5 10.5 3.1875
v 3 11.5 3.1875
v 3 10.5 3.1875
v 3.5 11.5 3.1875
v 2.5 10.5 2.8125
v 2.5 10.5 3.1875
v 2.5 11.5 3.1875
v 2.5 11.5 2.8125
v 3 10.5 3.1875
v 2.5 11.5 3.1875
v 2.5 10.5 3.1875
v 3 11.5 3.1875
v 2.5 10.5 2.8125
v 3 11.5 2.8125
v 3 10.5 2.8125
v 2.5 11.5 2.8125
v 2.5 11.5 3.5
v 3.5 11.5 2.5
v 3.5 11.5 3.5
v 2.5 11.5 2.5
v 2.5 12.5 2.5
v 3.5 12.5 3.5
v 3.5 12.5 2.5
v 2.5 12.5 3.5
v 2.5 11.5 3.5
v 3.5 11.5 3.5
v 3.5 12.5 3.5
v 2.5 12.5 3.5
v 2.5 12.5 2.5
v 2.5 11.5 2.5
v 3.5 11.5 2.5
v 3.5 12.5 2.5
v 3.5 -0.5 0.5
v 4.5 -0.5 -0.5
v 4.5 -0.5 0.5
v 3.5 -0.5 -0.5
v 3.5 0.5 -0.5
v 4.5 0.5 0.5
v 4.5 0.5 -0.5
v 3.5 0.5 0.5
v 4.5 0.5 -0.5
v 4.5 -0.5 -0.5
v 4.5 -0.5 0.5
v 4.5 0.5 0.5
v 4.5 -0.5 -0.5
v 4.5 0.5 -0.5
v 3.5 -0.5 1.5
v 4.5 -0.5 0.5
v 4.5 -0.5 1.5
v 3.5 -0.5 0.5
v 3.5 0.5 0.5
v 4.5 0.5 1.5
v 4.5 0.5 0.5
v 3.5 0.5 1.5
v 3.5 -0.5 1.5
v 4.5 -0.5 1.5
v 4.5 0.5 1.5
v 3.5 0.5 1.5
v 4.5 -0.5 0.5
v 4.5 0.5 0.5
v 3.5 0.5 1.5
v 4.5 0.5 1.5
v 3.5 1.5 0.5
v 4.5 1.5 1.5
v 4.5 1.5 0.5
v 3.5 1.5 1.5
v 3.5 0.5 0.5
v 4.5 1.5 0.5
v 4.5 0.5 0.5
v 3.5 1.5 0.5
v 3.5 0.5 1.5
v 4.5 0.5 1.5
v 4.5 1.5 1.5
v 3.5 1.5 1.5
v 3.5 1.5 0.5
v 3.5 0.5 0.5
v 4.5 0.5 0.5
v 4.5 1.5 0.5
v 3.5 1.5 1.5
v 4.5 1.5 0.5
v 4.5 1.5 1.5
v 3.5 1.5 0.5
v 3.5 2.5 0.5
v 4.5 2.5 1.5
v 4.5 2.5 0.5
v 3.5 2.5 1.5
v 3.5 1.5 0.5
v 4.5 2.5 0.5
v 4.5 1.5 0.5
v 3.5 2.5 0.5
v 3.5 1.5 1.5
v 4.5 1.5 1.5
v 4.5 2.5 1.5
v 3.5 2.5 1.5
v 3.5 2.5 0.5
v 4.5 1.5 0.5
v 4.5 2.5 0.5
v 3.5 2.5 1.5
v 4.5 2.5 0.5
v 4.5 2.5 1.5
v 3.5 2.5 0.5
v 3.5 3.5 0.5
v 4.5 3.5 1.5
v 4.5 3.5 0.5
v 3.5 3.5 1.5
v 3.5 2.5 0.5
v 4.5 3.5 0.5
v 4.5 2.5 0.5
v 3.5 3.5 0.5
v 3.5 2.5 1.5
v 4.5 2.5 1.5
v 4.5 3.5 1.5
v 3.5 3.5 1.5
v 3.5 3.5 0.5
v 4.5 2.5 0.5
v 4.5 3.5 0.5
v 3.5 3.5 1.5
v 4.5 3.5 0.5
v 4.5 3.5 1.5
v 3.5 3.5 0.5
v 3.5 4.5 0.5
v 4.5 4.5 1.5
v 4.5 4.5 0.5
v 3.5 4.5 1.5
v 3.5 3.5 0.5
v 4.5 4.5 0.5
v 4.5 3.5 0.5
v 3.5 4.5 0.5
v 3.5 3.5 1.5
v 4.5 3.5 1.5
v 4.5 4.5 1.5
v 3.5 4.5 1.5
v 3.5 4.5 0.5
v 3.5 3.5 0.5
v 4.5 3.5 0.5
v 4.5 4.5 0.5
v 3.5 4.5 1.5
v 4.5 4.5 0.5
v 4.5 4.5 1.5
v 3.5 4.5 0.5
v 3.5 5.5 0.5
v 4.5 5.5 1.5
v 4.5 5.5 0.5
v 3.5 5.5 1.5
v 3.5 4.5 0.5
v 4.5 5.5 0.5
v 4.5 4.5 0.5
v 3.5 5.5 0.5
v 3.5 4.5 1.5
v 4.5 4.5 1.5
v 4.5 5.5 1.5
v 3.5 5.5 1.5
v 3.5 5.5 0.5
v 3.5 4.5 0.5
v 4.5 4.5 0.5
v 4.5 5.5 0.5
v 3.5 5.5 2.5
v 4.5 5.5 2.5
v 3.5 6.5 1.5
v 4.5 6.5 2.5
v 4.5 6.5 1.5
v 3.5 6.5 2.5
v 3.5 5.5 1.5
v 4.5 6.5 1.5
v 4.5 5.5 1.5
v 3.5 6.5 1.5
v 3.5 5.5 2.5
v 4.5 5.5 2.5
v 4.5 6.5 2.5
v 3.5 6.5 2.5
v 3.5 6.5 1.5
v 3.5 5.5 1.5
v 4.5 5.5 1.5
v 4.5 6.5 1.5
v 3.5 6.5 2.5
v 4.5 6.5 1.5
v 4.5 6.5 2.5
v 3.5 6.5 1.5
v 3.5 7.5 1.5
v 4.5 7.5 2.5
v 4.5 7.5 1.5
v 3.5 7.5 2.5
v 3.5 6.5 2.5
v 4.5 6.5 2.5
v 4.5 7.5 2.5
v 3.5 7.5 2.5
v 3.5 7.5 1.5
v 3.5 6.5 1.5
v 4.5 6.5 1.5
v 4.5 7.5 1.5
v 3.5 7.5 2.5
v 4.5 7.5 1.5
v 4.5 7.5 2.5
v 3.5 7.5 1.5
v 3.5 8.5 1.5
v 4.5 8.5 2.5
v 4.5 8.5 1.5
v 3.5 8.5 2.5
v 3.5 7.5 1.5
v 4.5 8.5 1.5
v 4.5 7.5 1.5
v 3.5 8.5 1.5
v 3.5 7.5 2.5
v 4.5 7.5 2.5
v 4.5 8.5 2.5
v 3.5 8.5 2.5
v 3.5 8.5 1.5
v 3.5 7.5 1.5
v 4.5 7.5 1.5
v 4.5 8.5 1.5
v 3.5 8.5 2.5
v 4.5 8.5 1.5
v 4.5 8.5 2.5
v 3.5 8.5 1.5
v 3.5 9.5 1.5
v 4.5 9.5 2.5
v 4.5 9.5 1.5
v 3.5 9.5 2.5
v 4.5 9.5 2.5
v 3.5 9.5 2.5
v 4.5 8.5 1.5
v 4.5 9.5 1.5
v 4.5 9.5 1.5
v 3.5 9.5 1.5
v 3.5 10.5 1.5
v 4.5 10.5 2.5
v 4.5 10.5 1.5
v 3.5 10.5 2.5
v 4.5 10.5 1.5
v 4.5 9.5 1.5
v 3.5 9.5 2.5
v 4.5 9.5 2.5
v 4.5 10.5 2.5
v 4.5 9.5 1.5
v 4.5 10.5 1.5
v 3.5 10 3.5
v 4.5 10 2.5
v 4.5 10 3.5
v 3.5 10 2.5
v 3.5 10.5 2.5
v 4.5 10.5 3.5
v 4.5 10.5 2.5
v 3.5 10.5 3.5
v 4.5 10 2.5
v 3.5 10 3.5
v 4.5 10 3.5
v 4.5 10.5 3.5
v 3.5 10.5 3.5
v 4.5 10 2.5
v 4.5 10.5 2.5
v 4.5 10.5 2.5
v 3.5 10.5 3.5
v 4.5 10.5 3.5
v 4.5 11 3.5
v 3.5 11 2.5
v 3.5 11 3.5
v 4.5 11 2.5
v 4.5 10.5 3.5
v 3.5 11 3.5
v 3.5 10.5 3.5
v 4.5 11 3.5
v 4.5 10.5 2.5
v 3.5 11 2.5
v 4.5 11 2.5
v 4.5 11 3.5
v 4.5 10.5 3.5
v 3.5 11 3.5
v 4 11.5 3.5
v 3.5 11.5 2.5
v 3.5 11.5 3.5
v 4 11.5 2.5
v 4 11 3.5
v 3.5 11.5 3.5
v 3.5 11 3.5
v 4 11.5 3.5
v 4 11 2.5
v 3.5 11.5 2.5
v 4 11.5 2.5
v 4 11 2.5
v 4 11.5 3.5
v 4 11 3.5
v 4 11.5 2.5
v 3.5 11.5 3.5
v 4.5 -0.5 1.5
v 5.5 -0.5 0.5
v 5.5 -0.5 1.5
v 4.5 -0.5 0.5
v 4.5 0.5 0.5
v 5.5 0.5 1.5
v 5.5 0.5 0.5
v 4.5 0.5 1.5
v 5.5 0.5 0.5
v 5.5 -0.5 0.5
v 4.5 -0.5 1.5
v 5.5 -0.5 1.5
v 5.5 0.5 1.5
v 4.5 0.5 1.5
v 5.5 -0.5 0.5
v 5.5 0.5 0.5
v 4.5 0.5 1.5
v 5.5 0.5 0.5
v 5.5 0.5 1.5
v 4.5 0.5 0.5
v 4.5 1.5 0.5
v 5.5 1.5 1.5
v 5.5 1.5 0.5
v 4.5 1.5 1.5
v 5.5 1.5 0.5
v 5.5 0.5 0.5
v 4.5 0.5 1.5
v 5.5 0.5 1.5
v 5.5 1.5 1.5
v 4.5 1.5 1.5
v 5.5 0.5 0.5
v 5.5 1.5 0.5
v 4.5 1.5 1.5
v 5.5 1.5 0.5
v 5.5 1.5 1.5
v 4.5 2.5 0.5
v 5.5 2.5 1.5
v 5.5 2.5 0.5
v 4.5 2.5 1.5
v 5.5 2.5 0.5
v 5.5 1.5 0.5
v 4.5 1.5 1.5
v 5.5 1.5 1.5
v 5.5 2.5 1.5
v 4.5 2.5 1.5
v 5.5 1.5 0.5
v 5.5 2.5 0.5
v 4.5 2.5 1.5
v 5.5 2.5 0.5
v 5.5 2.5 1.5
v 4.5 2.5 0.5
v 4.5 3.5 0.5
v 5.5 3.5 1.5
v 5.5 3.5 0.5
v 4.5 3.5 1.5
v 4.5 2.5 1.5
v 5.5 2.5 1.5
v 5.5 3.5 1.5
v 4.5 3.5 1.5
v 4.5 3.5 0.5
v 4.5 2.5 0.5
v 5.5 2.5 0.5
v 5.5 3.5 0.5
v 5.5 3.5 0.5
v 5.5 3.5 1.5
v 4.5 3.5 0.5
v 4.5 4.5 0.5
v 5.5 4.5 1.5
v 5.5 4.5 0.5
v 4.5 4.5 1.5
v 4.5 3.5 0.5
v 5.5 4.5 0.5
v 5.5 3.5 0.5
v 4.5 4.5 0.5
v 4.5 3.5 1.5
v 5.5 3.5 1.5
v 5.5 4.5 1.5
v 4.5 4.5 1.5
v 4.5 4.5 0.5
v 5.5 3.5 0.5
v 5.5 4.5 0.5
v 4.5 4.5 1.5
v 5.5 4.5 0.5
v 5.5 4.5 1.5
v 4.5 4.5 0.5
v 4.5 5.5 0.5
v 5.5 5.5 1.5
v 5.5 5.5 0.5
v 4.5 5.5 1.5
v 5.5 5.5 0.5
v 5.5 4.5 0.5
v 4.5 4.5 1.5
v 5.5 4.5 1.5
v 5.5 5.5 1.5
v 4.5 5.5 1.5
v 5.5 4.5 0.5
v 5.5 5.5 0.5
v 4.5 5.5 2.5
v 5.5 5.5 2.5
v 4.5 6.5 1.5
v 5.5 6.5 2.5
v 5.5 6.5 1.5
v 4.5 6.5 2.5
v 5.5 6.5 1.5
v 5.5 5.5 1.5
v 4.5 5.5 2.5
v 5.5 5.5 2.5
v 5.5 6.5 2.5
v 4.5 6.5 2.5
v 5.5 5.5 1.5
v 5.5 6.5 1.5
v 4.5 5.5 3.5
v 5.5 5.5 2.5
v 5.5 5.5 3.5
v 4.5 5.5 2.5
v 4.5 6.5 2.5
v 5.5 6.5 3.5
v 5.5 6.5 2.5
v 4.5 6.5 3.5
v 4.5 5.5 3.5
v 5.5 5.5 3.5
v 5.5 6.5 3.5
v 4.5 6.5 3.5
v 5.5 5.5 2.5
v 5.5 6.5 2.5
v 5.5 6.5 1.5
v 4.5 6.5 1.5
v 4.5 7.5 1.5
v 5.5 7.5 2.5
v 5.5 7.5 1.5
v 4.5 7.5 2.5
v 5.5 7.5 2.5
v 4.5 7.5 2.5
v 4.5 7.5 1.5
v 4.5 6.5 1.5
v 5.5 6.5 1.5
v 5.5 7.5 1.5
v 4.5 7.5 2.5
v 5.5 7.5 1.5
v 5.5 7.5 2.5
v 4.5 7.5 1.5
v 4.5 8.5 1.5
v 5.5 8.5 2.5
v 5.5 8.5 1.5
v 4.5 8.5 2.5
v 4.5 7.5 1.5
v 5.5 8.5 1.5
v 5.5 7.5 1.5
v 4.5 8.5 1.5
v 4.5 7.5 2.5
v 5.5 7.5 2.5
v 5.5 8.5 2.5
v 4.5 8.5 2.5
v 4.5 8.5 1.5
v 5.5 7.5 1.5
v 5.5 8.5 1.5
v 4.5 8.5 2.5
v 5.5 8.5 1.5
v 5.5 8.5 2.5
v 5.5 9.5 2.5
v 5.5 9.5 1.5
v 4.5 9.5 2.5
v 5.5 9.5 2.5
v 4.5 9.5 2.5
v 5.5 8.5 1.5
v 5.5 9.5 1.5
v 5.5 9.5 1.5
v 4.5 9.5 1.5
v 4.5 10 1.5
v 5.5 10 2.5
v 5.5 10 1.5
v 4.5 10 2.5
v 5.5 10 1.5
v 5.5 9.5 1.5
v 4.5 10 1.5
v 4.5 9.5 2.5
v 5.5 9.5 2.5
v 5.5 10 2.5
v 4.5 10 1.5
v 5.5 9.5 1.5
v 5.5 10 1.5
v 4.5 10 3.5
v 5.5 10 3.5
v 4.5 10.5 2.5
v 5.5 10.5 3.5
v 5.5 10.5 2.5
v 4.5 10.5 3.5
v 5.5 10.5 2.5
v 4.5 10 3.5
v 5.5 10 3.5
v 5.5 10.5 3.5
v 4.5 10.5 3.5
v 5.5 10 2.5
v 5.5 10.5 2.5
v 5.5 -0.5 0.5
v 6.5 -0.5 -0.5
v 6.5 -0.5 0.5
v 5.5 -0.5 -0.5
v 5.5 0.5 -0.5
v 6.5 0.5 0.5
v 6.5 0.5 -0.5
v 5.5 0.5 0.5
v 5.5 -0.5 -0.5
v 6.5 0.5 -0.5
v 6.5 -0.5 -0.5
v 5.5 0.5 -0.5
v 6.5 -0.5 0.5
v 6.5 0.5 0.5
v 5.5 0.5 -0.5
v 5.5 -0.5 -0.5
v 6.5 -0.5 -0.5
v 6.5 0.5 -0.5
v 5.5 -0.5 1.5
v 6.5 -0.5 0.5
v 6.5 -0.5 1.5
v 5.5 -0.5 0.5
v 5.5 0.5 0.5
v 6.5 0.5 1.5
v 6.5 0.5 0.5
v 5.5 0.5 1.5
v 5.5 -0.5 1.5
v 6.5 -0.5 1.5
v 6.5 0.5 1.5
v 5.5 0.5 1.5
v 6.5 -0.5 0.5
v 6.5 0.5 0.5
v 5.5 -0.5 2.5
v 6.5 -0.5 1.5
v 6.5 -0.5 2.5
v 5.5 -0.5 1.5
v 5.5 0.5 1.5
v 6.5 0.5 2.5
v 6.5 0.5 1.5
v 5.5 0.5 2.5
v 5.5 -0.5 2.5
v 6.5 -0.5 2.5
v 6.5 0.5 2.5
v 5.5 0.5 2.5
v 6.5 -0.5 1.5
v 6.5 0.5 1.5
v 5.5 -0.5 3.5
v 6.5 -0.5 2.5
v 6.5 -0.5 3.5
v 5.5 -0.5 2.5
v 5.5 0.5 2.5
v 6.5 0.5 3.5
v 6.5 0.5 2.5
v 5.5 0.5 3.5
v 5.5 -0.5 3.5
v 6.5 -0.5 3.5
v 6.5 0.5 3.5
v 5.5 0.5 3.5
v 5.5 0.5 2.5
v 5.5 -0.5 2.5
v 6.5 -0.5 2.5
v 6.5 0.5 2.5
v 5.5 1.5 0.5
v 6.5 1.5 1.5
v 6.5 1.5 0.5
v 5.5 1.5 1.5
v 6.5 1.5 0.5
v 6.5 0.5 0.5
v 5.5 0.5 1.5
v 6.5 0.5 1.5
v 6.5 1.5 1.5
v 5.5 1.5 1.5
v 6.5 0.5 0.5
v 6.5 1.5 0.5
v 5.5 1.5 1.5
v 6.5 1.5 0.5
v 6.5 1.5 1.5
v 5.5 2.5 0.5
v 6.5 2.5 1.5
v 6.5 2.5 0.5
v 5.5 2.5 1.5
v 6.5 2.5 0.5
v 6.5 1.5 0.5
v 5.5 1.5 1.5
v 6.5 1.5 1.5
v 6.5 2.5 1.5
v 5.5 2.5 1.5
v 6.5 1.5 0.5
v 6.5 2.5 0.5
v 5.5 2.5 1.5
v 6.5 2.5 0.5
v 6.5 2.5 1.5
v 5.5 2.5 0.5
v 5.5 3.5 0.5
v 6.5 3.5 1.5
v 6.5 3.5 0.5
v 5.5 3.5 1.5
v 5.5 2.5 0.5
v 6.5 3.5 0.5
v 6.5 2.5 0.5
v 5.5 3.5 0.5
v 5.5 2.5 1.5
v 6.5 2.5 1.5
v 6.5 3.5 1.5
v 5.5 3.5 1.5
v 5.5 3.5 0.5
v 5.5 2.5 0.5
v 6.5 2.5 0.5
v 6.5 3.5 0.5
v 5.5 2.5 2.5
v 6.5 2.5 1.5
v 6.5 2.5 2.5
v 5.5 2.5 1.5
v 6.5 3.5 2.5
v 6.5 3.5 1.5
v 5.5 3.5 2.5
v 5.5 2.5 1.5
v 6.5 3.5 1.5
v 6.5 2.5 1.5
v 5.5 3.5 1.5
v 5.5 2.5 2.5
v 6.5 2.5 2.5
v 6.5 3.5 2.5
v 5.5 3.5 2.5
v 5.5 3.5 1.5
v 6.5 2.5 1.5
v 6.5 3.5 1.5
v 5.5 3.5 2.5
v 6.5 3.5 2.5
v 5.5 4.5 1.5
v 6.5 4.5 2.5
v 6.5 4.5 1.5
v 5.5 4.5 2.5
v 5.5 3.5 1.5
v 6.5 4.5 1.5
v 6.5 3.5 1.5
v 5.5 4.5 1.5
v 5.5 3.5 2.5
v 6.5 3.5 2.5
v 6.5 4.5 2.5
v 5.5 4.5 2.5
v 5.5 4.5 1.5
v 5.5 3.5 1.5
v 6.5 3.5 1.5
v 6.5 4.5 1.5
v 5.5 4.5 2.5
v 6.5 4.5 1.5
v 6.5 4.5 2.5
v 5.5 4.5 1.5
v 5.5 5.5 1.5
v 6.5 5.5 2.5
v 6.5 5.5 1.5
v 5.5 5.5 2.5
v 5.5 4.5 1.5
v 6.5 5.5 1.5
v 6.5 4.5 1.5
v 5.5 5.5 1.5
v 5.5 4.5 2.5
v 6.5 4.5 2.5
v 6.5 5.5 2.5
v 5.5 5.5 2.5
v 5.5 5.5 1.5
v 6.5 4.5 1.5
v 6.5 5.5 1.5
v 5.5 4.5 3.5
v 6.5 4.5 3.5
v 5.5 5.5 2.5
v 6.5 5.5 3.5
v 6.5 5.5 2.5
v 5.5 5.5 3.5
v 5.5 4.5 2.5
v 6.5 5.5 2.5
v 6.5 4.5 2.5
v 5.5 5.5 2.5
v 5.5 4.5 3.5
v 6.5 4.5 3.5
v 6.5 5.5 3.5
v 5.5 5.5 3.5
v 5.5 5.5 2.5
v 5.5 4.5 2.5
v 6.5 4.5 2.5
v 6.5 5.5 2.5
vn 0 -0.99999 -0.00394
vn 0 0.99999 -0.00394
vn 0 0 -1
vn 0.00395 0.00395 0.99998
vn -0.99999 0 -0.00394
vn 0.99999 0 -0.00394
vt 0.875 0.15625
vt 0.89062 0.14062
vt 0.89062 0.15625
vt 0.875 0.14062
vt 0.96875 0.29688
vt 0.98438 0.3125
vt 0.98438 0.29688
vt 0.96875 0.3125
vt 0.85938 0.15625
vt 0.85938 0.14062
vt 0.84375 0.14062
vt 0.84375 0.15625
vt 0.10938 0.10938
vt 0.125 0.09375
vt 0.125 0.10938
vt 0.10938 0.09375
vt 0.39062 0.29688
vt 0.40625 0.28125
vt 0.40625 0.29688
vt 0.39062 0.28125
vt 0.8125 0.21875
vt 0.82812 0.20312
vt 0.82812 0.21875
vt 0.8125 0.20312
vt 0.96875 0.30469
vt 0.98438 0.30469
vt 0.85938 0.14844
vt 0.84375 0.14844
vt 0.88281 0.15625
vt 0.88281 0.14062
vt 0.85156 0.15625
vt 0.85156 0.14844
vt 0.42188 0.35938
vt 0.4375 0.34375
vt 0.4375 0.35938
vt 0.42188 0.34375
vt 0.35938 0.34375
vt 0.375 0.32812
vt 0.375 0.34375
vt 0.35938 0.32812
vt 0.85156 0.14062
vt 0.89062 0.14844
vt 0.875 0.14844
vt 0.84766 0.15234
vt 0.85547 0.14453
vt 0.85547 0.15234
vt 0.84766 0.14453
vt 0.84766 0.14062
vt 0.85547 0.15625
vt 0.85547 0.14062
vt 0.84766 0.15625
vt 0.84863 0.14844
vt 0.85449 0.14062
vt 0.85449 0.14844
vt 0.84863 0.14062
vt 0.84863 0.15625
vt 0.85449 0.15625
vt 0.85156 0.15137
vt 0.84375 0.14551
vt 0.85156 0.14551
vt 0.84375 0.15137
vt 0.85938 0.15137
vt 0.85938 0.14551
vt 0.1875 0.07812
vt 0.20312 0.0625
vt 0.20312 0.07812
vt 0.1875 0.0625
usemtl mat0
f 1/1/1 2/2/1 3/3/1
f 1/1/1 4/4/1 2/2/1
f 5/1/2 6/2/2 7/3/2
f 5/1/2 8/4/2 6/2/2
f 9/5/3 10/6/3 11/7/3
f 9/5/3 12/8/3 10/6/3
f 13/5/4 14/7/4 15/6/4
f 13/5/4 15/6/4 16/8/4
f 13/5/5 17/6/5 18/7/5
f 13/5/5 16/8/5 17/6/5
f 19/5/6 15/6/6 14/7/6
f 19/5/6 20/8/6 15/6/6
f 21/1/1 22/2/1 23/3/1
f 21/1/1 24/4/1 22/2/1
f 25/1/2 26/2/2 27/3/2
f 25/1/2 28/4/2 26/2/2
f 13/5/3 15/6/3 14/7/3
f 13/5/3 16/8/3 15/6/3
f 29/5/4 30/7/4 31/6/4
f 29/5/4 31/6/4 32/8/4
f 29/5/5 33/6/5 34/7/5
f 29/5/5 32/8/5 33/6/5
f 35/5/6 31/6/6 30/7/6
f 35/5/6 36/8/6 31/6/6
f 37/1/1 38/2/1 39/3/1
f 37/1/1 40/4/1 38/2/1
f 41/1/2 42/2/2 43/3/2
f 41/1/2 44/4/2 42/2/2
f 29/5/3 31/6/3 30/7/3
f 29/5/3 32/8/3 31/6/3
f 45/5/4 46/7/4 47/6/4
f 45/5/4 47/6/4 48/8/4
f 45/5/5 49/6/5 50/7/5
f 45/5/5 48/8/5 49/6/5
f 51/5/6 47/6/6 46/7/6
f 51/5/6 52/8/6 47/6/6
f 53/1/1 54/2/1 55/3/1
f 53/1/1 56/4/1 54/2/1
f 57/1/2 58/2/2 59/3/2
f 57/1/2 60/4/2 58/2/2
f 45/5/3 47/6/3 46/7/3
f 45/5/3 48/8/3 47/6/3
f 61/5/4 62/7/4 63/6/4
f 61/5/4 63/6/4 64/8/4
f 61/5/5 65/6/5 66/7/5
f 61/5/5 64/8/5 65/6/5
f 67/5/6 63/6/6 62/7/6
f 67/5/6 68/8/6 63/6/6
f 41/1/1 6/2/1 43/3/1
f 41/1/1 8/4/1 6/2/1
f 69/1/2 70/2/2 71/3/2
f 69/1/2 72/4/2 70/2/2
f 73/5/3 74/6/3 75/7/3
f 73/5/3 76/8/3 74/6/3
f 77/5/4 78/7/4 79/6/4
f 77/5/4 79/6/4 80/8/4
f 77/5/5 81/6/5 82/7/5
f 77/5/5 80/8/5 81/6/5
f 83/5/6 79/6/6 78/7/6
f 83/5/6 84/8/6 79/6/6
f 57/1/1 26/2/1 59/3/1
f 57/1/1 28/4/1 26/2/1
f 85/1/2 86/2/2 87/3/2
f 85/1/2 88/4/2 86/2/2
f 77/5/3 79/6/3 78/7/3
f 77/5/3 80/8/3 79/6/3
f 89/5/4 90/7/4 91/6/4
f 89/5/4 91/6/4 92/8/4
f 89/5/5 93/6/5 94/7/5
f 89/5/5 92/8/5 93/6/5
f 95/5/6 91/6/6 90/7/6
f 95/5/6 96/8/6 91/6/6
f 85/1/1 97/2/1 87/3/1
f 85/1/1 98/4/1 97/2/1
f 99/1/2 100/2/2 101/3/2
f 99/1/2 102/4/2 100/2/2
f 103/5/3 104/6/3 105/7/3
f 103/5/3 106/8/3 104/6/3
f 107/5/4 108/7/4 109/6/4
f 107/5/4 109/6/4 110/8/4
f 107/5/5 111/6/5 112/7/5
f 107/5/5 110/8/5 111/6/5
f 113/5/6 109/6/6 108/7/6
f 113/5/6 114/8/6 109/6/6
f 115/9/1 116/4/1 117/1/1
f 115/9/1 118/10/1 116/4/1
f 119/1/2 120/2/2 121/3/2
f 119/1/2 122/4/2 120/2/2
f 123/11/3 124/9/3 125/10/3
f 123/11/3 126/12/3 124/9/3
f 127/11/4 128/10/4 129/9/4
f 127/11/4 129/9/4 130/12/4
f 127/11/5 131/9/5 118/10/5
f 127/11/5 130/12/5 131/9/5
f 132/11/6 129/9/6 128/10/6
f 132/11/6 133/12/6 129/9/6
f 134/9/1 135/4/1 136/1/1
f 134/9/1 137/10/1 135/4/1
f 138/1/2 139/2/2 140/3/2
f 138/1/2 141/4/2 139/2/2
f 142/11/3 143/9/3 144/10/3
f 142/11/3 145/12/3 143/9/3
f 146/11/4 147/10/4 148/9/4
f 146/11/4 148/9/4 149/12/4
f 146/11/5 150/9/5 137/10/5
f 146/11/5 149/12/5 150/9/5
f 151/11/6 148/9/6 147/10/6
f 151/11/6 152/12/6 148/9/6
f 153/9/1 154/4/1 155/1/1
f 153/9/1 156/10/1 154/4/1
f 157/1/2 158/2/2 159/3/2
f 157/1/2 160/4/2 158/2/2
f 161/11/3 162/9/3 163/10/3
f 161/11/3 164/12/3 162/9/3
f 165/11/4 166/10/4 167/9/4
f 165/11/4 167/9/4 168/12/4
f 165/11/5 169/9/5 156/10/5
f 165/11/5 168/12/5 169/9/5
f 170/11/6 167/9/6 166/10/6
f 170/11/6 171/12/6 167/9/6
f 172/13/1 173/14/1 174/15/1
f 172/13/1 175/16/1 173/14/1
f 176/13/2 177/14/2 178/15/2
f 176/13/2 179/16/2 177/14/2
f 175/16/3 178/15/3 173/14/3
f 175/16/3 176/13/3 178/15/3
f 180/16/4 181/14/4 182/15/4
f 180/16/4 182/15/4 183/13/4
f 180/16/5 184/15/5 185/14/5
f 180/16/5 183/13/5 184/15/5
f 186/16/6 182/15/6 181/14/6
f 186/16/6 187/13/6 182/15/6
f 188/1/1 189/2/1 190/3/1
f 188/1/1 191/4/1 189/2/1
f 192/1/2 193/2/2 194/3/2
f 192/1/2 195/4/2 193/2/2
f 19/5/3 196/6/3 197/7/3
f 19/5/3 20/8/3 196/6/3
f 35/5/4 198/7/4 199/6/4
f 35/5/4 199/6/4 36/8/4
f 35/5/5 10/6/5 11/7/5
f 35/5/5 36/8/5 10/6/5
f 200/5/6 199/6/6 198/7/6
f 200/5/6 201/8/6 199/6/6
f 202/1/1 203/2/1 204/3/1
f 202/1/1 205/4/1 203/2/1
f 206/1/2 207/2/2 208/3/2
f 206/1/2 209/4/2 207/2/2
f 35/5/3 199/6/3 198/7/3
f 35/5/3 36/8/3 199/6/3
f 51/5/4 210/7/4 211/6/4
f 51/5/4 211/6/4 52/8/4
f 51/5/5 15/6/5 14/7/5
f 51/5/5 52/8/5 15/6/5
f 212/5/6 211/6/6 210/7/6
f 212/5/6 213/8/6 211/6/6
f 214/1/1 193/2/1 215/3/1
f 214/1/1 195/4/1 193/2/1
f 216/1/2 217/2/2 218/3/2
f 216/1/2 116/4/2 217/2/2
f 83/5/3 219/6/3 220/7/3
f 83/5/3 84/8/3 219/6/3
f 95/5/4 221/7/4 222/6/4
f 95/5/4 222/6/4 96/8/4
f 95/5/5 74/6/5 75/7/5
f 95/5/5 96/8/5 74/6/5
f 223/5/6 222/6/6 221/7/6
f 223/5/6 224/8/6 222/6/6
f 225/9/1 226/4/1 227/1/1
f 225/9/1 228/10/1 226/4/1
f 229/1/2 230/2/2 231/3/2
f 229/1/2 135/4/2 230/2/2
f 232/11/3 233/9/3 234/10/3
f 232/11/3 235/12/3 233/9/3
f 132/11/4 236/10/4 237/9/4
f 132/11/4 237/9/4 133/12/4
f 132/11/5 238/9/5 228/10/5
f 132/11/5 133/12/5 238/9/5
f 239/11/6 237/9/6 236/10/6
f 239/11/6 240/12/6 237/9/6
f 241/1/1 242/2/1 243/3/1
f 241/1/1 244/4/1 242/2/1
f 245/1/2 246/2/2 247/3/2
f 245/1/2 154/4/2 246/2/2
f 248/5/3 249/6/3 250/7/3
f 248/5/3 251/8/3 249/6/3
f 252/5/4 253/7/4 254/6/4
f 252/5/4 254/6/4 255/8/4
f 252/5/5 256/6/5 257/7/5
f 252/5/5 255/8/5 256/6/5
f 258/5/6 254/6/6 253/7/6
f 258/5/6 259/8/6 254/6/6
f 260/13/1 261/14/1 262/15/1
f 260/13/1 263/16/1 261/14/1
f 264/13/2 265/14/2 266/15/2
f 264/13/2 186/16/2 265/14/2
f 263/16/3 266/15/3 261/14/3
f 263/16/3 264/13/3 266/15/3
f 267/16/4 268/14/4 269/15/4
f 267/16/4 269/15/4 270/13/4
f 267/16/5 271/15/5 272/14/5
f 267/16/5 270/13/5 271/15/5
f 273/16/6 269/15/6 268/14/6
f 273/16/6 274/13/6 269/15/6
f 270/13/1 275/14/1 269/15/1
f 270/13/1 276/16/1 275/14/1
f 277/13/2 278/14/2 279/15/2
f 277/13/2 280/16/2 278/14/2
f 276/16/3 279/15/3 275/14/3
f 276/16/3 277/13/3 279/15/3
f 186/16/4 265/14/4 281/15/4
f 186/16/4 281/15/4 187/13/4
f 186/16/5 282/15/5 283/14/5
f 186/16/5 187/13/5 282/15/5
f 284/16/6 281/15/6 265/14/6
f 284/16/6 285/13/6 281/15/6
f 286/1/1 287/2/1 288/3/1
f 286/1/1 289/4/1 287/2/1
f 290/1/2 291/2/2 292/3/2
f 290/1/2 293/4/2 291/2/2
f 294/5/3 295/6/3 296/7/3
f 294/5/3 297/8/3 295/6/3
f 298/5/4 299/7/4 300/6/4
f 298/5/4 300/6/4 301/8/4
f 298/5/5 302/6/5 303/7/5
f 298/5/5 301/8/5 302/6/5
f 304/5/6 300/6/6 299/7/6
f 304/5/6 305/8/6 300/6/6
f 306/1/1 307/2/1 308/3/1
f 306/1/1 309/4/1 307/2/1
f 310/1/2 311/2/2 312/3/2
f 310/1/2 313/4/2 311/2/2
f 314/5/3 315/6/3 316/7/3
f 314/5/3 317/8/3 315/6/3
f 318/5/4 319/7/4 320/6/4
f 318/5/4 320/6/4 321/8/4
f 318/5/5 322/6/5 323/7/5
f 318/5/5 321/8/5 322/6/5
f 324/5/6 320/6/6 319/7/6
f 324/5/6 325/8/6 320/6/6
f 326/17/1 327/18/1 328/19/1
f 326/17/1 329/20/1 327/18/1
f 330/17/2 331/18/2 332/19/2
f 330/17/2 333/20/2 331/18/2
f 329/20/3 332/19/3 327/18/3
f 329/20/3 330/17/3 332/19/3
f 334/20/4 335/18/4 336/19/4
f 334/20/4 336/19/4 337/17/4
f 334/20/5 338/19/5 339/18/5
f 334/20/5 337/17/5 338/19/5
f 340/20/6 336/19/6 335/18/6
f 340/20/6 341/17/6 336/19/6
f 342/9/1 343/4/1 344/1/1
f 342/9/1 345/10/1 343/4/1
f 346/1/2 347/2/2 348/3/2
f 346/1/2 349/4/2 347/2/2
f 350/11/3 351/9/3 352/10/3
f 350/11/3 353/12/3 351/9/3
f 354/11/4 355/10/4 356/9/4
f 354/11/4 356/9/4 357/12/4
f 354/11/5 358/9/5 345/10/5
f 354/11/5 357/12/5 358/9/5
f 359/11/6 356/9/6 355/10/6
f 359/11/6 360/12/6 356/9/6
f 361/1/1 362/2/1 363/3/1
f 361/1/1 364/4/1 362/2/1
f 365/1/2 366/2/2 367/3/2
f 365/1/2 368/4/2 366/2/2
f 369/5/3 370/6/3 371/7/3
f 369/5/3 372/8/3 370/6/3
f 373/5/4 374/7/4 375/6/4
f 373/5/4 375/6/4 376/8/4
f 373/5/5 377/6/5 378/7/5
f 373/5/5 376/8/5 377/6/5
f 379/5/6 375/6/6 374/7/6
f 379/5/6 380/8/6 375/6/6
f 381/1/1 347/2/1 382/3/1
f 381/1/1 349/4/1 347/2/1
f 383/1/2 384/2/2 385/3/2
f 383/1/2 386/4/2 384/2/2
f 373/5/3 375/6/3 374/7/3
f 373/5/3 376/8/3 375/6/3
f 387/5/4 388/7/4 389/6/4
f 387/5/4 389/6/4 390/8/4
f 387/5/5 391/6/5 392/7/5
f 387/5/5 390/8/5 391/6/5
f 393/5/6 389/6/6 388/7/6
f 393/5/6 394/8/6 389/6/6
f 395/1/1 396/2/1 397/3/1
f 395/1/1 398/4/1 396/2/1
f 399/1/2 400/2/2 401/3/2
f 399/1/2 402/4/2 400/2/2
f 212/5/3 403/6/3 404/7/3
f 212/5/3 213/8/3 403/6/3
f 405/5/4 406/7/4 407/6/4
f 405/5/4 407/6/4 408/8/4
f 405/5/5 199/6/5 198/7/5
f 405/5/5 408/8/5 199/6/5
f 409/5/6 407/6/6 406/7/6
f 409/5/6 410/8/6 407/6/6
f 411/1/1 412/2/1 413/3/1
f 411/1/1 414/4/1 412/2/1
f 415/1/2 416/2/2 417/3/2
f 415/1/2 418/4/2 416/2/2
f 223/5/3 419/6/3 420/7/3
f 223/5/3 224/8/3 419/6/3
f 421/5/4 422/7/4 423/6/4
f 421/5/4 423/6/4 424/8/4
f 421/5/5 219/6/5 220/7/5
f 421/5/5 424/8/5 219/6/5
f 425/5/6 423/6/6 422/7/6
f 425/5/6 426/8/6 423/6/6
f 427/9/1 428/4/1 429/1/1
f 427/9/1 234/10/1 428/4/1
f 430/1/2 431/2/2 432/3/2
f 430/1/2 433/4/2 431/2/2
f 239/11/3 434/9/3 435/10/3
f 239/11/3 240/12/3 434/9/3
f 436/11/4 437/10/4 438/9/4
f 436/11/4 438/9/4 439/12/4
f 436/11/5 233/9/5 234/10/5
f 436/11/5 439/12/5 233/9/5
f 440/11/6 438/9/6 437/10/6
f 440/11/6 441/12/6 438/9/6
f 442/1/1 443/2/1 444/3/1
f 442/1/1 445/4/1 443/2/1
f 446/1/2 447/2/2 448/3/2
f 446/1/2 449/4/2 447/2/2
f 258/5/3 450/6/3 451/7/3
f 258/5/3 259/8/3 450/6/3
f 452/5/4 453/7/4 454/6/4
f 452/5/4 454/6/4 455/8/4
f 452/5/5 249/6/5 250/7/5
f 452/5/5 455/8/5 249/6/5
f 456/5/6 454/6/6 453/7/6
f 456/5/6 457/8/6 454/6/6
f 458/9/1 459/4/1 460/1/1
f 458/9/1 461/10/1 459/4/1
f 462/1/2 463/2/2 464/3/2
f 462/1/2 465/4/2 463/2/2
f 466/11/3 467/9/3 468/10/3
f 466/11/3 469/12/3 467/9/3
f 470/11/4 471/10/4 472/9/4
f 470/11/4 472/9/4 473/12/4
f 470/11/5 474/9/5 461/10/5
f 470/11/5 473/12/5 474/9/5
f 475/11/6 472/9/6 471/10/6
f 475/11/6 476/12/6 472/9/6
f 477/21/1 478/22/1 479/23/1
f 477/21/1 480/24/1 478/22/1
f 481/21/2 482/22/2 483/23/2
f 481/21/2 484/24/2 482/22/2
f 485/22/3 486/21/3 487/24/3
f 485/22/3 488/23/3 486/21/3
f 489/24/4 490/22/4 491/23/4
f 489/24/4 491/23/4 492/21/4
f 493/22/5 481/21/5 480/24/5
f 493/22/5 494/23/5 481/21/5
f 487/24/6 491/23/6 490/22/6
f 487/24/6 486/21/6 491/23/6
f 495/1/1 496/2/1 497/3/1
f 495/1/1 498/4/1 496/2/1
f 499/1/2 500/2/2 501/3/2
f 499/1/2 502/4/2 500/2/2
f 304/5/3 503/6/3 504/7/3
f 304/5/3 305/8/3 503/6/3
f 505/5/4 506/7/4 507/6/4
f 505/5/4 507/6/4 508/8/4
f 505/5/5 295/6/5 296/7/5
f 505/5/5 508/8/5 295/6/5
f 509/5/6 507/6/6 506/7/6
f 509/5/6 510/8/6 507/6/6
f 511/21/1 512/22/1 513/23/1
f 511/21/1 514/24/1 512/22/1
f 515/21/2 516/22/2 517/23/2
f 515/21/2 518/24/2 516/22/2
f 519/22/3 520/21/3 521/24/3
f 519/22/3 522/23/3 520/21/3
f 523/24/4 524/22/4 525/23/4
f 523/24/4 525/23/4 526/21/4
f 527/22/5 515/21/5 514/24/5
f 527/22/5 528/23/5 515/21/5
f 521/24/6 525/23/6 524/22/6
f 521/24/6 520/21/6 525/23/6
f 529/13/1 530/14/1 531/15/1
f 529/13/1 532/16/1 530/14/1
f 533/13/2 534/14/2 535/15/2
f 533/13/2 536/16/2 534/14/2
f 532/16/3 535/15/3 530/14/3
f 532/16/3 533/13/3 535/15/3
f 537/16/4 538/14/4 539/15/4
f 537/16/4 539/15/4 540/13/4
f 537/16/5 541/15/5 542/14/5
f 537/16/5 540/13/5 541/15/5
f 543/16/6 539/15/6 538/14/6
f 543/16/6 544/13/6 539/15/6
f 545/1/1 546/2/1 547/3/1
f 545/1/1 548/4/1 546/2/1
f 549/1/2 550/2/2 551/3/2
f 549/1/2 552/4/2 550/2/2
f 379/5/3 553/6/3 554/7/3
f 379/5/3 380/8/3 553/6/3
f 393/5/4 555/7/4 556/6/4
f 393/5/4 556/6/4 394/8/4
f 393/5/5 370/6/5 371/7/5
f 393/5/5 394/8/5 370/6/5
f 557/5/6 556/6/6 555/7/6
f 557/5/6 558/8/6 556/6/6
f 559/1/1 560/2/1 561/3/1
f 559/1/1 562/4/1 560/2/1
f 563/1/2 564/2/2 565/3/2
f 563/1/2 566/4/2 564/2/2
f 567/25/3 556/6/3 568/26/3
f 567/25/3 394/8/3 556/6/3
f 569/25/4 570/26/4 571/6/4
f 569/25/4 571/6/4 572/8/4
f 569/25/5 375/6/5 573/26/5
f 569/25/5 572/8/5 375/6/5
f 574/25/6 571/6/6 570/26/6
f 574/25/6 575/8/6 571/6/6
f 576/9/1 577/4/1 578/1/1
f 576/9/1 579/10/1 577/4/1
f 580/1/2 581/2/2 582/3/2
f 580/1/2 583/4/2 581/2/2
f 584/11/3 585/27/3 586/10/3
f 584/11/3 587/28/3 585/27/3
f 588/11/4 589/10/4 590/27/4
f 588/11/4 590/27/4 591/28/4
f 588/11/5 592/27/5 579/10/5
f 588/11/5 591/28/5 592/27/5
f 593/11/6 590/27/6 589/10/6
f 593/11/6 594/28/6 590/27/6
f 595/29/2 596/2/2 597/3/2
f 595/29/2 598/30/2 596/2/2
f 599/28/3 600/31/3 601/32/3
f 599/28/3 602/12/3 600/31/3
f 603/32/4 590/27/4 604/9/4
f 603/32/4 604/9/4 605/31/4
f 606/28/5 607/9/5 608/27/5
f 606/28/5 609/12/5 607/9/5
f 594/28/6 604/9/6 590/27/6
f 594/28/6 610/12/6 604/9/6
f 611/1/1 612/2/1 613/3/1
f 611/1/1 614/4/1 612/2/1
f 615/1/2 616/2/2 617/3/2
f 615/1/2 618/4/2 616/2/2
f 619/5/3 620/6/3 621/7/3
f 619/5/3 622/8/3 620/6/3
f 409/5/4 623/7/4 624/6/4
f 409/5/4 624/6/4 410/8/4
f 409/5/5 625/6/5 626/7/5
f 409/5/5 410/8/5 625/6/5
f 627/5/6 624/6/6 623/7/6
f 627/5/6 628/8/6 624/6/6
f 629/1/1 630/2/1 631/3/1
f 629/1/1 632/4/1 630/2/1
f 633/1/2 634/2/2 635/3/2
f 633/1/2 636/4/2 634/2/2
f 409/5/3 624/6/3 623/7/3
f 409/5/3 410/8/3 624/6/3
f 637/5/4 638/7/4 639/6/4
f 637/5/4 639/6/4 640/8/4
f 637/5/5 403/6/5 404/7/5
f 637/5/5 640/8/5 403/6/5
f 641/5/6 639/6/6 638/7/6
f 641/5/6 642/8/6 639/6/6
f 643/33/1 644/34/1 645/35/1
f 643/33/1 646/36/1 644/34/1
f 647/33/2 648/34/2 649/35/2
f 647/33/2 650/36/2 648/34/2
f 646/36/3 649/35/3 644/34/3
f 646/36/3 647/33/3 649/35/3
f 651/36/4 652/34/4 653/35/4
f 651/36/4 653/35/4 654/33/4
f 651/36/5 655/35/5 656/34/5
f 651/36/5 654/33/5 655/35/5
f 657/36/6 653/35/6 652/34/6
f 657/36/6 658/33/6 653/35/6
f 654/33/1 659/34/1 653/35/1
f 654/33/1 660/36/1 659/34/1
f 661/33/2 662/34/2 663/35/2
f 661/33/2 664/36/2 662/34/2
f 660/36/3 663/35/3 659/34/3
f 660/36/3 661/33/3 663/35/3
f 650/36/4 648/34/4 665/35/4
f 650/36/4 665/35/4 666/33/4
f 650/36/5 667/35/5 668/34/5
f 650/36/5 666/33/5 667/35/5
f 669/36/6 665/35/6 648/34/6
f 669/36/6 670/33/6 665/35/6
f 671/37/1 672/38/1 673/39/1
f 671/37/1 674/40/1 672/38/1
f 675/37/2 676/38/2 677/39/2
f 675/37/2 678/40/2 676/38/2
f 674/40/3 677/39/3 672/38/3
f 674/40/3 675/37/3 677/39/3
f 679/40/4 680/38/4 681/39/4
f 679/40/4 681/39/4 682/37/4
f 679/40/5 683/39/5 684/38/5
f 679/40/5 682/37/5 683/39/5
f 685/40/6 681/39/6 680/38/6
f 685/40/6 686/37/6 681/39/6
f 682/37/1 687/38/1 681/39/1
f 682/37/1 688/40/1 687/38/1
f 689/37/2 690/38/2 691/39/2
f 689/37/2 692/40/2 690/38/2
f 688/40/3 691/39/3 687/38/3
f 688/40/3 689/37/3 691/39/3
f 678/40/4 676/38/4 693/39/4
f 678/40/4 693/39/4 694/37/4
f 678/40/5 695/39/5 696/38/5
f 678/40/5 694/37/5 695/39/5
f 697/40/6 693/39/6 676/38/6
f 697/40/6 698/37/6 693/39/6
f 699/21/1 700/22/1 701/23/1
f 699/21/1 487/24/1 700/22/1
f 486/21/2 702/22/2 703/23/2
f 486/21/2 704/24/2 702/22/2
f 478/22/3 705/21/3 706/24/3
f 478/22/3 483/23/3 705/21/3
f 707/24/4 708/22/4 709/23/4
f 707/24/4 709/23/4 710/21/4
f 490/22/5 486/21/5 487/24/5
f 490/22/5 491/23/5 486/21/5
f 706/24/6 709/23/6 708/22/6
f 706/24/6 705/21/6 709/23/6
f 711/37/1 712/38/1 713/39/1
f 711/37/1 714/40/1 712/38/1
f 715/37/2 716/38/2 717/39/2
f 715/37/2 718/40/2 716/38/2
f 714/40/3 717/39/3 712/38/3
f 714/40/3 715/37/3 717/39/3
f 719/40/4 720/38/4 721/39/4
f 719/40/4 721/39/4 722/37/4
f 719/40/5 723/39/5 724/38/5
f 719/40/5 722/37/5 723/39/5
f 725/40/6 721/39/6 720/38/6
f 725/40/6 726/37/6 721/39/6
f 722/37/1 727/38/1 721/39/1
f 722/37/1 728/40/1 727/38/1
f 729/37/2 730/38/2 731/39/2
f 729/37/2 732/40/2 730/38/2
f 728/40/3 731/39/3 727/38/3
f 728/40/3 729/37/3 731/39/3
f 718/40/4 716/38/4 733/39/4
f 718/40/4 733/39/4 734/37/4
f 718/40/5 735/39/5 736/38/5
f 718/40/5 734/37/5 735/39/5
f 737/40/6 733/39/6 716/38/6
f 737/40/6 738/37/6 733/39/6
f 739/1/1 740/2/1 741/3/1
f 739/1/1 742/4/1 740/2/1
f 743/1/2 744/2/2 745/3/2
f 743/1/2 746/4/2 744/2/2
f 747/5/3 748/6/3 749/7/3
f 747/5/3 750/8/3 748/6/3
f 751/5/4 752/7/4 753/6/4
f 751/5/4 753/6/4 754/8/4
f 751/5/5 755/6/5 756/7/5
f 751/5/5 754/8/5 755/6/5
f 757/5/6 753/6/6 752/7/6
f 757/5/6 758/8/6 753/6/6
f 759/1/1 760/2/1 761/3/1
f 759/1/1 762/4/1 760/2/1
f 763/1/2 764/2/2 765/3/2
f 763/1/2 577/4/2 764/2/2
f 557/5/3 766/6/3 767/7/3
f 557/5/3 558/8/3 766/6/3
f 768/5/4 769/7/4 770/6/4
f 768/5/4 770/6/4 575/8/4
f 768/5/5 553/6/5 554/7/5
f 768/5/5 575/8/5 553/6/5
f 771/5/6 770/6/6 769/7/6
f 771/5/6 772/8/6 770/6/6
f 773/1/1 774/2/1 775/3/1
f 773/1/1 776/4/1 774/2/1
f 777/1/2 778/2/2 779/3/2
f 777/1/2 780/4/2 778/2/2
f 574/25/3 770/6/3 781/26/3
f 574/25/3 575/8/3 770/6/3
f 782/25/4 783/26/4 784/6/4
f 782/25/4 784/6/4 785/8/4
f 782/25/5 556/6/5 568/26/5
f 782/25/5 785/8/5 556/6/5
f 786/25/6 784/6/6 783/26/6
f 786/25/6 787/8/6 784/6/6
f 763/1/1 788/10/1 577/4/1
f 763/1/1 789/9/1 788/10/1
f 790/3/2 791/4/2 792/2/2
f 790/3/2 793/1/2 791/4/2
f 794/12/6 795/41/6 796/11/6
f 794/12/6 797/31/6 795/41/6
f 798/12/5 593/11/5 799/41/5
f 798/12/5 799/41/5 800/31/5
f 798/12/3 801/41/3 802/11/3
f 798/12/3 800/31/3 801/41/3
f 803/12/4 799/41/4 593/11/4
f 803/12/4 804/31/4 799/41/4
f 805/42/2 806/4/2 807/2/2
f 805/42/2 808/43/2 806/4/2
f 809/31/6 810/27/6 811/32/6
f 809/31/6 812/9/6 810/27/6
f 813/32/5 799/41/5 814/10/5
f 813/32/5 814/10/5 815/27/5
f 816/31/3 817/10/3 818/41/3
f 816/31/3 819/9/3 817/10/3
f 804/31/4 814/10/4 799/41/4
f 804/31/4 820/9/4 814/10/4
f 821/44/1 822/45/1 823/46/1
f 821/44/1 824/47/1 822/45/1
f 825/44/2 826/45/2 827/46/2
f 825/44/2 828/47/2 826/45/2
f 829/48/3 830/49/3 831/50/3
f 829/48/3 832/51/3 830/49/3
f 833/48/4 834/50/4 835/49/4
f 833/48/4 835/49/4 836/51/4
f 833/48/5 837/49/5 838/50/5
f 833/48/5 836/51/5 837/49/5
f 839/48/6 835/49/6 834/50/6
f 839/48/6 840/51/6 835/49/6
f 841/52/1 842/53/1 843/54/1
f 841/52/1 844/55/1 842/53/1
f 845/56/2 846/54/2 847/57/2
f 845/56/2 848/52/2 846/54/2
f 844/55/3 847/57/3 842/53/3
f 844/55/3 845/56/3 847/57/3
f 849/11/5 850/31/5 851/41/5
f 849/11/5 852/12/5 850/31/5
f 853/41/6 854/9/6 855/10/6
f 853/41/6 856/31/6 854/9/6
f 857/58/1 858/59/1 859/60/1
f 857/58/1 860/61/1 858/59/1
f 861/62/2 862/60/2 863/63/2
f 861/62/2 864/58/2 862/60/2
f 860/61/6 863/63/6 858/59/6
f 860/61/6 861/62/6 863/63/6
f 865/12/3 866/27/3 867/28/3
f 865/12/3 868/9/3 866/27/3
f 869/28/4 870/10/4 871/11/4
f 869/28/4 872/27/4 870/10/4
f 859/60/1 873/62/1 857/58/1
f 859/60/1 874/63/1 873/62/1
f 875/59/2 864/58/2 876/61/2
f 875/59/2 862/60/2 864/58/2
f 874/63/5 876/61/5 873/62/5
f 874/63/5 875/59/5 876/61/5
f 877/10/4 878/28/4 879/27/4
f 877/10/4 880/11/4 878/28/4
f 881/27/3 882/12/3 883/9/3
f 881/27/3 884/28/3 882/12/3
f 885/64/1 886/65/1 887/66/1
f 885/64/1 888/67/1 886/65/1
f 889/64/2 890/65/2 891/66/2
f 889/64/2 892/67/2 890/65/2
f 888/67/3 891/66/3 886/65/3
f 888/67/3 889/64/3 891/66/3
f 893/67/4 894/65/4 895/66/4
f 893/67/4 895/66/4 896/64/4
f 893/67/5 897/66/5 898/65/5
f 893/67/5 896/64/5 897/66/5
f 899/67/6 895/66/6 894/65/6
f 899/67/6 900/64/6 895/66/6
f 901/1/1 902/2/1 903/3/1
f 901/1/1 904/4/1 902/2/1
f 905/1/2 906/2/2 907/3/2
f 905/1/2 908/4/2 906/2/2
f 627/5/3 909/6/3 910/7/3
f 627/5/3 628/8/3 909/6/3
f 641/5/4 911/7/4 912/6/4
f 641/5/4 912/6/4 642/8/4
f 641/5/5 620/6/5 621/7/5
f 641/5/5 642/8/5 620/6/5
f 913/5/6 912/6/6 911/7/6
f 913/5/6 914/8/6 912/6/6
f 915/1/1 916/2/1 917/3/1
f 915/1/1 918/4/1 916/2/1
f 919/1/2 920/2/2 921/3/2
f 919/1/2 922/4/2 920/2/2
f 641/5/3 912/6/3 911/7/3
f 641/5/3 642/8/3 912/6/3
f 923/5/4 924/7/4 925/6/4
f 923/5/4 925/6/4 926/8/4
f 923/5/5 624/6/5 623/7/5
f 923/5/5 926/8/5 624/6/5
f 927/5/6 925/6/6 924/7/6
f 927/5/6 928/8/6 925/6/6
f 929/1/1 906/2/1 930/3/1
f 929/1/1 908/4/1 906/2/1
f 931/1/2 932/2/2 933/3/2
f 931/1/2 934/4/2 932/2/2
f 935/5/3 936/6/3 937/7/3
f 935/5/3 938/8/3 936/6/3
f 939/5/4 940/7/4 941/6/4
f 939/5/4 941/6/4 942/8/4
f 939/5/5 943/6/5 944/7/5
f 939/5/5 942/8/5 943/6/5
f 945/5/6 941/6/6 940/7/6
f 945/5/6 946/8/6 941/6/6
f 947/9/1 948/4/1 949/1/1
f 947/9/1 950/10/1 948/4/1
f 951/1/2 952/2/2 953/3/2
f 951/1/2 954/4/2 952/2/2
f 955/11/3 956/9/3 957/10/3
f 955/11/3 958/12/3 956/9/3
f 959/11/4 960/10/4 961/9/4
f 959/11/4 961/9/4 962/12/4
f 959/11/5 963/9/5 950/10/5
f 959/11/5 962/12/5 963/9/5
f 964/11/6 961/9/6 960/10/6
f 964/11/6 965/12/6 961/9/6
f 966/9/1 967/4/1 968/1/1
f 966/9/1 969/10/1 967/4/1
f 970/1/2 971/2/2 972/3/2
f 970/1/2 973/4/2 971/2/2
f 974/11/3 975/9/3 976/10/3
f 974/11/3 977/12/3 975/9/3
f 978/11/4 979/10/4 980/9/4
f 978/11/4 980/9/4 981/12/4
f 978/11/5 982/9/5 969/10/5
f 978/11/5 981/12/5 982/9/5
f 983/11/6 980/9/6 979/10/6
f 983/11/6 984/12/6 980/9/6
f 985/1/1 986/2/1 987/3/1
f 985/1/1 988/4/1 986/2/1
f 989/1/2 990/2/2 991/3/2
f 989/1/2 992/4/2 990/2/2
f 993/5/3 994/6/3 995/7/3
f 993/5/3 996/8/3 994/6/3
f 997/5/4 998/7/4 999/6/4
f 997/5/4 999/6/4 1000/8/4
f 997/5/5 1001/6/5 1002/7/5
f 997/5/5 1000/8/5 1001/6/5
f 1003/5/6 999/6/6 998/7/6
f 1003/5/6 1004/8/6 999/6/6
f 1005/1/1 1006/2/1 1007/3/1
f 1005/1/1 1008/4/1 1006/2/1
f 1009/1/2 1010/2/2 1011/3/2
f 1009/1/2 1012/4/2 1010/2/2
f 1013/5/3 1014/6/3 1015/7/3
f 1013/5/3 1016/8/3 1014/6/3
f 1017/5/4 1018/7/4 1019/6/4
f 1017/5/4 1019/6/4 1020/8/4
f 1017/5/5 1021/6/5 1022/7/5
f 1017/5/5 1020/8/5 1021/6/5
f 1023/5/6 1019/6/6 1018/7/6
f 1023/5/6 1024/8/6 1019/6/6
f 1025/1/1 1010/2/1 1026/3/1
f 1025/1/1 1012/4/1 1010/2/1
f 1027/1/2 1028/2/2 1029/3/2
f 1027/1/2 1030/4/2 1028/2/2
f 1031/5/3 1032/6/3 1033/7/3
f 1031/5/3 1034/8/3 1032/6/3
f 1035/5/4 1036/7/4 1037/6/4
f 1035/5/4 1037/6/4 1038/8/4
f 1035/5/5 1039/6/5 1040/7/5
f 1035/5/5 1038/8/5 1039/6/5
f 1041/5/6 1037/6/6 1036/7/6
f 1041/5/6 1042/8/6 1037/6/6
f 1043/13/1 1044/14/1 1045/15/1
f 1043/13/1 1046/16/1 1044/14/1
f 1047/13/2 1048/14/2 1049/15/2
f 1047/13/2 1050/16/2 1048/14/2
f 1046/16/3 1049/15/3 1044/14/3
f 1046/16/3 1047/13/3 1049/15/3
f 1051/16/4 1052/14/4 1053/15/4
f 1051/16/4 1053/15/4 1054/13/4
f 1051/16/5 1055/15/5 1056/14/5
f 1051/16/5 1054/13/5 1055/15/5
f 1057/16/6 1053/15/6 1052/14/6
f 1057/16/6 1058/13/6 1053/15/6
f 1059/1/1 1060/2/1 1061/3/1
f 1059/1/1 1062/4/1 1060/2/1
f 1063/1/2 1064/2/2 1065/3/2
f 1063/1/2 1066/4/2 1064/2/2
f 1067/5/3 1068/6/3 1069/7/3
f 1067/5/3 1070/8/3 1068/6/3
f 1071/5/4 1072/7/4 1073/6/4
f 1071/5/4 1073/6/4 1074/8/4
f 1071/5/5 1075/6/5 1076/7/5
f 1071/5/5 1074/8/5 1075/6/5
f 1077/5/6 1073/6/6 1072/7/6
f 1077/5/6 1078/8/6 1073/6/6
f 1079/1/1 1080/2/1 1081/3/1
f 1079/1/1 1082/4/1 1080/2/1
f 1083/1/2 1084/2/2 1085/3/2
f 1083/1/2 1086/4/2 1084/2/2
f 1082/4/3 1085/3/3 1080/2/3
f 1082/4/3 1083/1/3 1085/3/3
f 1066/4/4 1064/2/4 1087/3/4
f 1066/4/4 1087/3/4 1088/1/4
f 1066/4/5 745/3/5 740/2/5
f 1066/4/5 1088/1/5 745/3/5
f 1089/4/6 1087/3/6 1064/2/6
f 1089/4/6 1090/1/6 1087/3/6
f 1088/1/1 1091/2/1 1087/3/1
f 1088/1/1 1092/4/1 1091/2/1
f 1093/1/2 1094/2/2 1095/3/2
f 1093/1/2 1096/4/2 1094/2/2
f 771/5/3 1097/6/3 1098/7/3
f 771/5/3 772/8/3 1097/6/3
f 1099/5/4 1100/7/4 1101/6/4
f 1099/5/4 1101/6/4 787/8/4
f 1099/5/5 766/6/5 767/7/5
f 1099/5/5 787/8/5 766/6/5
f 1102/5/6 1101/6/6 1100/7/6
f 1102/5/6 1103/8/6 1101/6/6
f 1104/1/1 1105/2/1 1106/3/1
f 1104/1/1 1107/4/1 1105/2/1
f 1108/1/2 1109/2/2 1110/3/2
f 1108/1/2 1111/4/2 1109/2/2
f 786/25/3 1101/6/3 1112/26/3
f 786/25/3 787/8/3 1101/6/3
f 1113/25/4 1114/26/4 1115/6/4
f 1113/25/4 1115/6/4 1116/8/4
f 1113/25/5 770/6/5 781/26/5
f 1113/25/5 1116/8/5 770/6/5
f 1117/25/6 1115/6/6 1114/26/6
f 1117/25/6 1118/8/6 1115/6/6
f 1119/4/1 1120/9/1 788/10/1
f 1119/4/1 1121/1/1 1120/9/1
f 1122/2/2 1123/1/2 1124/4/2
f 1122/2/2 1125/3/2 1123/1/2
f 1126/9/4 1127/28/4 1128/12/4
f 1126/9/4 1129/27/4 1127/28/4
f 1130/9/3 803/12/3 1131/28/3
f 1130/9/3 1131/28/3 1132/27/3
f 1130/9/6 1133/28/6 1134/12/6
f 1130/9/6 1132/27/6 1133/28/6
f 1120/9/5 1131/28/5 803/12/5
f 1120/9/5 1135/27/5 1131/28/5
f 1136/30/2 1137/1/2 1138/4/2
f 1136/30/2 1139/29/2 1137/1/2
f 1140/27/4 1141/41/4 1142/32/4
f 1140/27/4 1143/10/4 1141/41/4
f 1144/32/3 1131/28/3 1145/11/3
f 1144/32/3 1145/11/3 1146/41/3
f 1147/27/6 1148/11/6 1149/28/6
f 1147/27/6 1150/10/6 1148/11/6
f 1135/27/5 1145/11/5 1131/28/5
f 1135/27/5 1151/10/5 1145/11/5
f 1152/1/1 1153/2/1 1154/3/1
f 1152/1/1 1155/4/1 1153/2/1
f 1156/1/2 1157/2/2 1158/3/2
f 1156/1/2 1159/4/2 1157/2/2
f 927/5/3 1160/6/3 1161/7/3
f 927/5/3 928/8/3 1160/6/3
f 1162/5/4 1163/7/4 1164/6/4
f 1162/5/4 1164/6/4 1165/8/4
f 1162/5/5 912/6/5 911/7/5
f 1162/5/5 1165/8/5 912/6/5
f 1166/5/6 1164/6/6 1163/7/6
f 1166/5/6 1167/8/6 1164/6/6
f 1168/1/1 1169/2/1 1170/3/1
f 1168/1/1 1171/4/1 1169/2/1
f 1172/1/2 1173/2/2 1174/3/2
f 1172/1/2 1175/4/2 1173/2/2
f 945/5/3 1176/6/3 1177/7/3
f 945/5/3 946/8/3 1176/6/3
f 1178/5/4 1179/7/4 1180/6/4
f 1178/5/4 1180/6/4 1181/8/4
f 1178/5/5 936/6/5 937/7/5
f 1178/5/5 1181/8/5 936/6/5
f 1182/5/6 1180/6/6 1179/7/6
f 1182/5/6 1183/8/6 1180/6/6
f 1184/9/1 1185/4/1 1186/1/1
f 1184/9/1 957/10/1 1185/4/1
f 1187/1/2 1188/2/2 1189/3/2
f 1187/1/2 1190/4/2 1188/2/2
f 964/11/3 1191/9/3 1192/10/3
f 964/11/3 965/12/3 1191/9/3
f 1193/11/4 1194/10/4 1195/9/4
f 1193/11/4 1195/9/4 1196/12/4
f 1193/11/5 956/9/5 957/10/5
f 1193/11/5 1196/12/5 956/9/5
f 1197/11/6 1195/9/6 1194/10/6
f 1197/11/6 1198/12/6 1195/9/6
f 1199/13/1 1200/14/1 1201/15/1
f 1199/13/1 1202/16/1 1200/14/1
f 1203/13/2 1204/14/2 1205/15/2
f 1203/13/2 1206/16/2 1204/14/2
f 1202/16/3 1205/15/3 1200/14/3
f 1202/16/3 1203/13/3 1205/15/3
f 1207/16/4 1208/14/4 1209/15/4
f 1207/16/4 1209/15/4 1210/13/4
f 1207/16/5 1211/15/5 1212/14/5
f 1207/16/5 1210/13/5 1211/15/5
f 1213/16/6 1209/15/6 1208/14/6
f 1213/16/6 1214/13/6 1209/15/6
f 980/9/1 1215/4/1 1216/1/1
f 980/9/1 1217/10/1 1215/4/1
f 1218/1/2 1219/2/2 1220/3/2
f 1218/1/2 1221/4/2 1219/2/2
f 1222/11/3 1223/9/3 1224/10/3
f 1222/11/3 1225/12/3 1223/9/3
f 1226/11/4 1227/10/4 1228/9/4
f 1226/11/4 1228/9/4 1229/12/4
f 1226/11/5 1230/9/5 1217/10/5
f 1226/11/5 1229/12/5 1230/9/5
f 1231/11/6 1228/9/6 1227/10/6
f 1231/11/6 1232/12/6 1228/9/6
f 1233/1/1 1234/2/1 1235/3/1
f 1233/1/1 1236/4/1 1234/2/1
f 1237/1/2 1238/2/2 1239/3/2
f 1237/1/2 1240/4/2 1238/2/2
f 1023/5/3 1241/6/3 1242/7/3
f 1023/5/3 1024/8/3 1241/6/3
f 1243/5/4 1244/7/4 1245/6/4
f 1243/5/4 1245/6/4 1246/8/4
f 1243/5/5 1014/6/5 1015/7/5
f 1243/5/5 1246/8/5 1014/6/5
f 1247/5/6 1245/6/6 1244/7/6
f 1247/5/6 1248/8/6 1245/6/6
f 1249/1/1 1238/2/1 1250/3/1
f 1249/1/1 1240/4/1 1238/2/1
f 1251/1/2 1252/2/2 1253/3/2
f 1251/1/2 1254/4/2 1252/2/2
f 1041/5/3 1255/6/3 1256/7/3
f 1041/5/3 1042/8/3 1255/6/3
f 1257/5/4 1258/7/4 1259/6/4
f 1257/5/4 1259/6/4 1260/8/4
f 1257/5/5 1032/6/5 1033/7/5
f 1257/5/5 1260/8/5 1032/6/5
f 1261/5/6 1259/6/6 1258/7/6
f 1261/5/6 1262/8/6 1259/6/6
f 1263/1/1 1264/2/1 1265/3/1
f 1263/1/1 1266/4/1 1264/2/1
f 1267/1/2 1268/2/2 1269/3/2
f 1267/1/2 1270/4/2 1268/2/2
f 1257/5/3 1259/6/3 1258/7/3
f 1257/5/3 1260/8/3 1259/6/3
f 1271/5/4 1272/7/4 1273/6/4
f 1271/5/4 1273/6/4 1274/8/4
f 1271/5/5 1037/6/5 1036/7/5
f 1271/5/5 1274/8/5 1037/6/5
f 1275/5/6 1273/6/6 1272/7/6
f 1275/5/6 1276/8/6 1273/6/6
f 1267/1/1 1277/2/1 1269/3/1
f 1267/1/1 1278/4/1 1277/2/1
f 1279/1/2 1280/2/2 1281/3/2
f 1279/1/2 1282/4/2 1280/2/2
f 1278/4/3 1281/3/3 1277/2/3
f 1278/4/3 1279/1/3 1281/3/3
f 1254/4/4 1252/2/4 1283/3/4
f 1254/4/4 1283/3/4 1284/1/4
f 1254/4/5 1285/3/5 1286/2/5
f 1254/4/5 1284/1/5 1285/3/5
f 1287/4/6 1283/3/6 1252/2/6
f 1287/4/6 1288/1/6 1283/3/6
f 1289/9/1 1290/4/1 1291/1/1
f 1289/9/1 1292/10/1 1290/4/1
f 1293/1/2 1294/2/2 1295/3/2
f 1293/1/2 1296/4/2 1294/2/2
f 1297/11/3 1298/9/3 1299/10/3
f 1297/11/3 1300/12/3 1298/9/3
f 1301/11/4 1302/10/4 1303/9/4
f 1301/11/4 1303/9/4 1304/12/4
f 1301/11/5 1305/9/5 1292/10/5
f 1301/11/5 1304/12/5 1305/9/5
f 1306/11/6 1303/9/6 1302/10/6
f 1306/11/6 1307/12/6 1303/9/6
f 1308/1/1 1309/2/1 1310/3/1
f 1308/1/1 1089/4/1 1309/2/1
f 1090/1/2 1311/2/2 1312/3/2
f 1090/1/2 1313/4/2 1311/2/2
f 1089/4/3 1312/3/3 1309/2/3
f 1089/4/3 1090/1/3 1312/3/3
f 1296/4/4 1294/2/4 1314/3/4
f 1296/4/4 1314/3/4 1315/1/4
f 1296/4/5 1085/3/5 1080/2/5
f 1296/4/5 1315/1/5 1085/3/5
f 1316/4/6 1314/3/6 1294/2/6
f 1316/4/6 1317/1/6 1314/3/6
f 1315/1/1 1318/2/1 1314/3/1
f 1315/1/1 1319/4/1 1318/2/1
f 1320/1/2 1321/2/2 1322/3/2
f 1320/1/2 1323/4/2 1321/2/2
f 1102/5/3 1324/26/3 1325/7/3
f 1102/5/3 1326/25/3 1324/26/3
f 1327/5/4 1328/7/4 1329/26/4
f 1327/5/4 1329/26/4 1117/25/4
f 1327/5/5 1330/26/5 1098/7/5
f 1327/5/5 1117/25/5 1330/26/5
f 1331/5/6 1329/26/6 1328/7/6
f 1331/5/6 1332/25/6 1329/26/6
f 1333/1/1 1321/2/1 1334/3/1
f 1333/1/1 1323/4/1 1321/2/1
f 1335/1/2 1336/2/2 1337/3/2
f 1335/1/2 1338/4/2 1336/2/2
f 1117/25/3 1339/6/3 1329/26/3
f 1117/25/3 1118/8/3 1339/6/3
f 1340/25/4 1341/26/4 1342/6/4
f 1340/25/4 1342/6/4 1343/8/4
f 1340/25/5 1101/6/5 1112/26/5
f 1340/25/5 1343/8/5 1101/6/5
f 1344/25/6 1342/6/6 1341/26/6
f 1344/25/6 1345/8/6 1342/6/6
f 1346/1/1 1347/2/1 1348/3/1
f 1346/1/1 1349/4/1 1347/2/1
f 1350/1/2 1351/2/2 1352/3/2
f 1350/1/2 1353/4/2 1351/2/2
f 1354/5/3 1355/6/3 1356/7/3
f 1354/5/3 1357/8/3 1355/6/3
f 1166/5/4 1358/7/4 1359/6/4
f 1166/5/4 1359/6/4 1167/8/4
f 1166/5/5 1360/6/5 1361/7/5
f 1166/5/5 1167/8/5 1360/6/5
f 1362/5/6 1359/6/6 1358/7/6
f 1362/5/6 1363/8/6 1359/6/6
f 1364/1/1 1365/2/1 1366/3/1
f 1364/1/1 1367/4/1 1365/2/1
f 1368/1/2 1369/2/2 1370/3/2
f 1368/1/2 1371/4/2 1369/2/2
f 1166/5/3 1359/6/3 1358/7/3
f 1166/5/3 1167/8/3 1359/6/3
f 1372/5/4 1373/7/4 1374/6/4
f 1372/5/4 1374/6/4 1375/8/4
f 1372/5/5 1160/6/5 1161/7/5
f 1372/5/5 1375/8/5 1160/6/5
f 1376/5/6 1374/6/6 1373/7/6
f 1376/5/6 1377/8/6 1374/6/6
f 1378/1/1 1379/2/1 1380/3/1
f 1378/1/1 1381/4/1 1379/2/1
f 1382/1/2 1383/2/2 1384/3/2
f 1382/1/2 1385/4/2 1383/2/2
f 1372/5/3 1374/6/3 1373/7/3
f 1372/5/3 1375/8/3 1374/6/3
f 1386/5/4 1387/7/4 1388/6/4
f 1386/5/4 1388/6/4 1389/8/4
f 1386/5/5 1164/6/5 1163/7/5
f 1386/5/5 1389/8/5 1164/6/5
f 1390/5/6 1388/6/6 1387/7/6
f 1390/5/6 1391/8/6 1388/6/6
f 1392/1/1 1393/2/1 1394/3/1
f 1392/1/1 1395/4/1 1393/2/1
f 1396/1/2 1397/2/2 1398/3/2
f 1396/1/2 1399/4/2 1397/2/2
f 1386/5/3 1388/6/3 1387/7/3
f 1386/5/3 1389/8/3 1388/6/3
f 1400/5/4 1401/7/4 1402/6/4
f 1400/5/4 1402/6/4 1403/8/4
f 1400/5/5 1404/6/5 1405/7/5
f 1400/5/5 1403/8/5 1404/6/5
f 1406/5/6 1402/6/6 1401/7/6
f 1406/5/6 1407/8/6 1402/6/6
f 1382/1/1 1351/2/1 1384/3/1
f 1382/1/1 1353/4/1 1351/2/1
f 1408/1/2 1409/2/2 1410/3/2
f 1408/1/2 1411/4/2 1409/2/2
f 1182/5/3 1412/6/3 1413/7/3
f 1182/5/3 1183/8/3 1412/6/3
f 1414/5/4 1415/7/4 1416/6/4
f 1414/5/4 1416/6/4 1417/8/4
f 1414/5/5 1176/6/5 1177/7/5
f 1414/5/5 1417/8/5 1176/6/5
f 1418/5/6 1416/6/6 1415/7/6
f 1418/5/6 1419/8/6 1416/6/6
f 1420/9/1 1421/4/1 1422/1/1
f 1420/9/1 1192/10/1 1421/4/1
f 1423/1/2 1424/2/2 1425/3/2
f 1423/1/2 1426/4/2 1424/2/2
f 1197/11/3 1427/9/3 1428/10/3
f 1197/11/3 1198/12/3 1427/9/3
f 1429/11/4 1430/10/4 1431/9/4
f 1429/11/4 1431/9/4 1432/12/4
f 1429/11/5 1191/9/5 1192/10/5
f 1429/11/5 1432/12/5 1191/9/5
f 1433/11/6 1431/9/6 1430/10/6
f 1433/11/6 1434/12/6 1431/9/6
f 1435/1/1 1436/2/1 1437/3/1
f 1435/1/1 1438/4/1 1436/2/1
f 1439/1/2 1440/2/2 1441/3/2
f 1439/1/2 1442/4/2 1440/2/2
f 1443/5/3 1444/6/3 1445/7/3
f 1443/5/3 1446/8/3 1444/6/3
f 1447/5/4 1448/7/4 1449/6/4
f 1447/5/4 1449/6/4 1450/8/4
f 1447/5/5 1451/6/5 1452/7/5
f 1447/5/5 1450/8/5 1451/6/5
f 1453/5/6 1449/6/6 1448/7/6
f 1453/5/6 1454/8/6 1449/6/6
f 1455/9/1 1456/4/1 1457/1/1
f 1455/9/1 1458/10/1 1456/4/1
f 1216/1/2 1459/2/2 1460/3/2
f 1216/1/2 1461/4/2 1459/2/2
f 1462/11/3 1463/9/3 1464/10/3
f 1462/11/3 1465/12/3 1463/9/3
f 1466/11/4 1467/10/4 1468/9/4
f 1466/11/4 1468/9/4 1469/12/4
f 1466/11/5 1470/9/5 1458/10/5
f 1466/11/5 1469/12/5 1470/9/5
f 1471/11/6 1468/9/6 1467/10/6
f 1471/11/6 1472/12/6 1468/9/6
f 1473/1/1 1440/2/1 1474/3/1
f 1473/1/1 1442/4/1 1440/2/1
f 1475/1/2 1476/2/2 1477/3/2
f 1475/1/2 1478/4/2 1476/2/2
f 1479/5/3 1480/6/3 1481/7/3
f 1479/5/3 1482/8/3 1480/6/3
f 1483/5/4 1484/7/4 1485/6/4
f 1483/5/4 1485/6/4 1486/8/4
f 1483/5/5 1487/6/5 1488/7/5
f 1483/5/5 1486/8/5 1487/6/5
f 1489/5/6 1485/6/6 1484/7/6
f 1489/5/6 1490/8/6 1485/6/6
f 1491/9/1 1492/4/1 1493/1/1
f 1491/9/1 1494/10/1 1492/4/1
f 1495/1/2 1496/2/2 1497/3/2
f 1495/1/2 1498/4/2 1496/2/2
f 1499/11/3 1500/9/3 1501/10/3
f 1499/11/3 1502/12/3 1500/9/3
f 1503/11/4 1504/10/4 1505/9/4
f 1503/11/4 1505/9/4 1506/12/4
f 1503/11/5 1507/9/5 1494/10/5
f 1503/11/5 1506/12/5 1507/9/5
f 1508/11/6 1505/9/6 1504/10/6
f 1508/11/6 1509/12/6 1505/9/6
f 1510/1/1 1476/2/1 1511/3/1
f 1510/1/1 1478/4/1 1476/2/1
f 1512/1/2 1513/2/2 1514/3/2
f 1512/1/2 1515/4/2 1513/2/2
f 1516/5/3 1517/6/3 1518/7/3
f 1516/5/3 1519/8/3 1517/6/3
f 1520/5/4 1521/7/4 1522/6/4
f 1520/5/4 1522/6/4 1523/8/4
f 1520/5/5 1524/6/5 1525/7/5
f 1520/5/5 1523/8/5 1524/6/5
f 1526/5/6 1522/6/6 1521/7/6
f 1526/5/6 1527/8/6 1522/6/6
# Vertices: 1527, normals: 6, texture coordinates: 67, faces: 1128

