# Blender 4.3.2
# www.blender.org
mtllib grimoire_harbinger_open.mtl
o SM_MushroomGrimoire_FULL
v 0.179127 0.875000 0.343750
v 0.179127 0.937500 0.343750
v 0.125000 0.937500 0.312500
v 0.125000 0.875000 0.312500
v 0.210377 0.125000 0.289623
v 0.522877 0.125000 -0.251642
v 0.522877 0.875000 -0.251642
v 0.210377 0.875000 0.289623
v 0.210377 0.937500 0.289623
v 0.156250 0.125000 0.258373
v 0.169782 0.125000 0.266186
v 0.482282 0.125000 -0.275080
v 0.468750 0.125000 -0.282892
v 0.210377 0.062500 0.289623
v 0.522877 0.062500 -0.251642
v 0.554127 0.875000 -0.305769
v 0.522877 0.937500 -0.251642
v 0.554127 0.125000 -0.305769
v 0.500000 0.125000 -0.337019
v 0.500000 0.875000 -0.337019
v 0.468750 0.875000 -0.282892
v 0.156250 0.062500 0.258373
v 0.125000 0.062500 0.312500
v 0.125000 0.125000 0.312500
v 0.179127 0.125000 0.343750
v 0.468750 0.062500 -0.282892
v 0.156250 0.875000 0.258373
v 0.156250 0.937500 0.258373
v 0.468750 0.937500 -0.282892
v 0.179127 0.062500 0.343750
v 0.169782 0.875000 0.266186
v 0.482282 0.875000 -0.275080
v 0.179127 0.875000 0.656250
v 0.125000 0.875000 0.687500
v 0.125000 0.937500 0.687500
v 0.179127 0.937500 0.656250
v 0.491627 0.812500 1.197516
v 0.491627 0.875000 1.197516
v 0.522877 0.875000 1.251642
v 0.522877 0.812500 1.251642
v 0.210377 0.875000 0.710377
v 0.210377 0.937500 0.710377
v 0.437500 0.125000 1.228766
v 0.468750 0.125000 1.282892
v 0.482282 0.125000 1.275080
v 0.451032 0.125000 1.220953
v 0.491627 0.125000 1.197516
v 0.522877 0.125000 1.251642
v 0.522877 0.062500 1.251642
v 0.491627 0.062500 1.197516
v 0.554127 0.875000 1.305769
v 0.522877 0.937500 1.251642
v 0.554127 0.812500 1.305769
v 0.500000 0.875000 1.337019
v 0.500000 0.812500 1.337019
v 0.468750 0.187500 1.282892
v 0.500000 0.125000 1.337019
v 0.500000 0.187500 1.337019
v 0.156250 0.125000 0.741627
v 0.125000 0.125000 0.687500
v 0.125000 0.062500 0.687500
v 0.156250 0.062500 0.741627
v 0.125000 0.812500 0.687500
v 0.179127 0.812500 0.656250
v 0.468750 0.062500 1.282892
v 0.210377 0.187500 0.710377
v 0.210377 0.125000 0.710377
v 0.179127 0.125000 0.656250
v 0.179127 0.187500 0.656250
v 0.156250 0.812500 0.741627
v 0.156250 0.875000 0.741627
v 0.156250 0.937500 0.741627
v 0.468750 0.937500 1.282892
v 0.241627 0.937500 0.764503
v 0.187500 0.937500 0.795753
v 0.437500 0.875000 1.228766
v 0.468750 0.875000 1.282892
v 0.437500 0.937500 1.228766
v 0.241627 0.875000 0.764503
v 0.437500 0.062500 1.228766
v 0.554127 0.125000 1.305769
v 0.210377 0.062500 0.710377
v 0.179127 0.062500 0.656250
v 0.187500 0.125000 0.795753
v 0.187500 0.062500 0.795753
v 0.201032 0.812500 0.787941
v 0.201032 0.875000 0.787941
v 0.169782 0.875000 0.733814
v 0.169782 0.812500 0.733814
v 0.156250 0.187500 0.741627
v 0.169782 0.125000 0.733814
v 0.169782 0.187500 0.733814
v 0.187500 0.875000 0.795753
v 0.468750 0.812500 1.282892
v 0.482282 0.875000 1.275080
v 0.482282 0.812500 1.275080
v 0.451032 0.875000 1.220953
v 0.451032 0.812500 1.220953
v 0.451032 0.187500 1.220953
v 0.201032 0.187500 0.787941
v 0.241627 0.062500 0.764503
v 0.491627 0.937500 1.197516
v 0.241627 0.125000 0.764503
v 0.201032 0.125000 0.787941
v 0.210377 0.812500 0.710377
v 0.241627 0.812500 0.764503
v 0.241627 0.187500 0.764503
v 0.491627 0.187500 1.197516
v 0.482282 0.187500 1.275080
v 0.125000 0.187500 0.687500
v 0.522877 0.187500 1.251642
v 0.554127 0.187500 1.305769
v 0.544880 0.875000 -0.039753
v 0.522003 0.875000 -0.125130
v 0.178253 0.875000 0.470263
v 0.232380 0.875000 0.501513
v 0.232380 0.125000 0.501513
v 0.544880 0.125000 -0.039753
v 0.178253 0.125000 0.470263
v 0.522003 0.125000 -0.125130
v 0.499127 0.125000 -0.210506
v 0.499127 0.875000 -0.210506
v 0.155377 0.125000 0.384886
v 0.155377 0.875000 0.384886
v 0.544880 0.875000 1.039753
v 0.232380 0.875000 0.498487
v 0.178253 0.875000 0.529737
v 0.522003 0.875000 1.125130
v 0.232380 0.125000 0.498487
v 0.544880 0.125000 1.039753
v 0.178253 0.125000 0.529737
v 0.522003 0.125000 1.125130
v 0.499127 0.875000 1.210506
v 0.499127 0.125000 1.210506
v 0.155377 0.125000 0.615114
v 0.155377 0.875000 0.615114
v 0.125000 0.875000 0.625000
v 0.125000 0.875000 0.687500
v 0.125000 0.937500 0.687500
v 0.125000 0.937500 0.625000
v 0.187500 0.125000 0.687500
v 0.125000 0.125000 0.687500
v 0.125000 0.062500 0.687500
v 0.187500 0.062500 0.687500
v 0.125000 0.125000 0.625000
v 0.187500 0.875000 0.687500
v 0.187500 0.937500 0.687500
v 0.187500 0.937500 0.625000
v 0.187500 0.062500 0.625000
v 0.187500 0.125000 0.625000
v 0.187500 0.875000 0.625000
v 0.125000 0.062500 0.625000
v 0.125000 0.875000 0.375000
v 0.125000 0.937500 0.375000
v 0.125000 0.937500 0.312500
v 0.125000 0.875000 0.312500
v 0.187500 0.125000 0.312500
v 0.187500 0.062500 0.312500
v 0.125000 0.062500 0.312500
v 0.125000 0.125000 0.312500
v 0.125000 0.125000 0.375000
v 0.187500 0.875000 0.312500
v 0.187500 0.937500 0.312500
v 0.187500 0.937500 0.375000
v 0.187500 0.062500 0.375000
v 0.187500 0.125000 0.375000
v 0.187500 0.875000 0.375000
v 0.125000 0.062500 0.375000
v 0.140625 0.875000 0.625000
v 0.140625 0.125000 0.625000
v 0.140625 0.875000 0.375000
v 0.140625 0.125000 0.375000
v 0.253803 0.379821 -0.003347
v 0.220068 0.421413 0.029153
v 0.282499 0.407616 -0.063955
v 0.238257 0.468339 -0.055955
v 0.185759 0.472380 0.130631
v 0.163087 0.531494 0.158561
v 0.153811 0.584452 0.186736
v 0.188997 0.476553 0.073550
v 0.155159 0.562767 0.092154
v 0.160991 0.633179 0.150419
v 0.187139 0.683054 0.159259
v 0.206805 0.541823 -0.029587
v 0.191658 0.613652 0.007973
v 0.215486 0.673791 0.075201
v 0.203787 0.698086 0.137225
v 0.337660 0.462693 -0.131175
v 0.294466 0.517224 -0.126609
v 0.379310 0.500173 -0.161739
v 0.362464 0.548118 -0.155568
v 0.260381 0.590975 -0.102046
v 0.271381 0.657695 -0.039662
v 0.270797 0.675760 0.026748
v 0.339203 0.623902 -0.129842
v 0.332020 0.668611 -0.093758
v 0.320828 0.373622 0.043539
v 0.296520 0.414064 0.082228
v 0.360895 0.400106 -0.009492
v 0.239293 0.467727 0.168519
v 0.221763 0.526198 0.199799
v 0.208152 0.579602 0.225008
v 0.268037 0.468959 0.128426
v 0.230681 0.626538 0.198883
v 0.237765 0.678571 0.194966
v 0.286875 0.667018 0.124891
v 0.254631 0.693585 0.173088
v 0.414253 0.455469 -0.077800
v 0.444611 0.494297 -0.115818
v 0.438825 0.540923 -0.102344
v 0.359386 0.649169 0.021333
v 0.328312 0.670663 0.067307
v 0.423064 0.615825 -0.071647
v 0.405848 0.661681 -0.042261
v 0.145264 0.347105 0.250858
v 0.143337 0.386511 0.252885
v 0.200516 0.333508 0.155611
v 0.200416 0.372952 0.157811
v 0.167255 0.347645 0.264420
v 0.165329 0.387051 0.266447
v 0.221979 0.332923 0.169994
v 0.221879 0.372367 0.172194
v 0.114117 0.321270 0.303347
v 0.110397 0.359987 0.310262
v 0.135154 0.361226 0.317569
v 0.138874 0.322509 0.310654
v 0.111565 0.294433 0.393227
v 0.111398 0.333927 0.394122
v 0.133700 0.333888 0.407180
v 0.133866 0.294393 0.406284
v 0.112288 0.288803 0.622963
v 0.112549 0.328297 0.623836
v 0.138353 0.328258 0.625250
v 0.138092 0.288763 0.624378
v 0.110389 0.312422 0.693025
v 0.110840 0.351916 0.693816
v 0.136301 0.351876 0.689391
v 0.135850 0.312382 0.688600
v 0.135965 0.325375 0.752252
v 0.136518 0.364869 0.752966
v 0.160913 0.364830 0.745084
v 0.160360 0.325335 0.744370
v 0.243653 0.397307 0.908049
v 0.239527 0.436173 0.902295
v 0.260228 0.436245 0.886825
v 0.264354 0.397379 0.892578
v 0.104638 0.712377 0.302640
v 0.103723 0.751830 0.304451
v 0.164153 0.648022 0.188204
v 0.170862 0.686948 0.187588
v 0.129715 0.712835 0.308868
v 0.128800 0.752288 0.310679
v 0.187966 0.644229 0.197498
v 0.194675 0.683156 0.196883
v 0.099287 0.678727 0.357089
v 0.095567 0.717444 0.364005
v 0.120324 0.718683 0.371311
v 0.124044 0.679966 0.364396
v 0.094293 0.661949 0.446969
v 0.094127 0.701443 0.447865
v 0.116428 0.701403 0.460922
v 0.116595 0.661909 0.460026
v 0.095016 0.575981 0.676705
v 0.095278 0.615475 0.677578
v 0.121082 0.615436 0.678993
v 0.120820 0.575941 0.678120
v 0.140029 0.605247 0.746767
v 0.140480 0.644742 0.747559
v 0.165941 0.644702 0.743133
v 0.165490 0.605208 0.742342
v 0.207283 0.663399 0.842835
v 0.207783 0.702894 0.843597
v 0.232919 0.702854 0.837597
v 0.232420 0.663359 0.836835
v 0.282708 0.657345 0.970687
v 0.272246 0.694720 0.963319
v 0.293694 0.698134 0.949313
v 0.304157 0.660759 0.956682
v 0.198950 0.668362 0.144383
v 0.188669 0.632009 0.155930
v 0.210378 0.630472 0.169867
v 0.220659 0.666826 0.158319
v 0.130325 0.700369 0.247521
v 0.133134 0.739559 0.247606
v 0.155343 0.698702 0.253395
v 0.158153 0.737892 0.253480
v 0.328686 0.708998 1.047950
v 0.318224 0.746373 1.040581
v 0.339672 0.749787 1.026575
v 0.350135 0.712412 1.033944
v 0.338830 0.479973 1.076653
v 0.334704 0.518838 1.070899
v 0.355404 0.518910 1.055428
v 0.359530 0.480045 1.061182
v 0.360197 0.488743 1.105410
v 0.366604 0.526887 1.113449
v 0.387932 0.526548 1.098859
v 0.381525 0.488404 1.090820
v 0.379649 0.482168 1.133652
v 0.394175 0.512901 1.153780
v 0.417075 0.509876 1.142190
v 0.402548 0.479144 1.122062
v 0.383361 0.426541 1.140176
v 0.403039 0.436900 1.168302
v 0.424998 0.427814 1.158147
v 0.405319 0.417454 1.130021
v 0.217102 0.420650 0.869786
v 0.238606 0.420697 0.855967
v 0.241714 0.381695 0.860312
v 0.220209 0.381647 0.874131
v 0.254099 0.350574 0.922909
v 0.274799 0.350646 0.907438
v 0.252159 0.334962 0.875172
v 0.230654 0.334914 0.888991
v 0.255997 0.309074 0.920562
v 0.277687 0.315312 0.907973
v 0.256066 0.323334 0.872366
v 0.233702 0.318141 0.883603
v 0.252244 0.273232 0.893037
v 0.273934 0.279471 0.880447
v 0.252313 0.287492 0.844840
v 0.229949 0.282299 0.856077
v 0.237198 0.412993 0.103929
v 0.243784 0.376459 0.090420
v 0.266150 0.375884 0.103354
v 0.259564 0.412418 0.116863
v 0.256762 0.472402 0.070799
v 0.263349 0.435868 0.057290
v 0.285715 0.435293 0.070224
v 0.279128 0.471827 0.083733
v 0.343976 0.748000 1.073408
v 0.327536 0.779068 1.055377
v 0.348960 0.782456 1.041327
v 0.365400 0.751388 1.059359
v 0.351389 0.743358 1.085886
v 0.348172 0.782508 1.090075
v 0.369651 0.785930 1.076117
v 0.372867 0.746779 1.071928
v 0.365784 0.486055 -0.128989
v 0.351735 0.483586 -0.107007
v 0.365180 0.489110 -0.097921
v 0.379230 0.491580 -0.119904
v 0.389605 0.442492 -0.143528
v 0.375145 0.442711 -0.121675
v 0.389463 0.444027 -0.112342
v 0.403924 0.443808 -0.134195
v 0.398836 0.403493 -0.150024
v 0.384376 0.403712 -0.128172
v 0.398694 0.405027 -0.118839
v 0.413155 0.404808 -0.140692
v 0.441254 0.271141 -0.241102
v 0.435199 0.248786 -0.228843
v 0.448645 0.250976 -0.218438
v 0.454701 0.273331 -0.230697
v 0.463211 0.232509 -0.272658
v 0.461654 0.215849 -0.267409
v 0.475100 0.218039 -0.257005
v 0.476658 0.234699 -0.262253
v 0.471571 0.209785 -0.278950
v 0.485017 0.211975 -0.268545
v 0.442466 0.349006 -0.199801
v 0.428588 0.347249 -0.209675
v 0.418370 0.336073 -0.192665
v 0.432249 0.337830 -0.182791
v 0.340594 0.648225 -0.092631
v 0.340152 0.622028 -0.093118
v 0.350883 0.621706 -0.079753
v 0.351324 0.647903 -0.079266
v 0.374128 0.687176 -0.122915
v 0.380221 0.664387 -0.134328
v 0.393881 0.663022 -0.124062
v 0.387789 0.685811 -0.112650
v 0.394222 0.715526 -0.143913
v 0.400314 0.692737 -0.155325
v 0.413975 0.691372 -0.145060
v 0.407882 0.714161 -0.133647
v 0.439089 0.755502 -0.234950
v 0.453022 0.745926 -0.254971
v 0.466264 0.743365 -0.244390
v 0.452331 0.752941 -0.224369
v 0.458625 0.799917 -0.259768
v 0.469058 0.797555 -0.273663
v 0.482300 0.794994 -0.263083
v 0.471867 0.797356 -0.249187
v 0.477845 0.821308 -0.278909
v 0.491087 0.818746 -0.268328
v 0.442615 0.736128 -0.200064
v 0.429244 0.737229 -0.210704
v 0.434318 0.716483 -0.218612
v 0.447688 0.715383 -0.207972
v 0.271599 0.651276 0.053884
v 0.283829 0.655755 0.031145
v 0.298513 0.650274 0.038088
v 0.286283 0.645795 0.060827
v 0.259715 0.687769 0.079556
v 0.269004 0.704242 0.061417
v 0.284581 0.703059 0.068475
v 0.275292 0.686585 0.086614
v 0.248633 0.751193 0.090811
v 0.257922 0.767667 0.072671
v 0.273499 0.766483 0.079730
v 0.264210 0.750010 0.097869
v 0.211836 0.814210 0.154317
v 0.215530 0.839818 0.150157
v 0.231569 0.838348 0.156027
v 0.227875 0.812740 0.160187
v 0.190493 0.827895 0.198519
v 0.191493 0.845364 0.199681
v 0.207532 0.843894 0.205551
v 0.206532 0.826425 0.204389
v 0.183190 0.850454 0.223641
v 0.199229 0.848984 0.229511
v 0.242264 0.790103 0.124430
v 0.226819 0.791794 0.117236
v 0.236265 0.804470 0.100843
v 0.251711 0.802778 0.108037
v 0.309809 0.402833 -0.000809
v 0.322506 0.405173 -0.023612
v 0.336426 0.410564 -0.015185
v 0.323729 0.408224 0.007619
v 0.302335 0.360275 0.015468
v 0.313537 0.349625 -0.005693
v 0.328855 0.350941 0.001888
v 0.317653 0.361591 0.023049
v 0.282181 0.295122 0.036491
v 0.293383 0.284472 0.015330
v 0.308702 0.285787 0.022911
v 0.297500 0.296437 0.044071
v 0.269797 0.215319 0.057869
v 0.276520 0.191968 0.048057
v 0.292263 0.193889 0.054561
v 0.285541 0.217239 0.064373
v 0.250197 0.189420 0.097134
v 0.253270 0.172392 0.094289
v 0.269014 0.174312 0.100793
v 0.265941 0.191341 0.103637
v 0.241202 0.147957 0.130723
v 0.256946 0.149878 0.137227
v 0.292542 0.252560 0.043316
v 0.277415 0.250800 0.035490
v 0.292938 0.239905 0.008766
v 0.308066 0.241665 0.016592
v 0.000000 0.470000 0.367000
v 0.000000 0.570000 0.367000
v 0.000000 0.470000 0.317000
v 0.000000 0.570000 0.317000
v 0.130000 0.470000 0.367000
v 0.130000 0.570000 0.367000
v 0.130000 0.470000 0.317000
v 0.130000 0.570000 0.317000
v -0.100000 0.470000 0.397520
v -0.100000 0.470000 0.425520
v -0.100000 0.570000 0.425520
v -0.100000 0.570000 0.397520
v 0.000000 0.190000 0.367000
v 0.000000 0.290000 0.367000
v 0.000000 0.190000 0.317000
v 0.000000 0.290000 0.317000
v 0.130000 0.190000 0.367000
v 0.130000 0.290000 0.367000
v 0.130000 0.190000 0.317000
v 0.130000 0.290000 0.317000
v -0.100000 0.190000 0.397520
v -0.100000 0.190000 0.425520
v -0.100000 0.290000 0.425520
v -0.100000 0.290000 0.397520
v 0.000000 0.290000 0.632520
v 0.000000 0.190000 0.632520
v 0.000000 0.290000 0.682520
v 0.000000 0.190000 0.682520
v 0.130000 0.290000 0.632520
v 0.130000 0.190000 0.632520
v 0.130000 0.290000 0.682520
v 0.130000 0.190000 0.682520
v -0.100000 0.290000 0.602000
v -0.100000 0.290000 0.574000
v -0.100000 0.190000 0.574000
v -0.100000 0.190000 0.602000
v 0.000000 0.570000 0.632520
v 0.000000 0.470000 0.632520
v 0.000000 0.570000 0.682520
v 0.000000 0.470000 0.682520
v 0.130000 0.570000 0.632520
v 0.130000 0.470000 0.632520
v 0.130000 0.570000 0.682520
v 0.130000 0.470000 0.682520
v -0.100000 0.570000 0.602000
v -0.100000 0.570000 0.574000
v -0.100000 0.470000 0.574000
v -0.100000 0.470000 0.602000
v 0.114315 0.587378 0.434000
v 0.114315 0.587378 0.566000
v -0.000000 0.587378 0.632000
v -0.114315 0.587378 0.566000
v -0.114315 0.587378 0.434000
v 0.000000 0.587378 0.368000
v 0.000000 0.613378 0.372224
v -0.110657 0.613378 0.436112
v -0.110657 0.613378 0.563888
v -0.000000 0.613378 0.627776
v 0.110657 0.613378 0.436112
v 0.110657 0.613378 0.563888
v -0.000000 0.159698 0.500000
v 0.114315 0.174257 0.434000
v 0.114315 0.174257 0.566000
v -0.000000 0.174257 0.632000
v -0.114315 0.174257 0.566000
v -0.114315 0.174257 0.434000
v 0.000000 0.174257 0.368000
v 0.091452 0.589378 0.552800
v 0.091452 0.589378 0.447200
v 0.091452 0.605378 0.552800
v -0.000000 0.589378 0.605600
v -0.091452 0.589378 0.552800
v -0.091452 0.589378 0.447200
v -0.000000 0.589378 0.394400
v 0.091452 0.605378 0.447200
v -0.091452 0.605378 0.552800
v -0.000000 0.605378 0.605600
v -0.000000 0.605378 0.394400
v -0.091452 0.605378 0.447200
v 0.105328 0.159698 0.560811
v 0.105328 0.159698 0.439189
v 0.000000 0.159698 0.621623
v -0.105328 0.159698 0.560811
v -0.105328 0.159698 0.439189
v 0.000000 0.159698 0.378377
v 0.110657 0.623378 0.563888
v 0.110657 0.623378 0.436112
v -0.110657 0.623378 0.563888
v -0.000000 0.623378 0.627776
v 0.000000 0.623378 0.372224
v -0.110657 0.623378 0.436112
v 0.088526 0.713378 0.551110
v 0.088526 0.713378 0.448890
v 0.000000 0.713378 0.397779
v -0.088526 0.713378 0.448890
v -0.088526 0.713378 0.551110
v -0.000000 0.713378 0.602221
v 0.000000 0.713378 0.500000
v 0.109057 0.577588 0.437036
v 0.109057 0.577588 0.562964
v -0.000000 0.577588 0.625928
v -0.109057 0.577588 0.562964
v -0.109057 0.577588 0.437036
v 0.000000 0.577588 0.374072
v -0.000000 0.169581 0.500000
v 0.109057 0.183470 0.437036
v 0.109057 0.183470 0.562964
v -0.000000 0.183470 0.625928
v -0.109057 0.183470 0.562964
v -0.109057 0.183470 0.437036
v 0.000000 0.183470 0.374072
v -0.000000 0.579496 0.500000
v 0.100483 0.169581 0.558014
v 0.100483 0.169581 0.441986
v 0.000000 0.169581 0.616028
v -0.100483 0.169581 0.558014
v -0.100483 0.169581 0.441986
v 0.000000 0.169581 0.383972
v 0.000000 0.623378 0.397779
v -0.088526 0.623378 0.551110
v 0.088526 0.623378 0.551110
v 0.088526 0.623378 0.448890
v -0.088526 0.623378 0.448890
v -0.000000 0.623378 0.602221
v 0.000000 0.593378 0.397779
v 0.088526 0.593378 0.448890
v -0.088526 0.593378 0.551110
v -0.088526 0.593378 0.448890
v 0.088526 0.593378 0.551110
v -0.000000 0.593378 0.602221
v 0.000000 0.593378 0.500000
v 0.384843 0.735276 1.093413
v 0.364559 0.746147 1.058279
v 0.390278 0.775845 1.102827
v 0.369994 0.786716 1.067693
v 0.244657 0.760996 1.157203
v 0.311332 0.695925 1.162088
v 0.260013 0.723427 1.073200
v 0.273764 0.826066 1.097018
v 0.325083 0.798564 1.185906
v 0.270537 0.715446 1.172628
v 0.234613 0.734698 1.110406
v 0.244238 0.806545 1.127078
v 0.280162 0.787294 1.189300
v 0.342408 0.735276 1.117913
v 0.322124 0.746147 1.082779
v 0.327559 0.786715 1.092193
v 0.347843 0.775845 1.127327
v 0.308218 0.735276 1.137653
v 0.303339 0.723616 1.148243
v 0.273858 0.739415 1.097181
v 0.287933 0.746147 1.102519
v 0.311238 0.782577 1.161925
v 0.313653 0.775845 1.147067
v 0.281757 0.798376 1.110863
v 0.293369 0.786715 1.111933
v 0.040000 0.810000 0.600000
v 0.040000 0.810000 0.540000
v 0.100000 0.810000 0.600000
v 0.100000 0.810000 0.540000
v 0.070000 1.029000 0.570000
v -0.005900 0.950000 0.645900
v -0.005900 0.950000 0.494100
v 0.145900 0.950000 0.494100
v 0.145900 0.950000 0.645900
v 0.016870 1.008000 0.623130
v 0.016870 1.008000 0.516870
v 0.123130 1.008000 0.516870
v 0.123130 1.008000 0.623130
v 0.040000 0.859000 0.600000
v 0.040000 0.859000 0.540000
v 0.100000 0.859000 0.540000
v 0.100000 0.859000 0.600000
v 0.040000 0.936399 0.600000
v 0.026399 0.950000 0.613601
v 0.026399 0.950000 0.526399
v 0.040000 0.936399 0.540000
v 0.113601 0.950000 0.613601
v 0.100000 0.936399 0.600000
v 0.113601 0.950000 0.526399
v 0.100000 0.936399 0.540000
v 0.140000 0.859000 0.540000
v 0.140000 0.810000 0.540000
v 0.140000 0.810000 0.600000
v 0.140000 0.859000 0.600000
v 0.440118 0.393553 1.174409
v 0.410573 0.383135 1.123237
v 0.434908 0.452642 1.165386
v 0.405364 0.442223 1.114213
v 0.233081 0.417888 1.253811
v 0.345461 0.356321 1.290458
v 0.270714 0.329962 1.160993
v 0.257534 0.479455 1.138164
v 0.332281 0.505815 1.267630
v 0.282042 0.374791 1.296614
v 0.229719 0.356340 1.205988
v 0.220493 0.460985 1.190008
v 0.272816 0.479437 1.280634
v 0.379496 0.393553 1.209409
v 0.349952 0.383135 1.158237
v 0.344742 0.442223 1.149214
v 0.374286 0.452642 1.200386
v 0.330653 0.393554 1.237608
v 0.326752 0.382521 1.258054
v 0.283814 0.367379 1.183682
v 0.301108 0.383135 1.186436
v 0.319181 0.468398 1.244940
v 0.325443 0.452642 1.228585
v 0.276242 0.453255 1.170569
v 0.295899 0.442223 1.177413
v 0.297592 0.240848 0.849624
v 0.274610 0.279415 0.809819
v 0.316875 0.286811 0.883024
v 0.293894 0.325378 0.843219
v 0.106083 0.283113 0.955922
v 0.179177 0.176183 0.924523
v 0.121034 0.273758 0.823817
v 0.169822 0.390043 0.908320
v 0.227965 0.292468 1.009026
v 0.127544 0.208262 0.951093
v 0.086844 0.276564 0.880599
v 0.120996 0.357964 0.939750
v 0.161695 0.289662 1.010245
v 0.236970 0.240848 0.884624
v 0.213989 0.279415 0.844819
v 0.233272 0.325378 0.878219
v 0.256254 0.286811 0.918024
v 0.188127 0.240848 0.912824
v 0.177186 0.221687 0.921076
v 0.143786 0.277739 0.863225
v 0.165145 0.279415 0.873019
v 0.205212 0.288487 0.969618
v 0.207410 0.286811 0.946224
v 0.171812 0.344539 0.911768
v 0.184429 0.325378 0.906419
v 0.136562 0.771848 0.451890
v 0.140102 0.761055 0.411455
v 0.139389 0.812396 0.441314
v 0.142928 0.801603 0.400879
v -0.012661 0.793406 0.411260
v 0.034264 0.753356 0.481245
v 0.043218 0.726049 0.378945
v 0.050370 0.828636 0.352187
v 0.041415 0.855943 0.454487
v -0.003684 0.766417 0.457881
v 0.002585 0.747302 0.386271
v 0.007591 0.819113 0.367540
v 0.001323 0.838228 0.439151
v 0.087848 0.773983 0.447056
v 0.091387 0.763190 0.406621
v 0.094214 0.803738 0.396045
v 0.090675 0.814531 0.436479
v 0.048599 0.775703 0.443161
v 0.037691 0.769373 0.453785
v 0.042835 0.753687 0.395018
v 0.052138 0.764910 0.402726
v 0.041799 0.828304 0.438414
v 0.051425 0.816252 0.432585
v 0.046943 0.812618 0.379647
v 0.054965 0.805458 0.392150
vn -0.5000 -0.0000 0.8660
vn 0.8660 -0.0000 0.5000
vn -0.0000 1.0000 -0.0000
vn 0.5000 -0.0000 -0.8660
vn -0.8660 -0.0000 -0.5000
vn 0.3536 0.7071 -0.6124
vn -0.0000 -1.0000 -0.0000
vn 0.3536 -0.7071 -0.6124
vn -0.5000 -0.0000 -0.8660
vn 0.8660 -0.0000 -0.5000
vn 0.5000 -0.0000 0.8660
vn -0.8660 -0.0000 0.5000
vn 0.3536 0.7071 0.6124
vn 0.3536 -0.7071 0.6124
vn 0.9659 -0.0000 -0.2588
vn 0.9659 -0.0000 0.2588
vn -1.0000 -0.0000 -0.0000
vn -0.0000 -0.0000 1.0000
vn 1.0000 -0.0000 -0.0000
vn -0.0000 -0.0000 -1.0000
vn -0.7834 -0.4134 -0.4641
vn -0.9368 -0.3440 -0.0632
vn -0.9997 -0.0214 -0.0094
vn -0.9078 -0.2604 -0.3288
vn -0.9187 -0.1558 -0.3629
vn -0.8669 0.4335 -0.2461
vn -0.8180 0.4727 -0.3279
vn -0.5764 -0.3572 -0.7349
vn -0.4028 -0.1413 -0.9043
vn -0.7512 -0.1092 -0.6510
vn -0.7512 0.3712 -0.5458
vn -0.5209 0.7731 -0.3618
vn -0.4110 0.1451 -0.9000
vn -0.5424 0.5667 -0.6203
vn -0.4268 -0.7458 0.5115
vn 0.1552 -0.9247 -0.3477
vn -0.5228 -0.5192 0.6761
vn -0.5362 -0.4680 0.7025
vn -0.4515 -0.7000 0.5534
vn -0.0433 -0.9966 -0.0697
vn -0.4284 0.5834 0.6900
vn -0.5585 0.1427 0.8172
vn 0.2944 0.9070 -0.3012
vn -0.2243 0.8755 0.4279
vn 0.2544 -0.8394 -0.4803
vn 0.3087 -0.7802 -0.5440
vn 0.5660 0.2953 -0.7697
vn 0.2639 0.9307 -0.2533
vn 0.0334 0.9960 0.0832
vn 0.5460 0.4141 -0.7283
vn 0.4973 0.5923 -0.6339
vn -0.0259 0.9847 0.1725
vn -0.8609 0.0052 -0.5088
vn -0.2582 0.8546 0.4506
vn -0.8628 -0.0045 -0.5055
vn -0.0701 -0.9917 0.1074
vn 0.0694 0.9919 -0.1063
vn 0.1435 -0.9505 -0.2757
vn 0.1935 -0.9144 -0.3555
vn -0.1857 0.9229 0.3373
vn -0.0059 0.9997 0.0252
vn -0.9986 -0.0473 -0.0233
vn -0.1498 0.9451 0.2905
vn 0.0180 -0.9430 0.3323
vn 0.0059 -0.9997 -0.0252
vn -1.0000 0.0011 0.0041
vn 0.0477 -0.9787 0.1997
vn -0.9995 0.0096 -0.0290
vn -0.0181 0.9429 -0.3326
vn -0.2147 0.9276 -0.3056
vn -0.9180 0.0041 0.3966
vn -0.0478 0.9787 -0.1998
vn 0.2389 -0.9184 0.3154
vn -0.8223 -0.0026 0.5690
vn -0.8145 0.0954 -0.5723
vn -0.9889 -0.0427 -0.1427
vn -0.0714 -0.9776 0.1979
vn 0.0702 0.9787 -0.1927
vn 0.1016 -0.9790 -0.1770
vn 0.1644 -0.8512 -0.4984
vn -0.1572 0.8687 0.4697
vn -0.1061 0.9278 0.3576
vn -0.9980 -0.0451 -0.0455
vn -0.1047 0.9773 0.1843
vn 0.0213 -0.9216 0.3875
vn 0.1060 -0.9279 -0.3574
vn -1.0000 0.0011 0.0045
vn 0.0952 -0.8781 0.4689
vn -0.8399 -0.0039 0.5427
vn -0.0213 0.9215 -0.3878
vn -0.0392 0.9963 0.0767
vn -0.8187 -0.0014 0.5743
vn -0.0952 0.8781 -0.4689
vn -0.3686 0.8591 -0.3550
vn 0.0456 -0.9970 -0.0619
vn -0.8702 -0.0709 0.4876
vn -0.2465 -0.9309 0.2695
vn 0.2355 0.9403 -0.2458
vn -0.7990 0.0841 -0.5954
vn 0.2615 0.7874 -0.5583
vn -0.2639 -0.7785 0.5695
vn -0.8940 0.0323 -0.4469
vn -0.5344 0.4697 -0.7027
vn 0.3686 -0.8591 0.3550
vn -0.8170 -0.1174 0.5646
vn 0.1293 -0.9733 0.1895
vn -0.8668 -0.0183 0.4983
vn -0.2389 0.9184 -0.3154
vn -0.1625 -0.9754 -0.1491
vn -0.8018 0.0060 0.5975
vn -0.0800 0.9895 -0.1206
vn 0.4724 0.2150 0.8548
vn -0.8222 0.0172 0.5690
vn 0.1999 0.9560 0.2148
vn -0.1626 -0.8836 0.4392
vn -0.4613 -0.1338 -0.8771
vn -0.8209 0.0129 0.5709
vn -0.8228 -0.0005 0.5684
vn 0.1568 -0.9304 0.3314
vn -0.1617 0.9258 -0.3416
vn -0.5032 0.1235 -0.8553
vn -0.5034 -0.3620 -0.7846
vn -0.8220 -0.0027 0.5694
vn 0.5572 0.3621 0.7472
vn -0.8256 -0.1425 0.5460
vn 0.5504 0.0146 0.8348
vn -0.8540 -0.2577 0.4520
vn 0.5319 -0.5501 0.6438
vn -0.4710 0.5678 -0.6751
vn -0.8412 0.0375 -0.5394
vn 0.2359 -0.8783 -0.4159
vn 0.4097 -0.5435 -0.7326
vn -0.4097 0.5435 0.7326
vn -0.8762 0.0201 -0.4815
vn -0.1591 0.9873 -0.0036
vn 0.5019 -0.6019 0.6211
vn -0.7825 -0.0783 0.6177
vn -0.0562 -0.9470 -0.3164
vn -0.8527 -0.1394 0.5034
vn -0.3976 -0.4843 0.7793
vn 0.4072 0.4645 -0.7864
vn -0.8024 -0.2636 -0.5354
vn 0.5093 0.3971 -0.7635
vn -0.5109 -0.2576 0.8202
vn 0.5109 0.2576 -0.8202
vn -0.8298 -0.1051 -0.5480
vn 0.3591 0.7043 -0.6124
vn -0.8877 0.0298 -0.4594
vn -0.5047 -0.4097 0.7599
vn -0.7831 -0.1191 -0.6104
vn -0.8517 -0.0670 -0.5197
vn -0.2653 -0.8155 0.5145
vn 0.5192 0.4001 -0.7552
vn -0.1347 -0.9201 0.3678
vn -0.3269 -0.7325 0.5971
vn -0.8516 0.0808 -0.5180
vn 0.3045 0.7638 -0.5692
vn 0.3702 -0.8178 -0.4406
vn -0.4123 0.7738 0.4808
vn -0.7376 0.0779 -0.6708
vn -0.2750 0.8284 0.4879
vn 0.3771 -0.7088 -0.5961
vn -0.3771 0.7088 0.5961
vn -0.7822 0.0989 -0.6151
vn -0.4385 0.5776 0.6886
vn -0.8687 -0.0971 -0.4857
vn 0.2855 -0.8181 -0.4992
vn -0.7776 0.1530 -0.6099
vn -0.8065 0.0312 -0.5904
vn 0.5120 -0.4286 -0.7445
vn -0.2994 0.7714 0.5615
vn 0.5366 -0.3664 -0.7602
vn 0.1351 -0.9485 -0.2865
vn -0.8809 -0.0160 -0.4730
vn -0.1109 0.9601 0.2567
vn 0.4474 0.5496 -0.7055
vn -0.4432 -0.5840 0.6800
vn -0.8892 0.0214 -0.4571
vn -0.2644 -0.8643 0.4280
vn 0.4161 0.2289 -0.8800
vn -0.4161 -0.2289 0.8800
vn -0.8642 -0.0624 -0.4992
vn -0.1675 -0.9617 0.2169
vn -0.9010 0.0804 -0.4263
vn 0.2840 0.8277 -0.4840
vn -0.9370 0.0763 -0.3409
vn -0.8927 0.0662 -0.4458
vn 0.1117 0.9921 -0.0569
vn -0.2860 -0.7528 0.5929
vn 0.1468 0.9767 -0.1566
vn 0.3526 0.6943 -0.6274
vn -0.8396 -0.0942 -0.5350
vn -0.3685 -0.6416 0.6727
vn 0.5104 -0.3163 -0.7997
vn -0.5103 0.3558 0.7829
vn -0.8799 -0.0181 -0.4749
vn -0.4070 0.5372 0.7388
vn 0.4344 -0.3955 -0.8092
vn -0.4344 0.3955 0.8092
vn -0.8570 0.1021 -0.5051
vn -0.2811 0.8596 0.4267
vn -0.8843 -0.0846 -0.4591
vn 0.3810 -0.6550 -0.6526
vn -0.9213 -0.1037 -0.3747
vn -0.8780 -0.0643 -0.4743
vn 0.2292 -0.9324 -0.2795
vn -0.3602 0.6331 0.6851
vn 0.2935 -0.8361 -0.4635
vn 0.4380 0.1240 -0.8904
vn -0.8508 0.0939 -0.5171
vn -0.4539 0.0323 0.8905
vn -0.6272 -0.0000 -0.7789
vn 0.5051 -0.0000 0.8631
vn -0.6272 -0.0000 0.7789
vn 0.5051 -0.0000 -0.8631
vn 0.0871 -0.9962 -0.0000
vn -0.1923 -0.9231 -0.3330
vn 0.3845 -0.9231 -0.0000
vn -0.0871 -0.9962 -0.0000
vn 0.1923 -0.9231 0.3330
vn -0.8509 0.5253 -0.0000
vn 0.4255 -0.5253 0.7369
vn 0.4255 0.5253 -0.7369
vn 0.8509 0.5253 -0.0000
vn 0.4255 0.5253 0.7369
vn -0.4255 0.5253 0.7369
vn 0.0436 -0.9962 -0.0755
vn -0.3845 -0.9231 -0.0000
vn 0.0436 -0.9962 0.0755
vn -0.0436 -0.9962 -0.0755
vn -0.1923 -0.9231 0.3330
vn -0.0436 -0.9962 0.0755
vn 0.1923 -0.9231 -0.3330
vn -0.0175 0.9998 -0.0000
vn 0.0175 0.9998 -0.0000
vn 0.8509 -0.5253 -0.0000
vn -0.4255 -0.5253 0.7369
vn -0.8509 -0.5253 -0.0000
vn -0.4255 -0.5253 -0.7369
vn 0.4255 -0.5253 -0.7369
vn -0.0087 0.9998 0.0151
vn -0.0087 0.9998 -0.0151
vn 0.0087 0.9998 0.0151
vn 0.0087 0.9998 -0.0151
vn -0.1294 -0.9659 -0.2241
vn 0.2689 -0.8653 -0.4230
vn 0.1294 0.9659 0.2241
vn 0.5008 0.8653 -0.0214
vn -0.9173 -0.3550 -0.1803
vn -0.4324 -0.6148 0.6595
vn -0.3025 0.3550 0.8846
vn -0.7874 0.6148 0.0447
vn -0.4830 0.2588 -0.8365
vn -0.0478 0.2319 -0.9716
vn -0.6389 0.7572 -0.1359
vn -0.7990 -0.4371 -0.4130
vn -0.0418 0.4371 0.8984
vn -0.2018 -0.7572 0.6213
vn 0.4830 -0.2588 0.8365
vn 0.5209 -0.6830 -0.5120
vn 0.2709 0.1830 -0.9451
vn 0.7039 0.6830 -0.1951
vn 0.9539 -0.1830 0.2380
vn 0.8175 -0.2319 0.5272
vn -0.8959 -0.4444 -0.0000
vn 0.5774 0.5774 -0.5774
vn 0.8959 -0.4444 -0.0000
vn 0.5774 0.5774 0.5774
vn -0.5020 0.7043 -0.5020
vn -0.5020 0.7043 0.5020
vn 0.5020 0.7043 0.5020
vn 0.5020 0.7043 -0.5020
vn -0.0000 -0.4444 -0.8959
vn 0.6182 0.4854 -0.6182
vn -0.6182 0.4854 -0.6182
vn 0.6182 0.4854 0.6182
vn -0.6182 0.4854 0.6182
vn -0.0000 -0.7071 0.7071
vn -0.7071 -0.7071 -0.0000
vn -0.0000 -0.7071 -0.7071
vn 0.7071 -0.7071 -0.0000
vn -0.0000 -0.4444 0.8959
vn 0.0868 -0.9848 0.1504
vn 0.4626 -0.8822 -0.0875
vn -0.0868 0.9848 -0.1504
vn 0.3070 0.8822 -0.3569
vn -0.8135 -0.5816 -0.0005
vn -0.3191 -0.4072 0.8558
vn -0.4063 0.5816 0.7048
vn -0.9007 0.4072 -0.1515
vn -0.4924 -0.1736 -0.8529
vn -0.0563 -0.1556 -0.9862
vn -0.7785 0.5015 -0.3775
vn -0.6711 -0.7162 -0.1916
vn -0.1696 0.7162 0.6770
vn -0.0623 -0.5015 0.8629
vn 0.4924 0.1736 0.8529
vn 0.6738 -0.6964 -0.2472
vn 0.2642 -0.1228 -0.9566
vn 0.5510 0.6964 -0.4599
vn 0.9606 0.1228 0.2495
vn 0.8259 0.1556 0.5419
vn -0.3214 -0.7660 -0.5567
vn 0.0969 -0.6863 -0.7209
vn 0.3214 0.7660 0.5567
vn 0.6727 0.6863 0.2765
vn -0.9635 -0.0619 -0.2604
vn -0.5790 -0.7073 0.4057
vn -0.2563 0.0619 0.9646
vn -0.6408 0.7073 0.2985
vn -0.3830 0.6428 -0.6634
vn 0.0417 0.5758 -0.8165
vn -0.4585 0.8710 0.1767
vn -0.8559 -0.0762 -0.5116
vn 0.0151 0.0762 0.9970
vn -0.3823 -0.8710 0.3087
vn 0.3830 -0.6428 0.6634
vn 0.3851 -0.5417 -0.7472
vn 0.3415 0.4545 -0.8227
vn 0.8396 0.5417 0.0401
vn 0.8832 -0.4545 0.1156
vn 0.7280 -0.5758 0.3721
vn 0.9942 -0.0436 0.0987
vn -0.0673 -0.9654 0.2518
vn 0.3815 -0.8842 0.2694
vn 0.0673 0.9654 -0.2518
vn 0.5021 0.8455 -0.1817
vn -0.9942 0.0436 -0.0987
vn -0.6916 -0.5830 -0.4264
vn -0.7762 -0.3250 0.5402
vn -0.7087 0.6444 0.2874
vn -0.6240 0.3863 -0.6792
vn 0.0843 -0.2570 -0.9627
vn 0.5173 -0.2496 -0.8186
vn -0.3889 0.4591 -0.7987
vn -0.4721 -0.7346 -0.4874
vn -0.4931 0.7769 0.3916
vn -0.5763 -0.4168 0.7030
vn -0.0843 0.2570 0.9627
vn 0.6554 -0.7135 0.2478
vn 0.7626 -0.2125 -0.6110
vn 0.7506 0.6519 -0.1083
vn 0.6434 0.1509 0.7505
vn 0.3663 0.2109 0.9063
vt 0.000000 0.968750
vt 0.000000 1.000000
vt 0.031250 1.000000
vt 0.031250 0.968750
vt 0.687500 0.562500
vt 0.375000 0.562500
vt 0.375000 0.937500
vt 0.687500 0.937500
vt 0.062500 0.937500
vt 0.062500 0.968750
vt 0.375000 0.968750
vt 0.062500 0.562500
vt 0.031250 0.562500
vt 0.031250 0.937500
vt 0.000000 0.937500
vt 0.000000 0.562500
vt 0.062500 1.000000
vt 0.375000 1.000000
vt 0.406250 0.906250
vt 0.406250 0.937500
vt 0.375000 0.906250
vt 0.343750 0.937500
vt 0.343750 0.968750
vt 0.062500 0.906250
vt 0.031250 0.906250
vt 0.031250 0.593750
vt 0.062500 0.593750
vt 0.000000 0.906250
vt 0.000000 0.593750
vt 0.093750 1.000000
vt 0.093750 0.968750
vt 0.343750 1.000000
vt 0.093750 0.937500
vt 0.093750 0.906250
vt 0.343750 0.906250
vt 0.343750 0.593750
vt 0.093750 0.593750
vt 0.687500 0.906250
vt 0.656250 0.937500
vt 0.656250 0.906250
vt 0.656250 0.593750
vt 0.406250 0.593750
vt 0.656250 0.562500
vt 0.406250 0.562500
vt 0.687500 0.593750
vt 0.343750 0.562500
vt 0.093750 0.562500
vt 0.375000 0.593750
vt 0.312500 0.500000
vt 0.343750 0.531250
vt 0.000000 0.531250
vt 0.000000 0.500000
vt 0.375000 0.125000
vt 0.687500 0.125000
vt 0.687500 0.500000
vt 0.375000 0.500000
vt 0.031250 0.125000
vt 0.000000 0.125000
vt 0.031250 0.500000
vt 0.062500 0.125000
vt 0.062500 0.500000
vt 0.312500 0.562500
vt 0.812500 0.968750
vt 0.687500 0.968750
vt 0.687500 1.000250
vt 0.812500 1.000250
vt 0.812500 0.969000
vt 0.687500 0.969000
vt 0.812500 0.937500
vt 0.812500 0.562500
vt 0.937500 0.562500
vt 0.937500 0.937500
vt 0.782007 0.486029
vt 0.780184 0.521513
vt 0.749320 0.519442
vt 0.741333 0.486567
vt 0.745403 0.395011
vt 0.731923 0.444523
vt 0.712065 0.427677
vt 0.717334 0.390945
vt 0.747387 0.348159
vt 0.721583 0.358439
vt 0.784728 0.443042
vt 0.788509 0.400154
vt 0.789203 0.355339
vt 0.773220 0.331354
vt 0.764761 0.331447
vt 0.823521 0.488826
vt 0.822178 0.520796
vt 0.854409 0.493206
vt 0.849805 0.519898
vt 0.826363 0.447353
vt 0.831629 0.401875
vt 0.819100 0.371606
vt 0.859791 0.451145
vt 0.863695 0.421039
vt 0.710423 0.496780
vt 0.721289 0.528871
vt 0.778286 0.553483
vt 0.745441 0.549154
vt 0.692935 0.387491
vt 0.689173 0.425075
vt 0.698457 0.354374
vt 0.698724 0.456224
vt 0.691003 0.435217
vt 0.730288 0.323827
vt 0.708257 0.339352
vt 0.762895 0.313828
vt 0.737652 0.322006
vt 0.778612 0.314663
vt 0.805675 0.331971
vt 0.824765 0.552627
vt 0.853555 0.548967
vt 0.885485 0.500724
vt 0.877998 0.527545
vt 0.835395 0.352763
vt 0.858264 0.374091
vt 0.809134 0.331151
vt 0.893869 0.455540
vt 0.896152 0.423353
vt 0.884361 0.396695
vt 0.856330 0.373009
vt 0.782437 0.200962
vt 0.781109 0.214815
vt 0.742535 0.207642
vt 0.744612 0.194350
vt 0.742535 0.202992
vt 0.742645 0.212109
vt 0.716974 0.216128
vt 0.714898 0.207365
vt 0.805615 0.198826
vt 0.804606 0.212161
vt 0.744612 0.202407
vt 0.745023 0.193955
vt 0.782997 0.199526
vt 0.782437 0.209018
vt 0.742645 0.207482
vt 0.742535 0.198365
vt 0.781109 0.205537
vt 0.780990 0.214453
vt 0.804711 0.189995
vt 0.844112 0.186183
vt 0.839305 0.195387
vt 0.782997 0.191469
vt 0.780990 0.223730
vt 0.805327 0.221214
vt 0.842525 0.220470
vt 0.837416 0.211060
vt 0.935435 0.216482
vt 0.935710 0.227541
vt 0.919779 0.259141
vt 0.933558 0.259741
vt 0.932629 0.296266
vt 0.919678 0.296525
vt 0.937296 0.188723
vt 0.936178 0.199706
vt 0.918127 0.274434
vt 0.931079 0.274176
vt 0.934282 0.307824
vt 0.921399 0.306005
vt 0.910533 0.261867
vt 0.929855 0.254491
vt 0.929754 0.291874
vt 0.912130 0.298247
vt 0.896927 0.260109
vt 0.910533 0.258766
vt 0.912130 0.295147
vt 0.899730 0.296178
vt 0.910236 0.391593
vt 0.923060 0.391473
vt 0.922455 0.412498
vt 0.910267 0.411286
vt 0.912130 0.280808
vt 0.929754 0.274434
vt 0.933025 0.306005
vt 0.914309 0.312589
vt 0.899730 0.281839
vt 0.901212 0.315158
vt 0.925005 0.409653
vt 0.936746 0.409289
vt 0.928575 0.504627
vt 0.917820 0.504528
vt 0.912074 0.391473
vt 0.931642 0.387517
vt 0.930132 0.409653
vt 0.911468 0.412498
vt 0.979559 0.326156
vt 0.992474 0.324217
vt 0.982552 0.352045
vt 0.969229 0.353607
vt 0.989617 0.305201
vt 0.977043 0.304351
vt 0.970682 0.282557
vt 0.985030 0.283259
vt 0.979946 0.326156
vt 0.970987 0.326159
vt 0.973641 0.305330
vt 0.982856 0.304351
vt 0.994363 0.328283
vt 0.987048 0.324217
vt 0.997407 0.305678
vt 0.970682 0.273255
vt 0.961340 0.273069
vt 0.958914 0.233862
vt 0.968980 0.237823
vt 0.988669 0.304351
vt 0.979454 0.305330
vt 0.972966 0.282370
vt 0.982308 0.282557
vt 0.994497 0.280881
vt 0.993899 0.244134
vt 0.984934 0.249886
vt 0.971281 0.145430
vt 0.982278 0.143143
vt 0.968980 0.247124
vt 0.690607 0.273084
vt 0.697001 0.263867
vt 0.732968 0.264139
vt 0.728293 0.273763
vt 0.958914 0.243163
vt 0.943432 0.143020
vt 0.954562 0.142085
vt 0.785166 0.269004
vt 0.782325 0.278774
vt 0.696535 0.289031
vt 0.734389 0.289090
vt 0.702709 0.298145
vt 0.737994 0.299242
vt 0.790033 0.302557
vt 0.786509 0.293464
vt 0.835830 0.283095
vt 0.836234 0.292318
vt 0.871443 0.286066
vt 0.870613 0.294385
vt 0.836084 0.260859
vt 0.836292 0.269510
vt 0.955274 0.353249
vt 0.963803 0.353607
vt 0.960155 0.367654
vt 0.951235 0.366013
vt 0.977126 0.352045
vt 0.985063 0.356385
vt 0.982076 0.372965
vt 0.973453 0.371046
vt 0.976205 0.353607
vt 0.967676 0.353249
vt 0.977575 0.326159
vt 0.986535 0.326156
vt 0.974133 0.326156
vt 0.881123 0.290067
vt 0.881333 0.296748
vt 0.871169 0.266329
vt 0.868933 0.273922
vt 0.922947 0.504528
vt 0.933702 0.504627
vt 0.931800 0.519598
vt 0.922271 0.519715
vt 0.907226 0.506306
vt 0.914662 0.411286
vt 0.926849 0.412498
vt 0.922607 0.506306
vt 0.912308 0.506081
vt 0.932407 0.530954
vt 0.924533 0.533318
vt 0.909312 0.524970
vt 0.915482 0.506081
vt 0.925781 0.506306
vt 0.927867 0.524970
vt 0.919316 0.527300
vt 0.908344 0.543501
vt 0.913598 0.538646
vt 0.929336 0.552232
vt 0.926778 0.559238
vt 0.907597 0.527300
vt 0.916148 0.524970
vt 0.920434 0.538646
vt 0.915180 0.543501
vt 0.934077 0.551454
vt 0.926418 0.558011
vt 0.922012 0.552232
vt 0.929671 0.545675
vt 0.918429 0.533318
vt 0.926303 0.530954
vt 0.937165 0.543127
vt 0.930892 0.545675
vt 0.936996 0.545675
vt 0.923504 0.306005
vt 0.936387 0.307824
vt 0.935578 0.388171
vt 0.922120 0.387517
vt 0.911711 0.315158
vt 0.924807 0.312589
vt 0.922572 0.391473
vt 0.909748 0.391593
vt 0.779755 0.238031
vt 0.782326 0.228167
vt 0.787079 0.227261
vt 0.787338 0.237905
vt 0.760715 0.232692
vt 0.763365 0.223237
vt 0.756130 0.248970
vt 0.773416 0.253400
vt 0.753920 0.258403
vt 0.772276 0.262449
vt 0.786441 0.253946
vt 0.785931 0.263305
vt 0.806095 0.235658
vt 0.801921 0.252321
vt 0.803000 0.262017
vt 0.805354 0.225326
vt 0.714898 0.212015
vt 0.716283 0.198505
vt 0.745023 0.190293
vt 0.744612 0.198744
vt 0.716283 0.202900
vt 0.713942 0.194605
vt 0.713942 0.190211
vt 0.694512 0.207752
vt 0.691254 0.199425
vt 0.714898 0.192638
vt 0.716974 0.201402
vt 0.694489 0.209722
vt 0.691327 0.201557
vt 0.716283 0.192692
vt 0.714898 0.206202
vt 0.691327 0.215121
vt 0.694512 0.201938
vt 0.891270 0.286738
vt 0.892809 0.294080
vt 0.885199 0.271676
vt 0.882985 0.279116
vt 0.888281 0.272984
vt 0.886778 0.278246
vt 0.992392 0.681124
vt 0.978789 0.679908
vt 0.979847 0.638748
vt 0.993986 0.638645
vt 0.959750 0.670548
vt 0.945732 0.671336
vt 0.947283 0.625600
vt 0.960691 0.628286
vt 0.958734 0.522789
vt 0.945457 0.525433
vt 0.952436 0.457969
vt 0.966514 0.456108
vt 0.985342 0.606200
vt 0.998791 0.607072
vt 0.953035 0.594643
vt 0.967196 0.594304
vt 0.951478 0.412844
vt 0.965015 0.412733
vt 0.976923 0.525108
vt 0.985661 0.448472
vt 0.990840 0.527493
vt 0.998791 0.450109
vt 0.976492 0.405603
vt 0.970029 0.385147
vt 0.990231 0.403275
vt 0.955351 0.383285
vt 0.984543 0.381376
vt 0.418460 0.998080
vt 0.418460 0.939768
vt 0.480417 0.939768
vt 0.480417 0.998080
vt 0.375970 0.998080
vt 0.375970 0.939768
vt 0.591525 0.939768
vt 0.591525 0.998080
vt 0.549035 0.998080
vt 0.549035 0.939768
vt 0.668343 0.988189
vt 0.685753 0.953263
vt 0.658887 0.939870
vt 0.641477 0.974797
vt 0.685748 0.953317
vt 0.668338 0.988244
vt 0.641471 0.974851
vt 0.658882 0.939924
vt 0.498720 0.939768
vt 0.498720 0.998080
vt 0.611680 0.993543
vt 0.596634 0.986043
vt 0.596640 0.985989
vt 0.611685 0.993489
vt 0.578915 0.018422
vt 0.595060 0.017353
vt 0.595950 0.031223
vt 0.579968 0.032019
vt 0.579943 0.074879
vt 0.577101 0.074819
vt 0.577254 0.059946
vt 0.580063 0.059993
vt 0.627203 0.017071
vt 0.648758 0.029432
vt 0.644988 0.031617
vt 0.627213 0.021411
vt 0.648770 0.054279
vt 0.627289 0.066732
vt 0.627280 0.062392
vt 0.645009 0.052113
vt 0.577452 0.032189
vt 0.576434 0.020148
vt 0.605735 0.054369
vt 0.609505 0.052184
vt 0.600774 0.076017
vt 0.601433 0.076017
vt 0.601433 0.087750
vt 0.600774 0.087750
vt 0.597083 0.059913
vt 0.597209 0.074959
vt 0.597025 0.090072
vt 0.579808 0.089861
vt 0.596604 0.105034
vt 0.579187 0.104509
vt 0.580204 0.045426
vt 0.596650 0.045229
vt 0.596244 0.017849
vt 0.597078 0.031175
vt 0.597829 0.045196
vt 0.598305 0.059899
vt 0.598447 0.074966
vt 0.598239 0.090081
vt 0.597859 0.104454
vt 0.577514 0.045469
vt 0.600774 0.064284
vt 0.601433 0.064284
vt 0.600774 0.029086
vt 0.601433 0.029086
vt 0.601433 0.040818
vt 0.600774 0.040818
vt 0.601433 0.052551
vt 0.600774 0.052551
vt 0.600774 0.017353
vt 0.601433 0.017353
vt 0.605721 0.029520
vt 0.609482 0.031686
vt 0.577077 0.089657
vt 0.576434 0.102735
vt 0.627292 0.042429
vt 0.627292 0.028316
vt 0.639514 0.035372
vt 0.615070 0.035372
vt 0.615070 0.049485
vt 0.627292 0.056541
vt 0.639514 0.049485
vt 0.627201 0.061594
vt 0.610554 0.051983
vt 0.613883 0.050061
vt 0.627201 0.057750
vt 0.643848 0.051983
vt 0.640519 0.050061
vt 0.643848 0.032760
vt 0.640519 0.034683
vt 0.610554 0.032760
vt 0.627201 0.023149
vt 0.627201 0.026994
vt 0.613883 0.034683
vt 0.649315 0.029109
vt 0.649315 0.054593
vt 0.605176 0.029206
vt 0.627202 0.016442
vt 0.627290 0.067361
vt 0.605177 0.054692
vt 0.999516 0.080521
vt 0.999516 0.120468
vt 0.950015 0.120468
vt 0.950015 0.080521
vt 0.999516 0.000626
vt 0.999516 0.040573
vt 0.950015 0.040573
vt 0.950015 0.000626
vt 0.949991 0.040573
vt 0.949991 0.080521
vt 0.900491 0.080521
vt 0.900491 0.040573
vt 0.949991 0.120468
vt 0.900491 0.120468
vt 0.949991 0.000626
vt 0.900491 0.000626
vt 0.839117 0.073316
vt 0.839117 0.013242
vt 0.891143 0.043279
vt 0.891143 0.103353
vt 0.839117 0.133391
vt 0.787091 0.103353
vt 0.787091 0.043279
vt 0.736485 0.005674
vt 0.736934 0.023105
vt 0.716762 0.023552
vt 0.716281 0.006195
vt 0.697775 0.114846
vt 0.682560 0.106061
vt 0.697775 0.097276
vt 0.697775 0.079707
vt 0.712991 0.088492
vt 0.737505 0.058256
vt 0.737465 0.076005
vt 0.717047 0.075808
vt 0.717134 0.058305
vt 0.737180 0.093766
vt 0.716777 0.093323
vt 0.736734 0.111396
vt 0.716298 0.110879
vt 0.737302 0.040573
vt 0.717039 0.040869
vt 0.715354 0.023598
vt 0.714867 0.006947
vt 0.715601 0.040883
vt 0.715688 0.058307
vt 0.715598 0.075794
vt 0.715353 0.093277
vt 0.714867 0.110118
vt 0.682560 0.088492
vt 0.712991 0.106061
vt 0.696968 0.061412
vt 0.697564 0.077589
vt 0.683256 0.070016
vt 0.682661 0.053839
vt 0.696373 0.045235
vt 0.710680 0.052807
vt 0.711276 0.068984
vt 0.784309 0.040522
vt 0.784404 0.103799
vt 0.779072 0.106839
vt 0.779072 0.037432
vt 0.838802 0.135892
vt 0.838720 0.142029
vt 0.894233 0.105374
vt 0.899471 0.108464
vt 0.894138 0.042097
vt 0.839741 0.010004
vt 0.839823 0.003866
vt 0.899471 0.039057
vt 0.839118 0.073335
vt 0.891144 0.043298
vt 0.891144 0.103372
vt 0.787092 0.043298
vt 0.839118 0.013261
vt 0.839118 0.133410
vt 0.787092 0.103372
vt 0.279163 0.098332
vt 0.350677 0.098332
vt 0.377166 0.124820
vt 0.252674 0.124820
vt 0.350677 0.026817
vt 0.377166 0.000329
vt 0.550232 0.058399
vt 0.550232 0.103283
vt 0.502482 0.103283
vt 0.502482 0.058399
vt 0.462510 0.086134
vt 0.414761 0.086134
vt 0.414761 0.038384
vt 0.462510 0.038384
vt 0.550269 0.058415
vt 0.550269 0.103299
vt 0.502520 0.103299
vt 0.502520 0.058415
vt 0.189796 0.062500
vt 0.228652 0.101356
vt 0.150941 0.101356
vt 0.150941 0.023644
vt 0.228652 0.023644
vt 0.550232 0.058415
vt 0.550232 0.103299
vt 0.502482 0.103299
vt 0.502482 0.058415
vt 0.251888 0.000408
vt 0.251888 0.124592
vt 0.127705 0.000408
vt 0.127705 0.124592
vt 0.279163 0.026817
vt 0.252674 0.000329
vt 0.550247 0.002675
vt 0.550247 0.058382
vt 0.502498 0.058382
vt 0.502498 0.002675
vt 0.550270 0.002708
vt 0.502520 0.002708
vt 0.550232 0.002707
vt 0.502482 0.002708
vt 0.550232 0.002692
vt 0.502482 0.002692
vt 0.561055 0.118590
vt 0.491658 0.118590
vt 0.561055 0.118606
vt 0.491658 0.118606
vt 0.561093 0.118606
vt 0.491696 0.118606
vt 0.561071 0.118573
vt 0.491674 0.118573
vt 0.502498 0.103266
vt 0.550247 0.103266
vt 0.550232 0.041687
vt 0.502482 0.041687
vt 0.512315 0.057325
vt 0.464565 0.057325
vt 0.464565 0.009576
vt 0.512315 0.009576
vt 0.550269 0.041703
vt 0.502520 0.041703
vt 0.550232 0.041703
vt 0.502482 0.041703
vt 0.550247 0.041670
vt 0.502498 0.041670
vt 0.417496 0.000729
vt 0.460876 0.000729
vt 0.460876 0.036141
vt 0.417495 0.036141
vt 0.460876 0.089260
vt 0.417495 0.089260
vt 0.460875 0.124673
vt 0.417495 0.124673
vt 0.382083 0.089260
vt 0.382083 0.036142
vt 0.496288 0.036142
vt 0.496288 0.089260
vt 0.338975 0.086134
vt 0.291225 0.086134
vt 0.291225 0.038384
vt 0.338975 0.038384
s 1
usemtl FACTION_H
f 1/1/1 2/2/1 3/3/1 4/4/1
f 5/5/2 6/6/2 7/7/2 8/8/2
f 8/1/2 9/2/2 2/3/2 1/4/2
f 10/9/3 11/10/3 12/11/3 13/7/3
f 5/10/2 14/9/2 15/7/2 6/11/2
f 16/10/2 17/3/2 7/4/2
f 18/12/4 19/13/4 20/14/4 16/9/4
f 6/12/2 18/13/2 16/14/2 7/9/2
f 21/14/5 20/9/5 19/12/5 13/13/5
f 10/4/5 22/14/5 23/15/5 24/1/5
f 24/13/1 25/16/1 1/15/1 4/14/1
f 19/10/5 26/14/5 13/4/5
f 8/15/2 1/14/2 25/13/2 5/16/2
f 10/13/5 24/16/5 4/15/5 27/14/5
f 28/4/3 3/1/3 2/2/3 9/3/3
f 17/17/6 16/10/6 20/4/6 29/3/6
f 17/18/3 29/11/3 28/10/3 9/17/3
f 27/10/5 28/17/5 29/18/5 21/11/5
f 7/11/2 17/18/2 9/17/2 8/10/2
f 21/4/5 29/3/5 20/10/5
f 4/1/5 3/2/5 28/3/5 27/4/5
f 14/9/7 22/10/7 26/11/7 15/7/7
f 26/14/8 19/4/8 18/10/8 15/9/8
f 14/14/7 30/15/7 23/1/7 22/4/7
f 24/4/1 23/14/1 30/15/1 25/1/1
f 6/4/2 15/14/2 18/10/2
f 25/4/2 30/14/2 14/15/2 5/1/2
f 13/11/5 26/7/5 22/9/5 10/10/5
f 12/5/5 11/6/5 31/7/5 32/8/5
f 27/15/4 31/14/4 11/13/4 10/16/4
f 21/18/7 32/11/7 31/10/7 27/17/7
f 13/12/1 12/13/1 32/14/1 21/9/1
f 33/1/9 34/4/9 35/3/9 36/2/9
f 37/19/10 38/20/10 39/7/10 40/21/10
f 41/1/10 33/4/10 36/3/10 42/2/10
f 43/22/3 44/7/3 45/11/3 46/23/3
f 47/23/10 48/11/10 49/7/10 50/22/10
f 51/10/10 39/4/10 52/3/10
f 53/24/11 51/9/11 54/14/11 55/25/11
f 40/24/10 39/9/10 51/14/10 53/25/10
f 56/26/12 44/13/12 57/12/12 58/27/12
f 59/4/12 60/1/12 61/15/12 62/14/12
f 63/25/9 34/14/9 33/15/9 64/28/9
f 57/10/12 44/4/12 65/14/12
f 66/29/10 67/16/10 68/13/10 69/26/10
f 70/25/12 71/14/12 34/15/12 63/28/12
f 72/4/3 42/3/3 36/2/3 35/1/3
f 52/17/13 73/3/13 54/4/13 51/10/13
f 74/30/3 42/17/3 72/10/3 75/31/3
f 76/23/12 77/11/12 73/18/12 78/32/12
f 79/31/10 41/10/10 42/17/10 74/30/10
f 77/4/12 54/10/12 73/3/12
f 34/1/12 71/4/12 72/3/12 35/2/12
f 50/22/7 49/7/7 65/11/7 80/23/7
f 65/14/14 49/9/14 81/10/14 57/4/14
f 82/14/7 62/4/7 61/1/7 83/15/7
f 60/4/9 68/1/9 83/15/9 61/14/9
f 48/4/10 81/10/10 49/14/10
f 68/4/10 67/1/10 82/15/10 83/14/10
f 84/31/12 59/10/12 62/9/12 85/33/12
f 86/34/12 87/33/12 88/9/12 89/24/12
f 90/29/11 59/16/11 91/13/11 92/26/11
f 93/30/7 71/17/7 88/10/7 87/31/7
f 94/24/9 77/9/9 95/14/9 96/25/9
f 77/18/7 76/32/7 97/23/7 95/11/7
f 76/32/7 93/30/7 87/31/7 97/23/7
f 96/21/12 95/7/12 97/22/12 98/35/12
f 99/36/12 98/35/12 86/34/12 100/37/12
f 44/11/12 43/23/12 80/22/12 65/7/12
f 84/31/12 85/33/12 80/22/12 43/23/12
f 82/9/7 101/33/7 85/31/7 62/10/7
f 50/22/7 80/23/7 85/31/7 101/33/7
f 39/11/10 38/23/10 102/32/10 52/18/10
f 79/31/10 74/30/10 102/32/10 38/23/10
f 71/10/12 93/31/12 75/30/12 72/17/12
f 76/23/12 78/32/12 75/30/12 93/31/12
f 52/18/3 102/32/3 78/23/3 73/11/3
f 74/30/3 75/31/3 78/23/3 102/32/3
f 67/10/10 103/31/10 101/33/10 82/9/10
f 47/23/10 50/22/10 101/33/10 103/31/10
f 59/9/3 84/33/3 104/31/3 91/10/3
f 84/33/3 43/22/3 46/23/3 104/31/3
f 105/38/10 41/8/10 79/39/10 106/40/10
f 107/41/10 106/40/10 37/19/10 108/42/10
f 103/43/10 107/41/10 108/42/10 47/44/10
f 106/40/10 79/39/10 38/20/10 37/19/10
f 67/5/10 66/45/10 107/41/10 103/43/10
f 66/45/10 105/38/10 106/40/10 107/41/10
f 46/46/12 99/36/12 100/37/12 104/47/12
f 98/35/12 97/22/12 87/33/12 86/34/12
f 45/6/12 109/48/12 99/36/12 46/46/12
f 109/48/12 96/21/12 98/35/12 99/36/12
f 44/12/9 56/27/9 109/26/9 45/13/9
f 56/27/9 94/24/9 96/25/9 109/26/9
f 71/15/11 70/28/11 89/25/11 88/14/11
f 70/28/11 90/29/11 92/26/11 89/25/11
f 104/47/12 100/37/12 92/27/12 91/12/12
f 100/37/12 86/34/12 89/24/12 92/27/12
f 59/13/12 90/26/12 110/29/12 60/16/12
f 90/26/12 70/25/12 63/28/12 110/29/12
f 41/15/10 105/28/10 64/25/10 33/14/10
f 105/28/10 66/29/10 69/26/10 64/25/10
f 60/13/9 110/26/9 69/29/9 68/16/9
f 110/26/9 63/25/9 64/28/9 69/29/9
f 77/14/12 94/25/12 55/24/12 54/9/12
f 94/25/12 56/26/12 58/27/12 55/24/12
f 48/12/10 111/27/10 112/26/10 81/13/10
f 111/27/10 40/24/10 53/25/10 112/26/10
f 81/12/11 112/27/11 58/26/11 57/13/11
f 112/27/11 53/24/11 55/25/11 58/26/11
f 47/44/10 108/42/10 111/48/10 48/6/10
f 108/42/10 37/19/10 40/21/10 111/48/10
f 113/49/3 114/50/3 115/51/3 116/52/3
f 117/53/2 118/54/2 113/55/2 116/56/2
f 119/57/1 117/58/1 116/52/1 115/59/1
f 120/57/15 121/60/15 122/61/15 114/59/15
f 119/51/7 123/13/7 121/6/7 120/50/7
f 118/58/15 120/57/15 114/59/15 113/52/15
f 117/52/7 119/51/7 120/50/7 118/49/7
f 114/50/3 122/6/3 124/13/3 115/51/3
f 125/62/3 126/16/3 127/51/3 128/50/3
f 129/53/10 126/56/10 125/61/10 130/60/10
f 131/57/9 127/59/9 126/52/9 129/58/9
f 132/57/16 128/59/16 133/52/16 134/58/16
f 131/51/7 132/50/7 134/56/7 135/59/7
f 130/60/16 125/61/16 128/59/16 132/57/16
f 129/16/7 130/62/7 132/50/7 131/51/7
f 128/50/3 127/51/3 136/59/3 133/56/3
f 137/1/17 138/4/17 139/3/17 140/2/17
f 141/4/18 142/1/18 143/15/18 144/14/18
f 142/13/17 138/14/17 137/15/17 145/16/17
f 141/13/18 146/14/18 138/15/18 142/16/18
f 147/4/3 148/3/3 140/2/3 139/1/3
f 149/14/19 150/4/19 141/1/19 144/15/19
f 138/1/18 146/4/18 147/3/18 139/2/18
f 141/16/19 150/13/19 151/14/19 146/15/19
f 149/14/7 144/4/7 143/1/7 152/15/7
f 142/4/17 145/1/17 152/15/17 143/14/17
f 147/2/19 146/1/19 151/4/19 148/3/19
f 153/4/17 154/3/17 155/2/17 156/1/17
f 157/1/20 158/15/20 159/14/20 160/4/20
f 160/16/17 161/13/17 153/14/17 156/15/17
f 157/16/20 160/13/20 156/14/20 162/15/20
f 163/3/3 155/2/3 154/1/3 164/4/3
f 165/15/19 158/14/19 157/4/19 166/1/19
f 156/4/20 155/3/20 163/2/20 162/1/20
f 157/13/19 162/14/19 167/15/19 166/16/19
f 165/4/7 168/1/7 159/15/7 158/14/7
f 160/1/17 159/15/17 168/14/17 161/4/17
f 163/3/19 164/2/19 167/1/19 162/4/19
f 151/63/19 167/64/19 164/65/19 148/66/19
f 148/66/3 164/65/3 154/64/3 140/63/3
f 140/66/17 154/65/17 153/64/17 137/63/17
f 145/13/20 137/14/20 169/15/20 170/16/20
f 145/67/17 161/68/17 168/8/17 152/69/17
f 152/67/7 168/68/7 165/8/7 149/69/7
f 149/69/19 165/8/19 166/68/19 150/67/19
f 150/70/19 166/71/19 167/72/19 151/69/19
f 169/69/17 171/8/17 172/5/17 170/70/17
f 161/68/3 145/67/3 170/69/3 172/8/3
f 137/66/7 153/65/7 171/64/7 169/63/7
f 153/15/18 161/16/18 172/13/18 171/14/18
s 0
f 176/73/21 175/74/21 173/75/21 174/76/21
f 181/77/22 180/78/22 177/79/22 178/80/22
f 182/81/23 181/77/23 178/80/23 179/82/23
f 184/83/24 176/73/24 174/76/24 180/78/24
f 185/84/25 184/83/25 180/78/25 181/77/25
f 186/85/26 185/84/26 181/77/26 182/81/26
f 187/86/27 186/85/27 182/81/27 183/87/27
f 189/88/28 188/89/28 175/74/28 176/73/28
f 191/90/29 190/91/29 188/89/29 189/88/29
f 192/92/30 189/88/30 176/73/30 184/83/30
f 193/93/31 192/92/31 184/83/31 185/84/31
f 194/94/32 193/93/32 185/84/32 186/85/32
f 195/95/33 191/90/33 189/88/33 192/92/33
f 196/96/34 195/95/34 192/92/34 193/93/34
f 198/97/35 174/76/35 173/75/35 197/98/35
f 175/74/36 199/99/36 197/100/36 173/75/36
f 201/101/37 178/80/37 177/79/37 200/102/37
f 202/103/38 179/82/38 178/80/38 201/101/38
f 203/104/39 180/78/39 174/76/39 198/97/39
f 180/78/40 203/104/40 200/105/40 177/79/40
f 204/106/41 182/81/41 179/82/41 202/107/41
f 205/108/42 183/87/42 182/81/42 204/109/42
f 187/86/43 207/110/43 206/111/43 186/85/43
f 207/110/44 187/86/44 183/87/44 205/108/44
f 188/89/45 208/112/45 199/99/45 175/74/45
f 190/91/46 209/113/46 208/112/46 188/89/46
f 191/90/47 210/114/47 209/115/47 190/91/47
f 194/94/48 212/116/48 211/117/48 193/93/48
f 212/116/49 194/94/49 186/85/49 206/118/49
f 195/95/50 213/119/50 210/114/50 191/90/50
f 196/96/51 214/120/51 213/119/51 195/95/51
f 214/121/52 196/96/52 193/93/52 211/122/52
f 215/123/53 216/124/53 218/125/53 217/126/53
f 218/127/54 222/128/54 326/129/54 323/130/54
f 216/124/55 215/123/55 223/131/55 224/132/55
f 217/133/56 221/134/56 219/135/56 215/136/56
f 222/137/57 218/138/57 216/139/57 220/140/57
f 223/131/58 226/141/58 230/142/58 227/143/58
f 215/123/59 219/144/59 226/141/59 223/131/59
f 220/145/60 216/124/60 224/132/60 225/146/60
f 229/147/61 228/148/61 232/149/61 233/150/61
f 224/132/62 223/131/62 227/143/62 228/148/62
f 225/146/63 224/132/63 228/148/63 229/147/63
f 231/151/64 234/152/64 238/153/64 235/154/64
f 227/143/65 230/142/65 234/155/65 231/156/65
f 228/148/66 227/143/66 231/156/66 232/149/66
f 235/157/67 238/158/67 242/159/67 239/160/67
f 232/161/68 231/162/68 235/163/68 236/164/68
f 233/165/69 232/166/69 236/167/69 237/168/69
f 308/169/70 307/170/70 244/171/70 245/172/70
f 236/173/71 235/174/71 239/175/71 240/176/71
f 237/177/72 236/173/72 240/176/72 241/178/72
f 243/179/73 246/180/73 294/181/73 291/182/73
f 307/183/74 310/184/74 243/185/74 244/186/74
f 283/187/75 284/188/75 250/189/75 249/190/75
f 248/191/76 247/192/76 255/193/76 256/194/76
f 283/195/77 285/196/77 251/197/77 247/198/77
f 286/199/78 284/200/78 248/191/78 252/201/78
f 255/202/79 258/203/79 262/204/79 259/205/79
f 247/206/80 251/207/80 258/208/80 255/209/80
f 252/201/81 248/191/81 256/194/81 257/210/81
f 261/211/82 260/212/82 264/213/82 265/214/82
f 256/194/83 255/193/83 259/215/83 260/212/83
f 257/210/84 256/194/84 260/212/84 261/211/84
f 263/216/85 266/217/85 270/218/85 267/219/85
f 259/215/86 262/220/86 266/221/86 263/222/86
f 260/212/87 259/215/87 263/222/87 264/213/87
f 267/219/88 270/218/88 274/223/88 271/224/88
f 264/225/89 263/216/89 267/219/89 268/226/89
f 265/227/90 264/225/90 268/226/90 269/228/90
f 273/229/91 272/230/91 276/231/91 277/232/91
f 268/226/92 267/219/92 271/224/92 272/230/92
f 269/228/93 268/226/93 272/230/93 273/229/93
f 277/232/94 276/231/94 288/233/94 289/234/94
f 271/224/95 274/223/95 278/235/95 275/236/95
f 272/230/96 271/224/96 275/236/96 276/231/96
f 253/237/97 249/238/97 280/239/97 281/240/97
f 250/241/98 254/242/98 282/243/98 279/244/98
f 249/238/99 250/241/99 279/244/99 280/239/99
f 254/242/100 250/241/100 284/200/100 286/199/100
f 249/245/101 253/246/101 285/247/101 283/248/101
f 247/192/102 248/191/102 284/200/102 283/249/102
f 289/234/103 288/233/103 332/250/103 333/251/103
f 275/236/104 278/235/104 290/252/104 287/253/104
f 276/231/105 275/236/105 287/253/105 288/233/105
f 291/254/106 294/255/106 298/256/106 295/257/106
f 244/186/107 243/185/107 291/254/107 292/258/107
f 245/259/108 244/260/108 292/261/108 293/262/108
f 295/257/109 298/256/109 302/263/109 299/264/109
f 292/258/110 291/254/110 295/257/110 296/265/110
f 293/266/111 292/267/111 296/268/111 297/269/111
f 301/270/112 300/271/112 304/272/112 305/273/112
f 296/265/113 295/257/113 299/264/113 300/271/113
f 297/274/114 296/275/114 300/276/114 301/277/114
f 306/278/115 305/279/115 304/280/115 303/281/115
f 299/282/116 302/283/116 306/284/116 303/285/116
f 300/271/117 299/264/117 303/286/117 304/272/117
f 240/176/118 239/175/118 310/184/118 307/183/118
f 239/287/119 242/288/119 309/289/119 310/290/119
f 241/291/120 240/292/120 307/293/120 308/294/120
f 314/295/121 313/296/121 317/297/121 318/298/121
f 310/299/122 309/300/122 313/296/122 314/295/122
f 243/301/123 310/299/123 314/295/123 311/302/123
f 246/303/124 243/301/124 311/302/124 312/304/124
f 311/302/125 314/295/125 318/298/125 315/305/125
f 312/304/126 311/302/126 315/305/126 316/306/126
f 315/305/127 318/298/127 322/307/127 319/308/127
f 316/306/128 315/305/128 319/308/128 320/309/128
f 318/298/129 317/297/129 321/310/129 322/307/129
f 217/126/130 218/125/130 323/311/130 324/312/130
f 221/313/131 217/314/131 324/315/131 325/316/131
f 325/317/132 324/312/132 328/318/132 329/319/132
f 323/320/133 326/321/133 330/322/133 327/323/133
f 324/324/134 323/325/134 327/326/134 328/327/134
f 333/251/135 332/250/135 336/328/135 337/329/135
f 287/253/136 290/252/136 334/330/136 331/331/136
f 288/233/137 287/253/137 331/331/137 332/250/137
f 331/331/138 334/330/138 338/332/138 335/333/138
f 332/250/139 331/331/139 335/333/139 336/328/139
f 341/334/140 340/335/140 344/336/140 345/337/140
f 339/338/141 342/339/141 346/340/141 343/341/141
f 340/335/142 339/338/142 343/341/142 344/336/142
f 362/342/143 361/343/143 354/344/143 351/345/143
f 345/337/144 344/336/144 348/346/144 349/347/144
f 343/341/145 346/340/145 350/348/145 347/349/145
f 344/336/146 343/341/146 347/349/146 348/346/146
f 351/345/147 354/344/147 358/350/147 355/351/147
f 363/352/148 362/342/148 351/345/148 352/353/148
f 364/354/149 363/352/149 352/353/149 353/355/149
f 356/356/150 355/351/150 359/357/150
f 352/353/151 351/345/151 355/351/151 356/356/151
f 353/355/152 352/353/152 356/356/152 357/358/152
f 359/357/153 355/351/153 358/350/153 360/359/153
f 357/358/154 356/356/154 359/357/154 360/360/154
f 349/347/155 348/346/155 363/352/155 364/354/155
f 348/346/156 347/349/156 362/342/156 363/352/156
f 347/349/157 350/348/157 361/343/157 362/342/157
f 367/334/158 366/335/158 370/336/158 371/337/158
f 365/338/159 368/339/159 372/340/159 369/341/159
f 366/335/160 365/338/160 369/341/160 370/336/160
f 388/342/161 387/343/161 380/344/161 377/345/161
f 371/337/162 370/336/162 374/346/162 375/347/162
f 369/341/163 372/340/163 376/348/163 373/349/163
f 370/336/164 369/341/164 373/349/164 374/346/164
f 377/345/165 380/344/165 384/350/165 381/351/165
f 389/352/166 388/342/166 377/345/166 378/353/166
f 390/354/167 389/352/167 378/353/167 379/355/167
f 382/356/168 381/351/168 385/357/168
f 378/353/169 377/345/169 381/351/169 382/356/169
f 379/355/170 378/353/170 382/356/170 383/358/170
f 385/357/171 381/351/171 384/350/171 386/359/171
f 383/358/172 382/356/172 385/357/172 386/360/172
f 375/347/173 374/346/173 389/352/173 390/354/173
f 374/346/174 373/349/174 388/342/174 389/352/174
f 373/349/175 376/348/175 387/343/175 388/342/175
f 393/334/176 392/335/176 396/336/176 397/337/176
f 391/338/177 394/339/177 398/340/177 395/341/177
f 392/335/178 391/338/178 395/341/178 396/336/178
f 414/342/179 413/343/179 406/344/179 403/345/179
f 397/337/180 396/336/180 400/346/180 401/347/180
f 395/341/181 398/340/181 402/348/181 399/349/181
f 396/336/182 395/341/182 399/349/182 400/346/182
f 403/345/183 406/344/183 410/350/183 407/351/183
f 415/352/184 414/342/184 403/345/184 404/353/184
f 416/354/185 415/352/185 404/353/185 405/355/185
f 408/356/186 407/351/186 411/357/186
f 404/353/187 403/345/187 407/351/187 408/356/187
f 405/355/188 404/353/188 408/356/188 409/358/188
f 411/357/189 407/351/189 410/350/189 412/359/189
f 409/358/190 408/356/190 411/357/190 412/360/190
f 401/347/191 400/346/191 415/352/191 416/354/191
f 400/346/192 399/349/192 414/342/192 415/352/192
f 399/349/193 402/348/193 413/343/193 414/342/193
f 419/334/194 423/337/194 422/336/194 418/335/194
f 417/338/195 421/341/195 424/340/195 420/339/195
f 418/335/196 422/336/196 421/341/196 417/338/196
f 440/342/197 429/345/197 432/344/197 439/343/197
f 423/337/198 427/347/198 426/346/198 422/336/198
f 421/341/199 425/349/199 428/348/199 424/340/199
f 422/336/200 426/346/200 425/349/200 421/341/200
f 429/345/201 433/351/201 436/350/201 432/344/201
f 441/352/202 430/353/202 429/345/202 440/342/202
f 442/354/203 431/355/203 430/353/203 441/352/203
f 434/356/204 437/357/204 433/351/204
f 430/353/205 434/356/205 433/351/205 429/345/205
f 431/355/206 435/358/206 434/356/206 430/353/206
f 437/357/207 438/359/207 436/350/207 433/351/207
f 435/358/208 438/360/208 437/357/208 434/356/208
f 427/347/209 442/354/209 441/352/209 426/346/209
f 426/346/210 441/352/210 440/342/210 425/349/210
f 425/349/211 440/342/211 439/343/211 428/348/211
f 446/361/212 445/362/212 451/363/212 454/364/212
f 445/362/20 446/361/20 450/365/20 449/366/20
f 447/367/18 448/368/18 444/369/18 443/370/18
f 445/371/7 449/372/7 447/373/7 443/374/7
f 450/375/3 446/376/3 444/377/3 448/378/3
f 452/379/17 453/380/17 454/364/17 451/363/17
f 443/370/213 444/369/213 453/380/213 452/379/213
f 444/377/3 446/376/3 454/381/3 453/382/3
f 445/371/7 443/374/7 452/383/7 451/384/7
f 458/361/212 457/362/212 463/363/212 466/364/212
f 457/362/20 458/361/20 462/365/20 461/366/20
f 459/367/18 460/368/18 456/369/18 455/370/18
f 457/371/7 461/372/7 459/373/7 455/374/7
f 462/375/3 458/376/3 456/377/3 460/378/3
f 464/379/17 465/380/17 466/364/17 463/363/17
f 455/370/213 456/369/213 465/380/213 464/379/213
f 456/377/3 458/376/3 466/381/3 465/382/3
f 457/371/7 455/374/7 464/383/7 463/384/7
f 470/361/214 469/362/214 475/363/214 478/364/214
f 469/362/18 470/361/18 474/365/18 473/366/18
f 471/367/20 472/368/20 468/369/20 467/370/20
f 469/371/3 473/372/3 471/373/3 467/374/3
f 474/375/7 470/376/7 468/377/7 472/378/7
f 476/379/17 477/380/17 478/364/17 475/363/17
f 467/370/215 468/369/215 477/380/215 476/379/215
f 468/377/7 470/376/7 478/381/7 477/382/7
f 469/371/3 467/374/3 476/383/3 475/384/3
f 482/361/214 481/362/214 487/363/214 490/364/214
f 481/362/18 482/361/18 486/365/18 485/366/18
f 483/367/20 484/368/20 480/369/20 479/370/20
f 481/371/3 485/372/3 483/373/3 479/374/3
f 486/375/7 482/376/7 480/377/7 484/378/7
f 488/379/17 489/380/17 490/364/17 487/363/17
f 479/370/215 480/369/215 489/380/215 488/379/215
f 480/377/7 482/376/7 490/381/7 489/382/7
f 481/371/3 479/374/3 488/383/3 487/384/3
f 491/385/17 504/386/17 505/387/17 492/388/17
f 495/389/216 515/390/216 514/391/216 494/392/216
f 498/393/217 497/394/217 520/395/217 521/396/217
f 501/397/218 502/398/218 512/399/218 517/400/218
f 492/388/219 510/401/219 511/402/219 491/385/219
f 502/398/220 500/403/220 519/404/220 512/399/220
f 510/405/17 512/406/17 517/407/17 511/408/17
f 494/392/19 507/409/19 508/410/19 495/389/19
f 495/389/11 508/410/11 509/411/11 496/412/11
f 496/412/1 509/411/1 504/413/1 491/414/1
f 493/415/4 506/416/4 507/409/4 494/392/4
f 504/386/221 523/417/221 522/418/221 505/387/221
f 505/387/222 506/416/222 524/419/222 522/418/222
f 506/416/223 524/419/223 525/420/223 507/409/223
f 507/409/224 525/420/224 526/421/224 508/410/224
f 508/410/225 526/421/225 527/422/225 509/411/225
f 509/411/226 527/422/226 523/423/226 504/413/226
f 492/388/9 505/387/9 506/416/9 493/415/9
f 494/392/227 514/391/227 513/424/227 493/415/227
f 513/425/9 519/426/9 512/406/9 510/405/9
f 516/427/11 520/428/11 521/429/11 515/430/11
f 515/430/19 521/429/19 518/431/19 514/432/19
f 511/433/1 517/434/1 520/428/1 516/427/1
f 514/432/4 518/431/4 519/426/4 513/425/4
f 499/435/228 498/393/228 521/396/228 518/436/228
f 496/412/229 516/437/229 515/390/229 495/389/229
f 493/415/230 513/424/230 510/401/230 492/388/230
f 500/403/231 499/435/231 518/436/231 519/404/231
f 491/414/232 511/438/232 516/437/232 496/412/232
f 497/394/233 501/397/233 517/400/233 520/395/233
f 503/439/3 522/440/3 523/441/3
f 503/439/3 524/442/3 522/440/3
f 503/439/3 525/443/3 524/442/3
f 503/439/3 526/444/3 525/443/3
f 503/439/3 527/445/3 526/444/3
f 503/439/3 523/441/3 527/445/3
f 530/446/3 531/447/3 566/448/3 562/449/3
f 533/450/3 530/446/3 562/449/3 565/451/3
f 532/452/3 533/450/3 565/451/3 561/453/3
f 528/454/3 529/455/3 564/456/3 563/457/3
f 529/455/3 532/452/3 561/453/3 564/456/3
f 531/447/3 528/454/3 563/457/3 566/448/3
f 501/397/4 497/394/4 532/458/4 529/459/4
f 498/393/17 499/435/17 530/460/17 533/461/17
f 500/403/11 502/398/11 528/462/11 531/463/11
f 497/394/9 498/393/9 533/461/9 532/458/9
f 499/435/1 500/403/1 531/463/1 530/460/1
f 502/398/19 501/397/19 529/459/19 528/462/19
f 563/464/19 564/465/19 535/466/19 534/467/19
f 562/468/1 566/469/1 539/470/1 538/471/1
f 561/472/9 565/473/9 537/474/9 536/475/9
f 566/469/11 563/464/11 534/467/11 539/470/11
f 565/473/17 562/476/17 538/477/17 537/474/17
f 564/478/4 561/472/4 536/475/4 535/479/4
f 540/480/3 534/481/3 535/482/3
f 540/480/3 535/482/3 536/483/3
f 540/480/3 536/483/3 537/484/3
f 540/480/3 537/484/3 538/485/3
f 540/480/3 538/485/3 539/486/3
f 540/480/3 539/486/3 534/481/3
f 541/487/19 542/488/19 549/489/19 548/490/19
f 545/491/234 544/492/234 554/493/234
f 542/494/235 541/495/235 554/493/235
f 544/496/17 545/497/17 552/498/17 551/499/17
f 545/497/9 546/500/9 553/501/9 552/498/9
f 546/500/4 541/502/4 548/503/4 553/501/4
f 543/504/1 544/496/1 551/499/1 550/505/1
f 548/490/236 549/489/236 555/506/236 556/507/236
f 549/489/222 550/505/222 557/508/222 555/506/222
f 550/505/237 551/499/237 558/509/237 557/508/237
f 551/499/238 552/498/238 559/510/238 558/509/238
f 552/498/239 553/501/239 560/511/239 559/510/239
f 553/501/240 548/503/240 556/512/240 560/511/240
f 542/488/11 543/504/11 550/505/11 549/489/11
f 544/492/241 543/513/241 554/493/241
f 546/514/242 545/491/242 554/493/242
f 543/513/243 542/494/243 554/493/243
f 541/495/244 546/514/244 554/493/244
f 547/515/7 556/516/7 555/517/7
f 547/515/7 555/517/7 557/518/7
f 547/515/7 557/518/7 558/519/7
f 547/515/7 558/519/7 559/520/7
f 547/515/7 559/520/7 560/521/7
f 547/515/7 560/521/7 556/516/7
f 566/522/1 562/523/1 569/524/1 572/525/1
f 562/523/17 565/526/17 570/527/17 569/524/17
f 565/526/9 561/528/9 567/529/9 570/527/9
f 564/530/19 563/531/19 571/532/19 568/533/19
f 561/528/4 564/530/4 568/533/4 567/529/4
f 563/531/11 566/522/11 572/525/11 571/532/11
f 573/534/7 567/535/7 568/536/7
f 573/534/7 569/537/7 570/538/7
f 573/534/7 571/539/7 572/540/7
f 573/534/7 570/538/7 567/535/7
f 573/534/7 572/540/7 569/537/7
f 573/534/7 568/536/7 571/539/7
s 1
f 592/541/10 595/542/10 582/543/10 579/544/10
f 595/542/10 597/545/10 581/546/10 582/543/10
f 587/547/245 591/548/246 594/549/246 588/550/245
f 575/551/10 577/552/10 576/553/10 574/554/10
f 589/555/247 598/556/248 596/557/248 590/558/247
f 578/559/12 584/560/249 583/561/250
f 578/559/12 586/562/251 585/563/252
f 588/564/253 594/565/254 598/566/254 589/567/253
f 581/568/255 580/569/256 584/560/249 585/563/252
f 582/570/257 581/568/255 585/563/252 586/562/251
f 580/569/256 579/571/258 583/561/250 584/560/249
f 579/571/258 582/570/257 586/562/251 583/561/250
f 578/559/12 583/561/250 586/562/251
f 578/559/12 585/563/252 584/560/249
f 597/545/10 593/572/10 580/573/10 581/546/10
f 593/572/10 592/541/10 579/544/10 580/573/10
f 576/574/259 590/575/259 587/576/259 574/577/259
f 577/578/247 589/555/247 590/558/247 576/579/247
f 575/580/253 588/564/253 589/567/253 577/581/253
f 574/582/245 587/547/245 588/550/245 575/583/245
f 592/584/260 593/585/260 594/549/246 591/548/246
f 593/586/261 597/587/261 598/566/254 594/565/254
f 597/588/262 595/589/262 596/557/248 598/556/248
f 595/590/263 592/591/263 591/592/264 596/593/264
f 590/575/259 596/593/264 591/592/264 587/576/259
f 617/541/7 620/542/7 607/543/7 604/544/7
f 620/542/7 622/545/7 606/546/7 607/543/7
f 612/594/17 616/548/265 619/549/265 613/595/17
f 600/596/7 602/597/7 601/598/7 599/599/7
f 614/600/266 623/556/267 621/557/267 615/601/268
f 603/559/3 609/560/269 608/561/270
f 603/559/3 611/562/271 610/563/272
f 613/602/20 619/565/273 623/566/273 614/603/20
f 606/568/274 605/569/275 609/560/269 610/563/272
f 607/570/276 606/568/274 610/563/272 611/562/271
f 605/569/275 604/571/277 608/561/270 609/560/269
f 604/571/277 607/570/276 611/562/271 608/561/270
f 603/559/3 608/561/270 611/562/271
f 603/559/3 610/563/272 609/560/269
f 622/545/7 618/572/7 605/573/7 606/546/7
f 618/572/7 617/541/7 604/544/7 605/573/7
f 601/574/18 615/604/18 612/605/18 599/577/18
f 615/606/268 601/607/278 626/608/278 627/609/268
f 600/580/20 613/602/20 614/603/20 602/581/20
f 599/582/17 612/594/17 613/595/17 600/583/17
f 617/584/279 618/585/279 619/549/265 616/548/265
f 618/586/280 622/587/280 623/566/273 619/565/273
f 622/588/281 620/589/281 621/557/267 623/556/267
f 620/590/278 617/591/278 616/592/282 621/593/282
f 615/604/18 621/593/282 616/592/282 612/605/18
f 625/610/19 624/611/266 627/609/268 626/608/19
f 602/612/280 614/613/266 624/611/266 625/610/280
f 614/614/266 615/615/268 627/609/268 624/611/266
f 601/616/278 602/617/280 625/610/280 626/608/278
f 646/541/10 649/542/10 636/543/10 633/544/10
f 649/542/10 651/545/10 635/546/10 636/543/10
f 641/547/283 645/548/284 648/549/284 642/550/283
f 629/618/10 631/619/10 630/620/10 628/621/10
f 643/555/285 652/556/286 650/557/286 644/558/285
f 632/559/12 638/560/287 637/561/288
f 632/559/12 640/562/289 639/563/290
f 642/564/291 648/565/292 652/566/292 643/567/291
f 635/568/293 634/569/294 638/560/287 639/563/290
f 636/570/295 635/568/293 639/563/290 640/562/289
f 634/569/294 633/571/296 637/561/288 638/560/287
f 633/571/296 636/570/295 640/562/289 637/561/288
f 632/559/12 637/561/288 640/562/289
f 632/559/12 639/563/290 638/560/287
f 651/545/10 647/572/10 634/573/10 635/546/10
f 647/572/10 646/541/10 633/544/10 634/573/10
f 630/574/297 644/575/297 641/576/297 628/577/297
f 631/578/285 643/555/285 644/558/285 630/579/285
f 629/580/291 642/564/291 643/567/291 631/581/291
f 628/582/283 641/547/283 642/550/283 629/583/283
f 646/584/298 647/585/298 648/549/284 645/548/284
f 647/586/299 651/587/299 652/566/292 648/565/292
f 651/588/300 649/589/300 650/557/286 652/556/286
f 649/590/301 646/591/301 645/592/302 650/593/302
f 644/575/297 650/593/302 645/592/302 641/576/297
f 671/541/10 674/542/10 661/543/10 658/544/10
f 674/542/10 676/545/10 660/546/10 661/543/10
f 666/547/303 670/548/304 673/549/304 667/550/303
f 654/618/10 656/619/10 655/620/10 653/621/10
f 668/555/305 677/556/306 675/557/306 669/558/305
f 657/559/12 663/560/307 662/561/308
f 657/559/12 665/562/309 664/563/310
f 667/564/311 673/565/312 677/566/312 668/567/311
f 660/568/313 659/569/314 663/560/307 664/563/310
f 661/570/315 660/568/313 664/563/310 665/562/309
f 659/569/314 658/571/316 662/561/308 663/560/307
f 658/571/316 661/570/315 665/562/309 662/561/308
f 657/559/12 662/561/308 665/562/309
f 657/559/12 664/563/310 663/560/307
f 676/545/10 672/572/10 659/573/10 660/546/10
f 672/572/10 671/541/10 658/544/10 659/573/10
f 655/574/317 669/575/317 666/576/317 653/577/317
f 656/578/305 668/555/305 669/558/305 655/579/305
f 654/580/311 667/564/311 668/567/311 656/581/311
f 653/582/303 666/547/303 667/550/303 654/583/303
f 671/584/318 672/585/318 673/549/304 670/548/304
f 672/586/319 676/587/319 677/566/312 673/565/312
f 676/588/320 674/589/320 675/557/306 677/556/306
f 674/590/321 671/591/321 670/592/322 675/593/322
f 669/575/317 675/593/322 670/592/322 666/576/317
f 696/541/323 699/542/323 686/543/323 683/544/323
f 699/542/323 701/545/323 685/546/323 686/543/323
f 691/547/324 695/548/325 698/549/325 692/550/324
f 679/618/323 681/619/323 680/620/323 678/621/323
f 693/555/326 702/556/327 700/557/327 694/558/326
f 682/559/328 688/560/329 687/561/330
f 682/559/328 690/562/331 689/563/332
f 692/564/333 698/565/334 702/566/334 693/567/333
f 685/568/335 684/569/336 688/560/329 689/563/332
f 686/570/337 685/568/335 689/563/332 690/562/331
f 684/569/336 683/571/338 687/561/330 688/560/329
f 683/571/338 686/570/337 690/562/331 687/561/330
f 682/559/328 687/561/330 690/562/331
f 682/559/328 689/563/332 688/560/329
f 701/545/323 697/572/323 684/573/323 685/546/323
f 697/572/323 696/541/323 683/544/323 684/573/323
f 680/574/339 694/575/339 691/576/339 678/577/339
f 681/578/326 693/555/326 694/558/326 680/579/326
f 679/580/333 692/564/333 693/567/333 681/581/333
f 678/582/324 691/547/324 692/550/324 679/583/324
f 696/584/340 697/585/340 698/549/325 695/548/325
f 697/586/341 701/587/341 702/566/334 698/565/334
f 701/588/342 699/589/342 700/557/327 702/556/327
f 699/590/343 696/591/343 695/592/344 700/593/344
f 694/575/339 700/593/344 695/592/344 691/576/339
