# Blender 4.3.2
# www.blender.org
mtllib grimoire_harbinger_closed.mtl
o SM_MushroomGrimoire_FULL
v 0.186382 0.875000 0.374828
v 0.186382 0.937500 0.374828
v 0.186382 0.937500 0.312328
v 0.186382 0.875000 0.312328
v 0.248882 0.125000 0.374828
v 0.873882 0.125000 0.374828
v 0.873882 0.875000 0.374828
v 0.248882 0.875000 0.374828
v 0.248882 0.937500 0.374828
v 0.248882 0.125000 0.312327
v 0.248882 0.125000 0.327953
v 0.873882 0.125000 0.327953
v 0.873881 0.125000 0.312328
v 0.248882 0.062500 0.374828
v 0.873882 0.062500 0.374828
v 0.936382 0.875000 0.374828
v 0.873882 0.937500 0.374828
v 0.936382 0.125000 0.374828
v 0.936382 0.125000 0.312328
v 0.936382 0.875000 0.312328
v 0.873881 0.875000 0.312328
v 0.248882 0.062500 0.312327
v 0.186382 0.062500 0.312328
v 0.186382 0.125000 0.312328
v 0.186382 0.125000 0.374828
v 0.873881 0.062500 0.312328
v 0.248882 0.875000 0.312327
v 0.248882 0.937500 0.312327
v 0.873881 0.937500 0.312328
v 0.186382 0.062500 0.374828
v 0.248882 0.875000 0.327953
v 0.873882 0.875000 0.327953
v 0.184564 0.875000 0.625384
v 0.184563 0.875000 0.687885
v 0.184563 0.937500 0.687885
v 0.184564 0.937500 0.625384
v 0.809564 0.812500 0.625384
v 0.809564 0.875000 0.625384
v 0.872063 0.875000 0.625384
v 0.872063 0.812500 0.625384
v 0.247064 0.875000 0.625385
v 0.247064 0.937500 0.625385
v 0.809564 0.125000 0.687885
v 0.872063 0.125000 0.687884
v 0.872064 0.125000 0.672259
v 0.809563 0.125000 0.672259
v 0.809564 0.125000 0.625384
v 0.872063 0.125000 0.625384
v 0.872063 0.062500 0.625384
v 0.809564 0.062500 0.625384
v 0.934564 0.875000 0.625384
v 0.872063 0.937500 0.625384
v 0.934564 0.812500 0.625384
v 0.934563 0.875000 0.687885
v 0.934563 0.812500 0.687885
v 0.872063 0.187500 0.687884
v 0.934563 0.125000 0.687885
v 0.934563 0.187500 0.687885
v 0.247064 0.125000 0.687885
v 0.184563 0.125000 0.687885
v 0.184563 0.062500 0.687885
v 0.247064 0.062500 0.687885
v 0.184563 0.812500 0.687885
v 0.184564 0.812500 0.625384
v 0.872063 0.062500 0.687884
v 0.247064 0.187500 0.625385
v 0.247064 0.125000 0.625385
v 0.184564 0.125000 0.625384
v 0.184564 0.187500 0.625384
v 0.247064 0.812500 0.687885
v 0.247064 0.875000 0.687885
v 0.247064 0.937500 0.687885
v 0.872063 0.937500 0.687884
v 0.309563 0.937500 0.625384
v 0.309563 0.937500 0.687885
v 0.809563 0.875000 0.687885
v 0.872063 0.875000 0.687884
v 0.809563 0.937500 0.687885
v 0.309563 0.875000 0.625384
v 0.809564 0.062500 0.687885
v 0.934564 0.125000 0.625384
v 0.247064 0.062500 0.625385
v 0.184564 0.062500 0.625384
v 0.309563 0.125000 0.687885
v 0.309563 0.062500 0.687885
v 0.309564 0.812500 0.672260
v 0.309564 0.875000 0.672260
v 0.247063 0.875000 0.672259
v 0.247063 0.812500 0.672259
v 0.247064 0.187500 0.687885
v 0.247063 0.125000 0.672259
v 0.247063 0.187500 0.672259
v 0.309563 0.875000 0.687885
v 0.872063 0.812500 0.687884
v 0.872064 0.875000 0.672259
v 0.872064 0.812500 0.672259
v 0.809563 0.875000 0.672259
v 0.809563 0.812500 0.672259
v 0.809563 0.187500 0.672259
v 0.309564 0.187500 0.672260
v 0.309563 0.062500 0.625384
v 0.809564 0.937500 0.625384
v 0.309563 0.125000 0.625384
v 0.309564 0.125000 0.672260
v 0.247064 0.812500 0.625385
v 0.309563 0.812500 0.625384
v 0.309563 0.187500 0.625384
v 0.809564 0.187500 0.625384
v 0.872064 0.187500 0.672259
v 0.184563 0.187500 0.687885
v 0.872063 0.187500 0.625384
v 0.934564 0.187500 0.625384
v 0.772746 0.875000 0.500693
v 0.835246 0.875000 0.438192
v 0.147746 0.875000 0.438193
v 0.147746 0.875000 0.500693
v 0.147746 0.125000 0.500693
v 0.772746 0.125000 0.500693
v 0.147745 0.125000 0.438193
v 0.835246 0.125000 0.438192
v 0.897746 0.125000 0.375693
v 0.897746 0.875000 0.375693
v 0.210246 0.125000 0.375693
v 0.210246 0.875000 0.375693
v 0.773885 0.875000 0.502697
v 0.148885 0.875000 0.502697
v 0.148885 0.875000 0.565197
v 0.836385 0.875000 0.565198
v 0.148885 0.125000 0.502697
v 0.773885 0.125000 0.502697
v 0.148885 0.125000 0.565197
v 0.836385 0.125000 0.565198
v 0.898885 0.875000 0.627697
v 0.898885 0.125000 0.627697
v 0.211385 0.125000 0.627697
v 0.211385 0.875000 0.627697
v 0.125000 0.875000 0.625000
v 0.125000 0.875000 0.687500
v 0.125000 0.937500 0.687500
v 0.125000 0.937500 0.625000
v 0.187500 0.125000 0.687500
v 0.125000 0.125000 0.687500
v 0.125000 0.062500 0.687500
v 0.187500 0.062500 0.687500
v 0.125000 0.125000 0.625000
v 0.187500 0.875000 0.687500
v 0.187500 0.937500 0.687500
v 0.187500 0.937500 0.625000
v 0.187500 0.062500 0.625000
v 0.187500 0.125000 0.625000
v 0.187500 0.875000 0.625000
v 0.125000 0.062500 0.625000
v 0.125000 0.875000 0.375000
v 0.125000 0.937500 0.375000
v 0.125000 0.937500 0.312500
v 0.125000 0.875000 0.312500
v 0.187500 0.125000 0.312500
v 0.187500 0.062500 0.312500
v 0.125000 0.062500 0.312500
v 0.125000 0.125000 0.312500
v 0.125000 0.125000 0.375000
v 0.187500 0.875000 0.312500
v 0.187500 0.937500 0.312500
v 0.187500 0.937500 0.375000
v 0.187500 0.062500 0.375000
v 0.187500 0.125000 0.375000
v 0.187500 0.875000 0.375000
v 0.125000 0.062500 0.375000
v 0.140625 0.875000 0.625000
v 0.140625 0.125000 0.625000
v 0.140625 0.875000 0.375000
v 0.140625 0.125000 0.375000
v 0.453634 0.379821 0.242089
v 0.407662 0.421413 0.233096
v 0.519741 0.407616 0.230831
v 0.487812 0.468339 0.199179
v 0.304858 0.472380 0.263197
v 0.268974 0.531494 0.260645
v 0.240574 0.584452 0.269207
v 0.353473 0.476553 0.233108
v 0.318825 0.562767 0.216061
v 0.274442 0.633179 0.254258
v 0.282199 0.683054 0.280747
v 0.448172 0.541823 0.188539
v 0.408717 0.613652 0.197674
v 0.367314 0.673791 0.255754
v 0.309797 0.698086 0.281746
v 0.606443 0.462693 0.237461
v 0.577928 0.517224 0.204697
v 0.655370 0.500173 0.254047
v 0.640652 0.548118 0.243787
v 0.538257 0.590975 0.190865
v 0.493465 0.657695 0.235658
v 0.438730 0.675760 0.273270
v 0.606237 0.623902 0.239489
v 0.572558 0.668611 0.254303
v 0.453671 0.373622 0.323885
v 0.408037 0.414064 0.326163
v 0.520094 0.400106 0.326288
v 0.304528 0.467727 0.328781
v 0.268849 0.526198 0.332362
v 0.240393 0.579602 0.335672
v 0.353857 0.468959 0.329330
v 0.274715 0.626538 0.339142
v 0.281987 0.678571 0.342698
v 0.367557 0.667018 0.342733
v 0.309583 0.693585 0.343965
v 0.606653 0.455469 0.330817
v 0.655208 0.494297 0.333878
v 0.640852 0.540923 0.336867
v 0.493977 0.649169 0.342732
v 0.438494 0.670663 0.343648
v 0.606667 0.615825 0.341564
v 0.572720 0.661681 0.344316
v 0.183146 0.347105 0.298984
v 0.180381 0.386511 0.298569
v 0.292860 0.333508 0.289613
v 0.291000 0.372952 0.290793
v 0.184650 0.347645 0.324777
v 0.181886 0.387051 0.324362
v 0.293389 0.332923 0.315444
v 0.291529 0.372367 0.316623
v 0.122285 0.321270 0.303576
v 0.114486 0.359987 0.304495
v 0.122701 0.361226 0.328966
v 0.130499 0.322509 0.328047
v 0.111565 0.294433 0.393227
v 0.111398 0.333927 0.394122
v 0.133700 0.333888 0.407180
v 0.133866 0.294393 0.406284
v 0.088924 0.288803 0.630577
v 0.089186 0.328297 0.631450
v 0.114990 0.328258 0.632864
v 0.114729 0.288763 0.631992
v 0.129276 0.312422 0.710038
v 0.130187 0.351916 0.710043
v 0.139085 0.351876 0.685780
v 0.138175 0.312382 0.685775
v 0.193357 0.325375 0.717501
v 0.194252 0.364869 0.717380
v 0.199623 0.364830 0.692312
v 0.198728 0.325335 0.692434
v 0.382125 0.397307 0.702139
v 0.375079 0.436173 0.702836
v 0.372031 0.436245 0.677173
v 0.379077 0.397379 0.676477
v 0.117427 0.712377 0.295406
v 0.115419 0.751830 0.295695
v 0.245304 0.648022 0.278520
v 0.249656 0.686948 0.283662
v 0.126708 0.712835 0.319521
v 0.124701 0.752288 0.319809
v 0.251349 0.644229 0.303358
v 0.255701 0.683156 0.308500
v 0.099287 0.678727 0.357089
v 0.095567 0.717444 0.364005
v 0.120324 0.718683 0.371311
v 0.124044 0.679966 0.364396
v 0.070930 0.661949 0.454583
v 0.070764 0.701443 0.455478
v 0.093065 0.701403 0.468536
v 0.093231 0.661909 0.467640
v 0.107457 0.575981 0.715191
v 0.108344 0.615475 0.715401
v 0.122471 0.615436 0.693761
v 0.121584 0.575941 0.693551
v 0.190639 0.605247 0.711240
v 0.191550 0.644742 0.711245
v 0.200448 0.644702 0.686982
v 0.199537 0.605208 0.686977
v 0.307463 0.663399 0.701030
v 0.308373 0.702894 0.700978
v 0.315745 0.702854 0.676209
v 0.314836 0.663359 0.676261
v 0.455899 0.657345 0.699636
v 0.444286 0.694720 0.705012
v 0.442881 0.698134 0.679434
v 0.454494 0.660759 0.674058
v 0.301159 0.668362 0.281890
v 0.285803 0.632009 0.280091
v 0.286838 0.630472 0.305868
v 0.302195 0.666826 0.307666
v 0.177311 0.700369 0.284833
v 0.178853 0.739559 0.287183
v 0.186849 0.698702 0.308696
v 0.188391 0.737892 0.311046
v 0.545799 0.708998 0.698449
v 0.534186 0.746373 0.703826
v 0.532781 0.749787 0.678248
v 0.544394 0.712412 0.672871
v 0.575729 0.479973 0.704016
v 0.568683 0.518838 0.704712
v 0.565635 0.518910 0.679050
v 0.572681 0.480045 0.678353
v 0.611317 0.488743 0.699890
v 0.621482 0.526887 0.698361
v 0.619511 0.526548 0.672596
v 0.609345 0.488404 0.674124
v 0.645501 0.482168 0.697165
v 0.670196 0.512901 0.694649
v 0.671608 0.509876 0.669022
v 0.646913 0.479144 0.671539
v 0.653006 0.426541 0.697212
v 0.687204 0.436900 0.694233
v 0.689389 0.427814 0.670139
v 0.655192 0.417454 0.673118
v 0.335712 0.420650 0.706002
v 0.334497 0.420697 0.680469
v 0.339814 0.381695 0.679951
v 0.341029 0.381647 0.705484
v 0.400216 0.350574 0.700523
v 0.397169 0.350646 0.674861
v 0.357906 0.334962 0.678335
v 0.359121 0.334914 0.703868
v 0.399134 0.309074 0.697706
v 0.399076 0.315312 0.672627
v 0.357429 0.323334 0.673548
v 0.355978 0.318141 0.698534
v 0.373420 0.273232 0.687194
v 0.373362 0.279471 0.662115
v 0.331715 0.287492 0.663035
v 0.330264 0.282299 0.688022
v 0.356235 0.412993 0.290017
v 0.371079 0.376459 0.287664
v 0.373312 0.375884 0.313404
v 0.358468 0.412418 0.315756
v 0.394595 0.472402 0.287041
v 0.409439 0.435868 0.284688
v 0.411672 0.435293 0.310427
v 0.396829 0.471827 0.312780
v 0.575492 0.748000 0.697937
v 0.551656 0.779068 0.703158
v 0.550201 0.782456 0.677580
v 0.574037 0.751388 0.672359
v 0.590004 0.743358 0.697756
v 0.592024 0.782508 0.702636
v 0.590675 0.785930 0.677056
v 0.588655 0.746779 0.672176
v 0.620784 0.486055 0.261752
v 0.594719 0.483586 0.262852
v 0.594989 0.489110 0.279078
v 0.621054 0.491580 0.277977
v 0.646356 0.442492 0.272926
v 0.620162 0.442711 0.273615
v 0.620730 0.444027 0.290698
v 0.646925 0.443808 0.290009
v 0.656973 0.403493 0.276761
v 0.630778 0.403712 0.277450
v 0.631346 0.405027 0.294533
v 0.657541 0.404808 0.293844
v 0.755910 0.271141 0.259268
v 0.742394 0.248786 0.261340
v 0.741583 0.250976 0.278322
v 0.755099 0.273331 0.276251
v 0.794353 0.232509 0.259155
v 0.789160 0.215849 0.260890
v 0.788349 0.218039 0.277872
v 0.793542 0.234699 0.276138
v 0.804301 0.209785 0.262394
v 0.803491 0.211975 0.279377
v 0.722773 0.349006 0.283951
v 0.722901 0.347249 0.266919
v 0.703107 0.336073 0.268306
v 0.702979 0.337830 0.285338
v 0.576553 0.648225 0.261972
v 0.576699 0.622028 0.261331
v 0.571905 0.621706 0.277786
v 0.571759 0.647903 0.278427
v 0.620594 0.687176 0.272071
v 0.633438 0.664387 0.270516
v 0.632864 0.663022 0.287594
v 0.620021 0.685811 0.289149
v 0.649320 0.715526 0.276487
v 0.662163 0.692737 0.274932
v 0.661590 0.691372 0.292010
v 0.648747 0.714161 0.293565
v 0.749628 0.755502 0.261024
v 0.774020 0.745926 0.260953
v 0.772948 0.743365 0.277869
v 0.748556 0.752941 0.277939
v 0.781163 0.799917 0.262791
v 0.798530 0.797555 0.263368
v 0.797458 0.794994 0.280284
v 0.780091 0.797356 0.279707
v 0.807867 0.821308 0.267556
v 0.806795 0.818746 0.284472
v 0.723074 0.736128 0.283921
v 0.724120 0.737229 0.266866
v 0.733508 0.716483 0.266486
v 0.732462 0.715383 0.283541
v 0.416961 0.651276 0.289492
v 0.442602 0.655755 0.286468
v 0.445338 0.650274 0.302479
v 0.419696 0.645795 0.305503
v 0.389115 0.687769 0.294482
v 0.409302 0.704242 0.291687
v 0.412455 0.703059 0.308496
v 0.392268 0.686585 0.311290
v 0.373539 0.751193 0.291860
v 0.393726 0.767667 0.289065
v 0.396879 0.766483 0.305873
v 0.376692 0.750010 0.308668
v 0.300413 0.814210 0.298143
v 0.305939 0.839818 0.298783
v 0.310330 0.838348 0.315288
v 0.304804 0.812740 0.314648
v 0.251963 0.827895 0.306013
v 0.251584 0.845364 0.307499
v 0.255975 0.843894 0.324004
v 0.256354 0.826425 0.322518
v 0.227195 0.850454 0.314440
v 0.231586 0.848984 0.330946
v 0.342347 0.790103 0.305926
v 0.339381 0.791794 0.289147
v 0.358228 0.804470 0.287483
v 0.361194 0.802778 0.304262
v 0.483679 0.402833 0.289421
v 0.509641 0.405173 0.286742
v 0.510722 0.410564 0.302979
v 0.484759 0.408224 0.305658
v 0.466058 0.360275 0.292635
v 0.489818 0.349625 0.289674
v 0.492395 0.350941 0.306570
v 0.468635 0.361591 0.309531
v 0.437278 0.295122 0.288184
v 0.461038 0.284472 0.285223
v 0.463614 0.285787 0.302120
v 0.439855 0.296437 0.305081
v 0.412663 0.215319 0.290302
v 0.424556 0.191968 0.290181
v 0.428259 0.193889 0.306808
v 0.416366 0.217239 0.306929
v 0.369257 0.189421 0.296768
v 0.373350 0.172392 0.297654
v 0.377053 0.174312 0.314281
v 0.372960 0.191341 0.313395
v 0.336582 0.147957 0.308665
v 0.340286 0.149878 0.325292
v 0.437630 0.252560 0.300587
v 0.435364 0.250800 0.283706
v 0.466159 0.239905 0.281094
v 0.468425 0.241665 0.297975
v 0.000000 0.470000 0.367000
v 0.000000 0.570000 0.367000
v 0.000000 0.470000 0.317000
v 0.000000 0.570000 0.317000
v 0.130000 0.470000 0.367000
v 0.130000 0.570000 0.367000
v 0.130000 0.470000 0.317000
v 0.130000 0.570000 0.317000
v -0.100000 0.470000 0.397520
v -0.100000 0.470000 0.425520
v -0.100000 0.570000 0.425520
v -0.100000 0.570000 0.397520
v 0.000000 0.190000 0.367000
v 0.000000 0.290000 0.367000
v 0.000000 0.190000 0.317000
v 0.000000 0.290000 0.317000
v 0.130000 0.190000 0.367000
v 0.130000 0.290000 0.367000
v 0.130000 0.190000 0.317000
v 0.130000 0.290000 0.317000
v -0.100000 0.190000 0.397520
v -0.100000 0.190000 0.425520
v -0.100000 0.290000 0.425520
v -0.100000 0.290000 0.397520
v 0.000000 0.290000 0.632520
v 0.000000 0.190000 0.632520
v 0.000000 0.290000 0.682520
v 0.000000 0.190000 0.682520
v 0.130000 0.290000 0.632520
v 0.130000 0.190000 0.632520
v 0.130000 0.290000 0.682520
v 0.130000 0.190000 0.682520
v -0.100000 0.290000 0.602000
v -0.100000 0.290000 0.574000
v -0.100000 0.190000 0.574000
v -0.100000 0.190000 0.602000
v 0.000000 0.570000 0.632520
v 0.000000 0.470000 0.632520
v 0.000000 0.570000 0.682520
v 0.000000 0.470000 0.682520
v 0.130000 0.570000 0.632520
v 0.130000 0.470000 0.632520
v 0.130000 0.570000 0.682520
v 0.130000 0.470000 0.682520
v -0.100000 0.570000 0.602000
v -0.100000 0.570000 0.574000
v -0.100000 0.470000 0.574000
v -0.100000 0.470000 0.602000
v 0.114315 0.587378 0.434000
v 0.114315 0.587378 0.566000
v -0.000000 0.587378 0.632000
v -0.114315 0.587378 0.566000
v -0.114315 0.587378 0.434000
v 0.000000 0.587378 0.368000
v 0.000000 0.613378 0.372224
v -0.110657 0.613378 0.436112
v -0.110657 0.613378 0.563888
v -0.000000 0.613378 0.627776
v 0.110657 0.613378 0.436112
v 0.110657 0.613378 0.563888
v -0.000000 0.159698 0.500000
v 0.114315 0.174257 0.434000
v 0.114315 0.174257 0.566000
v -0.000000 0.174257 0.632000
v -0.114315 0.174257 0.566000
v -0.114315 0.174257 0.434000
v 0.000000 0.174257 0.368000
v 0.091452 0.589378 0.552800
v 0.091452 0.589378 0.447200
v 0.091452 0.605378 0.552800
v -0.000000 0.589378 0.605600
v -0.091452 0.589378 0.552800
v -0.091452 0.589378 0.447200
v -0.000000 0.589378 0.394400
v 0.091452 0.605378 0.447200
v -0.091452 0.605378 0.552800
v -0.000000 0.605378 0.605600
v -0.000000 0.605378 0.394400
v -0.091452 0.605378 0.447200
v 0.105328 0.159698 0.560811
v 0.105328 0.159698 0.439189
v 0.000000 0.159698 0.621623
v -0.105328 0.159698 0.560811
v -0.105328 0.159698 0.439189
v 0.000000 0.159698 0.378377
v 0.110657 0.623378 0.563888
v 0.110657 0.623378 0.436112
v -0.110657 0.623378 0.563888
v -0.000000 0.623378 0.627776
v 0.000000 0.623378 0.372224
v -0.110657 0.623378 0.436112
v 0.088526 0.713378 0.551110
v 0.088526 0.713378 0.448890
v 0.000000 0.713378 0.397779
v -0.088526 0.713378 0.448890
v -0.088526 0.713378 0.551110
v -0.000000 0.713378 0.602221
v 0.000000 0.713378 0.500000
v 0.109057 0.577588 0.437036
v 0.109057 0.577588 0.562964
v -0.000000 0.577588 0.625928
v -0.109057 0.577588 0.562964
v -0.109057 0.577588 0.437036
v 0.000000 0.577588 0.374072
v -0.000000 0.169581 0.500000
v 0.109057 0.183470 0.437036
v 0.109057 0.183470 0.562964
v -0.000000 0.183470 0.625928
v -0.109057 0.183470 0.562964
v -0.109057 0.183470 0.437036
v 0.000000 0.183470 0.374072
v -0.000000 0.579496 0.500000
v 0.100483 0.169581 0.558014
v 0.100483 0.169581 0.441986
v 0.000000 0.169581 0.616028
v -0.100483 0.169581 0.558014
v -0.100483 0.169581 0.441986
v 0.000000 0.169581 0.383972
v 0.000000 0.623378 0.397779
v -0.088526 0.623378 0.551110
v 0.088526 0.623378 0.551110
v 0.088526 0.623378 0.448890
v -0.088526 0.623378 0.448890
v -0.000000 0.623378 0.602221
v 0.000000 0.593378 0.397779
v 0.088526 0.593378 0.448890
v -0.088526 0.593378 0.551110
v -0.088526 0.593378 0.448890
v 0.088526 0.593378 0.551110
v -0.000000 0.593378 0.602221
v 0.000000 0.593378 0.500000
v 0.613250 0.735276 0.672547
v 0.572681 0.746147 0.672547
v 0.624120 0.775845 0.672547
v 0.583551 0.786716 0.672547
v 0.598400 0.760996 0.825847
v 0.635969 0.695925 0.770547
v 0.533330 0.723427 0.770547
v 0.560832 0.826066 0.770547
v 0.663471 0.798564 0.770547
v 0.624699 0.715446 0.811147
v 0.552851 0.734698 0.811147
v 0.572103 0.806545 0.811147
v 0.643950 0.787294 0.811147
v 0.613250 0.735276 0.721547
v 0.572681 0.746147 0.721547
v 0.583551 0.786715 0.721547
v 0.624120 0.775845 0.721547
v 0.613250 0.735276 0.761027
v 0.619982 0.723616 0.770547
v 0.561021 0.739415 0.770547
v 0.572681 0.746147 0.761027
v 0.635780 0.782577 0.770547
v 0.624120 0.775845 0.761027
v 0.576819 0.798376 0.770547
v 0.583551 0.786715 0.761027
v 0.040000 0.810000 0.600000
v 0.040000 0.810000 0.540000
v 0.100000 0.810000 0.600000
v 0.100000 0.810000 0.540000
v 0.070000 1.029000 0.570000
v -0.005900 0.950000 0.645900
v -0.005900 0.950000 0.494100
v 0.145900 0.950000 0.494100
v 0.145900 0.950000 0.645900
v 0.016870 1.008000 0.623130
v 0.016870 1.008000 0.516870
v 0.123130 1.008000 0.516870
v 0.123130 1.008000 0.623130
v 0.040000 0.859000 0.600000
v 0.040000 0.859000 0.540000
v 0.100000 0.859000 0.540000
v 0.100000 0.859000 0.600000
v 0.040000 0.936399 0.600000
v 0.026399 0.950000 0.613601
v 0.026399 0.950000 0.526399
v 0.040000 0.936399 0.540000
v 0.113601 0.950000 0.613601
v 0.100000 0.936399 0.600000
v 0.113601 0.950000 0.526399
v 0.100000 0.936399 0.540000
v 0.140000 0.859000 0.540000
v 0.140000 0.810000 0.540000
v 0.140000 0.810000 0.600000
v 0.140000 0.859000 0.600000
v 0.711031 0.393554 0.665176
v 0.651943 0.383135 0.665176
v 0.700613 0.452642 0.665176
v 0.641524 0.442223 0.665176
v 0.676278 0.417888 0.884176
v 0.764205 0.356321 0.805176
v 0.614711 0.329962 0.805176
v 0.588351 0.479455 0.805176
v 0.737845 0.505815 0.805176
v 0.737827 0.374791 0.863176
v 0.633181 0.356340 0.863176
v 0.614729 0.460985 0.863176
v 0.719375 0.479437 0.863176
v 0.711031 0.393554 0.735176
v 0.651943 0.383135 0.735176
v 0.641524 0.442223 0.735176
v 0.700613 0.452642 0.735176
v 0.711031 0.393554 0.791575
v 0.726787 0.382521 0.805176
v 0.640911 0.367379 0.805176
v 0.651943 0.383135 0.791575
v 0.711645 0.468398 0.805176
v 0.700613 0.452642 0.791575
v 0.625768 0.453255 0.805176
v 0.641524 0.442223 0.791575
v 0.358497 0.240848 0.626215
v 0.312534 0.279415 0.626215
v 0.397064 0.286811 0.626215
v 0.351101 0.325378 0.626215
v 0.354799 0.283113 0.845215
v 0.364154 0.176183 0.766215
v 0.247869 0.273758 0.766215
v 0.345444 0.390043 0.766215
v 0.461729 0.292468 0.766215
v 0.361348 0.208262 0.824215
v 0.279948 0.276564 0.824215
v 0.348250 0.357964 0.824215
v 0.429650 0.289662 0.824215
v 0.358497 0.240848 0.696215
v 0.312534 0.279415 0.696215
v 0.351101 0.325378 0.696215
v 0.397064 0.286811 0.696215
v 0.358497 0.240848 0.752614
v 0.360173 0.221687 0.766215
v 0.293373 0.277739 0.766215
v 0.312534 0.279415 0.752614
v 0.416225 0.288487 0.766215
v 0.397064 0.286811 0.752614
v 0.349425 0.344539 0.766215
v 0.351101 0.325378 0.752614
v 0.136562 0.771848 0.451890
v 0.140102 0.761055 0.411455
v 0.139389 0.812396 0.441314
v 0.142928 0.801603 0.400879
v -0.012661 0.793406 0.411260
v 0.034264 0.753356 0.481245
v 0.043218 0.726049 0.378945
v 0.050370 0.828636 0.352187
v 0.041415 0.855943 0.454487
v -0.003684 0.766417 0.457881
v 0.002585 0.747302 0.386271
v 0.007591 0.819113 0.367540
v 0.001323 0.838228 0.439151
v 0.087848 0.773983 0.447056
v 0.091387 0.763190 0.406621
v 0.094214 0.803738 0.396045
v 0.090675 0.814531 0.436479
v 0.048599 0.775703 0.443161
v 0.037691 0.769373 0.453785
v 0.042835 0.753687 0.395018
v 0.052138 0.764910 0.402726
v 0.041799 0.828304 0.438414
v 0.051425 0.816252 0.432585
v 0.046943 0.812618 0.379647
v 0.054965 0.805458 0.392150
vn -1.0000 -0.0000 -0.0000
vn -0.0000 -0.0000 1.0000
vn -0.0000 1.0000 -0.0000
vn 1.0000 -0.0000 -0.0000
vn -0.0000 -0.0000 -1.0000
vn 0.7071 0.7071 -0.0000
vn -0.0000 -1.0000 -0.0000
vn 0.7071 -0.7071 -0.0000
vn 0.7071 -0.0000 0.7071
vn 0.7071 -0.0000 -0.7071
vn -0.0692 -0.4134 -0.9079
vn -0.4856 -0.3440 -0.8036
vn -0.5658 -0.0214 -0.8243
vn -0.2514 -0.2604 -0.9322
vn -0.2296 -0.1558 -0.9607
vn -0.2957 0.4335 -0.8513
vn -0.2005 0.4727 -0.8581
vn 0.2714 -0.3572 -0.8937
vn 0.5097 -0.1413 -0.8487
vn 0.1024 -0.1092 -0.9887
vn 0.0162 0.3712 -0.9284
vn -0.0024 0.7731 -0.6342
vn 0.5015 0.1451 -0.8529
vn 0.1970 0.5667 -0.8000
vn -0.6638 -0.7458 -0.0562
vn 0.3739 -0.9247 -0.0723
vn -0.8537 -0.5192 -0.0405
vn -0.8830 -0.4680 -0.0363
vn -0.7123 -0.7000 -0.0524
vn 0.0322 -0.9966 -0.0754
vn -0.8109 0.5834 0.0448
vn -0.9897 0.1427 0.0112
vn 0.4156 0.9070 0.0685
vn -0.4792 0.8755 0.0617
vn 0.5394 -0.8394 -0.0671
vn 0.6227 -0.7802 -0.0592
vn 0.9551 0.2953 0.0221
vn 0.3588 0.9307 0.0709
vn -0.0490 0.9960 0.0751
vn 0.9098 0.4141 0.0295
vn 0.8046 0.5923 0.0438
vn -0.1561 0.9847 0.0778
vn -0.0770 0.0052 -0.9970
vn -0.5172 0.8546 0.0469
vn -0.0809 -0.0045 -0.9967
vn -0.1282 -0.9917 0.0042
vn 0.1269 0.9919 -0.0041
vn 0.3718 -0.8869 -0.2740
vn 0.4022 -0.9144 -0.0454
vn -0.3828 0.9229 0.0413
vn -0.0055 0.9997 0.0238
vn -0.9896 -0.0983 -0.1052
vn -0.3972 0.8690 0.2952
vn 0.1672 -0.9517 0.2573
vn 0.0055 -0.9997 -0.0238
vn -0.9956 0.0033 -0.0940
vn 0.1968 -0.9787 0.0585
vn -0.8901 0.0081 0.4557
vn -0.1680 0.9513 -0.2585
vn -0.3720 0.9276 0.0332
vn -0.1156 0.0041 0.9933
vn -0.1970 0.9787 -0.0586
vn 0.3926 -0.9184 -0.0492
vn 0.0816 -0.0026 0.9967
vn 0.0016 0.0954 -0.9954
vn -0.9528 -0.0421 -0.3005
vn -0.2031 -0.9776 0.0550
vn 0.1981 0.9787 -0.0531
vn 0.0879 -0.9855 -0.1451
vn 0.4258 -0.8026 -0.4179
vn -0.4009 0.8292 0.3895
vn 0.0783 0.9430 0.3234
vn -0.9615 -0.0204 -0.2740
vn -0.0896 0.9848 0.1490
vn 0.3462 -0.9216 0.1753
vn -0.0781 -0.9432 -0.3229
vn -0.9897 0.0070 0.1432
vn 0.4537 -0.8781 0.1520
vn 0.0500 -0.0039 0.9987
vn -0.3465 0.9215 -0.1754
vn 0.0468 0.9963 0.0723
vn 0.0880 -0.0014 0.9961
vn -0.4537 0.8781 -0.1520
vn -0.4918 0.8591 0.1417
vn -0.0308 -0.9970 -0.0705
vn -0.0128 -0.0709 0.9974
vn -0.3622 -0.9309 -0.0473
vn 0.3364 0.9403 0.0519
vn 0.0295 0.0841 -0.9960
vn 0.6073 0.7874 -0.1061
vn -0.6179 -0.7785 0.1105
vn -0.1467 0.0323 -0.9887
vn -0.8758 0.4697 0.1114
vn 0.4918 -0.8591 -0.1417
vn 0.0805 -0.1174 0.9898
vn 0.2288 -0.9733 -0.0173
vn -0.0019 -0.0183 0.9998
vn -0.3926 0.9184 0.0492
vn -0.2104 -0.9754 0.0661
vn 0.1166 0.0060 0.9932
vn -0.1444 0.9895 0.0090
vn 0.9764 0.2150 0.0183
vn 0.0816 0.0172 0.9965
vn 0.2860 0.9560 -0.0657
vn 0.2990 -0.8836 0.3604
vn -0.9902 -0.1338 -0.0391
vn 0.0840 0.0129 0.9964
vn 0.0808 -0.0005 0.9967
vn 0.3654 -0.9304 0.0299
vn -0.3767 0.9258 -0.0308
vn -0.9923 0.1235 0.0082
vn -0.9312 -0.3620 0.0436
vn 0.0821 -0.0027 0.9966
vn 0.9257 0.3621 -0.1089
vn 0.0601 -0.1425 0.9880
vn 0.9981 0.0146 -0.0593
vn -0.0356 -0.2577 0.9656
vn 0.8235 -0.5501 -0.1388
vn -0.8202 0.5678 0.0704
vn -0.0407 0.0375 -0.9985
vn 0.4760 -0.8783 -0.0453
vn 0.8351 -0.5435 -0.0846
vn -0.8351 0.5435 0.0846
vn -0.1082 0.0201 -0.9939
vn -0.0827 0.9873 0.1360
vn 0.7889 -0.6019 -0.1241
vn 0.1437 -0.0783 0.9865
vn -0.3021 -0.9470 -0.1095
vn 0.0096 -0.1394 0.9902
vn -0.8664 -0.4843 0.1212
vn 0.8777 0.4645 -0.1175
vn -0.0217 -0.2636 -0.9644
vn 0.9176 0.3971 -0.0208
vn -0.9649 -0.2576 0.0519
vn 0.9649 0.2576 -0.0519
vn -0.0270 -0.1051 -0.9941
vn 0.7076 0.7043 -0.0571
vn -0.1329 0.0298 -0.9907
vn -0.9119 -0.4097 0.0224
vn 0.0508 -0.1191 -0.9916
vn -0.0629 -0.0670 -0.9958
vn -0.5736 -0.8155 0.0778
vn 0.9164 0.4001 -0.0079
vn -0.3785 -0.9201 0.1006
vn -0.6766 -0.7325 0.0747
vn -0.0642 0.0808 -0.9947
vn 0.6409 0.7638 -0.0770
vn 0.5732 -0.8178 0.0506
vn -0.6304 0.7738 -0.0620
vn 0.1264 0.0779 -0.9889
vn -0.5574 0.8284 0.0545
vn 0.7046 -0.7088 -0.0330
vn -0.7046 0.7088 0.0330
vn 0.0552 0.0989 -0.9936
vn -0.8155 0.5776 0.0358
vn -0.1004 -0.0971 -0.9902
vn 0.5727 -0.8181 -0.0525
vn 0.0536 0.1530 -0.9868
vn 0.0210 0.0312 -0.9993
vn 0.9035 -0.4286 -0.0076
vn -0.6316 0.7714 0.0768
vn 0.9305 -0.3664 0.0035
vn 0.3121 -0.9485 -0.0537
vn -0.1178 -0.0160 -0.9929
vn -0.2739 0.9601 0.0563
vn 0.8345 0.5496 -0.0381
vn -0.8113 -0.5840 0.0270
vn -0.1356 0.0214 -0.9905
vn -0.5022 -0.8643 0.0289
vn 0.9596 0.2289 -0.1639
vn -0.9596 -0.2289 0.1639
vn -0.0867 -0.0624 -0.9943
vn -0.2737 -0.9617 -0.0128
vn -0.1676 0.0804 -0.9826
vn 0.5593 0.8277 -0.0450
vn -0.2582 0.0763 -0.9631
vn -0.1468 0.0662 -0.9869
vn 0.1107 0.9921 0.0589
vn -0.6497 -0.7528 0.1058
vn 0.2125 0.9767 0.0305
vn 0.7162 0.6943 -0.0710
vn -0.0433 -0.0942 -0.9946
vn -0.7624 -0.6416 0.0840
vn -0.9478 0.3163 0.0406
vn 0.9340 -0.3558 -0.0311
vn 0.1157 0.0181 0.9931
vn 0.8386 -0.5372 -0.0904
vn -0.9121 0.3955 0.1083
vn 0.9121 -0.3955 -0.1083
vn 0.0778 -0.1021 0.9917
vn 0.5107 -0.8596 -0.0145
vn 0.1311 0.0846 0.9877
vn -0.7531 0.6550 0.0622
vn 0.2215 0.1037 0.9696
vn 0.1151 0.0643 0.9913
vn -0.3605 0.9324 -0.0274
vn 0.7678 -0.6331 -0.0979
vn -0.5480 0.8361 0.0255
vn -0.9806 -0.1240 0.1519
vn 0.0644 -0.0939 0.9935
vn 0.9898 -0.0323 -0.1390
vn -0.6272 -0.0000 -0.7789
vn 0.5051 -0.0000 0.8631
vn -0.6272 -0.0000 0.7789
vn 0.5051 -0.0000 -0.8631
vn 0.0871 -0.9962 -0.0000
vn -0.1923 -0.9231 -0.3330
vn 0.3845 -0.9231 -0.0000
vn -0.0871 -0.9962 -0.0000
vn 0.1923 -0.9231 0.3330
vn 0.5000 -0.0000 0.8660
vn -0.5000 -0.0000 0.8660
vn 0.5000 -0.0000 -0.8660
vn -0.8509 0.5253 -0.0000
vn 0.4255 -0.5253 0.7369
vn 0.4255 0.5253 -0.7369
vn 0.8509 0.5253 -0.0000
vn 0.4255 0.5253 0.7369
vn -0.4255 0.5253 0.7369
vn -0.5000 -0.0000 -0.8660
vn 0.0436 -0.9962 -0.0755
vn -0.3845 -0.9231 -0.0000
vn 0.0436 -0.9962 0.0755
vn -0.0436 -0.9962 -0.0755
vn -0.1923 -0.9231 0.3330
vn -0.0436 -0.9962 0.0755
vn 0.1923 -0.9231 -0.3330
vn -0.0175 0.9998 -0.0000
vn 0.0175 0.9998 -0.0000
vn 0.8509 -0.5253 -0.0000
vn -0.4255 -0.5253 0.7369
vn -0.8509 -0.5253 -0.0000
vn -0.4255 -0.5253 -0.7369
vn 0.4255 -0.5253 -0.7369
vn -0.0087 0.9998 0.0151
vn -0.0087 0.9998 -0.0151
vn 0.0087 0.9998 0.0151
vn 0.0087 0.9998 -0.0151
vn -0.2588 -0.9659 -0.0000
vn -0.2319 -0.8653 -0.4444
vn 0.2588 0.9659 -0.0000
vn 0.2319 0.8653 -0.4444
vn -0.6148 -0.3550 0.7043
vn 0.3550 -0.6148 0.7043
vn 0.6148 0.3550 0.7043
vn -0.3550 0.6148 0.7043
vn -0.9659 0.2588 -0.0000
vn -0.8653 0.2319 -0.4444
vn -0.4371 0.7572 0.4854
vn -0.7572 -0.4371 0.4854
vn 0.7572 0.4371 0.4854
vn 0.4371 -0.7572 0.4854
vn 0.9659 -0.2588 -0.0000
vn -0.1830 -0.6830 -0.7071
vn -0.6830 0.1830 -0.7071
vn 0.1830 0.6830 -0.7071
vn 0.6830 -0.1830 -0.7071
vn 0.8653 -0.2319 -0.4443
vn -0.8959 -0.4444 -0.0000
vn 0.5774 0.5774 -0.5774
vn 0.8959 -0.4444 -0.0000
vn 0.5774 0.5774 0.5774
vn -0.5020 0.7043 -0.5020
vn -0.5020 0.7043 0.5020
vn 0.5020 0.7043 0.5020
vn 0.5020 0.7043 -0.5020
vn -0.0000 -0.4444 -0.8959
vn 0.6182 0.4854 -0.6182
vn -0.6182 0.4854 -0.6182
vn 0.6182 0.4854 0.6182
vn -0.6182 0.4854 0.6182
vn -0.0000 -0.7071 0.7071
vn -0.7071 -0.7071 -0.0000
vn -0.0000 -0.7071 -0.7071
vn -0.0000 -0.4444 0.8959
vn 0.1736 -0.9848 -0.0000
vn 0.1556 -0.8822 -0.4443
vn -0.1736 0.9848 -0.0000
vn -0.1556 0.8822 -0.4444
vn -0.4072 -0.5816 0.7043
vn 0.5816 -0.4072 0.7043
vn 0.4072 0.5816 0.7043
vn -0.5816 0.4072 0.7043
vn -0.9848 -0.1736 -0.0000
vn -0.8822 -0.1556 -0.4443
vn -0.7162 0.5015 0.4854
vn -0.5015 -0.7162 0.4854
vn 0.5015 0.7162 0.4854
vn 0.7162 -0.5015 0.4854
vn 0.9848 0.1736 -0.0000
vn 0.1228 -0.6964 -0.7071
vn -0.6964 -0.1228 -0.7071
vn -0.1228 0.6964 -0.7071
vn 0.6964 0.1228 -0.7071
vn 0.8822 0.1556 -0.4443
vn 0.8822 0.1556 -0.4444
vn -0.6428 -0.7660 -0.0000
vn -0.5758 -0.6863 -0.4444
vn 0.6428 0.7660 -0.0000
vn 0.5758 0.6863 -0.4444
vn -0.7072 -0.0619 0.7043
vn 0.0619 -0.7072 0.7043
vn 0.7073 0.0619 0.7043
vn -0.0619 0.7072 0.7043
vn -0.7660 0.6428 -0.0000
vn -0.6863 0.5758 -0.4444
vn -0.0762 0.8710 0.4854
vn -0.8710 -0.0762 0.4854
vn 0.8710 0.0762 0.4854
vn 0.0762 -0.8710 0.4854
vn 0.7660 -0.6428 -0.0000
vn -0.4545 -0.5417 -0.7071
vn -0.5417 0.4545 -0.7071
vn 0.4545 0.5417 -0.7071
vn 0.5417 -0.4545 -0.7071
vn 0.6863 -0.5758 -0.4444
vn 0.9942 -0.0436 0.0987
vn -0.0673 -0.9654 0.2518
vn 0.3815 -0.8842 0.2694
vn 0.0673 0.9654 -0.2518
vn 0.5021 0.8455 -0.1817
vn -0.9942 0.0436 -0.0987
vn -0.6916 -0.5830 -0.4264
vn -0.7762 -0.3250 0.5402
vn -0.7087 0.6444 0.2874
vn -0.6240 0.3863 -0.6792
vn 0.0843 -0.2570 -0.9627
vn 0.5173 -0.2496 -0.8186
vn -0.3889 0.4591 -0.7987
vn -0.4721 -0.7346 -0.4874
vn -0.4931 0.7769 0.3916
vn -0.5763 -0.4168 0.7030
vn -0.0843 0.2570 0.9627
vn 0.6554 -0.7135 0.2478
vn 0.7626 -0.2125 -0.6110
vn 0.7506 0.6519 -0.1083
vn 0.6434 0.1509 0.7505
vn 0.3663 0.2109 0.9063
vt 0.000000 0.968750
vt 0.000000 1.000000
vt 0.031250 1.000000
vt 0.031250 0.968750
vt 0.687500 0.562500
vt 0.375000 0.562500
vt 0.375000 0.937500
vt 0.687500 0.937500
vt 0.062500 0.937500
vt 0.062500 0.968750
vt 0.375000 0.968750
vt 0.062500 0.562500
vt 0.031250 0.562500
vt 0.031250 0.937500
vt 0.000000 0.937500
vt 0.000000 0.562500
vt 0.062500 1.000000
vt 0.375000 1.000000
vt 0.406250 0.906250
vt 0.406250 0.937500
vt 0.375000 0.906250
vt 0.343750 0.937500
vt 0.343750 0.968750
vt 0.062500 0.906250
vt 0.031250 0.906250
vt 0.031250 0.593750
vt 0.062500 0.593750
vt 0.000000 0.906250
vt 0.000000 0.593750
vt 0.093750 1.000000
vt 0.093750 0.968750
vt 0.343750 1.000000
vt 0.093750 0.937500
vt 0.093750 0.906250
vt 0.343750 0.906250
vt 0.343750 0.593750
vt 0.093750 0.593750
vt 0.687500 0.906250
vt 0.656250 0.937500
vt 0.656250 0.906250
vt 0.656250 0.593750
vt 0.406250 0.593750
vt 0.656250 0.562500
vt 0.406250 0.562500
vt 0.687500 0.593750
vt 0.343750 0.562500
vt 0.093750 0.562500
vt 0.375000 0.593750
vt 0.312500 0.500000
vt 0.343750 0.531250
vt 0.000000 0.531250
vt 0.000000 0.500000
vt 0.375000 0.125000
vt 0.687500 0.125000
vt 0.687500 0.500000
vt 0.375000 0.500000
vt 0.031250 0.125000
vt 0.000000 0.125000
vt 0.031250 0.500000
vt 0.062500 0.125000
vt 0.062500 0.500000
vt 0.312500 0.562500
vt 0.812500 0.968750
vt 0.687500 0.968750
vt 0.687500 1.000250
vt 0.812500 1.000250
vt 0.812500 0.969000
vt 0.687500 0.969000
vt 0.812500 0.937500
vt 0.812500 0.562500
vt 0.937500 0.562500
vt 0.937500 0.937500
vt 0.782007 0.486029
vt 0.780184 0.521513
vt 0.749320 0.519442
vt 0.741333 0.486567
vt 0.745403 0.395011
vt 0.731923 0.444523
vt 0.712065 0.427677
vt 0.717334 0.390945
vt 0.747387 0.348159
vt 0.721583 0.358439
vt 0.784728 0.443042
vt 0.788509 0.400154
vt 0.789203 0.355339
vt 0.773220 0.331354
vt 0.764761 0.331447
vt 0.823521 0.488826
vt 0.822178 0.520796
vt 0.854409 0.493206
vt 0.849805 0.519898
vt 0.826363 0.447353
vt 0.831629 0.401875
vt 0.819100 0.371606
vt 0.859791 0.451145
vt 0.863695 0.421039
vt 0.710423 0.496780
vt 0.721289 0.528871
vt 0.778286 0.553483
vt 0.745441 0.549154
vt 0.692935 0.387491
vt 0.689173 0.425075
vt 0.698457 0.354374
vt 0.698724 0.456224
vt 0.691003 0.435217
vt 0.730288 0.323827
vt 0.708257 0.339352
vt 0.762895 0.313828
vt 0.737652 0.322006
vt 0.778612 0.314663
vt 0.805675 0.331971
vt 0.824765 0.552627
vt 0.853555 0.548967
vt 0.885485 0.500724
vt 0.877998 0.527545
vt 0.835395 0.352763
vt 0.858264 0.374091
vt 0.809134 0.331151
vt 0.893869 0.455540
vt 0.896152 0.423353
vt 0.884361 0.396695
vt 0.856330 0.373009
vt 0.782437 0.200962
vt 0.781109 0.214815
vt 0.742535 0.207642
vt 0.744612 0.194350
vt 0.742645 0.216760
vt 0.716974 0.220779
vt 0.714898 0.212015
vt 0.805615 0.198826
vt 0.804606 0.212161
vt 0.745023 0.185899
vt 0.782997 0.191469
vt 0.780990 0.223730
vt 0.804711 0.189995
vt 0.844112 0.186183
vt 0.839305 0.195387
vt 0.805327 0.221214
vt 0.842525 0.220470
vt 0.837416 0.211060
vt 0.935435 0.216482
vt 0.935710 0.227541
vt 0.929855 0.237051
vt 0.943634 0.237651
vt 0.942705 0.274176
vt 0.929754 0.274434
vt 0.937296 0.188723
vt 0.936178 0.199706
vt 0.945909 0.307824
vt 0.933025 0.306005
vt 0.910533 0.244427
vt 0.912130 0.280808
vt 0.896927 0.245770
vt 0.899730 0.281839
vt 0.899250 0.391593
vt 0.912074 0.391473
vt 0.911468 0.412498
vt 0.899281 0.411286
vt 0.914309 0.312589
vt 0.901212 0.315158
vt 0.930132 0.409653
vt 0.941872 0.409289
vt 0.933702 0.504627
vt 0.922947 0.504528
vt 0.931642 0.387517
vt 0.974133 0.326156
vt 0.987048 0.324217
vt 0.977126 0.352045
vt 0.963803 0.353607
vt 0.989617 0.305201
vt 0.977043 0.304351
vt 0.970682 0.282557
vt 0.985030 0.283259
vt 0.965174 0.326159
vt 0.967827 0.305330
vt 0.994363 0.328283
vt 0.997407 0.305678
vt 0.961340 0.282370
vt 0.958914 0.243163
vt 0.968980 0.247124
vt 0.994497 0.280881
vt 0.993899 0.244134
vt 0.984934 0.249886
vt 0.971281 0.145430
vt 0.982278 0.143143
vt 0.690607 0.273084
vt 0.697001 0.263867
vt 0.732968 0.264139
vt 0.728293 0.273763
vt 0.943432 0.143020
vt 0.954562 0.142085
vt 0.785166 0.269004
vt 0.782325 0.278774
vt 0.696535 0.289031
vt 0.734389 0.289090
vt 0.702709 0.298145
vt 0.737994 0.299242
vt 0.790033 0.302557
vt 0.786509 0.293464
vt 0.835830 0.283095
vt 0.836234 0.292318
vt 0.871443 0.286066
vt 0.870613 0.294385
vt 0.836084 0.260859
vt 0.836292 0.269510
vt 0.955274 0.353249
vt 0.960155 0.367654
vt 0.951235 0.366013
vt 0.985063 0.356385
vt 0.982076 0.372965
vt 0.973453 0.371046
vt 0.881123 0.290067
vt 0.881333 0.296748
vt 0.871169 0.266329
vt 0.868933 0.273922
vt 0.931800 0.519598
vt 0.922271 0.519715
vt 0.907226 0.506306
vt 0.896927 0.506081
vt 0.932407 0.530954
vt 0.924533 0.533318
vt 0.909312 0.524970
vt 0.900761 0.527300
vt 0.908344 0.543501
vt 0.913598 0.538646
vt 0.929336 0.552232
vt 0.926778 0.559238
vt 0.941401 0.551454
vt 0.933742 0.558011
vt 0.936996 0.545675
vt 0.943269 0.543127
vt 0.945100 0.388171
vt 0.779755 0.238031
vt 0.782326 0.228167
vt 0.787079 0.227261
vt 0.787338 0.237905
vt 0.760715 0.232692
vt 0.763365 0.223237
vt 0.756130 0.248970
vt 0.773416 0.253400
vt 0.753920 0.258403
vt 0.772276 0.262449
vt 0.786441 0.253946
vt 0.785931 0.263305
vt 0.806095 0.235658
vt 0.801921 0.252321
vt 0.803000 0.262017
vt 0.805354 0.225326
vt 0.716283 0.198505
vt 0.713942 0.190211
vt 0.694512 0.207752
vt 0.691254 0.199425
vt 0.694489 0.229100
vt 0.691327 0.220934
vt 0.891270 0.286738
vt 0.892809 0.294080
vt 0.885199 0.271676
vt 0.882985 0.279116
vt 0.888281 0.272984
vt 0.886778 0.278246
vt 0.992392 0.681124
vt 0.978789 0.679908
vt 0.979847 0.638748
vt 0.993986 0.638645
vt 0.959750 0.670548
vt 0.945732 0.671336
vt 0.947283 0.625600
vt 0.960691 0.628286
vt 0.958734 0.522789
vt 0.945457 0.525433
vt 0.952436 0.457969
vt 0.966514 0.456108
vt 0.985342 0.606200
vt 0.998791 0.607072
vt 0.953035 0.594643
vt 0.967196 0.594304
vt 0.951478 0.412844
vt 0.965015 0.412733
vt 0.976923 0.525108
vt 0.985661 0.448472
vt 0.990840 0.527493
vt 0.998791 0.450109
vt 0.976492 0.405603
vt 0.970029 0.385147
vt 0.990231 0.403275
vt 0.955351 0.383285
vt 0.984543 0.381376
vt 0.418460 0.998080
vt 0.418460 0.939768
vt 0.480417 0.939768
vt 0.480417 0.998080
vt 0.375970 0.998080
vt 0.375970 0.939768
vt 0.591525 0.939768
vt 0.591525 0.998080
vt 0.549035 0.998080
vt 0.549035 0.939768
vt 0.668343 0.988189
vt 0.685753 0.953263
vt 0.658887 0.939870
vt 0.641477 0.974797
vt 0.685748 0.953317
vt 0.668338 0.988244
vt 0.641471 0.974851
vt 0.658882 0.939924
vt 0.498720 0.939768
vt 0.498720 0.998080
vt 0.611680 0.993543
vt 0.596634 0.986043
vt 0.596640 0.985989
vt 0.611685 0.993489
vt 0.578915 0.018422
vt 0.595060 0.017353
vt 0.595950 0.031223
vt 0.579968 0.032019
vt 0.579943 0.074879
vt 0.577101 0.074819
vt 0.577254 0.059946
vt 0.580063 0.059993
vt 0.627203 0.017071
vt 0.648758 0.029432
vt 0.644988 0.031617
vt 0.627213 0.021411
vt 0.648770 0.054279
vt 0.627289 0.066732
vt 0.627280 0.062392
vt 0.645009 0.052113
vt 0.577452 0.032189
vt 0.576434 0.020148
vt 0.605735 0.054369
vt 0.609505 0.052184
vt 0.600774 0.076017
vt 0.601433 0.076017
vt 0.601433 0.087750
vt 0.600774 0.087750
vt 0.597083 0.059913
vt 0.597209 0.074959
vt 0.597025 0.090072
vt 0.579808 0.089861
vt 0.596604 0.105034
vt 0.579187 0.104509
vt 0.580204 0.045426
vt 0.596650 0.045229
vt 0.596244 0.017849
vt 0.597078 0.031175
vt 0.597829 0.045196
vt 0.598305 0.059899
vt 0.598447 0.074966
vt 0.598239 0.090081
vt 0.597859 0.104454
vt 0.577514 0.045469
vt 0.600774 0.064284
vt 0.601433 0.064284
vt 0.600774 0.029086
vt 0.601433 0.029086
vt 0.601433 0.040818
vt 0.600774 0.040818
vt 0.601433 0.052551
vt 0.600774 0.052551
vt 0.600774 0.017353
vt 0.601433 0.017353
vt 0.605721 0.029520
vt 0.609482 0.031686
vt 0.577077 0.089657
vt 0.576434 0.102735
vt 0.627292 0.042429
vt 0.627292 0.028316
vt 0.639514 0.035372
vt 0.615070 0.035372
vt 0.615070 0.049485
vt 0.627292 0.056541
vt 0.639514 0.049485
vt 0.627201 0.061594
vt 0.610554 0.051983
vt 0.613883 0.050061
vt 0.627201 0.057750
vt 0.643848 0.051983
vt 0.640519 0.050061
vt 0.643848 0.032760
vt 0.640519 0.034683
vt 0.610554 0.032760
vt 0.627201 0.023149
vt 0.627201 0.026994
vt 0.613883 0.034683
vt 0.649315 0.029109
vt 0.649315 0.054593
vt 0.605176 0.029206
vt 0.627202 0.016442
vt 0.627290 0.067361
vt 0.605177 0.054692
vt 0.999516 0.080521
vt 0.999516 0.120468
vt 0.950015 0.120468
vt 0.950015 0.080521
vt 0.999516 0.000626
vt 0.999516 0.040573
vt 0.950015 0.040573
vt 0.950015 0.000626
vt 0.949991 0.040573
vt 0.949991 0.080521
vt 0.900491 0.080521
vt 0.900491 0.040573
vt 0.949991 0.120468
vt 0.900491 0.120468
vt 0.949991 0.000626
vt 0.900491 0.000626
vt 0.839892 0.073316
vt 0.839892 0.013242
vt 0.891918 0.043279
vt 0.891918 0.103353
vt 0.839892 0.133391
vt 0.787866 0.103353
vt 0.787866 0.043279
vt 0.753343 0.005674
vt 0.753793 0.023105
vt 0.733621 0.023552
vt 0.733139 0.006195
vt 0.714634 0.114846
vt 0.699418 0.106061
vt 0.714634 0.097276
vt 0.714634 0.079707
vt 0.729849 0.088492
vt 0.754364 0.058256
vt 0.754323 0.076005
vt 0.733906 0.075808
vt 0.733992 0.058305
vt 0.754039 0.093766
vt 0.733636 0.093323
vt 0.753592 0.111396
vt 0.733156 0.110879
vt 0.754160 0.040573
vt 0.733898 0.040869
vt 0.732212 0.023598
vt 0.731726 0.006947
vt 0.732460 0.040883
vt 0.732546 0.058307
vt 0.732457 0.075794
vt 0.732212 0.093277
vt 0.731726 0.110118
vt 0.699418 0.088492
vt 0.729849 0.106061
vt 0.713827 0.061412
vt 0.714422 0.077589
vt 0.700115 0.070016
vt 0.699519 0.053839
vt 0.713231 0.045235
vt 0.727538 0.052807
vt 0.728134 0.068984
vt 0.785084 0.040522
vt 0.785179 0.103799
vt 0.779847 0.106839
vt 0.779847 0.037432
vt 0.839577 0.135892
vt 0.839495 0.142029
vt 0.895008 0.105374
vt 0.900246 0.108464
vt 0.894913 0.042097
vt 0.840516 0.010004
vt 0.840598 0.003866
vt 0.900246 0.039057
vt 0.839893 0.073335
vt 0.891919 0.043298
vt 0.891919 0.103372
vt 0.787867 0.043298
vt 0.839893 0.013261
vt 0.839893 0.133410
vt 0.787867 0.103372
vt 0.279163 0.098332
vt 0.350677 0.098332
vt 0.377166 0.124820
vt 0.252674 0.124820
vt 0.350677 0.026817
vt 0.377166 0.000329
vt 0.550232 0.058399
vt 0.550232 0.103283
vt 0.502482 0.103283
vt 0.502482 0.058399
vt 0.462510 0.086134
vt 0.414761 0.086134
vt 0.414761 0.038384
vt 0.462510 0.038384
vt 0.550269 0.058415
vt 0.550269 0.103299
vt 0.502520 0.103299
vt 0.502520 0.058415
vt 0.189796 0.062500
vt 0.228652 0.101356
vt 0.150941 0.101356
vt 0.150941 0.023644
vt 0.228652 0.023644
vt 0.550232 0.058415
vt 0.550232 0.103299
vt 0.502482 0.103299
vt 0.502482 0.058415
vt 0.251888 0.000408
vt 0.251888 0.124592
vt 0.127705 0.000408
vt 0.127705 0.124592
vt 0.279163 0.026817
vt 0.252674 0.000329
vt 0.550247 0.002675
vt 0.550247 0.058382
vt 0.502498 0.058382
vt 0.502498 0.002675
vt 0.550270 0.002708
vt 0.502520 0.002708
vt 0.550232 0.002707
vt 0.502482 0.002708
vt 0.550232 0.002692
vt 0.502482 0.002692
vt 0.561055 0.118590
vt 0.491658 0.118590
vt 0.561055 0.118606
vt 0.491658 0.118606
vt 0.561093 0.118606
vt 0.491696 0.118606
vt 0.561071 0.118573
vt 0.491674 0.118573
vt 0.502498 0.103266
vt 0.550247 0.103266
vt 0.550232 0.041687
vt 0.502482 0.041687
vt 0.512315 0.057325
vt 0.464565 0.057325
vt 0.464565 0.009576
vt 0.512315 0.009576
vt 0.550269 0.041703
vt 0.502520 0.041703
vt 0.550232 0.041703
vt 0.502482 0.041703
vt 0.550247 0.041670
vt 0.502498 0.041670
vt 0.417496 0.000729
vt 0.460876 0.000729
vt 0.460876 0.036141
vt 0.417495 0.036141
vt 0.460876 0.089260
vt 0.417495 0.089260
vt 0.460875 0.124673
vt 0.417495 0.124673
vt 0.382083 0.089260
vt 0.382083 0.036142
vt 0.496288 0.036142
vt 0.496288 0.089260
vt 0.338975 0.086134
vt 0.291225 0.086134
vt 0.291225 0.038384
vt 0.338975 0.038384
s 1
usemtl FACTION_H
f 1/1/1 2/2/1 3/3/1 4/4/1
f 5/5/2 6/6/2 7/7/2 8/8/2
f 8/1/2 9/2/2 2/3/2 1/4/2
f 10/9/3 11/10/3 12/11/3 13/7/3
f 5/10/2 14/9/2 15/7/2 6/11/2
f 16/10/2 17/3/2 7/4/2
f 18/12/4 19/13/4 20/14/4 16/9/4
f 6/12/2 18/13/2 16/14/2 7/9/2
f 21/14/5 20/9/5 19/12/5 13/13/5
f 10/4/5 22/14/5 23/15/5 24/1/5
f 24/13/1 25/16/1 1/15/1 4/14/1
f 19/10/5 26/14/5 13/4/5
f 8/15/2 1/14/2 25/13/2 5/16/2
f 10/13/5 24/16/5 4/15/5 27/14/5
f 28/4/3 3/1/3 2/2/3 9/3/3
f 17/17/6 16/10/6 20/4/6 29/3/6
f 17/18/3 29/11/3 28/10/3 9/17/3
f 27/10/5 28/17/5 29/18/5 21/11/5
f 7/11/2 17/18/2 9/17/2 8/10/2
f 21/4/5 29/3/5 20/10/5
f 4/1/5 3/2/5 28/3/5 27/4/5
f 14/9/7 22/10/7 26/11/7 15/7/7
f 26/14/8 19/4/8 18/10/8 15/9/8
f 14/14/7 30/15/7 23/1/7 22/4/7
f 24/4/1 23/14/1 30/15/1 25/1/1
f 6/4/2 15/14/2 18/10/2
f 25/4/2 30/14/2 14/15/2 5/1/2
f 13/11/5 26/7/5 22/9/5 10/10/5
f 12/5/5 11/6/5 31/7/5 32/8/5
f 27/15/4 31/14/4 11/13/4 10/16/4
f 21/18/7 32/11/7 31/10/7 27/17/7
f 13/12/1 12/13/1 32/14/1 21/9/1
f 33/1/1 34/4/1 35/3/1 36/2/1
f 37/19/5 38/20/5 39/7/5 40/21/5
f 41/1/5 33/4/5 36/3/5 42/2/5
f 43/22/3 44/7/3 45/11/3 46/23/3
f 47/23/5 48/11/5 49/7/5 50/22/5
f 51/10/5 39/4/5 52/3/5
f 53/24/4 51/9/4 54/14/4 55/25/4
f 40/24/5 39/9/5 51/14/5 53/25/5
f 56/26/2 44/13/2 57/12/2 58/27/2
f 59/4/2 60/1/2 61/15/2 62/14/2
f 63/25/1 34/14/1 33/15/1 64/28/1
f 57/10/2 44/4/2 65/14/2
f 66/29/5 67/16/5 68/13/5 69/26/5
f 70/25/2 71/14/2 34/15/2 63/28/2
f 72/4/3 42/3/3 36/2/3 35/1/3
f 52/17/6 73/3/6 54/4/6 51/10/6
f 74/30/3 42/17/3 72/10/3 75/31/3
f 76/23/2 77/11/2 73/18/2 78/32/2
f 79/31/5 41/10/5 42/17/5 74/30/5
f 77/4/2 54/10/2 73/3/2
f 34/1/2 71/4/2 72/3/2 35/2/2
f 50/22/7 49/7/7 65/11/7 80/23/7
f 65/14/8 49/9/8 81/10/8 57/4/8
f 82/14/7 62/4/7 61/1/7 83/15/7
f 60/4/1 68/1/1 83/15/1 61/14/1
f 48/4/5 81/10/5 49/14/5
f 68/4/5 67/1/5 82/15/5 83/14/5
f 84/31/2 59/10/2 62/9/2 85/33/2
f 86/34/2 87/33/2 88/9/2 89/24/2
f 90/29/4 59/16/4 91/13/4 92/26/4
f 93/30/7 71/17/7 88/10/7 87/31/7
f 94/24/1 77/9/1 95/14/1 96/25/1
f 77/18/7 76/32/7 97/23/7 95/11/7
f 76/32/7 93/30/7 87/31/7 97/23/7
f 96/21/2 95/7/2 97/22/2 98/35/2
f 99/36/2 98/35/2 86/34/2 100/37/2
f 44/11/2 43/23/2 80/22/2 65/7/2
f 84/31/2 85/33/2 80/22/2 43/23/2
f 82/9/7 101/33/7 85/31/7 62/10/7
f 50/22/7 80/23/7 85/31/7 101/33/7
f 39/11/5 38/23/5 102/32/5 52/18/5
f 79/31/5 74/30/5 102/32/5 38/23/5
f 71/10/2 93/31/2 75/30/2 72/17/2
f 76/23/2 78/32/2 75/30/2 93/31/2
f 52/18/3 102/32/3 78/23/3 73/11/3
f 74/30/3 75/31/3 78/23/3 102/32/3
f 67/10/5 103/31/5 101/33/5 82/9/5
f 47/23/5 50/22/5 101/33/5 103/31/5
f 59/9/3 84/33/3 104/31/3 91/10/3
f 84/33/3 43/22/3 46/23/3 104/31/3
f 105/38/5 41/8/5 79/39/5 106/40/5
f 107/41/5 106/40/5 37/19/5 108/42/5
f 103/43/5 107/41/5 108/42/5 47/44/5
f 106/40/5 79/39/5 38/20/5 37/19/5
f 67/5/5 66/45/5 107/41/5 103/43/5
f 66/45/5 105/38/5 106/40/5 107/41/5
f 46/46/2 99/36/2 100/37/2 104/47/2
f 98/35/2 97/22/2 87/33/2 86/34/2
f 45/6/2 109/48/2 99/36/2 46/46/2
f 109/48/2 96/21/2 98/35/2 99/36/2
f 44/12/1 56/27/1 109/26/1 45/13/1
f 56/27/1 94/24/1 96/25/1 109/26/1
f 71/15/4 70/28/4 89/25/4 88/14/4
f 70/28/4 90/29/4 92/26/4 89/25/4
f 104/47/2 100/37/2 92/27/2 91/12/2
f 100/37/2 86/34/2 89/24/2 92/27/2
f 59/13/2 90/26/2 110/29/2 60/16/2
f 90/26/2 70/25/2 63/28/2 110/29/2
f 41/15/5 105/28/5 64/25/5 33/14/5
f 105/28/5 66/29/5 69/26/5 64/25/5
f 60/13/1 110/26/1 69/29/1 68/16/1
f 110/26/1 63/25/1 64/28/1 69/29/1
f 77/14/2 94/25/2 55/24/2 54/9/2
f 94/25/2 56/26/2 58/27/2 55/24/2
f 48/12/5 111/27/5 112/26/5 81/13/5
f 111/27/5 40/24/5 53/25/5 112/26/5
f 81/12/4 112/27/4 58/26/4 57/13/4
f 112/27/4 53/24/4 55/25/4 58/26/4
f 47/44/5 108/42/5 111/48/5 48/6/5
f 108/42/5 37/19/5 40/21/5 111/48/5
f 113/49/3 114/50/3 115/51/3 116/52/3
f 117/53/2 118/54/2 113/55/2 116/56/2
f 119/57/1 117/58/1 116/52/1 115/59/1
f 120/57/9 121/60/9 122/61/9 114/59/9
f 119/51/7 123/13/7 121/6/7 120/50/7
f 118/58/9 120/57/9 114/59/9 113/52/9
f 117/52/7 119/51/7 120/50/7 118/49/7
f 114/50/3 122/6/3 124/13/3 115/51/3
f 125/62/3 126/16/3 127/51/3 128/50/3
f 129/53/5 126/56/5 125/61/5 130/60/5
f 131/57/1 127/59/1 126/52/1 129/58/1
f 132/57/10 128/59/10 133/52/10 134/58/10
f 131/51/7 132/50/7 134/56/7 135/59/7
f 130/60/10 125/61/10 128/59/10 132/57/10
f 129/16/7 130/62/7 132/50/7 131/51/7
f 128/50/3 127/51/3 136/59/3 133/56/3
f 137/1/1 138/4/1 139/3/1 140/2/1
f 141/4/2 142/1/2 143/15/2 144/14/2
f 142/13/1 138/14/1 137/15/1 145/16/1
f 141/13/2 146/14/2 138/15/2 142/16/2
f 147/4/3 148/3/3 140/2/3 139/1/3
f 149/14/4 150/4/4 141/1/4 144/15/4
f 138/1/2 146/4/2 147/3/2 139/2/2
f 141/16/4 150/13/4 151/14/4 146/15/4
f 149/14/7 144/4/7 143/1/7 152/15/7
f 142/4/1 145/1/1 152/15/1 143/14/1
f 147/2/4 146/1/4 151/4/4 148/3/4
f 153/4/1 154/3/1 155/2/1 156/1/1
f 157/1/5 158/15/5 159/14/5 160/4/5
f 160/16/1 161/13/1 153/14/1 156/15/1
f 157/16/5 160/13/5 156/14/5 162/15/5
f 163/3/3 155/2/3 154/1/3 164/4/3
f 165/15/4 158/14/4 157/4/4 166/1/4
f 156/4/5 155/3/5 163/2/5 162/1/5
f 157/13/4 162/14/4 167/15/4 166/16/4
f 165/4/7 168/1/7 159/15/7 158/14/7
f 160/1/1 159/15/1 168/14/1 161/4/1
f 163/3/4 164/2/4 167/1/4 162/4/4
f 151/63/4 167/64/4 164/65/4 148/66/4
f 148/66/3 164/65/3 154/64/3 140/63/3
f 140/66/1 154/65/1 153/64/1 137/63/1
f 145/13/5 137/14/5 169/15/5 170/16/5
f 145/67/1 161/68/1 168/8/1 152/69/1
f 152/67/7 168/68/7 165/8/7 149/69/7
f 149/69/4 165/8/4 166/68/4 150/67/4
f 150/70/4 166/71/4 167/72/4 151/69/4
f 169/69/1 171/8/1 172/5/1 170/70/1
f 161/68/3 145/67/3 170/69/3 172/8/3
f 137/66/7 153/65/7 171/64/7 169/63/7
f 153/15/2 161/16/2 172/13/2 171/14/2
s 0
f 176/73/11 175/74/11 173/75/11 174/76/11
f 181/77/12 180/78/12 177/79/12 178/80/12
f 182/81/13 181/77/13 178/80/13 179/82/13
f 184/83/14 176/73/14 174/76/14 180/78/14
f 185/84/15 184/83/15 180/78/15 181/77/15
f 186/85/16 185/84/16 181/77/16 182/81/16
f 187/86/17 186/85/17 182/81/17 183/87/17
f 189/88/18 188/89/18 175/74/18 176/73/18
f 191/90/19 190/91/19 188/89/19 189/88/19
f 192/92/20 189/88/20 176/73/20 184/83/20
f 193/93/21 192/92/21 184/83/21 185/84/21
f 194/94/22 193/93/22 185/84/22 186/85/22
f 195/95/23 191/90/23 189/88/23 192/92/23
f 196/96/24 195/95/24 192/92/24 193/93/24
f 198/97/25 174/76/25 173/75/25 197/98/25
f 175/74/26 199/99/26 197/100/26 173/75/26
f 201/101/27 178/80/27 177/79/27 200/102/27
f 202/103/28 179/82/28 178/80/28 201/101/28
f 203/104/29 180/78/29 174/76/29 198/97/29
f 180/78/30 203/104/30 200/105/30 177/79/30
f 204/106/31 182/81/31 179/82/31 202/107/31
f 205/108/32 183/87/32 182/81/32 204/109/32
f 187/86/33 207/110/33 206/111/33 186/85/33
f 207/110/34 187/86/34 183/87/34 205/108/34
f 188/89/35 208/112/35 199/99/35 175/74/35
f 190/91/36 209/113/36 208/112/36 188/89/36
f 191/90/37 210/114/37 209/115/37 190/91/37
f 194/94/38 212/116/38 211/117/38 193/93/38
f 212/116/39 194/94/39 186/85/39 206/118/39
f 195/95/40 213/119/40 210/114/40 191/90/40
f 196/96/41 214/120/41 213/119/41 195/95/41
f 214/121/42 196/96/42 193/93/42 211/122/42
f 215/123/43 216/124/43 218/125/43 217/126/43
f 218/125/44 222/127/44 326/128/44 323/129/44
f 216/124/45 215/123/45 223/130/45 224/131/45
f 217/126/46 221/132/46 219/133/46 215/123/46
f 222/127/47 218/125/47 216/124/47 220/134/47
f 223/130/48 226/135/48 230/136/48 227/137/48
f 215/123/49 219/133/49 226/135/49 223/130/49
f 220/134/50 216/124/50 224/131/50 225/138/50
f 229/139/51 228/140/51 232/141/51 233/142/51
f 224/131/52 223/130/52 227/137/52 228/140/52
f 225/138/53 224/131/53 228/140/53 229/139/53
f 231/143/54 234/144/54 238/145/54 235/146/54
f 227/137/55 230/136/55 234/147/55 231/148/55
f 228/140/56 227/137/56 231/148/56 232/141/56
f 235/146/57 238/145/57 242/149/57 239/150/57
f 232/151/58 231/143/58 235/146/58 236/152/58
f 233/153/59 232/151/59 236/152/59 237/154/59
f 308/155/60 307/156/60 244/157/60 245/158/60
f 236/152/61 235/146/61 239/150/61 240/159/61
f 237/154/62 236/152/62 240/159/62 241/160/62
f 243/161/63 246/162/63 294/163/63 291/164/63
f 307/156/64 310/165/64 243/161/64 244/157/64
f 283/166/65 284/167/65 250/168/65 249/169/65
f 248/170/66 247/171/66 255/172/66 256/173/66
f 283/166/67 285/174/67 251/175/67 247/171/67
f 286/176/68 284/167/68 248/170/68 252/177/68
f 255/172/69 258/178/69 262/179/69 259/180/69
f 247/171/70 251/175/70 258/178/70 255/172/70
f 252/177/71 248/170/71 256/173/71 257/181/71
f 261/182/72 260/183/72 264/184/72 265/185/72
f 256/173/73 255/172/73 259/180/73 260/183/73
f 257/181/74 256/173/74 260/183/74 261/182/74
f 263/186/75 266/187/75 270/188/75 267/189/75
f 259/180/76 262/179/76 266/190/76 263/191/76
f 260/183/77 259/180/77 263/191/77 264/184/77
f 267/189/78 270/188/78 274/192/78 271/193/78
f 264/194/79 263/186/79 267/189/79 268/195/79
f 265/196/80 264/194/80 268/195/80 269/197/80
f 273/198/81 272/199/81 276/200/81 277/201/81
f 268/195/82 267/189/82 271/193/82 272/199/82
f 269/197/83 268/195/83 272/199/83 273/198/83
f 277/201/84 276/200/84 288/202/84 289/203/84
f 271/193/85 274/192/85 278/204/85 275/205/85
f 272/199/86 271/193/86 275/205/86 276/200/86
f 253/206/87 249/169/87 280/207/87 281/208/87
f 250/168/88 254/209/88 282/210/88 279/211/88
f 249/169/89 250/168/89 279/211/89 280/207/89
f 254/209/90 250/168/90 284/167/90 286/176/90
f 249/169/91 253/206/91 285/174/91 283/166/91
f 247/171/92 248/170/92 284/167/92 283/166/92
f 289/203/93 288/202/93 332/212/93 333/213/93
f 275/205/94 278/204/94 290/214/94 287/215/94
f 276/200/95 275/205/95 287/215/95 288/202/95
f 291/164/96 294/163/96 298/216/96 295/217/96
f 244/157/97 243/161/97 291/164/97 292/218/97
f 245/158/98 244/157/98 292/218/98 293/219/98
f 295/217/99 298/216/99 302/220/99 299/221/99
f 292/218/100 291/164/100 295/217/100 296/222/100
f 293/219/101 292/218/101 296/222/101 297/223/101
f 301/224/102 300/225/102 304/226/102 305/227/102
f 296/222/103 295/217/103 299/221/103 300/225/103
f 297/223/104 296/222/104 300/225/104 301/224/104
f 306/228/105 305/229/105 304/226/105 303/230/105
f 299/221/106 302/220/106 306/231/106 303/230/106
f 300/225/107 299/221/107 303/230/107 304/226/107
f 240/159/108 239/150/108 310/165/108 307/156/108
f 239/150/109 242/149/109 309/232/109 310/165/109
f 241/160/110 240/159/110 307/156/110 308/155/110
f 314/233/111 313/234/111 317/235/111 318/236/111
f 310/237/112 309/238/112 313/234/112 314/233/112
f 243/239/113 310/237/113 314/233/113 311/240/113
f 246/241/114 243/239/114 311/240/114 312/242/114
f 311/240/115 314/233/115 318/236/115 315/243/115
f 312/242/116 311/240/116 315/243/116 316/244/116
f 315/243/117 318/236/117 322/245/117 319/246/117
f 316/244/118 315/243/118 319/246/118 320/247/118
f 318/236/119 317/235/119 321/248/119 322/245/119
f 217/126/120 218/125/120 323/129/120 324/249/120
f 221/132/121 217/126/121 324/249/121 325/250/121
f 325/250/122 324/249/122 328/251/122 329/252/122
f 323/129/123 326/128/123 330/253/123 327/254/123
f 324/249/124 323/129/124 327/254/124 328/251/124
f 333/213/125 332/212/125 336/255/125 337/256/125
f 287/215/126 290/214/126 334/257/126 331/258/126
f 288/202/127 287/215/127 331/258/127 332/212/127
f 331/258/128 334/257/128 338/259/128 335/260/128
f 332/212/129 331/258/129 335/260/129 336/255/129
f 341/261/130 340/262/130 344/263/130 345/264/130
f 339/265/131 342/266/131 346/267/131 343/268/131
f 340/262/132 339/265/132 343/268/132 344/263/132
f 362/269/133 361/270/133 354/271/133 351/272/133
f 345/264/134 344/263/134 348/273/134 349/274/134
f 343/268/135 346/267/135 350/275/135 347/276/135
f 344/263/136 343/268/136 347/276/136 348/273/136
f 351/272/137 354/271/137 358/277/137 355/278/137
f 363/279/138 362/269/138 351/272/138 352/280/138
f 364/281/139 363/279/139 352/280/139 353/282/139
f 356/283/140 355/278/140 359/284/140
f 352/280/141 351/272/141 355/278/141 356/283/141
f 353/282/142 352/280/142 356/283/142 357/285/142
f 359/284/143 355/278/143 358/277/143 360/286/143
f 357/285/144 356/283/144 359/284/144 360/287/144
f 349/274/145 348/273/145 363/279/145 364/281/145
f 348/273/146 347/276/146 362/269/146 363/279/146
f 347/276/147 350/275/147 361/270/147 362/269/147
f 367/261/148 366/262/148 370/263/148 371/264/148
f 365/265/149 368/266/149 372/267/149 369/268/149
f 366/262/150 365/265/150 369/268/150 370/263/150
f 388/269/151 387/270/151 380/271/151 377/272/151
f 371/264/152 370/263/152 374/273/152 375/274/152
f 369/268/153 372/267/153 376/275/153 373/276/153
f 370/263/154 369/268/154 373/276/154 374/273/154
f 377/272/155 380/271/155 384/277/155 381/278/155
f 389/279/156 388/269/156 377/272/156 378/280/156
f 390/281/157 389/279/157 378/280/157 379/282/157
f 382/283/158 381/278/158 385/284/158
f 378/280/159 377/272/159 381/278/159 382/283/159
f 379/282/160 378/280/160 382/283/160 383/285/160
f 385/284/161 381/278/161 384/277/161 386/286/161
f 383/285/162 382/283/162 385/284/162 386/287/162
f 375/274/163 374/273/163 389/279/163 390/281/163
f 374/273/164 373/276/164 388/269/164 389/279/164
f 373/276/165 376/275/165 387/270/165 388/269/165
f 393/261/166 392/262/166 396/263/166 397/264/166
f 391/265/167 394/266/167 398/267/167 395/268/167
f 392/262/168 391/265/168 395/268/168 396/263/168
f 414/269/169 413/270/169 406/271/169 403/272/169
f 397/264/170 396/263/170 400/273/170 401/274/170
f 395/268/171 398/267/171 402/275/171 399/276/171
f 396/263/172 395/268/172 399/276/172 400/273/172
f 403/272/173 406/271/173 410/277/173 407/278/173
f 415/279/174 414/269/174 403/272/174 404/280/174
f 416/281/175 415/279/175 404/280/175 405/282/175
f 408/283/176 407/278/176 411/284/176
f 404/280/177 403/272/177 407/278/177 408/283/177
f 405/282/178 404/280/178 408/283/178 409/285/178
f 411/284/179 407/278/179 410/277/179 412/286/179
f 409/285/180 408/283/180 411/284/180 412/287/180
f 401/274/181 400/273/181 415/279/181 416/281/181
f 400/273/182 399/276/182 414/269/182 415/279/182
f 399/276/183 402/275/183 413/270/183 414/269/183
f 419/261/184 418/262/184 422/263/184 423/264/184
f 417/265/185 420/266/185 424/267/185 421/268/185
f 418/262/186 417/265/186 421/268/186 422/263/186
f 440/269/187 439/270/187 432/271/187 429/272/187
f 423/264/188 422/263/188 426/273/188 427/274/188
f 421/268/189 424/267/189 428/275/189 425/276/189
f 422/263/190 421/268/190 425/276/190 426/273/190
f 429/272/191 432/271/191 436/277/191 433/278/191
f 441/279/192 440/269/192 429/272/192 430/280/192
f 442/281/193 441/279/193 430/280/193 431/282/193
f 434/283/194 433/278/194 437/284/194
f 430/280/195 429/272/195 433/278/195 434/283/195
f 431/282/196 430/280/196 434/283/196 435/285/196
f 437/284/197 433/278/197 436/277/197 438/286/197
f 435/285/198 434/283/198 437/284/198 438/287/198
f 427/274/199 426/273/199 441/279/199 442/281/199
f 426/273/200 425/276/200 440/269/200 441/279/200
f 425/276/201 428/275/201 439/270/201 440/269/201
f 446/288/202 445/289/202 451/290/202 454/291/202
f 445/289/5 446/288/5 450/292/5 449/293/5
f 447/294/2 448/295/2 444/296/2 443/297/2
f 445/298/7 449/299/7 447/300/7 443/301/7
f 450/302/3 446/303/3 444/304/3 448/305/3
f 452/306/1 453/307/1 454/291/1 451/290/1
f 443/297/203 444/296/203 453/307/203 452/306/203
f 444/304/3 446/303/3 454/308/3 453/309/3
f 445/298/7 443/301/7 452/310/7 451/311/7
f 458/288/202 457/289/202 463/290/202 466/291/202
f 457/289/5 458/288/5 462/292/5 461/293/5
f 459/294/2 460/295/2 456/296/2 455/297/2
f 457/298/7 461/299/7 459/300/7 455/301/7
f 462/302/3 458/303/3 456/304/3 460/305/3
f 464/306/1 465/307/1 466/291/1 463/290/1
f 455/297/203 456/296/203 465/307/203 464/306/203
f 456/304/3 458/303/3 466/308/3 465/309/3
f 457/298/7 455/301/7 464/310/7 463/311/7
f 470/288/204 469/289/204 475/290/204 478/291/204
f 469/289/2 470/288/2 474/292/2 473/293/2
f 471/294/5 472/295/5 468/296/5 467/297/5
f 469/298/3 473/299/3 471/300/3 467/301/3
f 474/302/7 470/303/7 468/304/7 472/305/7
f 476/306/1 477/307/1 478/291/1 475/290/1
f 467/297/205 468/296/205 477/307/205 476/306/205
f 468/304/7 470/303/7 478/308/7 477/309/7
f 469/298/3 467/301/3 476/310/3 475/311/3
f 482/288/204 481/289/204 487/290/204 490/291/204
f 481/289/2 482/288/2 486/292/2 485/293/2
f 483/294/5 484/295/5 480/296/5 479/297/5
f 481/298/3 485/299/3 483/300/3 479/301/3
f 486/302/7 482/303/7 480/304/7 484/305/7
f 488/306/1 489/307/1 490/291/1 487/290/1
f 479/297/205 480/296/205 489/307/205 488/306/205
f 480/304/7 482/303/7 490/308/7 489/309/7
f 481/298/3 479/301/3 488/310/3 487/311/3
f 491/312/1 504/313/1 505/314/1 492/315/1
f 495/316/206 515/317/206 514/318/206 494/319/206
f 498/320/207 497/321/207 520/322/207 521/323/207
f 501/324/208 502/325/208 512/326/208 517/327/208
f 492/315/209 510/328/209 511/329/209 491/312/209
f 502/325/210 500/330/210 519/331/210 512/326/210
f 510/332/1 512/333/1 517/334/1 511/335/1
f 494/319/4 507/336/4 508/337/4 495/316/4
f 495/316/211 508/337/211 509/338/211 496/339/211
f 496/339/212 509/338/212 504/340/212 491/341/212
f 493/342/213 506/343/213 507/336/213 494/319/213
f 504/313/214 523/344/214 522/345/214 505/314/214
f 505/314/215 506/343/215 524/346/215 522/345/215
f 506/343/216 524/346/216 525/347/216 507/336/216
f 507/336/217 525/347/217 526/348/217 508/337/217
f 508/337/218 526/348/218 527/349/218 509/338/218
f 509/338/219 527/349/219 523/350/219 504/340/219
f 492/315/220 505/314/220 506/343/220 493/342/220
f 494/319/221 514/318/221 513/351/221 493/342/221
f 513/352/220 519/353/220 512/333/220 510/332/220
f 516/354/211 520/355/211 521/356/211 515/357/211
f 515/357/4 521/356/4 518/358/4 514/359/4
f 511/360/212 517/361/212 520/355/212 516/354/212
f 514/359/213 518/358/213 519/353/213 513/352/213
f 499/362/222 498/320/222 521/323/222 518/363/222
f 496/339/223 516/364/223 515/317/223 495/316/223
f 493/342/224 513/351/224 510/328/224 492/315/224
f 500/330/225 499/362/225 518/363/225 519/331/225
f 491/341/226 511/365/226 516/364/226 496/339/226
f 497/321/227 501/324/227 517/327/227 520/322/227
f 503/366/3 522/367/3 523/368/3
f 503/366/3 524/369/3 522/367/3
f 503/366/3 525/370/3 524/369/3
f 503/366/3 526/371/3 525/370/3
f 503/366/3 527/372/3 526/371/3
f 503/366/3 523/368/3 527/372/3
f 530/373/3 531/374/3 566/375/3 562/376/3
f 533/377/3 530/373/3 562/376/3 565/378/3
f 532/379/3 533/377/3 565/378/3 561/380/3
f 528/381/3 529/382/3 564/383/3 563/384/3
f 529/382/3 532/379/3 561/380/3 564/383/3
f 531/374/3 528/381/3 563/384/3 566/375/3
f 501/324/213 497/321/213 532/385/213 529/386/213
f 498/320/1 499/362/1 530/387/1 533/388/1
f 500/330/211 502/325/211 528/389/211 531/390/211
f 497/321/220 498/320/220 533/388/220 532/385/220
f 499/362/212 500/330/212 531/390/212 530/387/212
f 502/325/4 501/324/4 529/386/4 528/389/4
f 563/391/4 564/392/4 535/393/4 534/394/4
f 562/395/212 566/396/212 539/397/212 538/398/212
f 561/399/220 565/400/220 537/401/220 536/402/220
f 566/396/211 563/391/211 534/394/211 539/397/211
f 565/400/1 562/403/1 538/404/1 537/401/1
f 564/405/213 561/399/213 536/402/213 535/406/213
f 540/407/3 534/408/3 535/409/3
f 540/407/3 535/409/3 536/410/3
f 540/407/3 536/410/3 537/411/3
f 540/407/3 537/411/3 538/412/3
f 540/407/3 538/412/3 539/413/3
f 540/407/3 539/413/3 534/408/3
f 541/414/4 542/415/4 549/416/4 548/417/4
f 545/418/228 544/419/228 554/420/228
f 542/421/229 541/422/229 554/420/229
f 544/423/1 545/424/1 552/425/1 551/426/1
f 545/424/220 546/427/220 553/428/220 552/425/220
f 546/427/213 541/429/213 548/430/213 553/428/213
f 543/431/212 544/423/212 551/426/212 550/432/212
f 548/417/230 549/416/230 555/433/230 556/434/230
f 549/416/215 550/432/215 557/435/215 555/433/215
f 550/432/231 551/426/231 558/436/231 557/435/231
f 551/426/232 552/425/232 559/437/232 558/436/232
f 552/425/233 553/428/233 560/438/233 559/437/233
f 553/428/234 548/430/234 556/439/234 560/438/234
f 542/415/211 543/431/211 550/432/211 549/416/211
f 544/419/235 543/440/235 554/420/235
f 546/441/236 545/418/236 554/420/236
f 543/440/237 542/421/237 554/420/237
f 541/422/238 546/441/238 554/420/238
f 547/442/7 556/443/7 555/444/7
f 547/442/7 555/444/7 557/445/7
f 547/442/7 557/445/7 558/446/7
f 547/442/7 558/446/7 559/447/7
f 547/442/7 559/447/7 560/448/7
f 547/442/7 560/448/7 556/443/7
f 566/449/212 562/450/212 569/451/212 572/452/212
f 562/450/1 565/453/1 570/454/1 569/451/1
f 565/453/220 561/455/220 567/456/220 570/454/220
f 564/457/4 563/458/4 571/459/4 568/460/4
f 561/455/213 564/457/213 568/460/213 567/456/213
f 563/458/211 566/449/211 572/452/211 571/459/211
f 573/461/7 567/462/7 568/463/7
f 573/461/7 569/464/7 570/465/7
f 573/461/7 571/466/7 572/467/7
f 573/461/7 570/465/7 567/462/7
f 573/461/7 572/467/7 569/464/7
f 573/461/7 568/463/7 571/466/7
s 1
f 592/468/5 595/469/5 582/470/5 579/471/5
f 595/469/5 597/472/5 581/473/5 582/470/5
f 587/474/239 591/475/240 594/476/240 588/477/239
f 575/478/5 577/479/5 576/480/5 574/481/5
f 589/482/241 598/483/242 596/484/242 590/485/241
f 578/486/2 584/487/243 583/488/244
f 578/486/2 586/489/245 585/490/246
f 588/491/247 594/492/248 598/493/248 589/494/247
f 581/495/249 580/496/250 584/487/243 585/490/246
f 582/497/251 581/495/249 585/490/246 586/489/245
f 580/496/250 579/498/252 583/488/244 584/487/243
f 579/498/252 582/497/251 586/489/245 583/488/244
f 578/486/2 583/488/244 586/489/245
f 578/486/2 585/490/246 584/487/243
f 597/472/5 593/499/5 580/500/5 581/473/5
f 593/499/5 592/468/5 579/471/5 580/500/5
f 576/501/253 590/502/253 587/503/253 574/504/253
f 577/505/241 589/482/241 590/485/241 576/506/241
f 575/507/247 588/491/247 589/494/247 577/508/247
f 574/509/239 587/474/239 588/477/239 575/510/239
f 592/511/254 593/512/254 594/476/240 591/475/240
f 593/513/255 597/514/255 598/493/248 594/492/248
f 597/515/256 595/516/256 596/484/242 598/483/242
f 595/517/257 592/518/257 591/519/258 596/520/258
f 590/502/253 596/520/258 591/519/258 587/503/253
f 617/468/7 620/469/7 607/470/7 604/471/7
f 620/469/7 622/472/7 606/473/7 607/470/7
f 612/521/1 616/475/259 619/476/259 613/522/1
f 600/523/7 602/524/7 601/525/7 599/526/7
f 614/527/260 623/483/261 621/484/261 615/528/262
f 603/486/3 609/487/263 608/488/264
f 603/486/3 611/489/265 610/490/266
f 613/529/5 619/492/267 623/493/267 614/530/5
f 606/495/268 605/496/269 609/487/263 610/490/266
f 607/497/270 606/495/268 610/490/266 611/489/265
f 605/496/269 604/498/271 608/488/264 609/487/263
f 604/498/271 607/497/270 611/489/265 608/488/264
f 603/486/3 608/488/264 611/489/265
f 603/486/3 610/490/266 609/487/263
f 622/472/7 618/499/7 605/500/7 606/473/7
f 618/499/7 617/468/7 604/471/7 605/500/7
f 601/501/2 615/531/2 612/532/2 599/504/2
f 615/533/262 601/534/272 626/535/272 627/536/262
f 600/507/5 613/529/5 614/530/5 602/508/5
f 599/509/1 612/521/1 613/522/1 600/510/1
f 617/511/273 618/512/273 619/476/259 616/475/259
f 618/513/274 622/514/274 623/493/267 619/492/267
f 622/515/8 620/516/8 621/484/261 623/483/261
f 620/517/272 617/518/272 616/519/275 621/520/275
f 615/531/2 621/520/275 616/519/275 612/532/2
f 625/537/4 624/538/260 627/536/262 626/535/4
f 602/539/274 614/540/260 624/538/260 625/537/274
f 614/541/260 615/542/262 627/536/262 624/538/260
f 601/543/272 602/544/274 625/537/274 626/535/272
f 646/468/5 649/469/5 636/470/5 633/471/5
f 649/469/5 651/472/5 635/473/5 636/470/5
f 641/474/276 645/475/277 648/476/277 642/477/276
f 629/545/5 631/546/5 630/547/5 628/548/5
f 643/482/278 652/483/279 650/484/279 644/485/278
f 632/486/2 638/487/280 637/488/281
f 632/486/2 640/489/282 639/490/283
f 642/491/284 648/492/285 652/493/285 643/494/284
f 635/495/286 634/496/287 638/487/280 639/490/283
f 636/497/288 635/495/286 639/490/283 640/489/282
f 634/496/287 633/498/289 637/488/281 638/487/280
f 633/498/289 636/497/288 640/489/282 637/488/281
f 632/486/2 637/488/281 640/489/282
f 632/486/2 639/490/283 638/487/280
f 651/472/5 647/499/5 634/500/5 635/473/5
f 647/499/5 646/468/5 633/471/5 634/500/5
f 630/501/290 644/502/290 641/503/290 628/504/290
f 631/505/278 643/482/278 644/485/278 630/506/278
f 629/507/284 642/491/284 643/494/284 631/508/284
f 628/509/276 641/474/276 642/477/276 629/510/276
f 646/511/291 647/512/291 648/476/277 645/475/277
f 647/513/292 651/514/292 652/493/285 648/492/285
f 651/515/293 649/516/293 650/484/279 652/483/279
f 649/517/294 646/518/294 645/519/295 650/520/296
f 644/502/290 650/520/296 645/519/295 641/503/290
f 671/468/5 674/469/5 661/470/5 658/471/5
f 674/469/5 676/472/5 660/473/5 661/470/5
f 666/474/297 670/475/298 673/476/298 667/477/297
f 654/545/5 656/546/5 655/547/5 653/548/5
f 668/482/299 677/483/300 675/484/300 669/485/299
f 657/486/2 663/487/301 662/488/302
f 657/486/2 665/489/303 664/490/304
f 667/491/305 673/492/306 677/493/306 668/494/305
f 660/495/307 659/496/308 663/487/301 664/490/304
f 661/497/309 660/495/307 664/490/304 665/489/303
f 659/496/308 658/498/310 662/488/302 663/487/301
f 658/498/310 661/497/309 665/489/303 662/488/302
f 657/486/2 662/488/302 665/489/303
f 657/486/2 664/490/304 663/487/301
f 676/472/5 672/499/5 659/500/5 660/473/5
f 672/499/5 671/468/5 658/471/5 659/500/5
f 655/501/311 669/502/311 666/503/311 653/504/311
f 656/505/299 668/482/299 669/485/299 655/506/299
f 654/507/305 667/491/305 668/494/305 656/508/305
f 653/509/297 666/474/297 667/477/297 654/510/297
f 671/511/312 672/512/312 673/476/298 670/475/298
f 672/513/313 676/514/313 677/493/306 673/492/306
f 676/515/314 674/516/314 675/484/300 677/483/300
f 674/517/315 671/518/315 670/519/316 675/520/316
f 669/502/311 675/520/316 670/519/316 666/503/311
f 696/468/317 699/469/317 686/470/317 683/471/317
f 699/469/317 701/472/317 685/473/317 686/470/317
f 691/474/318 695/475/319 698/476/319 692/477/318
f 679/545/317 681/546/317 680/547/317 678/548/317
f 693/482/320 702/483/321 700/484/321 694/485/320
f 682/486/322 688/487/323 687/488/324
f 682/486/322 690/489/325 689/490/326
f 692/491/327 698/492/328 702/493/328 693/494/327
f 685/495/329 684/496/330 688/487/323 689/490/326
f 686/497/331 685/495/329 689/490/326 690/489/325
f 684/496/330 683/498/332 687/488/324 688/487/323
f 683/498/332 686/497/331 690/489/325 687/488/324
f 682/486/322 687/488/324 690/489/325
f 682/486/322 689/490/326 688/487/323
f 701/472/317 697/499/317 684/500/317 685/473/317
f 697/499/317 696/468/317 683/471/317 684/500/317
f 680/501/333 694/502/333 691/503/333 678/504/333
f 681/505/320 693/482/320 694/485/320 680/506/320
f 679/507/327 692/491/327 693/494/327 681/508/327
f 678/509/318 691/474/318 692/477/318 679/510/318
f 696/511/334 697/512/334 698/476/319 695/475/319
f 697/513/335 701/514/335 702/493/328 698/492/328
f 701/515/336 699/516/336 700/484/321 702/483/321
f 699/517/337 696/518/337 695/519/338 700/520/338
f 694/502/333 700/520/338 695/519/338 691/503/333
