# Blender 4.3.2
# www.blender.org
mtllib broken_mana_trapazahedron_crystal.mtl
o broken_mana_trapazahedron_crystal
v -0.080902 0.539738 0.026287
v -0.000000 0.677376 0.000000
v -0.080902 0.507246 -0.026287
v -0.050000 0.539738 -0.068819
v -0.050000 0.507246 0.068819
v -0.000000 0.539738 0.085065
v 0.080902 0.539738 0.026287
v 0.050000 0.507246 0.068819
v 0.080902 0.507246 -0.026287
v 0.050000 0.539738 -0.068819
v -0.000000 0.507246 -0.085065
v -0.000000 0.607433 -0.000000
v -0.331697 -0.066609 -0.107775
v -0.000000 -0.630925 -0.000000
v -0.331697 0.066609 0.107775
v -0.205000 -0.066609 0.282158
v -0.205000 0.066609 -0.282158
v -0.000000 -0.066609 -0.348767
v 0.331697 -0.066609 -0.107775
v 0.205000 0.066609 -0.282158
v 0.331697 0.066609 0.107775
v 0.205000 -0.066609 0.282158
v -0.000000 0.066609 0.348767
v -0.000000 0.630925 0.000000
v -0.080902 -0.539738 -0.026287
v -0.000000 -0.677376 -0.000000
v -0.080902 -0.507246 0.026287
v -0.050000 -0.539738 0.068819
v -0.050000 -0.507246 -0.068819
v -0.000000 -0.539738 -0.085065
v 0.080902 -0.539738 -0.026287
v 0.050000 -0.507246 -0.068819
v 0.080902 -0.507246 0.026287
v 0.050000 -0.539738 0.068819
v -0.000000 -0.507246 0.085065
v -0.000000 -0.607433 0.000000
v -0.165849 -0.348767 -0.053887
v -0.102500 -0.348767 0.141079
v -0.000000 -0.348767 -0.174383
v 0.165848 -0.348767 -0.053887
v 0.102500 -0.348767 0.141079
v -0.165849 0.348767 0.053887
v -0.000000 0.348767 0.174383
v -0.102500 0.348767 -0.141079
v 0.102500 0.348767 -0.141079
v 0.165848 0.348767 0.053887
v -0.082924 -0.489846 -0.026944
v -0.153750 -0.207688 0.211619
v -0.000000 -0.207688 -0.261575
v 0.248773 -0.207688 -0.080831
v 0.153750 -0.207688 0.211619
v -0.082924 0.489846 0.026944
v -0.000000 0.489846 0.087192
v -0.051250 0.489846 -0.070540
v 0.051250 0.489846 -0.070540
v 0.082924 0.489846 0.026944
v -0.248773 -0.207688 -0.080831
v -0.051250 -0.489846 0.070540
v -0.000000 -0.489846 -0.087192
v 0.082924 -0.489846 -0.026944
v 0.051250 -0.489846 0.070540
v -0.248773 0.207688 0.080831
v -0.000000 0.207688 0.261575
v -0.153750 0.207688 -0.211619
v 0.153750 0.207688 -0.211619
v 0.248773 0.207688 0.080831
v -0.165849 -0.066609 -0.228271
v -0.124386 -0.207688 -0.171203
v -0.082924 -0.348767 -0.114135
v -0.041462 -0.489846 -0.057068
v 0.165848 -0.066609 -0.228271
v 0.124386 -0.207688 -0.171203
v 0.082924 -0.348767 -0.114135
v 0.041462 -0.489846 -0.057068
v -0.268348 -0.066609 0.087192
v -0.201261 -0.207688 0.065394
v -0.134174 -0.348767 0.043596
v -0.067087 -0.489846 0.021798
v 0.000000 -0.066609 0.282158
v -0.000000 -0.207688 0.211619
v -0.000000 -0.348767 0.141079
v -0.000000 -0.489846 0.070540
v 0.268348 -0.066609 0.087192
v 0.201261 -0.207688 0.065394
v 0.134174 -0.348767 0.043596
v 0.067087 -0.489846 0.021798
v -0.067087 0.489846 -0.021798
v -0.134174 0.348767 -0.043596
v -0.201261 0.207688 -0.065394
v -0.268348 0.066609 -0.087192
v -0.041462 0.489846 0.057068
v -0.082924 0.348767 0.114135
v -0.124386 0.207688 0.171203
v -0.165849 0.066609 0.228271
v -0.000000 0.489846 -0.070540
v -0.000000 0.348767 -0.141079
v -0.000000 0.207688 -0.211619
v -0.000000 0.066609 -0.282158
v 0.041462 0.489846 0.057068
v 0.082924 0.348767 0.114135
v 0.124386 0.207688 0.171203
v 0.165848 0.066609 0.228271
v 0.067087 0.489846 -0.021798
v 0.134174 0.348767 -0.043596
v 0.201261 0.207688 -0.065394
v 0.268348 0.066609 -0.087192
v -0.179375 -0.137148 0.246888
v -0.000000 -0.137148 -0.305171
v 0.290235 -0.137148 -0.094303
v 0.179375 -0.137148 0.246888
v -0.207311 -0.278227 -0.067359
v -0.076875 -0.419306 0.105809
v -0.000000 -0.419306 -0.130788
v 0.124386 -0.419306 -0.040416
v 0.076875 -0.419306 0.105809
v -0.207311 0.278227 0.067359
v -0.000000 0.278227 0.217979
v -0.128125 0.278227 -0.176349
v 0.128125 0.278227 -0.176349
v 0.207311 0.278227 0.067359
v -0.150011 -0.348767 -0.005146
v 0.041462 0.348767 0.144259
v 0.118337 0.348767 -0.092337
v 0.051250 0.348767 -0.141079
v -0.150011 0.348767 0.005146
v -0.124386 0.348767 0.084011
v -0.051250 -0.348767 0.141079
v 0.150011 -0.348767 -0.005146
v 0.124386 -0.348767 -0.084011
v -0.124386 -0.348767 -0.084011
v -0.124386 -0.419306 -0.040416
v -0.128125 -0.278227 0.176349
v -0.000000 -0.278227 -0.217979
v 0.207311 -0.278227 -0.067359
v 0.128125 -0.278227 0.176349
v -0.124386 0.419306 0.040416
v -0.000000 0.419306 0.130788
v -0.076875 0.419306 -0.105809
v 0.076875 0.419306 -0.105809
v 0.124386 0.419306 0.040416
v -0.290235 -0.137148 -0.094303
v -0.290235 0.137148 0.094303
v -0.000000 0.137148 0.305171
v -0.179375 0.137148 -0.246888
v 0.179375 0.137148 -0.246888
v 0.290235 0.137148 0.094303
v -0.186580 -0.207688 -0.126017
v 0.062193 -0.489846 -0.042006
v 0.225017 -0.207688 -0.007719
v -0.025625 -0.489846 0.070540
v -0.186580 0.207688 0.126017
v -0.075006 0.489846 0.002573
v 0.076875 0.207688 -0.211619
v 0.059169 0.489846 -0.046169
v 0.062193 0.207688 0.216389
v -0.075006 -0.489846 -0.002573
v -0.225017 -0.207688 -0.007719
v 0.020731 0.489846 0.072130
v 0.177506 0.207688 -0.138506
v 0.025625 0.489846 -0.070540
v -0.225017 0.207688 0.007719
v -0.062193 0.489846 0.042006
v -0.076875 -0.207688 0.211619
v 0.075006 -0.489846 -0.002573
v 0.186580 -0.207688 -0.126017
v -0.062193 -0.489846 -0.042006
v -0.300023 0.066609 0.010292
v 0.102500 0.066609 -0.282158
v 0.236674 0.066609 -0.184675
v 0.082924 0.066609 0.288519
v -0.248773 0.066609 0.168023
v -0.300023 -0.066609 -0.010292
v -0.102500 -0.066609 0.282158
v 0.300023 -0.066609 -0.010292
v 0.248773 -0.066609 -0.168023
v -0.248773 -0.066609 -0.168023
v -0.082924 -0.066609 -0.288519
v -0.062193 -0.207688 -0.216389
v -0.041462 -0.348767 -0.144259
v -0.020731 -0.489846 -0.072130
v -0.062193 -0.419306 -0.085602
v -0.103655 -0.278227 -0.142669
v -0.145117 -0.137148 -0.199737
v 0.082924 -0.066609 -0.288519
v 0.062193 -0.207688 -0.216389
v 0.041462 -0.348767 -0.144259
v 0.020731 -0.489846 -0.072130
v 0.062193 -0.419306 -0.085602
v 0.103655 -0.278227 -0.142669
v 0.145117 -0.137148 -0.199737
v -0.236674 -0.066609 0.184675
v -0.177506 -0.207688 0.138506
v -0.118337 -0.348767 0.092337
v -0.059169 -0.489846 0.046169
v -0.100631 -0.419306 0.032697
v -0.167718 -0.278227 0.054495
v -0.234805 -0.137148 0.076293
v 0.102500 -0.066609 0.282158
v 0.076875 -0.207688 0.211619
v 0.051250 -0.348767 0.141079
v 0.025625 -0.489846 0.070540
v -0.000000 -0.419306 0.105809
v -0.000000 -0.278227 0.176349
v -0.000000 -0.137148 0.246888
v 0.236674 -0.066609 0.184675
v 0.177506 -0.207688 0.138506
v 0.118337 -0.348767 0.092337
v 0.059169 -0.489846 0.046169
v 0.100631 -0.419306 0.032697
v 0.167718 -0.278227 0.054495
v 0.234805 -0.137148 0.076293
v -0.059169 0.489846 -0.046169
v -0.118337 0.348767 -0.092337
v -0.177506 0.207688 -0.138506
v -0.236674 0.066609 -0.184675
v -0.234805 0.137148 -0.076293
v -0.167718 0.278227 -0.054495
v -0.100631 0.419306 -0.032697
v -0.020731 0.489846 0.072130
v -0.041462 0.348767 0.144259
v -0.062193 0.207688 0.216389
v -0.082924 0.066609 0.288519
v -0.145117 0.137148 0.199737
v -0.103655 0.278227 0.142669
v -0.062193 0.419306 0.085602
v -0.025625 0.489846 -0.070540
v -0.051250 0.348767 -0.141079
v -0.076875 0.207688 -0.211619
v -0.102500 0.066609 -0.282158
v -0.000000 0.137148 -0.246888
v -0.000000 0.278227 -0.176349
v -0.000000 0.419306 -0.105809
v 0.062193 0.489846 0.042006
v 0.124386 0.348767 0.084011
v 0.186580 0.207688 0.126017
v 0.248773 0.066609 0.168023
v 0.145117 0.137148 0.199737
v 0.103655 0.278227 0.142669
v 0.062193 0.419306 0.085602
v 0.075006 0.489846 0.002573
v 0.150011 0.348767 0.005146
v 0.225017 0.207688 0.007719
v 0.300023 0.066609 0.010292
v 0.234805 0.137148 -0.076293
v 0.167718 0.278227 -0.054495
v 0.100631 0.419306 -0.032697
v 0.112509 0.419306 0.003859
v 0.187514 0.278227 0.006432
v 0.262520 0.137148 0.009005
v 0.031097 0.419306 0.108195
v 0.051828 0.278227 0.180324
v 0.217676 0.137148 0.147020
v 0.038437 0.419306 -0.105809
v 0.064062 0.278227 -0.176349
v -0.089688 0.137148 -0.246888
v -0.093290 0.419306 0.063009
v -0.155483 0.278227 0.105014
v -0.072559 0.137148 0.252454
v -0.088753 0.419306 -0.069253
v -0.147921 0.278227 -0.115422
v -0.207090 0.137148 -0.161591
v 0.207090 -0.137148 0.161591
v 0.187514 -0.278227 -0.006432
v 0.112509 -0.419306 -0.003859
v 0.089687 -0.137148 0.246888
v 0.064062 -0.278227 0.176349
v 0.038437 -0.419306 0.105809
v -0.207090 -0.137148 0.161591
v -0.147921 -0.278227 0.115422
v -0.088753 -0.419306 0.069253
v 0.072559 -0.137148 -0.252454
v 0.051828 -0.278227 -0.180324
v 0.031097 -0.419306 -0.108195
v -0.072559 -0.137148 -0.252454
v -0.155483 -0.278227 -0.105014
v -0.093290 -0.419306 -0.063009
v 0.217676 -0.137148 -0.147020
v -0.089688 -0.137148 0.246888
v -0.262520 -0.137148 -0.009005
v 0.207090 0.137148 -0.161591
v -0.262520 0.137148 0.009005
v -0.031097 -0.419306 -0.108195
v 0.155483 -0.278227 -0.105014
v 0.088753 -0.419306 0.069253
v -0.064063 -0.278227 0.176349
v -0.031097 0.419306 0.108195
v -0.187514 0.278227 0.006432
v -0.038438 0.419306 -0.105809
v 0.147921 0.278227 -0.115422
v 0.093290 0.419306 0.063009
v -0.187514 -0.278227 -0.006432
v 0.072559 0.137148 0.252454
v 0.089687 0.137148 -0.246888
v -0.217676 0.137148 0.147020
v 0.262520 -0.137148 -0.009005
v -0.217676 -0.137148 -0.147020
v -0.051828 -0.278227 -0.180324
v 0.093290 -0.419306 -0.063009
v 0.147921 -0.278227 0.115422
v -0.038438 -0.419306 0.105809
v -0.051828 0.278227 0.180324
v -0.112509 0.419306 0.003859
v -0.064063 0.278227 -0.176349
v 0.088753 0.419306 -0.069253
v 0.155483 0.278227 0.105014
v -0.112509 -0.419306 -0.003859
vn -0.5257 0.4472 0.7236
vn 0.5257 0.4472 0.7236
vn 0.8507 0.4472 -0.2764
vn -0.0000 0.4472 -0.8944
vn 0.7670 -0.6378 0.0701
vn -0.1704 -0.6378 0.7511
vn 0.6617 -0.6378 0.3942
vn 0.3037 -0.6378 -0.7078
vn -0.5794 -0.6378 -0.5075
vn 0.5794 -0.6378 -0.5075
vn -0.3037 -0.6378 -0.7078
vn -0.6617 -0.6378 0.3942
vn 0.1704 -0.6378 0.7511
vn -0.7670 -0.6378 0.0701
vn -0.5257 -0.4472 -0.7236
vn 0.5257 -0.4472 -0.7236
vn 0.8507 -0.4472 0.2764
vn -0.0000 -0.4472 0.8944
vn -0.8507 0.4472 -0.2764
vn -0.8507 -0.4472 0.2764
vn 0.7670 0.6378 -0.0701
vn -0.1704 0.6378 -0.7511
vn 0.6617 0.6378 -0.3942
vn 0.3037 0.6378 0.7078
vn -0.5794 0.6378 0.5075
vn 0.5794 0.6378 0.5075
vn -0.3037 0.6378 0.7078
vn -0.6617 0.6378 -0.3942
vn 0.1704 0.6378 -0.7511
vn -0.7670 0.6378 -0.0701
vt 0.375000 0.250000
vt 0.500000 0.250000
vt 0.500000 0.375000
vt 0.375000 0.375000
vt 0.750000 0.437500
vt 0.812500 0.437500
vt 0.875000 0.437500
vt 0.750000 0.500000
vt 0.750000 0.000000
vt 0.875000 0.062500
vt 0.812500 0.062500
vt 0.750000 0.062500
vt 0.875000 0.562500
vt 0.812500 0.562500
vt 0.750000 0.562500
vt 0.875000 0.500000
vt 0.875000 1.000000
vt 0.750000 0.937500
vt 0.812500 0.937500
vt 0.875000 0.937500
vt 0.375000 0.875000
vt 0.500000 0.875000
vt 0.500000 1.000000
vt 0.375000 1.000000
vt 0.812500 0.375000
vt 0.812500 0.312500
vt 0.875000 0.312500
vt 0.875000 0.375000
vt 0.812500 0.750000
vt 0.750000 0.750000
vt 0.750000 0.687500
vt 0.812500 0.687500
vt 0.812500 0.625000
vt 0.750000 0.625000
vt 0.812500 0.250000
vt 0.875000 0.250000
vt 0.687500 0.125000
vt 0.687500 0.187500
vt 0.625000 0.187500
vt 0.625000 0.125000
vt 0.625000 0.437500
vt 0.687500 0.437500
vt 0.937500 0.875000
vt 0.937500 0.812500
vt 1.000000 0.812500
vt 1.000000 0.875000
vt 1.000000 0.562500
vt 0.937500 0.562500
vt 0.812500 0.187500
vt 0.875000 0.187500
vt 0.812500 0.812500
vt 0.750000 0.812500
vt 0.812500 0.875000
vt 0.750000 0.875000
vt 0.812500 0.125000
vt 0.875000 0.125000
vt 0.687500 0.375000
vt 0.750000 0.375000
vt 0.687500 0.250000
vt 0.750000 0.250000
vt 0.750000 0.312500
vt 0.687500 0.312500
vt 0.750000 0.187500
vt 0.750000 0.125000
vt 0.625000 0.062500
vt 0.687500 0.062500
vt 0.937500 0.937500
vt 0.875000 0.875000
vt 0.937500 0.750000
vt 0.875000 0.812500
vt 0.875000 0.750000
vt 0.937500 0.625000
vt 0.937500 0.687500
vt 0.875000 0.687500
vt 0.875000 0.625000
vt 1.000000 0.937500
vt 1.000000 0.625000
vt 1.000000 0.687500
vt 1.000000 0.750000
vt 0.625000 0.312500
vt 0.625000 0.250000
vt 0.625000 0.375000
s 0
usemtl BrokenCrystal
f 5/1/1 6/2/1 2/3/1 1/4/1
f 2/1/2 6/2/2 8/3/2 7/4/2
f 9/1/3 10/2/3 2/3/3 7/4/3
f 2/1/4 10/2/4 11/3/4 4/4/4
f 3/1/5 4/2/5 12/3/5
f 12/1/6 4/2/6 11/3/6
f 3/1/7 12/2/7 1/3/7
f 1/1/8 12/2/8 5/3/8
f 8/1/9 6/2/9 12/3/9
f 12/1/10 6/2/10 5/3/10
f 8/1/11 12/2/11 7/3/11
f 7/1/12 12/2/12 9/3/12
f 11/1/13 10/2/13 12/3/13
f 12/1/14 10/2/14 9/3/14
f 70/5/15 180/6/15 59/7/15 14/8/15
f 20/9/16 19/10/16 175/11/16 71/12/16
f 86/8/17 208/5/17 61/6/17 14/7/17
f 23/9/18 16/10/18 173/11/18 79/12/18
f 91/13/1 219/14/1 53/15/1 24/16/1
f 13/17/19 15/18/19 167/19/19 90/20/19
f 95/13/4 226/14/4 54/15/4 24/16/4
f 19/17/3 20/18/3 169/19/3 106/20/3
f 26/21/20 28/22/20 27/23/20 25/24/20
f 26/24/16 30/21/16 32/22/16 31/23/16
f 33/24/17 34/21/17 26/22/17 31/23/17
f 28/24/18 26/21/18 34/22/18 35/23/18
f 27/21/21 28/22/21 36/23/21
f 36/21/22 28/22/22 35/23/22
f 27/22/23 36/23/23 25/21/23
f 25/21/24 36/22/24 29/23/24
f 32/22/25 30/23/25 36/21/25
f 36/22/26 30/23/26 29/21/26
f 32/22/27 36/23/27 31/21/27
f 31/21/28 36/22/28 33/23/28
f 35/22/29 34/23/29 36/21/29
f 36/21/30 34/22/30 33/23/30
f 99/13/2 233/14/2 56/15/2 24/16/2
f 15/9/20 13/10/20 172/11/20 75/12/20
f 306/25/20 121/26/20 37/27/20 131/28/20
f 305/29/2 120/30/2 46/31/2 234/32/2
f 304/33/3 123/32/3 45/31/3 139/34/3
f 303/29/4 118/30/4 44/31/4 227/32/4
f 302/33/19 125/32/19 42/31/19 136/34/19
f 301/29/1 117/30/1 43/31/1 220/32/1
f 300/25/18 127/26/18 38/27/18 112/28/18
f 299/26/17 135/35/17 41/36/17 207/27/17
f 298/28/16 129/25/16 40/26/16 114/27/16
f 297/35/15 133/36/15 39/27/15 179/26/15
f 296/37/15 147/38/15 57/39/15 141/40/15
f 14/5/16 59/8/16 187/41/16 74/42/16
f 295/40/17 149/37/17 50/38/17 109/39/17
f 14/8/18 61/41/18 201/42/18 82/5/18
f 294/43/1 151/44/1 62/45/1 142/46/1
f 24/16/19 54/47/19 212/48/19 87/13/19
f 293/43/4 153/44/4 65/45/4 145/46/4
f 24/16/3 56/47/3 240/48/3 103/13/3
f 292/43/2 155/44/2 63/45/2 143/46/2
f 14/8/20 58/41/20 194/42/20 78/5/20
f 291/35/20 157/49/20 57/50/20 111/36/20
f 290/33/2 140/34/2 56/15/2 233/14/2
f 289/29/3 159/51/3 65/52/3 119/30/3
f 288/33/4 138/34/4 54/15/4 226/14/4
f 287/29/19 161/51/19 62/52/19 116/30/19
f 286/33/1 137/34/1 53/15/1 219/14/1
f 285/35/18 163/49/18 48/50/18 132/36/18
f 284/6/17 115/25/17 61/28/17 208/7/17
f 283/36/16 165/35/16 50/49/16 134/50/16
f 282/25/15 113/28/15 59/7/15 180/6/15
f 281/53/19 167/19/19 15/18/19 142/54/19
f 18/17/4 17/18/4 229/19/4 98/20/4
f 280/53/3 169/19/3 20/18/3 145/54/3
f 22/17/2 21/18/2 236/19/2 102/20/2
f 16/17/1 23/18/1 222/19/1 94/20/1
f 279/55/20 172/11/20 13/10/20 141/56/20
f 278/55/18 173/11/18 16/10/18 107/56/18
f 21/9/17 22/10/17 205/11/17 83/12/17
f 277/56/16 175/55/16 19/11/16 109/10/16
f 17/9/15 18/10/15 177/11/15 67/12/15
f 276/57/15 181/58/15 70/5/15 166/42/15
f 275/59/15 182/60/15 69/61/15 130/62/15
f 274/55/15 178/49/15 68/63/15 183/64/15
f 13/65/15 17/9/15 67/12/15 176/66/15
f 47/41/15 166/42/15 70/5/15 14/8/15
f 273/58/16 186/57/16 73/62/16 188/61/16
f 272/60/16 185/59/16 72/38/16 189/63/16
f 271/64/16 184/37/16 71/66/16 190/12/16
f 18/66/16 20/65/16 71/9/16 184/12/16
f 60/6/16 14/7/16 74/8/16 148/5/16
f 270/57/20 193/62/20 77/61/20 195/58/20
f 269/59/20 192/38/20 76/63/20 196/60/20
f 268/37/20 191/66/20 75/12/20 197/64/20
f 16/65/20 15/9/20 75/12/20 191/66/20
f 47/7/20 14/8/20 78/5/20 156/6/20
f 267/57/18 200/62/18 81/61/18 202/58/18
f 266/59/18 199/38/18 80/63/18 203/60/18
f 265/37/18 198/66/18 79/12/18 204/64/18
f 22/65/18 23/9/18 79/12/18 198/66/18
f 58/7/18 14/8/18 82/5/18 150/6/18
f 264/42/17 209/57/17 86/58/17 164/5/17
f 263/62/17 210/59/17 85/60/17 128/61/17
f 262/64/17 206/55/17 84/49/17 211/63/17
f 19/66/17 21/65/17 83/9/17 174/12/17
f 60/8/17 164/41/17 86/42/17 14/5/17
f 261/43/19 215/67/19 90/20/19 216/68/19
f 260/69/19 214/44/19 89/70/19 217/71/19
f 259/72/19 213/73/19 88/74/19 218/75/19
f 52/15/19 24/16/19 87/13/19 152/14/19
f 17/76/19 13/17/19 90/20/19 215/67/19
f 258/53/1 221/51/1 93/70/1 223/68/1
f 257/69/1 224/71/1 92/74/1 126/73/1
f 256/72/1 225/75/1 91/13/1 162/48/1
f 52/47/1 162/48/1 91/13/1 24/16/1
f 15/76/1 16/17/1 94/20/1 171/67/1
f 255/53/4 228/51/4 97/70/4 230/68/4
f 254/69/4 231/71/4 96/74/4 124/73/4
f 253/72/4 232/75/4 95/13/4 160/48/4
f 55/47/4 160/48/4 95/13/4 24/16/4
f 20/76/4 18/17/4 98/20/4 168/67/4
f 252/53/2 235/51/2 101/70/2 237/68/2
f 251/69/2 238/71/2 100/74/2 122/73/2
f 250/72/2 239/75/2 99/13/2 158/48/2
f 53/47/2 158/48/2 99/13/2 24/16/2
f 23/76/2 22/17/2 102/20/2 170/67/2
f 249/43/3 243/67/3 106/20/3 244/68/3
f 248/69/3 242/44/3 105/70/3 245/71/3
f 247/72/3 241/73/3 104/74/3 246/75/3
f 55/15/3 24/16/3 103/13/3 154/14/3
f 21/76/3 19/17/3 106/20/3 243/67/3
f 3/1/19 1/2/19 2/3/19 4/4/19
f 26/24/15 25/21/15 29/22/15 30/23/15
f 240/48/3 247/72/3 246/75/3 103/13/3
f 56/47/3 140/77/3 247/72/3 240/48/3
f 140/77/3 46/78/3 241/73/3 247/72/3
f 241/73/3 248/69/3 245/71/3 104/74/3
f 46/78/3 120/79/3 248/69/3 241/73/3
f 120/79/3 66/45/3 242/44/3 248/69/3
f 242/44/3 249/43/3 244/68/3 105/70/3
f 66/45/3 146/46/3 249/43/3 242/44/3
f 146/46/3 21/76/3 243/67/3 249/43/3
f 137/77/2 250/72/2 158/48/2 53/47/2
f 43/78/2 122/73/2 250/72/2 137/77/2
f 122/73/2 100/74/2 239/75/2 250/72/2
f 117/79/2 251/69/2 122/73/2 43/78/2
f 63/45/2 155/44/2 251/69/2 117/79/2
f 155/44/2 101/70/2 238/71/2 251/69/2
f 236/19/2 252/53/2 237/68/2 102/20/2
f 21/18/2 146/54/2 252/53/2 236/19/2
f 146/54/2 66/52/2 235/51/2 252/53/2
f 139/77/4 253/72/4 160/48/4 55/47/4
f 45/78/4 124/73/4 253/72/4 139/77/4
f 124/73/4 96/74/4 232/75/4 253/72/4
f 119/79/4 254/69/4 124/73/4 45/78/4
f 65/45/4 153/44/4 254/69/4 119/79/4
f 153/44/4 97/70/4 231/71/4 254/69/4
f 229/19/4 255/53/4 230/68/4 98/20/4
f 17/18/4 144/54/4 255/53/4 229/19/4
f 144/54/4 64/52/4 228/51/4 255/53/4
f 136/77/1 256/72/1 162/48/1 52/47/1
f 42/78/1 126/73/1 256/72/1 136/77/1
f 126/73/1 92/74/1 225/75/1 256/72/1
f 116/79/1 257/69/1 126/73/1 42/78/1
f 62/45/1 151/44/1 257/69/1 116/79/1
f 151/44/1 93/70/1 224/71/1 257/69/1
f 222/19/1 258/53/1 223/68/1 94/20/1
f 23/18/1 143/54/1 258/53/1 222/19/1
f 143/54/1 63/52/1 221/51/1 258/53/1
f 212/48/19 259/72/19 218/75/19 87/13/19
f 54/47/19 138/77/19 259/72/19 212/48/19
f 138/77/19 44/78/19 213/73/19 259/72/19
f 213/73/19 260/69/19 217/71/19 88/74/19
f 44/78/19 118/79/19 260/69/19 213/73/19
f 118/79/19 64/45/19 214/44/19 260/69/19
f 214/44/19 261/43/19 216/68/19 89/70/19
f 64/45/19 144/46/19 261/43/19 214/44/19
f 144/46/19 17/76/19 215/67/19 261/43/19
f 205/12/17 262/11/17 211/55/17 83/64/17
f 22/11/17 110/10/17 262/56/17 205/55/17
f 110/55/17 51/56/17 206/50/17 262/49/17
f 134/80/17 263/81/17 128/59/17 40/62/17
f 50/81/17 149/39/17 263/38/17 134/59/17
f 149/59/17 84/38/17 210/63/17 263/60/17
f 114/41/17 264/82/17 164/57/17 60/42/17
f 40/82/17 128/80/17 264/62/17 114/57/17
f 128/57/17 85/62/17 209/61/17 264/58/17
f 199/38/18 265/37/18 204/64/18 80/63/18
f 51/39/18 110/40/18 265/37/18 199/38/18
f 110/40/18 22/65/18 198/66/18 265/37/18
f 200/62/18 266/59/18 203/60/18 81/61/18
f 41/80/18 135/81/18 266/59/18 200/62/18
f 135/81/18 51/39/18 199/38/18 266/59/18
f 201/42/18 267/57/18 202/58/18 82/5/18
f 61/41/18 115/82/18 267/57/18 201/42/18
f 115/82/18 41/80/18 200/62/18 267/57/18
f 192/38/20 268/37/20 197/64/20 76/63/20
f 48/39/20 107/40/20 268/37/20 192/38/20
f 107/40/20 16/65/20 191/66/20 268/37/20
f 193/62/20 269/59/20 196/60/20 77/61/20
f 38/80/20 132/81/20 269/59/20 193/62/20
f 132/81/20 48/39/20 192/38/20 269/59/20
f 194/42/20 270/57/20 195/58/20 78/5/20
f 58/41/20 112/82/20 270/57/20 194/42/20
f 112/82/20 38/80/20 193/62/20 270/57/20
f 185/63/16 271/38/16 190/37/16 72/64/16
f 49/38/16 108/39/16 271/40/16 185/37/16
f 108/37/16 18/40/16 184/65/16 271/66/16
f 186/61/16 272/62/16 189/59/16 73/60/16
f 39/62/16 133/80/16 272/81/16 186/59/16
f 133/59/16 49/81/16 185/39/16 272/38/16
f 187/5/16 273/42/16 188/57/16 74/58/16
f 59/42/16 113/41/16 273/82/16 187/57/16
f 113/57/16 39/82/16 186/80/16 273/62/16
f 177/11/15 274/55/15 183/64/15 67/12/15
f 18/10/15 108/56/15 274/55/15 177/11/15
f 108/56/15 49/50/15 178/49/15 274/55/15
f 111/81/15 275/59/15 130/62/15 37/80/15
f 57/39/15 147/38/15 275/59/15 111/81/15
f 147/38/15 68/63/15 182/60/15 275/59/15
f 131/82/15 276/57/15 166/42/15 47/41/15
f 37/80/15 130/62/15 276/57/15 131/82/15
f 130/62/15 69/61/15 181/58/15 276/57/15
f 165/50/16 277/49/16 109/55/16 50/56/16
f 72/49/16 190/63/16 277/64/16 165/55/16
f 190/55/16 71/64/16 175/12/16 277/11/16
f 163/49/18 278/55/18 107/56/18 48/50/18
f 80/63/18 204/64/18 278/55/18 163/49/18
f 204/64/18 79/12/18 173/11/18 278/55/18
f 157/49/20 279/55/20 141/56/20 57/50/20
f 76/63/20 197/64/20 279/55/20 157/49/20
f 197/64/20 75/12/20 172/11/20 279/55/20
f 159/51/3 280/53/3 145/54/3 65/52/3
f 105/70/3 244/68/3 280/53/3 159/51/3
f 244/68/3 106/20/3 169/19/3 280/53/3
f 161/51/19 281/53/19 142/54/19 62/52/19
f 89/70/19 216/68/19 281/53/19 161/51/19
f 216/68/19 90/20/19 167/19/19 281/53/19
f 181/58/15 282/25/15 180/6/15 70/5/15
f 69/61/15 179/26/15 282/25/15 181/58/15
f 179/26/15 39/27/15 113/28/15 282/25/15
f 129/27/16 283/26/16 134/35/16 40/36/16
f 73/26/16 189/61/16 283/60/16 129/35/16
f 189/35/16 72/60/16 165/63/16 283/49/16
f 209/5/17 284/58/17 208/25/17 86/6/17
f 85/58/17 207/61/17 284/26/17 209/25/17
f 207/25/17 41/26/17 115/27/17 284/28/17
f 127/26/18 285/35/18 132/36/18 38/27/18
f 81/61/18 203/60/18 285/35/18 127/26/18
f 203/60/18 80/63/18 163/49/18 285/35/18
f 225/75/1 286/33/1 219/14/1 91/13/1
f 92/74/1 220/32/1 286/33/1 225/75/1
f 220/32/1 43/31/1 137/34/1 286/33/1
f 125/32/19 287/29/19 116/30/19 42/31/19
f 88/74/19 217/71/19 287/29/19 125/32/19
f 217/71/19 89/70/19 161/51/19 287/29/19
f 232/75/4 288/33/4 226/14/4 95/13/4
f 96/74/4 227/32/4 288/33/4 232/75/4
f 227/32/4 44/31/4 138/34/4 288/33/4
f 123/32/3 289/29/3 119/30/3 45/31/3
f 104/74/3 245/71/3 289/29/3 123/32/3
f 245/71/3 105/70/3 159/51/3 289/29/3
f 239/75/2 290/33/2 233/14/2 99/13/2
f 100/74/2 234/32/2 290/33/2 239/75/2
f 234/32/2 46/31/2 140/34/2 290/33/2
f 121/26/20 291/35/20 111/36/20 37/27/20
f 77/61/20 196/60/20 291/35/20 121/26/20
f 196/60/20 76/63/20 157/49/20 291/35/20
f 170/67/2 292/43/2 143/46/2 23/76/2
f 102/20/2 237/68/2 292/43/2 170/67/2
f 237/68/2 101/70/2 155/44/2 292/43/2
f 168/67/4 293/43/4 145/46/4 20/76/4
f 98/20/4 230/68/4 293/43/4 168/67/4
f 230/68/4 97/70/4 153/44/4 293/43/4
f 171/67/1 294/43/1 142/46/1 15/76/1
f 94/20/1 223/68/1 294/43/1 171/67/1
f 223/68/1 93/70/1 151/44/1 294/43/1
f 174/65/17 295/66/17 109/37/17 19/40/17
f 83/66/17 211/12/17 295/64/17 174/37/17
f 211/37/17 84/64/17 149/63/17 295/38/17
f 176/66/15 296/37/15 141/40/15 13/65/15
f 67/12/15 183/64/15 296/37/15 176/66/15
f 183/64/15 68/63/15 147/38/15 296/37/15
f 182/60/15 297/35/15 179/26/15 69/61/15
f 68/63/15 178/49/15 297/35/15 182/60/15
f 178/49/15 49/50/15 133/36/15 297/35/15
f 148/7/16 298/6/16 114/25/16 60/28/16
f 74/6/16 188/5/16 298/58/16 148/25/16
f 188/25/16 73/58/16 129/61/16 298/26/16
f 210/61/17 299/60/17 207/35/17 85/26/17
f 84/60/17 206/63/17 299/49/17 210/35/17
f 206/35/17 51/49/17 135/50/17 299/36/17
f 150/6/18 300/25/18 112/28/18 58/7/18
f 82/5/18 202/58/18 300/25/18 150/6/18
f 202/58/18 81/61/18 127/26/18 300/25/18
f 224/71/1 301/29/1 220/32/1 92/74/1
f 93/70/1 221/51/1 301/29/1 224/71/1
f 221/51/1 63/52/1 117/30/1 301/29/1
f 152/14/19 302/33/19 136/34/19 52/15/19
f 87/13/19 218/75/19 302/33/19 152/14/19
f 218/75/19 88/74/19 125/32/19 302/33/19
f 231/71/4 303/29/4 227/32/4 96/74/4
f 97/70/4 228/51/4 303/29/4 231/71/4
f 228/51/4 64/52/4 118/30/4 303/29/4
f 154/14/3 304/33/3 139/34/3 55/15/3
f 103/13/3 246/75/3 304/33/3 154/14/3
f 246/75/3 104/74/3 123/32/3 304/33/3
f 238/71/2 305/29/2 234/32/2 100/74/2
f 101/70/2 235/51/2 305/29/2 238/71/2
f 235/51/2 66/52/2 120/30/2 305/29/2
f 156/6/20 306/25/20 131/28/20 47/7/20
f 78/5/20 195/58/20 306/25/20 156/6/20
f 195/58/20 77/61/20 121/26/20 306/25/20
