# Blender 4.3.2
# www.blender.org
mtllib broken_mana_trapazahedron_runes.mtl
o broken_mana_trapazahedron_runes
v 0.247851 0.000000 -0.397865
v -0.301802 0.000000 -0.358667
v -0.434375 0.000000 0.176196
v 0.033343 0.000000 0.467563
v 0.454982 0.000000 0.112773
v 0.396562 0.000000 -0.636584
v -0.482883 0.000000 -0.573868
v -0.695000 0.000000 0.281914
v 0.053349 0.000000 0.748100
v 0.727971 0.000000 0.180438
v 0.562267 0.000000 -0.228073
v 0.351417 0.000000 -0.142546
v -0.043160 0.000000 -0.605226
v -0.026975 0.000000 -0.378266
v -0.368088 0.000000 -0.091236
v -0.588941 0.000000 -0.145977
v -0.320825 0.000000 0.515007
v -0.200516 0.000000 0.321879
v 0.244163 0.000000 0.290168
v 0.390660 0.000000 0.464269
vn -0.0000 -1.0000 -0.0000
vt 0.375000 0.000000
vt 0.375000 0.500000
vt 0.000000 0.500000
vt 0.000000 0.187500
vt 0.000000 0.812500
vt 0.375000 1.000000
s 0
usemtl Material
f 10/1/1 20/2/1 19/3/1 5/4/1
f 5/5/1 12/3/1 11/2/1 10/6/1
f 1/4/1 6/1/1 11/2/1 12/3/1
f 1/5/1 14/3/1 13/2/1 6/6/1
f 2/4/1 7/1/1 13/2/1 14/3/1
f 2/5/1 15/3/1 16/2/1 7/6/1
f 8/1/1 16/2/1 15/3/1 3/4/1
f 3/5/1 18/3/1 17/2/1 8/6/1
f 4/4/1 9/1/1 17/2/1 18/3/1
f 4/5/1 19/3/1 20/2/1 9/6/1
