# Blender v2.80 (sub 75) OBJ File: 'horn.blend'
# www.blender.org
mtllib horn_harbinger.mtl
o BRACE_END_Cube.010
v -0.163273 0.009153 0.125000
v -0.098569 0.250634 0.125000
v -0.163273 0.009153 -0.125000
v -0.098569 0.250634 -0.125000
v -0.102903 -0.007023 0.125000
v -0.038198 0.234458 0.125000
v -0.102903 -0.007023 -0.125000
v -0.038198 0.234458 -0.125000
vt 0.000000 0.375000
vt 0.250000 0.375000
vt 0.250000 0.125000
vt 0.000000 0.125000
vt 0.125000 0.375000
vt 0.125000 0.625000
vt 0.062500 0.625000
vt 0.062500 0.375000
vt 0.000000 0.125000
vt 0.250000 0.125000
vt 0.250000 0.375000
vt 0.000000 0.375000
vt 0.250000 0.375000
vt 0.250000 0.625000
vt 0.187500 0.625000
vt 0.187500 0.375000
vt 0.125000 0.625000
vt 0.187500 0.625000
vt 0.187500 0.375000
vt 0.125000 0.375000
vt 0.000000 0.625000
vt 0.000000 0.375000
vt 0.062500 0.375000
vn -0.9659 0.2588 0.0000
vn 0.0000 0.0000 -1.0000
vn 0.9659 -0.2588 0.0000
vn 0.0000 0.0000 1.0000
vn -0.2588 -0.9659 0.0000
vn 0.2588 0.9659 0.0000
usemtl MAIN
s off
f 1/1/1 2/2/1 4/3/1 3/4/1
f 3/5/2 4/6/2 8/7/2 7/8/2
f 7/9/3 8/10/3 6/11/3 5/12/3
f 5/13/4 6/14/4 2/15/4 1/16/4
f 3/17/5 7/18/5 5/19/5 1/20/5
f 8/7/6 4/21/6 2/22/6 6/23/6
o BRACE_START_Cube.009
v 0.102903 -0.007023 0.125000
v 0.038198 0.234458 0.125000
v 0.102903 -0.007023 -0.125000
v 0.038198 0.234458 -0.125000
v 0.163273 0.009153 0.125000
v 0.098569 0.250634 0.125000
v 0.163273 0.009153 -0.125000
v 0.098569 0.250634 -0.125000
vt 0.000000 0.375000
vt 0.250000 0.375000
vt 0.250000 0.125000
vt 0.000000 0.125000
vt 0.125000 0.375000
vt 0.125000 0.625000
vt 0.062500 0.625000
vt 0.062500 0.375000
vt 0.000000 0.125000
vt 0.250000 0.125000
vt 0.250000 0.375000
vt 0.000000 0.375000
vt 0.250000 0.375000
vt 0.250000 0.625000
vt 0.187500 0.625000
vt 0.187500 0.375000
vt 0.125000 0.625000
vt 0.187500 0.625000
vt 0.187500 0.375000
vt 0.125000 0.375000
vt 0.000000 0.625000
vt 0.000000 0.375000
vt 0.062500 0.375000
vn -0.9659 -0.2588 0.0000
vn 0.0000 0.0000 -1.0000
vn 0.9659 0.2588 0.0000
vn 0.0000 0.0000 1.0000
vn 0.2588 -0.9659 0.0000
vn -0.2588 0.9659 0.0000
usemtl MAIN
s off
f 9/24/7 10/25/7 12/26/7 11/27/7
f 11/28/8 12/29/8 16/30/8 15/31/8
f 15/32/9 16/33/9 14/34/9 13/35/9
f 13/36/10 14/37/10 10/38/10 9/39/10
f 11/40/11 15/41/11 13/42/11 9/43/11
f 16/30/12 12/44/12 10/45/12 14/46/12
o HORN_END_Cube.012
v -0.434940 0.050696 0.093750
v -0.370235 0.292177 0.156250
v -0.418764 0.111066 -0.156250
v -0.354059 0.352548 -0.093750
v -0.116912 0.030185 -0.093750
v -0.068383 0.211296 -0.093750
v -0.116912 0.030185 0.093750
v -0.068383 0.211296 0.093750
v -0.434940 0.050696 -0.093750
v -0.354059 0.352548 0.093750
v -0.370235 0.292177 -0.156250
v -0.418764 0.111066 0.156250
v -0.370235 0.292177 -0.093750
v -0.418764 0.111066 -0.093750
v -0.370235 0.292177 0.093750
v -0.418764 0.111066 0.093750
v -0.249494 0.259825 -0.093750
v -0.298023 0.078714 -0.093750
v -0.249494 0.259825 0.093750
v -0.298023 0.078714 0.093750
vt 0.875000 0.687500
vt 0.875000 1.000000
vt 0.937500 1.000000
vt 0.562500 0.562500
vt 0.625000 0.562500
vt 0.562500 0.625000
vt 0.000000 1.000000
vt 0.312500 1.000000
vt 0.312500 0.812500
vt 0.000000 0.812500
vt 0.937500 0.687500
vt 0.937500 1.000000
vt 1.000000 1.000000
vt 0.312500 0.562500
vt 0.375000 0.562500
vt 0.375000 0.625000
vt 0.937500 1.000000
vt 0.875000 0.687500
vt 0.875000 1.000000
vt 0.625000 0.625000
vt 0.625000 0.500000
vt 0.812500 0.500000
vt 0.812500 0.625000
vt 0.000000 1.000000
vt 0.312500 1.000000
vt 0.312500 0.812500
vt 0.000000 0.812500
vt 0.375000 0.375000
vt 0.375000 0.312500
vt 0.562500 0.312500
vt 0.562500 0.375000
vt 0.312500 0.375000
vt 0.000000 0.812500
vt 0.000000 0.625000
vt 0.312500 0.625000
vt 0.312500 0.812500
vt 0.625000 0.375000
vt 0.000000 0.625000
vt 0.312500 0.625000
vt 0.312500 0.812500
vt 0.000000 0.812500
vt 1.000000 1.000000
vt 0.937500 0.687500
vt 0.937500 1.000000
vt 0.375000 0.562500
vt 0.562500 0.562500
vt 0.562500 0.375000
vt 0.375000 0.375000
vt 0.625000 0.625000
vt 0.625000 0.500000
vt 0.812500 0.500000
vt 0.812500 0.625000
vt 0.625000 0.500000
vt 0.625000 0.375000
vt 0.812500 0.375000
vt 0.812500 0.500000
vt 0.625000 0.500000
vt 0.625000 0.375000
vt 0.812500 0.375000
vt 0.812500 0.500000
vn 0.3165 0.6400 -0.7001
vn -0.9659 0.2588 0.0000
vn 0.4432 0.8964 0.0000
vn -0.0460 -0.7125 -0.7001
vn -0.0460 -0.7125 0.7001
vn 0.2588 0.9659 0.0000
vn -0.0644 -0.9979 0.0000
vn 0.1894 -0.0508 0.9806
vn 0.1894 -0.0508 -0.9806
vn 0.3165 0.6400 0.7001
vn -0.2588 -0.9659 0.0000
vn 0.0000 0.0000 -1.0000
vn 0.0000 0.0000 1.0000
usemtl MAIN
s off
f 22/47/13 27/48/13 20/49/13
f 31/50/14 18/51/14 26/52/14
f 22/53/15 20/54/15 26/55/15 24/56/15
f 21/57/16 25/58/16 19/59/16
f 27/60/14 29/61/14 20/62/14
f 17/63/17 23/64/17 28/65/17
f 32/66/18 36/67/18 34/68/18 30/69/18
f 23/70/19 17/71/19 25/72/19 21/73/19
f 30/74/14 25/75/14 17/76/14 32/77/14
f 29/61/14 31/50/14 26/52/14 20/62/14
f 19/78/14 25/75/14 30/74/14
f 19/78/14 30/74/14 29/61/14 27/60/14
f 23/79/20 24/80/20 18/81/20 28/82/20
f 17/76/14 28/83/14 32/77/14
f 32/77/14 28/83/14 18/51/14 31/50/14
f 21/84/21 19/85/21 27/86/21 22/87/21
f 18/88/22 24/89/22 26/90/22
f 35/91/14 33/92/14 34/93/14 36/94/14
f 29/95/23 33/96/23 35/97/23 31/98/23
f 31/99/24 35/100/24 36/101/24 32/102/24
f 30/103/25 34/104/25 33/105/25 29/106/25
o HORN_MID_Cube.007
v 0.125000 0.031250 -0.093750
v -0.125000 0.031250 -0.093750
v -0.125000 0.031250 0.093750
v 0.125000 0.031250 0.093750
v 0.062500 0.218750 -0.093750
v 0.062500 0.218750 0.093750
v -0.062500 0.218750 0.093750
v -0.062500 0.218750 -0.093750
vt 0.375000 0.812500
vt 0.500000 0.812500
vt 0.562500 0.625000
vt 0.312500 0.625000
vt 0.562500 0.625000
vt 0.500000 0.812500
vt 0.375000 0.812500
vt 0.312500 0.625000
vt 0.562500 1.000000
vt 0.312500 1.000000
vt 0.312500 0.812500
vt 0.562500 0.812500
vt 0.500000 1.000000
vt 0.375000 1.000000
vn 0.0000 0.0000 1.0000
vn 0.0000 0.0000 -1.0000
vn 0.0000 -1.0000 0.0000
vn 0.0000 1.0000 0.0000
usemtl MAIN
s off
f 42/107/26 43/108/26 39/109/26 40/110/26
f 38/111/27 44/112/27 41/113/27 37/114/27
f 38/115/28 37/116/28 40/117/28 39/118/28
f 41/113/29 44/112/29 43/119/29 42/120/29
o HORN_START_Cube.008
v 0.402588 0.171437 0.031250
v 0.386411 0.231807 0.031250
v 0.402588 0.171437 -0.031250
v 0.386411 0.231807 -0.031250
v 0.116912 0.030185 -0.093750
v 0.068383 0.211296 -0.093750
v 0.116912 0.030185 0.093750
v 0.068383 0.211296 0.093750
vt 0.562500 0.812500
vt 0.562500 0.625000
vt 0.875000 0.687500
vt 0.875000 0.750000
vt 0.937500 0.625000
vt 0.937500 0.687500
vt 0.875000 0.687500
vt 0.875000 0.625000
vt 0.562500 1.000000
vt 0.875000 0.937500
vt 0.875000 0.875000
vt 0.562500 0.812500
vt 0.875000 0.937500
vt 0.562500 1.000000
vt 0.562500 0.812500
vt 0.875000 0.875000
vt 0.875000 0.750000
vt 0.562500 0.625000
vn 0.1894 0.0508 -0.9806
vn 0.9659 0.2588 0.0000
vn 0.4432 -0.8964 0.0000
vn -0.0644 0.9979 0.0000
vn 0.1894 0.0508 0.9806
usemtl MAIN
s off
f 49/121/30 50/122/30 48/123/30 47/124/30
f 47/125/31 48/126/31 46/127/31 45/128/31
f 49/129/32 47/130/32 45/131/32 51/132/32
f 48/133/33 50/134/33 52/135/33 46/136/33
f 45/137/34 46/127/34 52/138/34 51/132/34
o HORN_EXTRA_INFERNAL_Cube.001
v -0.435705 0.050696 0.093887
v -0.371000 0.292177 0.156387
v -0.419529 0.111066 -0.156113
v -0.354824 0.352548 -0.093613
v -0.435705 0.050696 -0.093613
v -0.354824 0.352548 0.093887
v -0.371000 0.292177 -0.156113
v -0.419529 0.111066 0.156387
v -0.297689 0.324297 -0.093613
v -0.297689 0.324297 0.093887
v -0.310630 0.276001 0.143887
v -0.359159 0.094890 0.143887
v -0.372099 0.046594 0.093887
v -0.372099 0.046594 -0.093613
v -0.359159 0.094890 -0.143613
v -0.310630 0.276001 -0.143613
v -0.387176 0.231807 0.156387
v -0.403353 0.171437 0.156387
v -0.387176 0.231807 -0.156113
v -0.403353 0.171437 -0.156113
v -0.342982 0.155260 0.143887
v -0.326806 0.215631 0.143887
v -0.326806 0.215631 -0.143613
v -0.342982 0.155260 -0.143613
v -0.354824 0.352548 -0.031113
v -0.354824 0.352548 0.031387
v -0.435705 0.050696 0.031387
v -0.435705 0.050696 -0.031113
v -0.297689 0.324297 0.031387
v -0.297689 0.324297 -0.031113
v -0.372099 0.046594 -0.031113
v -0.372099 0.046594 0.031387
v -0.298555 0.394448 -0.062363
v -0.407925 -0.013726 0.062637
v -0.337064 0.250732 -0.211149
v -0.369416 0.129991 0.211424
v -0.369416 0.129991 -0.211149
v -0.407925 -0.013726 -0.062363
v -0.298555 0.394448 0.062637
v -0.337064 0.250732 0.211424
vt 0.125005 0.187506
vt 0.156249 0.250000
vt 0.187499 0.187505
vt 0.125006 0.187506
vt 0.156250 0.250000
vt 0.187500 0.187506
vt 0.250005 0.187506
vt 0.281249 0.250000
vt 0.312499 0.187505
vt 0.062505 0.187506
vt 0.093749 0.250000
vt 0.124999 0.187505
vt 0.187505 0.187506
vt 0.218750 0.250000
vt 0.250000 0.187505
vt 0.062505 0.187506
vt 0.093749 0.250000
vt 0.124999 0.187505
vt 0.187506 0.187506
vt 0.218750 0.250000
vt 0.250000 0.187506
vt 0.125006 0.187506
vt 0.156250 0.250000
vt 0.187500 0.187506
vt 0.250006 0.187506
vt 0.281250 0.250000
vt 0.312500 0.187505
vt 0.125006 0.187506
vt 0.156250 0.250000
vt 0.187500 0.187506
vt 0.187506 0.187506
vt 0.218750 0.250000
vt 0.250000 0.187506
vt 0.062505 0.187506
vt 0.093750 0.250000
vt 0.125000 0.187505
vt 0.000006 0.187506
vt 0.031250 0.250000
vt 0.062500 0.187506
vt 0.187505 0.187506
vt 0.218749 0.250000
vt 0.249999 0.187505
vt 0.000006 0.187506
vt 0.031250 0.250000
vt 0.062500 0.187506
vt 0.125006 0.187506
vt 0.156250 0.250000
vt 0.187500 0.187506
vt 0.250005 0.187506
vt 0.281250 0.250000
vt 0.312500 0.187505
vt 0.125006 0.187506
vt 0.156250 0.250000
vt 0.187500 0.187506
vt 0.062506 0.187506
vt 0.093750 0.250000
vt 0.125000 0.187506
vt 0.187506 0.187506
vt 0.218750 0.250000
vt 0.250000 0.187506
vt 0.062505 0.187506
vt 0.093750 0.250000
vt 0.125000 0.187505
vt 0.062506 0.187506
vt 0.093750 0.250000
vt 0.125000 0.187506
vt 0.250005 0.187506
vt 0.281249 0.250000
vt 0.312499 0.187505
vt 0.125006 0.187506
vt 0.156250 0.250000
vt 0.187500 0.187505
vt 0.187505 0.187506
vt 0.218749 0.250000
vt 0.249999 0.187505
vt 0.187505 0.187506
vt 0.218749 0.250000
vt 0.249999 0.187505
vt 0.187506 0.187506
vt 0.218750 0.250000
vt 0.250000 0.187506
vt 0.062505 0.187506
vt 0.093749 0.250000
vt 0.124999 0.187505
vt 0.000005 0.187506
vt 0.031249 0.250000
vt 0.062499 0.187505
vt 0.062506 0.187506
vt 0.093750 0.250000
vt 0.125000 0.187506
vt 0.125005 0.187506
vt 0.156250 0.250000
vt 0.187500 0.187505
vt 0.000006 0.187506
vt 0.031250 0.250000
vt 0.062500 0.187506
vn -0.1468 -0.8867 -0.4385
vn -0.0288 -0.4463 0.8944
vn -0.0288 -0.4463 -0.8944
vn 0.9299 -0.2492 -0.2707
vn 0.3162 0.8413 -0.4385
vn -0.7578 0.2030 0.6201
vn 0.1982 0.4009 0.8944
vn -0.7578 0.2030 -0.6201
vn 0.1982 0.4009 -0.8944
vn 0.9299 -0.2492 0.2707
vn -0.5972 0.8021 0.0000
vn -0.9183 -0.3960 0.0000
vn 0.3162 0.8413 0.4385
vn 0.9999 0.0123 0.0000
vn -0.1468 -0.8866 0.4385
vn -0.1468 -0.8867 0.4385
vn 0.8598 -0.5107 0.0000
usemtl MAIN
s off
f 55/139/35 89/140/35 67/141/35
f 53/142/36 86/143/36 65/144/36
f 84/145/37 86/146/37 79/147/37
f 67/148/38 89/149/38 76/150/38
f 68/151/39 87/152/39 59/153/39
f 80/154/36 90/155/36 83/156/36
f 69/157/40 92/158/40 54/159/40
f 60/160/40 88/161/40 70/162/40
f 82/163/41 85/164/41 77/165/41
f 59/166/42 87/167/42 71/168/42
f 72/169/42 89/170/42 55/171/42
f 78/172/43 91/173/43 81/174/43
f 73/175/44 88/176/44 64/177/44
f 66/178/37 90/179/37 57/180/37
f 75/181/38 87/182/38 68/183/38
f 58/184/45 91/185/45 78/186/45
f 76/187/39 89/188/39 72/189/39
f 57/190/46 90/191/46 80/192/46
f 71/193/35 87/194/35 75/195/35
f 62/196/41 91/197/41 58/198/41
f 70/199/47 88/200/47 73/201/47
f 61/202/48 85/203/48 82/204/48
f 74/205/49 92/206/49 69/207/49
f 54/208/47 92/209/47 63/210/47
f 77/211/45 85/212/45 56/213/45
f 64/214/50 88/215/50 60/216/50
f 79/217/46 86/218/46 53/219/46
f 63/220/44 92/221/44 74/222/44
f 81/223/48 91/224/48 62/225/48
f 65/226/51 86/227/51 84/228/51
f 56/229/43 85/230/43 61/231/43
f 83/232/51 90/233/51 66/234/51
